G75*
%MOIN*%
%OFA0B0*%
%FSLAX25Y25*%
%IPPOS*%
%LPD*%
%AMOC8*
5,1,8,0,0,1.08239X$1,22.5*
%
%ADD10C,0.01000*%
%ADD11C,0.00800*%
%ADD12C,0.00900*%
%ADD13C,0.00000*%
%ADD14C,0.01200*%
%ADD15C,0.00600*%
%ADD16C,0.00500*%
%ADD17C,0.00300*%
%ADD18C,0.00700*%
%ADD19C,0.01768*%
%ADD20R,0.03150X0.00787*%
D10*
X0005537Y0010800D02*
X0212663Y0010800D01*
X0212787Y0010802D01*
X0212910Y0010808D01*
X0213034Y0010817D01*
X0213156Y0010831D01*
X0213279Y0010848D01*
X0213401Y0010870D01*
X0213522Y0010895D01*
X0213642Y0010924D01*
X0213761Y0010956D01*
X0213880Y0010993D01*
X0213997Y0011033D01*
X0214112Y0011076D01*
X0214227Y0011124D01*
X0214339Y0011175D01*
X0214450Y0011229D01*
X0214560Y0011287D01*
X0214667Y0011348D01*
X0214773Y0011413D01*
X0214876Y0011481D01*
X0214977Y0011552D01*
X0215076Y0011626D01*
X0215173Y0011703D01*
X0215267Y0011784D01*
X0215358Y0011867D01*
X0215447Y0011953D01*
X0215533Y0012042D01*
X0215616Y0012133D01*
X0215697Y0012227D01*
X0215774Y0012324D01*
X0215848Y0012423D01*
X0215919Y0012524D01*
X0215987Y0012627D01*
X0216052Y0012733D01*
X0216113Y0012840D01*
X0216171Y0012950D01*
X0216225Y0013061D01*
X0216276Y0013173D01*
X0216324Y0013288D01*
X0216367Y0013403D01*
X0216407Y0013520D01*
X0216444Y0013639D01*
X0216476Y0013758D01*
X0216505Y0013878D01*
X0216530Y0013999D01*
X0216552Y0014121D01*
X0216569Y0014244D01*
X0216583Y0014366D01*
X0216592Y0014490D01*
X0216598Y0014613D01*
X0216600Y0014737D01*
X0216600Y0020800D01*
X0226600Y0030800D01*
X0226600Y0159800D01*
X0216600Y0169800D01*
X0216600Y0214800D01*
X0210600Y0220800D01*
X0005537Y0220800D01*
X0005413Y0220798D01*
X0005290Y0220792D01*
X0005166Y0220783D01*
X0005044Y0220769D01*
X0004921Y0220752D01*
X0004799Y0220730D01*
X0004678Y0220705D01*
X0004558Y0220676D01*
X0004439Y0220644D01*
X0004320Y0220607D01*
X0004203Y0220567D01*
X0004088Y0220524D01*
X0003973Y0220476D01*
X0003861Y0220425D01*
X0003750Y0220371D01*
X0003640Y0220313D01*
X0003533Y0220252D01*
X0003427Y0220187D01*
X0003324Y0220119D01*
X0003223Y0220048D01*
X0003124Y0219974D01*
X0003027Y0219897D01*
X0002933Y0219816D01*
X0002842Y0219733D01*
X0002753Y0219647D01*
X0002667Y0219558D01*
X0002584Y0219467D01*
X0002503Y0219373D01*
X0002426Y0219276D01*
X0002352Y0219177D01*
X0002281Y0219076D01*
X0002213Y0218973D01*
X0002148Y0218867D01*
X0002087Y0218760D01*
X0002029Y0218650D01*
X0001975Y0218539D01*
X0001924Y0218427D01*
X0001876Y0218312D01*
X0001833Y0218197D01*
X0001793Y0218080D01*
X0001756Y0217961D01*
X0001724Y0217842D01*
X0001695Y0217722D01*
X0001670Y0217601D01*
X0001648Y0217479D01*
X0001631Y0217356D01*
X0001617Y0217234D01*
X0001608Y0217110D01*
X0001602Y0216987D01*
X0001600Y0216863D01*
X0001600Y0014737D01*
X0001602Y0014613D01*
X0001608Y0014490D01*
X0001617Y0014366D01*
X0001631Y0014244D01*
X0001648Y0014121D01*
X0001670Y0013999D01*
X0001695Y0013878D01*
X0001724Y0013758D01*
X0001756Y0013639D01*
X0001793Y0013520D01*
X0001833Y0013403D01*
X0001876Y0013288D01*
X0001924Y0013173D01*
X0001975Y0013061D01*
X0002029Y0012950D01*
X0002087Y0012840D01*
X0002148Y0012733D01*
X0002213Y0012627D01*
X0002281Y0012524D01*
X0002352Y0012423D01*
X0002426Y0012324D01*
X0002503Y0012227D01*
X0002584Y0012133D01*
X0002667Y0012042D01*
X0002753Y0011953D01*
X0002842Y0011867D01*
X0002933Y0011784D01*
X0003027Y0011703D01*
X0003124Y0011626D01*
X0003223Y0011552D01*
X0003324Y0011481D01*
X0003427Y0011413D01*
X0003533Y0011348D01*
X0003640Y0011287D01*
X0003750Y0011229D01*
X0003861Y0011175D01*
X0003973Y0011124D01*
X0004088Y0011076D01*
X0004203Y0011033D01*
X0004320Y0010993D01*
X0004439Y0010956D01*
X0004558Y0010924D01*
X0004678Y0010895D01*
X0004799Y0010870D01*
X0004921Y0010848D01*
X0005044Y0010831D01*
X0005166Y0010817D01*
X0005290Y0010808D01*
X0005413Y0010802D01*
X0005537Y0010800D01*
X0037100Y0040800D02*
X0041100Y0040800D01*
X0035494Y0040800D02*
X0035496Y0040920D01*
X0035502Y0041040D01*
X0035512Y0041159D01*
X0035526Y0041278D01*
X0035544Y0041397D01*
X0035565Y0041515D01*
X0035591Y0041632D01*
X0035621Y0041748D01*
X0035654Y0041863D01*
X0035691Y0041977D01*
X0035732Y0042089D01*
X0035777Y0042201D01*
X0035826Y0042310D01*
X0035878Y0042418D01*
X0035933Y0042525D01*
X0035992Y0042629D01*
X0036055Y0042731D01*
X0036121Y0042831D01*
X0036190Y0042929D01*
X0036262Y0043025D01*
X0036338Y0043118D01*
X0036416Y0043208D01*
X0036498Y0043296D01*
X0036582Y0043381D01*
X0036669Y0043464D01*
X0036759Y0043543D01*
X0036852Y0043619D01*
X0036947Y0043692D01*
X0037044Y0043762D01*
X0037144Y0043829D01*
X0037245Y0043892D01*
X0037349Y0043952D01*
X0037455Y0044009D01*
X0037562Y0044062D01*
X0037672Y0044111D01*
X0037783Y0044157D01*
X0037895Y0044199D01*
X0038009Y0044237D01*
X0038123Y0044271D01*
X0038239Y0044302D01*
X0038356Y0044328D01*
X0038474Y0044351D01*
X0038592Y0044370D01*
X0038711Y0044385D01*
X0038831Y0044396D01*
X0038950Y0044403D01*
X0039070Y0044406D01*
X0039190Y0044405D01*
X0039310Y0044400D01*
X0039429Y0044391D01*
X0039548Y0044378D01*
X0039667Y0044361D01*
X0039785Y0044340D01*
X0039902Y0044316D01*
X0040019Y0044287D01*
X0040134Y0044255D01*
X0040248Y0044218D01*
X0040361Y0044178D01*
X0040473Y0044134D01*
X0040583Y0044087D01*
X0040692Y0044036D01*
X0040798Y0043981D01*
X0040903Y0043923D01*
X0041006Y0043861D01*
X0041107Y0043796D01*
X0041205Y0043728D01*
X0041301Y0043656D01*
X0041395Y0043582D01*
X0041486Y0043504D01*
X0041575Y0043423D01*
X0041660Y0043339D01*
X0041743Y0043253D01*
X0041823Y0043163D01*
X0041901Y0043072D01*
X0041974Y0042977D01*
X0042045Y0042881D01*
X0042113Y0042782D01*
X0042177Y0042680D01*
X0042238Y0042577D01*
X0042295Y0042472D01*
X0042349Y0042365D01*
X0042399Y0042256D01*
X0042446Y0042145D01*
X0042489Y0042033D01*
X0042528Y0041920D01*
X0042563Y0041805D01*
X0042594Y0041690D01*
X0042622Y0041573D01*
X0042646Y0041456D01*
X0042666Y0041337D01*
X0042682Y0041219D01*
X0042694Y0041099D01*
X0042702Y0040980D01*
X0042706Y0040860D01*
X0042706Y0040740D01*
X0042702Y0040620D01*
X0042694Y0040501D01*
X0042682Y0040381D01*
X0042666Y0040263D01*
X0042646Y0040144D01*
X0042622Y0040027D01*
X0042594Y0039910D01*
X0042563Y0039795D01*
X0042528Y0039680D01*
X0042489Y0039567D01*
X0042446Y0039455D01*
X0042399Y0039344D01*
X0042349Y0039235D01*
X0042295Y0039128D01*
X0042238Y0039023D01*
X0042177Y0038920D01*
X0042113Y0038818D01*
X0042045Y0038719D01*
X0041974Y0038623D01*
X0041901Y0038528D01*
X0041823Y0038437D01*
X0041743Y0038347D01*
X0041660Y0038261D01*
X0041575Y0038177D01*
X0041486Y0038096D01*
X0041395Y0038018D01*
X0041301Y0037944D01*
X0041205Y0037872D01*
X0041107Y0037804D01*
X0041006Y0037739D01*
X0040903Y0037677D01*
X0040798Y0037619D01*
X0040692Y0037564D01*
X0040583Y0037513D01*
X0040473Y0037466D01*
X0040361Y0037422D01*
X0040248Y0037382D01*
X0040134Y0037345D01*
X0040019Y0037313D01*
X0039902Y0037284D01*
X0039785Y0037260D01*
X0039667Y0037239D01*
X0039548Y0037222D01*
X0039429Y0037209D01*
X0039310Y0037200D01*
X0039190Y0037195D01*
X0039070Y0037194D01*
X0038950Y0037197D01*
X0038831Y0037204D01*
X0038711Y0037215D01*
X0038592Y0037230D01*
X0038474Y0037249D01*
X0038356Y0037272D01*
X0038239Y0037298D01*
X0038123Y0037329D01*
X0038009Y0037363D01*
X0037895Y0037401D01*
X0037783Y0037443D01*
X0037672Y0037489D01*
X0037562Y0037538D01*
X0037455Y0037591D01*
X0037349Y0037648D01*
X0037245Y0037708D01*
X0037144Y0037771D01*
X0037044Y0037838D01*
X0036947Y0037908D01*
X0036852Y0037981D01*
X0036759Y0038057D01*
X0036669Y0038136D01*
X0036582Y0038219D01*
X0036498Y0038304D01*
X0036416Y0038392D01*
X0036338Y0038482D01*
X0036262Y0038575D01*
X0036190Y0038671D01*
X0036121Y0038769D01*
X0036055Y0038869D01*
X0035992Y0038971D01*
X0035933Y0039075D01*
X0035878Y0039182D01*
X0035826Y0039290D01*
X0035777Y0039399D01*
X0035732Y0039511D01*
X0035691Y0039623D01*
X0035654Y0039737D01*
X0035621Y0039852D01*
X0035591Y0039968D01*
X0035565Y0040085D01*
X0035544Y0040203D01*
X0035526Y0040322D01*
X0035512Y0040441D01*
X0035502Y0040560D01*
X0035496Y0040680D01*
X0035494Y0040800D01*
X0039100Y0038800D02*
X0039100Y0042800D01*
X0035494Y0060800D02*
X0035496Y0060920D01*
X0035502Y0061040D01*
X0035512Y0061159D01*
X0035526Y0061278D01*
X0035544Y0061397D01*
X0035565Y0061515D01*
X0035591Y0061632D01*
X0035621Y0061748D01*
X0035654Y0061863D01*
X0035691Y0061977D01*
X0035732Y0062089D01*
X0035777Y0062201D01*
X0035826Y0062310D01*
X0035878Y0062418D01*
X0035933Y0062525D01*
X0035992Y0062629D01*
X0036055Y0062731D01*
X0036121Y0062831D01*
X0036190Y0062929D01*
X0036262Y0063025D01*
X0036338Y0063118D01*
X0036416Y0063208D01*
X0036498Y0063296D01*
X0036582Y0063381D01*
X0036669Y0063464D01*
X0036759Y0063543D01*
X0036852Y0063619D01*
X0036947Y0063692D01*
X0037044Y0063762D01*
X0037144Y0063829D01*
X0037245Y0063892D01*
X0037349Y0063952D01*
X0037455Y0064009D01*
X0037562Y0064062D01*
X0037672Y0064111D01*
X0037783Y0064157D01*
X0037895Y0064199D01*
X0038009Y0064237D01*
X0038123Y0064271D01*
X0038239Y0064302D01*
X0038356Y0064328D01*
X0038474Y0064351D01*
X0038592Y0064370D01*
X0038711Y0064385D01*
X0038831Y0064396D01*
X0038950Y0064403D01*
X0039070Y0064406D01*
X0039190Y0064405D01*
X0039310Y0064400D01*
X0039429Y0064391D01*
X0039548Y0064378D01*
X0039667Y0064361D01*
X0039785Y0064340D01*
X0039902Y0064316D01*
X0040019Y0064287D01*
X0040134Y0064255D01*
X0040248Y0064218D01*
X0040361Y0064178D01*
X0040473Y0064134D01*
X0040583Y0064087D01*
X0040692Y0064036D01*
X0040798Y0063981D01*
X0040903Y0063923D01*
X0041006Y0063861D01*
X0041107Y0063796D01*
X0041205Y0063728D01*
X0041301Y0063656D01*
X0041395Y0063582D01*
X0041486Y0063504D01*
X0041575Y0063423D01*
X0041660Y0063339D01*
X0041743Y0063253D01*
X0041823Y0063163D01*
X0041901Y0063072D01*
X0041974Y0062977D01*
X0042045Y0062881D01*
X0042113Y0062782D01*
X0042177Y0062680D01*
X0042238Y0062577D01*
X0042295Y0062472D01*
X0042349Y0062365D01*
X0042399Y0062256D01*
X0042446Y0062145D01*
X0042489Y0062033D01*
X0042528Y0061920D01*
X0042563Y0061805D01*
X0042594Y0061690D01*
X0042622Y0061573D01*
X0042646Y0061456D01*
X0042666Y0061337D01*
X0042682Y0061219D01*
X0042694Y0061099D01*
X0042702Y0060980D01*
X0042706Y0060860D01*
X0042706Y0060740D01*
X0042702Y0060620D01*
X0042694Y0060501D01*
X0042682Y0060381D01*
X0042666Y0060263D01*
X0042646Y0060144D01*
X0042622Y0060027D01*
X0042594Y0059910D01*
X0042563Y0059795D01*
X0042528Y0059680D01*
X0042489Y0059567D01*
X0042446Y0059455D01*
X0042399Y0059344D01*
X0042349Y0059235D01*
X0042295Y0059128D01*
X0042238Y0059023D01*
X0042177Y0058920D01*
X0042113Y0058818D01*
X0042045Y0058719D01*
X0041974Y0058623D01*
X0041901Y0058528D01*
X0041823Y0058437D01*
X0041743Y0058347D01*
X0041660Y0058261D01*
X0041575Y0058177D01*
X0041486Y0058096D01*
X0041395Y0058018D01*
X0041301Y0057944D01*
X0041205Y0057872D01*
X0041107Y0057804D01*
X0041006Y0057739D01*
X0040903Y0057677D01*
X0040798Y0057619D01*
X0040692Y0057564D01*
X0040583Y0057513D01*
X0040473Y0057466D01*
X0040361Y0057422D01*
X0040248Y0057382D01*
X0040134Y0057345D01*
X0040019Y0057313D01*
X0039902Y0057284D01*
X0039785Y0057260D01*
X0039667Y0057239D01*
X0039548Y0057222D01*
X0039429Y0057209D01*
X0039310Y0057200D01*
X0039190Y0057195D01*
X0039070Y0057194D01*
X0038950Y0057197D01*
X0038831Y0057204D01*
X0038711Y0057215D01*
X0038592Y0057230D01*
X0038474Y0057249D01*
X0038356Y0057272D01*
X0038239Y0057298D01*
X0038123Y0057329D01*
X0038009Y0057363D01*
X0037895Y0057401D01*
X0037783Y0057443D01*
X0037672Y0057489D01*
X0037562Y0057538D01*
X0037455Y0057591D01*
X0037349Y0057648D01*
X0037245Y0057708D01*
X0037144Y0057771D01*
X0037044Y0057838D01*
X0036947Y0057908D01*
X0036852Y0057981D01*
X0036759Y0058057D01*
X0036669Y0058136D01*
X0036582Y0058219D01*
X0036498Y0058304D01*
X0036416Y0058392D01*
X0036338Y0058482D01*
X0036262Y0058575D01*
X0036190Y0058671D01*
X0036121Y0058769D01*
X0036055Y0058869D01*
X0035992Y0058971D01*
X0035933Y0059075D01*
X0035878Y0059182D01*
X0035826Y0059290D01*
X0035777Y0059399D01*
X0035732Y0059511D01*
X0035691Y0059623D01*
X0035654Y0059737D01*
X0035621Y0059852D01*
X0035591Y0059968D01*
X0035565Y0060085D01*
X0035544Y0060203D01*
X0035526Y0060322D01*
X0035512Y0060441D01*
X0035502Y0060560D01*
X0035496Y0060680D01*
X0035494Y0060800D01*
X0037100Y0060800D02*
X0041100Y0060800D01*
X0091600Y0059300D02*
X0094100Y0061800D01*
X0109100Y0061800D01*
X0111600Y0059300D01*
X0106600Y0052800D02*
X0106600Y0038800D01*
X0096600Y0042800D02*
X0096600Y0052800D01*
X0124100Y0150800D02*
X0149100Y0150800D01*
X0151600Y0153300D01*
X0156600Y0153300D02*
X0159100Y0150800D01*
X0184100Y0150800D01*
X0186600Y0153300D01*
X0124100Y0150800D02*
X0121600Y0153300D01*
D11*
X0124496Y0152388D02*
X0124496Y0154490D01*
X0125197Y0155191D01*
X0126598Y0155191D01*
X0127299Y0154490D01*
X0127299Y0152388D01*
X0128700Y0152388D02*
X0124496Y0152388D01*
X0124496Y0156992D02*
X0128700Y0156992D01*
X0127299Y0158393D01*
X0128700Y0159795D01*
X0124496Y0159795D01*
X0124496Y0161596D02*
X0125898Y0162997D01*
X0124496Y0164398D01*
X0128700Y0164398D01*
X0128700Y0161596D02*
X0124496Y0161596D01*
X0134496Y0162997D02*
X0135898Y0164398D01*
X0138700Y0164398D01*
X0136598Y0164398D02*
X0136598Y0161596D01*
X0135898Y0161596D02*
X0134496Y0162997D01*
X0135898Y0161596D02*
X0138700Y0161596D01*
X0138700Y0159795D02*
X0134496Y0159795D01*
X0134496Y0156992D02*
X0138700Y0159795D01*
X0138700Y0156992D02*
X0134496Y0156992D01*
X0134496Y0155324D02*
X0134496Y0153923D01*
X0134496Y0154623D02*
X0138700Y0154623D01*
X0138700Y0153923D02*
X0138700Y0155324D01*
X0144496Y0155324D02*
X0144496Y0153923D01*
X0144496Y0154623D02*
X0148700Y0154623D01*
X0148700Y0153923D02*
X0148700Y0155324D01*
X0148700Y0156992D02*
X0144496Y0156992D01*
X0148700Y0159795D01*
X0144496Y0159795D01*
X0144496Y0161596D02*
X0144496Y0163698D01*
X0145197Y0164398D01*
X0145898Y0164398D01*
X0146598Y0163698D01*
X0146598Y0161596D01*
X0148700Y0161596D02*
X0144496Y0161596D01*
X0146598Y0163698D02*
X0147299Y0164398D01*
X0147999Y0164398D01*
X0148700Y0163698D01*
X0148700Y0161596D01*
X0159496Y0161596D02*
X0159496Y0163698D01*
X0160197Y0164398D01*
X0160898Y0164398D01*
X0161598Y0163698D01*
X0161598Y0161596D01*
X0163700Y0161596D02*
X0159496Y0161596D01*
X0159496Y0159795D02*
X0163700Y0159795D01*
X0159496Y0156992D01*
X0163700Y0156992D01*
X0163700Y0155324D02*
X0163700Y0153923D01*
X0163700Y0154623D02*
X0159496Y0154623D01*
X0159496Y0153923D02*
X0159496Y0155324D01*
X0163700Y0161596D02*
X0163700Y0163698D01*
X0162999Y0164398D01*
X0162299Y0164398D01*
X0161598Y0163698D01*
X0169496Y0162997D02*
X0170898Y0161596D01*
X0173700Y0161596D01*
X0173700Y0159795D02*
X0169496Y0159795D01*
X0171598Y0161596D02*
X0171598Y0164398D01*
X0170898Y0164398D02*
X0173700Y0164398D01*
X0170898Y0164398D02*
X0169496Y0162997D01*
X0173700Y0159795D02*
X0169496Y0156992D01*
X0173700Y0156992D01*
X0173700Y0155324D02*
X0173700Y0153923D01*
X0173700Y0154623D02*
X0169496Y0154623D01*
X0169496Y0153923D02*
X0169496Y0155324D01*
X0170197Y0147898D02*
X0170898Y0147898D01*
X0171598Y0147198D01*
X0171598Y0145096D01*
X0169496Y0145096D02*
X0169496Y0147198D01*
X0170197Y0147898D01*
X0171598Y0147198D02*
X0172299Y0147898D01*
X0172999Y0147898D01*
X0173700Y0147198D01*
X0173700Y0145096D01*
X0169496Y0145096D01*
X0179496Y0152388D02*
X0179496Y0154490D01*
X0180197Y0155191D01*
X0181598Y0155191D01*
X0182299Y0154490D01*
X0182299Y0152388D01*
X0183700Y0152388D02*
X0179496Y0152388D01*
X0179496Y0156992D02*
X0183700Y0156992D01*
X0182299Y0158393D01*
X0183700Y0159795D01*
X0179496Y0159795D01*
X0179496Y0161596D02*
X0180898Y0162997D01*
X0179496Y0164398D01*
X0183700Y0164398D01*
X0183700Y0161596D02*
X0179496Y0161596D01*
X0194496Y0161596D02*
X0194496Y0163698D01*
X0195197Y0164398D01*
X0195898Y0164398D01*
X0196598Y0163698D01*
X0196598Y0161596D01*
X0198700Y0161596D02*
X0194496Y0161596D01*
X0194496Y0159795D02*
X0198700Y0159795D01*
X0194496Y0156992D01*
X0198700Y0156992D01*
X0198700Y0155191D02*
X0198700Y0152388D01*
X0194496Y0152388D01*
X0194496Y0155191D01*
X0196598Y0153789D02*
X0196598Y0152388D01*
X0198700Y0161596D02*
X0198700Y0163698D01*
X0197999Y0164398D01*
X0197299Y0164398D01*
X0196598Y0163698D01*
X0194100Y0205800D02*
X0191600Y0208300D01*
X0189100Y0205800D01*
X0184100Y0205800D01*
X0181600Y0208300D01*
X0179100Y0205800D01*
X0174100Y0205800D01*
X0171600Y0208300D01*
X0169100Y0205800D01*
X0164100Y0205800D01*
X0161600Y0208300D01*
X0159100Y0205800D01*
X0154100Y0205800D01*
X0151600Y0208300D01*
X0149100Y0205800D01*
X0144100Y0205800D01*
X0141600Y0208300D01*
X0139100Y0205800D01*
X0134100Y0205800D01*
X0131600Y0208300D01*
X0131600Y0213300D01*
X0134100Y0215800D01*
X0139100Y0215800D01*
X0141600Y0213300D01*
X0144100Y0215800D01*
X0149100Y0215800D01*
X0151600Y0213300D01*
X0154100Y0215800D01*
X0159100Y0215800D01*
X0161600Y0213300D01*
X0164100Y0215800D01*
X0169100Y0215800D01*
X0171600Y0213300D01*
X0174100Y0215800D01*
X0179100Y0215800D01*
X0181600Y0213300D01*
X0184100Y0215800D01*
X0189100Y0215800D01*
X0191600Y0213300D01*
X0194100Y0215800D01*
X0199100Y0215800D01*
X0201600Y0213300D01*
X0204100Y0215800D01*
X0209100Y0215800D01*
X0211600Y0213300D01*
X0211600Y0208300D01*
X0209100Y0205800D01*
X0204100Y0205800D01*
X0201600Y0208300D01*
X0199100Y0205800D01*
X0194100Y0205800D01*
X0138700Y0147898D02*
X0135898Y0147898D01*
X0134496Y0146497D01*
X0135898Y0145096D01*
X0138700Y0145096D01*
X0136598Y0145096D02*
X0136598Y0147898D01*
X0154100Y0135300D02*
X0154100Y0131300D01*
X0154100Y0120300D02*
X0154100Y0116300D01*
X0144257Y0112532D02*
X0163943Y0112532D01*
X0163943Y0079068D01*
X0144257Y0079068D01*
X0144257Y0112532D01*
X0129600Y0094800D02*
X0125600Y0094800D01*
X0120100Y0094800D02*
X0116100Y0094800D01*
X0110600Y0094800D02*
X0106600Y0094800D01*
X0101200Y0093591D02*
X0101200Y0091489D01*
X0100499Y0090789D01*
X0099098Y0090789D01*
X0098398Y0091489D01*
X0098398Y0093591D01*
X0098398Y0088420D02*
X0101200Y0088420D01*
X0101200Y0087720D02*
X0101200Y0089121D01*
X0098398Y0088420D02*
X0098398Y0087720D01*
X0096996Y0088420D02*
X0096296Y0088420D01*
X0098398Y0085918D02*
X0098398Y0083816D01*
X0099098Y0083116D01*
X0100499Y0083116D01*
X0101200Y0083816D01*
X0101200Y0085918D01*
X0101901Y0085918D02*
X0098398Y0085918D01*
X0101901Y0085918D02*
X0102601Y0085217D01*
X0102601Y0084517D01*
X0100499Y0081314D02*
X0099098Y0081314D01*
X0098398Y0080614D01*
X0098398Y0079212D01*
X0099098Y0078512D01*
X0100499Y0078512D01*
X0101200Y0079212D01*
X0101200Y0080614D01*
X0100499Y0081314D01*
X0101200Y0076710D02*
X0101200Y0073908D01*
X0096996Y0073908D01*
X0099098Y0072106D02*
X0099098Y0069304D01*
X0099799Y0067502D02*
X0096996Y0067502D01*
X0099799Y0067502D02*
X0101200Y0066101D01*
X0099799Y0064700D01*
X0096996Y0064700D01*
X0097299Y0040210D02*
X0097999Y0040210D01*
X0098700Y0039510D01*
X0098700Y0038108D01*
X0097999Y0037408D01*
X0097299Y0035606D02*
X0094496Y0035606D01*
X0095197Y0037408D02*
X0094496Y0038108D01*
X0094496Y0039510D01*
X0095197Y0040210D01*
X0095898Y0040210D01*
X0096598Y0039510D01*
X0097299Y0040210D01*
X0096598Y0039510D02*
X0096598Y0038809D01*
X0097299Y0035606D02*
X0098700Y0034205D01*
X0097299Y0032804D01*
X0094496Y0032804D01*
X0095197Y0031002D02*
X0095898Y0031002D01*
X0096598Y0030302D01*
X0097299Y0031002D01*
X0097999Y0031002D01*
X0098700Y0030302D01*
X0098700Y0028901D01*
X0097999Y0028200D01*
X0096598Y0029601D02*
X0096598Y0030302D01*
X0095197Y0031002D02*
X0094496Y0030302D01*
X0094496Y0028901D01*
X0095197Y0028200D01*
X0094100Y0025800D02*
X0099100Y0025800D01*
X0101600Y0023300D01*
X0104100Y0025800D01*
X0109100Y0025800D01*
X0111600Y0023300D01*
X0114100Y0025800D01*
X0119100Y0025800D01*
X0121600Y0023300D01*
X0124100Y0025800D01*
X0129100Y0025800D01*
X0131600Y0023300D01*
X0134100Y0025800D01*
X0139100Y0025800D01*
X0141600Y0023300D01*
X0141600Y0018300D01*
X0139100Y0015800D01*
X0134100Y0015800D01*
X0131600Y0018300D01*
X0129100Y0015800D01*
X0124100Y0015800D01*
X0121600Y0018300D01*
X0119100Y0015800D01*
X0114100Y0015800D01*
X0111600Y0018300D01*
X0109100Y0015800D01*
X0104100Y0015800D01*
X0101600Y0018300D01*
X0099100Y0015800D01*
X0094100Y0015800D01*
X0091600Y0018300D01*
X0089100Y0015800D01*
X0084100Y0015800D01*
X0081600Y0018300D01*
X0081600Y0023300D01*
X0084100Y0025800D01*
X0089100Y0025800D01*
X0091600Y0023300D01*
X0094100Y0025800D01*
X0088700Y0028200D02*
X0084496Y0028200D01*
X0084496Y0030302D01*
X0085197Y0031002D01*
X0086598Y0031002D01*
X0087299Y0030302D01*
X0087299Y0028200D01*
X0087299Y0029601D02*
X0088700Y0031002D01*
X0087999Y0032804D02*
X0088700Y0033505D01*
X0088700Y0034906D01*
X0087999Y0035606D01*
X0087299Y0035606D01*
X0086598Y0034906D01*
X0086598Y0033505D01*
X0085898Y0032804D01*
X0085197Y0032804D01*
X0084496Y0033505D01*
X0084496Y0034906D01*
X0085197Y0035606D01*
X0084496Y0037408D02*
X0084496Y0040210D01*
X0084496Y0038809D02*
X0088700Y0038809D01*
X0074100Y0038800D02*
X0074100Y0042800D01*
X0071364Y0050150D02*
X0071364Y0056450D01*
X0069100Y0054284D02*
X0067919Y0051922D01*
X0070281Y0051922D01*
X0069100Y0054284D01*
X0069100Y0053694D02*
X0068313Y0052119D01*
X0069887Y0052119D01*
X0069100Y0053694D01*
X0068814Y0053121D02*
X0069386Y0053121D01*
X0069786Y0052323D02*
X0068414Y0052323D01*
X0066836Y0050150D02*
X0066836Y0056450D01*
X0057200Y0058900D02*
X0054000Y0058900D01*
X0054000Y0056306D01*
X0054000Y0050294D02*
X0054000Y0047700D01*
X0057200Y0047700D01*
X0056600Y0042800D02*
X0056600Y0038800D01*
X0066600Y0029300D02*
X0066600Y0017300D01*
X0036600Y0017300D01*
X0036600Y0029300D01*
X0066600Y0029300D01*
X0104496Y0028200D02*
X0106598Y0028200D01*
X0105898Y0029601D01*
X0105898Y0030302D01*
X0106598Y0031002D01*
X0107999Y0031002D01*
X0108700Y0030302D01*
X0108700Y0028901D01*
X0107999Y0028200D01*
X0104496Y0028200D02*
X0104496Y0031002D01*
X0104496Y0032804D02*
X0107299Y0032804D01*
X0108700Y0034205D01*
X0107299Y0035606D01*
X0104496Y0035606D01*
X0114496Y0035606D02*
X0118700Y0035606D01*
X0114496Y0032804D01*
X0118700Y0032804D01*
X0117999Y0031002D02*
X0116598Y0031002D01*
X0116598Y0029601D01*
X0115197Y0028200D02*
X0117999Y0028200D01*
X0118700Y0028901D01*
X0118700Y0030302D01*
X0117999Y0031002D01*
X0115197Y0031002D02*
X0114496Y0030302D01*
X0114496Y0028901D01*
X0115197Y0028200D01*
X0114496Y0037408D02*
X0114496Y0039510D01*
X0115197Y0040210D01*
X0117999Y0040210D01*
X0118700Y0039510D01*
X0118700Y0037408D01*
X0114496Y0037408D01*
X0124496Y0037408D02*
X0124496Y0039510D01*
X0125197Y0040210D01*
X0127999Y0040210D01*
X0128700Y0039510D01*
X0128700Y0037408D01*
X0124496Y0037408D01*
X0124496Y0035606D02*
X0128700Y0035606D01*
X0124496Y0032804D01*
X0128700Y0032804D01*
X0127999Y0031002D02*
X0126598Y0031002D01*
X0126598Y0029601D01*
X0125197Y0028200D02*
X0127999Y0028200D01*
X0128700Y0028901D01*
X0128700Y0030302D01*
X0127999Y0031002D01*
X0125197Y0031002D02*
X0124496Y0030302D01*
X0124496Y0028901D01*
X0125197Y0028200D01*
X0134496Y0028200D02*
X0137299Y0028200D01*
X0138700Y0029601D01*
X0137299Y0031002D01*
X0134496Y0031002D01*
X0134496Y0032804D02*
X0134496Y0034205D01*
X0134496Y0033505D02*
X0138700Y0033505D01*
X0138700Y0034205D02*
X0138700Y0032804D01*
X0138700Y0035873D02*
X0134496Y0035873D01*
X0138700Y0038676D01*
X0134496Y0038676D01*
X0151600Y0023300D02*
X0154100Y0025800D01*
X0159100Y0025800D01*
X0161600Y0023300D01*
X0164100Y0025800D01*
X0169100Y0025800D01*
X0171600Y0023300D01*
X0174100Y0025800D01*
X0179100Y0025800D01*
X0181600Y0023300D01*
X0184100Y0025800D01*
X0189100Y0025800D01*
X0191600Y0023300D01*
X0194100Y0025800D01*
X0199100Y0025800D01*
X0201600Y0023300D01*
X0204100Y0025800D01*
X0209100Y0025800D01*
X0211600Y0023300D01*
X0211600Y0018300D01*
X0209100Y0015800D01*
X0204100Y0015800D01*
X0201600Y0018300D01*
X0199100Y0015800D01*
X0194100Y0015800D01*
X0191600Y0018300D01*
X0189100Y0015800D01*
X0184100Y0015800D01*
X0181600Y0018300D01*
X0179100Y0015800D01*
X0174100Y0015800D01*
X0171600Y0018300D01*
X0169100Y0015800D01*
X0164100Y0015800D01*
X0161600Y0018300D01*
X0159100Y0015800D01*
X0154100Y0015800D01*
X0151600Y0018300D01*
X0151600Y0023300D01*
X0155898Y0035700D02*
X0154496Y0037101D01*
X0155898Y0038502D01*
X0158700Y0038502D01*
X0157999Y0040304D02*
X0155197Y0040304D01*
X0154496Y0041005D01*
X0154496Y0042406D01*
X0155197Y0043106D01*
X0157999Y0040304D01*
X0158700Y0041005D01*
X0158700Y0042406D01*
X0157999Y0043106D01*
X0155197Y0043106D01*
X0156598Y0038502D02*
X0156598Y0035700D01*
X0155898Y0035700D02*
X0158700Y0035700D01*
X0154100Y0071300D02*
X0154100Y0075300D01*
X0165222Y0076800D02*
X0165224Y0076859D01*
X0165230Y0076917D01*
X0165240Y0076975D01*
X0165253Y0077032D01*
X0165271Y0077088D01*
X0165292Y0077143D01*
X0165316Y0077196D01*
X0165345Y0077247D01*
X0165376Y0077297D01*
X0165411Y0077344D01*
X0165449Y0077389D01*
X0165490Y0077431D01*
X0165533Y0077470D01*
X0165579Y0077507D01*
X0165628Y0077540D01*
X0165678Y0077570D01*
X0165730Y0077596D01*
X0165784Y0077619D01*
X0165840Y0077639D01*
X0165896Y0077654D01*
X0165954Y0077666D01*
X0166012Y0077674D01*
X0166071Y0077678D01*
X0166129Y0077678D01*
X0166188Y0077674D01*
X0166246Y0077666D01*
X0166304Y0077654D01*
X0166360Y0077639D01*
X0166416Y0077619D01*
X0166470Y0077596D01*
X0166522Y0077570D01*
X0166572Y0077540D01*
X0166621Y0077507D01*
X0166667Y0077470D01*
X0166710Y0077431D01*
X0166751Y0077389D01*
X0166789Y0077344D01*
X0166824Y0077297D01*
X0166855Y0077247D01*
X0166884Y0077196D01*
X0166908Y0077143D01*
X0166929Y0077088D01*
X0166947Y0077032D01*
X0166960Y0076975D01*
X0166970Y0076917D01*
X0166976Y0076859D01*
X0166978Y0076800D01*
X0166976Y0076741D01*
X0166970Y0076683D01*
X0166960Y0076625D01*
X0166947Y0076568D01*
X0166929Y0076512D01*
X0166908Y0076457D01*
X0166884Y0076404D01*
X0166855Y0076353D01*
X0166824Y0076303D01*
X0166789Y0076256D01*
X0166751Y0076211D01*
X0166710Y0076169D01*
X0166667Y0076130D01*
X0166621Y0076093D01*
X0166572Y0076060D01*
X0166522Y0076030D01*
X0166470Y0076004D01*
X0166416Y0075981D01*
X0166360Y0075961D01*
X0166304Y0075946D01*
X0166246Y0075934D01*
X0166188Y0075926D01*
X0166129Y0075922D01*
X0166071Y0075922D01*
X0166012Y0075926D01*
X0165954Y0075934D01*
X0165896Y0075946D01*
X0165840Y0075961D01*
X0165784Y0075981D01*
X0165730Y0076004D01*
X0165678Y0076030D01*
X0165628Y0076060D01*
X0165579Y0076093D01*
X0165533Y0076130D01*
X0165490Y0076169D01*
X0165449Y0076211D01*
X0165411Y0076256D01*
X0165376Y0076303D01*
X0165345Y0076353D01*
X0165316Y0076404D01*
X0165292Y0076457D01*
X0165271Y0076512D01*
X0165253Y0076568D01*
X0165240Y0076625D01*
X0165230Y0076683D01*
X0165224Y0076741D01*
X0165222Y0076800D01*
X0115100Y0131300D02*
X0115100Y0135300D01*
X0113100Y0205800D02*
X0108100Y0205800D01*
X0105600Y0208300D01*
X0103100Y0205800D01*
X0098100Y0205800D01*
X0095600Y0208300D01*
X0093100Y0205800D01*
X0088100Y0205800D01*
X0085600Y0208300D01*
X0083100Y0205800D01*
X0078100Y0205800D01*
X0075600Y0208300D01*
X0073100Y0205800D01*
X0068100Y0205800D01*
X0065600Y0208300D01*
X0063100Y0205800D01*
X0058100Y0205800D01*
X0055600Y0208300D01*
X0053100Y0205800D01*
X0048100Y0205800D01*
X0045600Y0208300D01*
X0045600Y0213300D01*
X0048100Y0215800D01*
X0053100Y0215800D01*
X0055600Y0213300D01*
X0058100Y0215800D01*
X0063100Y0215800D01*
X0065600Y0213300D01*
X0068100Y0215800D01*
X0073100Y0215800D01*
X0075600Y0213300D01*
X0078100Y0215800D01*
X0083100Y0215800D01*
X0085600Y0213300D01*
X0088100Y0215800D01*
X0093100Y0215800D01*
X0095600Y0213300D01*
X0098100Y0215800D01*
X0103100Y0215800D01*
X0105600Y0213300D01*
X0108100Y0215800D01*
X0113100Y0215800D01*
X0115600Y0213300D01*
X0118100Y0215800D01*
X0123100Y0215800D01*
X0125600Y0213300D01*
X0125600Y0208300D01*
X0123100Y0205800D01*
X0118100Y0205800D01*
X0115600Y0208300D01*
X0113100Y0205800D01*
D12*
X0111966Y0196230D02*
X0108830Y0196230D01*
X0108046Y0195446D01*
X0108046Y0193878D01*
X0108830Y0193094D01*
X0109614Y0193094D01*
X0110398Y0193878D01*
X0110398Y0196230D01*
X0111966Y0196230D02*
X0112750Y0195446D01*
X0112750Y0193878D01*
X0111966Y0193094D01*
X0111966Y0191073D02*
X0108830Y0191073D01*
X0108046Y0190289D01*
X0108046Y0187937D01*
X0112750Y0187937D01*
X0112750Y0190289D01*
X0111966Y0191073D01*
X0118046Y0190289D02*
X0118046Y0187937D01*
X0122750Y0187937D01*
X0122750Y0190289D01*
X0121966Y0191073D01*
X0118830Y0191073D01*
X0118046Y0190289D01*
X0118830Y0193094D02*
X0118046Y0193878D01*
X0118046Y0195446D01*
X0118830Y0196230D01*
X0119614Y0196230D01*
X0120398Y0195446D01*
X0120398Y0193878D01*
X0119614Y0193094D01*
X0118830Y0193094D01*
X0120398Y0193878D02*
X0121182Y0193094D01*
X0121966Y0193094D01*
X0122750Y0193878D01*
X0122750Y0195446D01*
X0121966Y0196230D01*
X0121182Y0196230D01*
X0120398Y0195446D01*
X0134046Y0196230D02*
X0134046Y0193094D01*
X0134830Y0191073D02*
X0134046Y0190289D01*
X0134046Y0187937D01*
X0138750Y0187937D01*
X0138750Y0190289D01*
X0137966Y0191073D01*
X0134830Y0191073D01*
X0137966Y0193094D02*
X0138750Y0193094D01*
X0137966Y0193094D02*
X0134830Y0196230D01*
X0134046Y0196230D01*
X0144046Y0196230D02*
X0144830Y0194662D01*
X0146398Y0193094D01*
X0146398Y0195446D01*
X0147182Y0196230D01*
X0147966Y0196230D01*
X0148750Y0195446D01*
X0148750Y0193878D01*
X0147966Y0193094D01*
X0146398Y0193094D01*
X0144830Y0191073D02*
X0144046Y0190289D01*
X0144046Y0187937D01*
X0148750Y0187937D01*
X0148750Y0190289D01*
X0147966Y0191073D01*
X0144830Y0191073D01*
X0154046Y0190289D02*
X0154046Y0187937D01*
X0158750Y0187937D01*
X0158750Y0190289D01*
X0157966Y0191073D01*
X0154830Y0191073D01*
X0154046Y0190289D01*
X0154046Y0193094D02*
X0156398Y0193094D01*
X0155614Y0194662D01*
X0155614Y0195446D01*
X0156398Y0196230D01*
X0157966Y0196230D01*
X0158750Y0195446D01*
X0158750Y0193878D01*
X0157966Y0193094D01*
X0154046Y0193094D02*
X0154046Y0196230D01*
X0164046Y0195446D02*
X0166398Y0193094D01*
X0166398Y0196230D01*
X0168750Y0195446D02*
X0164046Y0195446D01*
X0164830Y0191073D02*
X0164046Y0190289D01*
X0164046Y0187937D01*
X0168750Y0187937D01*
X0168750Y0190289D01*
X0167966Y0191073D01*
X0164830Y0191073D01*
X0174046Y0190289D02*
X0174046Y0187937D01*
X0178750Y0187937D01*
X0178750Y0190289D01*
X0177966Y0191073D01*
X0174830Y0191073D01*
X0174046Y0190289D01*
X0174830Y0193094D02*
X0174046Y0193878D01*
X0174046Y0195446D01*
X0174830Y0196230D01*
X0175614Y0196230D01*
X0176398Y0195446D01*
X0177182Y0196230D01*
X0177966Y0196230D01*
X0178750Y0195446D01*
X0178750Y0193878D01*
X0177966Y0193094D01*
X0176398Y0194662D02*
X0176398Y0195446D01*
X0184046Y0195446D02*
X0184046Y0193878D01*
X0184830Y0193094D01*
X0184830Y0191073D02*
X0184046Y0190289D01*
X0184046Y0187937D01*
X0188750Y0187937D01*
X0188750Y0190289D01*
X0187966Y0191073D01*
X0184830Y0191073D01*
X0188750Y0193094D02*
X0185614Y0196230D01*
X0184830Y0196230D01*
X0184046Y0195446D01*
X0188750Y0196230D02*
X0188750Y0193094D01*
X0194046Y0194662D02*
X0195614Y0193094D01*
X0194830Y0191073D02*
X0194046Y0190289D01*
X0194046Y0187937D01*
X0198750Y0187937D01*
X0198750Y0190289D01*
X0197966Y0191073D01*
X0194830Y0191073D01*
X0194046Y0194662D02*
X0198750Y0194662D01*
X0198750Y0193094D02*
X0198750Y0196230D01*
X0204046Y0195446D02*
X0204046Y0193878D01*
X0204830Y0193094D01*
X0207966Y0193094D01*
X0204830Y0196230D01*
X0207966Y0196230D01*
X0208750Y0195446D01*
X0208750Y0193878D01*
X0207966Y0193094D01*
X0207966Y0191073D02*
X0204830Y0191073D01*
X0204046Y0190289D01*
X0204046Y0187937D01*
X0208750Y0187937D01*
X0208750Y0190289D01*
X0207966Y0191073D01*
X0204046Y0195446D02*
X0204830Y0196230D01*
X0102750Y0195446D02*
X0102750Y0193878D01*
X0101966Y0193094D01*
X0098830Y0196230D01*
X0101966Y0196230D01*
X0102750Y0195446D01*
X0101966Y0193094D02*
X0098830Y0193094D01*
X0098046Y0193878D01*
X0098046Y0195446D01*
X0098830Y0196230D01*
X0102750Y0191073D02*
X0102750Y0187937D01*
X0102750Y0189505D02*
X0098046Y0189505D01*
X0099614Y0187937D01*
X0098830Y0185917D02*
X0098046Y0185133D01*
X0098046Y0182781D01*
X0102750Y0182781D01*
X0102750Y0185133D01*
X0101966Y0185917D01*
X0098830Y0185917D01*
X0092750Y0185133D02*
X0092750Y0182781D01*
X0088046Y0182781D01*
X0088046Y0185133D01*
X0088830Y0185917D01*
X0091966Y0185917D01*
X0092750Y0185133D01*
X0092750Y0187937D02*
X0092750Y0191073D01*
X0092750Y0189505D02*
X0088046Y0189505D01*
X0089614Y0187937D01*
X0089614Y0193094D02*
X0088046Y0194662D01*
X0092750Y0194662D01*
X0092750Y0193094D02*
X0092750Y0196230D01*
X0082750Y0196230D02*
X0082750Y0193094D01*
X0079614Y0196230D01*
X0078830Y0196230D01*
X0078046Y0195446D01*
X0078046Y0193878D01*
X0078830Y0193094D01*
X0078046Y0189505D02*
X0082750Y0189505D01*
X0082750Y0187937D02*
X0082750Y0191073D01*
X0079614Y0187937D02*
X0078046Y0189505D01*
X0078830Y0185917D02*
X0078046Y0185133D01*
X0078046Y0182781D01*
X0082750Y0182781D01*
X0082750Y0185133D01*
X0081966Y0185917D01*
X0078830Y0185917D01*
X0072750Y0185133D02*
X0072750Y0182781D01*
X0068046Y0182781D01*
X0068046Y0185133D01*
X0068830Y0185917D01*
X0071966Y0185917D01*
X0072750Y0185133D01*
X0072750Y0187937D02*
X0072750Y0191073D01*
X0072750Y0189505D02*
X0068046Y0189505D01*
X0069614Y0187937D01*
X0068830Y0193094D02*
X0068046Y0193878D01*
X0068046Y0195446D01*
X0068830Y0196230D01*
X0069614Y0196230D01*
X0070398Y0195446D01*
X0071182Y0196230D01*
X0071966Y0196230D01*
X0072750Y0195446D01*
X0072750Y0193878D01*
X0071966Y0193094D01*
X0070398Y0194662D02*
X0070398Y0195446D01*
X0062825Y0195639D02*
X0058121Y0195639D01*
X0062825Y0198775D01*
X0058121Y0198775D01*
X0058121Y0200796D02*
X0058121Y0203148D01*
X0058905Y0203932D01*
X0062041Y0203932D01*
X0062825Y0203148D01*
X0062825Y0200796D01*
X0058121Y0200796D01*
X0052367Y0200896D02*
X0047663Y0200896D01*
X0047663Y0204032D01*
X0050015Y0202464D02*
X0050015Y0200896D01*
X0047663Y0198875D02*
X0047663Y0195739D01*
X0052367Y0195739D01*
X0052367Y0198875D01*
X0050015Y0197307D02*
X0050015Y0195739D01*
X0050015Y0193719D02*
X0050799Y0192935D01*
X0050799Y0190583D01*
X0050799Y0192151D02*
X0052367Y0193719D01*
X0050015Y0193719D02*
X0048447Y0193719D01*
X0047663Y0192935D01*
X0047663Y0190583D01*
X0052367Y0190583D01*
X0052367Y0188562D02*
X0049231Y0188562D01*
X0047663Y0186994D01*
X0049231Y0185426D01*
X0052367Y0185426D01*
X0050015Y0185426D02*
X0050015Y0188562D01*
X0058121Y0191267D02*
X0058905Y0190483D01*
X0062041Y0190483D01*
X0062825Y0191267D01*
X0062825Y0192835D01*
X0062041Y0193619D01*
X0060473Y0193619D01*
X0060473Y0192051D01*
X0058905Y0193619D02*
X0058121Y0192835D01*
X0058121Y0191267D01*
X0168650Y0044042D02*
X0168650Y0040906D01*
X0168650Y0042474D02*
X0163946Y0042474D01*
X0165514Y0040906D01*
X0165514Y0038886D02*
X0163946Y0037318D01*
X0165514Y0035750D01*
X0168650Y0035750D01*
X0166298Y0035750D02*
X0166298Y0038886D01*
X0165514Y0038886D02*
X0168650Y0038886D01*
X0173946Y0037318D02*
X0175514Y0035750D01*
X0178650Y0035750D01*
X0176298Y0035750D02*
X0176298Y0038886D01*
X0175514Y0038886D02*
X0178650Y0038886D01*
X0178650Y0040906D02*
X0175514Y0044042D01*
X0174730Y0044042D01*
X0173946Y0043258D01*
X0173946Y0041690D01*
X0174730Y0040906D01*
X0175514Y0038886D02*
X0173946Y0037318D01*
X0178650Y0040906D02*
X0178650Y0044042D01*
X0183946Y0043258D02*
X0184730Y0044042D01*
X0185514Y0044042D01*
X0186298Y0043258D01*
X0187082Y0044042D01*
X0187866Y0044042D01*
X0188650Y0043258D01*
X0188650Y0041690D01*
X0187866Y0040906D01*
X0188650Y0038886D02*
X0185514Y0038886D01*
X0183946Y0037318D01*
X0185514Y0035750D01*
X0188650Y0035750D01*
X0186298Y0035750D02*
X0186298Y0038886D01*
X0184730Y0040906D02*
X0183946Y0041690D01*
X0183946Y0043258D01*
X0186298Y0043258D02*
X0186298Y0042474D01*
X0193946Y0043258D02*
X0196298Y0040906D01*
X0196298Y0044042D01*
X0198650Y0043258D02*
X0193946Y0043258D01*
X0195514Y0038886D02*
X0193946Y0037318D01*
X0195514Y0035750D01*
X0198650Y0035750D01*
X0196298Y0035750D02*
X0196298Y0038886D01*
X0195514Y0038886D02*
X0198650Y0038886D01*
X0203946Y0037318D02*
X0205514Y0038886D01*
X0208650Y0038886D01*
X0207866Y0040906D02*
X0208650Y0041690D01*
X0208650Y0043258D01*
X0207866Y0044042D01*
X0206298Y0044042D01*
X0205514Y0043258D01*
X0205514Y0042474D01*
X0206298Y0040906D01*
X0203946Y0040906D01*
X0203946Y0044042D01*
X0206298Y0038886D02*
X0206298Y0035750D01*
X0205514Y0035750D02*
X0203946Y0037318D01*
X0205514Y0035750D02*
X0208650Y0035750D01*
D13*
X0210301Y0040800D02*
X0210303Y0040958D01*
X0210309Y0041116D01*
X0210319Y0041274D01*
X0210333Y0041432D01*
X0210351Y0041589D01*
X0210372Y0041746D01*
X0210398Y0041902D01*
X0210428Y0042058D01*
X0210461Y0042213D01*
X0210499Y0042366D01*
X0210540Y0042519D01*
X0210585Y0042671D01*
X0210634Y0042822D01*
X0210687Y0042971D01*
X0210743Y0043119D01*
X0210803Y0043265D01*
X0210867Y0043410D01*
X0210935Y0043553D01*
X0211006Y0043695D01*
X0211080Y0043835D01*
X0211158Y0043972D01*
X0211240Y0044108D01*
X0211324Y0044242D01*
X0211413Y0044373D01*
X0211504Y0044502D01*
X0211599Y0044629D01*
X0211696Y0044754D01*
X0211797Y0044876D01*
X0211901Y0044995D01*
X0212008Y0045112D01*
X0212118Y0045226D01*
X0212231Y0045337D01*
X0212346Y0045446D01*
X0212464Y0045551D01*
X0212585Y0045653D01*
X0212708Y0045753D01*
X0212834Y0045849D01*
X0212962Y0045942D01*
X0213092Y0046032D01*
X0213225Y0046118D01*
X0213360Y0046202D01*
X0213496Y0046281D01*
X0213635Y0046358D01*
X0213776Y0046430D01*
X0213918Y0046500D01*
X0214062Y0046565D01*
X0214208Y0046627D01*
X0214355Y0046685D01*
X0214504Y0046740D01*
X0214654Y0046791D01*
X0214805Y0046838D01*
X0214957Y0046881D01*
X0215110Y0046920D01*
X0215265Y0046956D01*
X0215420Y0046987D01*
X0215576Y0047015D01*
X0215732Y0047039D01*
X0215889Y0047059D01*
X0216047Y0047075D01*
X0216204Y0047087D01*
X0216363Y0047095D01*
X0216521Y0047099D01*
X0216679Y0047099D01*
X0216837Y0047095D01*
X0216996Y0047087D01*
X0217153Y0047075D01*
X0217311Y0047059D01*
X0217468Y0047039D01*
X0217624Y0047015D01*
X0217780Y0046987D01*
X0217935Y0046956D01*
X0218090Y0046920D01*
X0218243Y0046881D01*
X0218395Y0046838D01*
X0218546Y0046791D01*
X0218696Y0046740D01*
X0218845Y0046685D01*
X0218992Y0046627D01*
X0219138Y0046565D01*
X0219282Y0046500D01*
X0219424Y0046430D01*
X0219565Y0046358D01*
X0219704Y0046281D01*
X0219840Y0046202D01*
X0219975Y0046118D01*
X0220108Y0046032D01*
X0220238Y0045942D01*
X0220366Y0045849D01*
X0220492Y0045753D01*
X0220615Y0045653D01*
X0220736Y0045551D01*
X0220854Y0045446D01*
X0220969Y0045337D01*
X0221082Y0045226D01*
X0221192Y0045112D01*
X0221299Y0044995D01*
X0221403Y0044876D01*
X0221504Y0044754D01*
X0221601Y0044629D01*
X0221696Y0044502D01*
X0221787Y0044373D01*
X0221876Y0044242D01*
X0221960Y0044108D01*
X0222042Y0043972D01*
X0222120Y0043835D01*
X0222194Y0043695D01*
X0222265Y0043553D01*
X0222333Y0043410D01*
X0222397Y0043265D01*
X0222457Y0043119D01*
X0222513Y0042971D01*
X0222566Y0042822D01*
X0222615Y0042671D01*
X0222660Y0042519D01*
X0222701Y0042366D01*
X0222739Y0042213D01*
X0222772Y0042058D01*
X0222802Y0041902D01*
X0222828Y0041746D01*
X0222849Y0041589D01*
X0222867Y0041432D01*
X0222881Y0041274D01*
X0222891Y0041116D01*
X0222897Y0040958D01*
X0222899Y0040800D01*
X0222897Y0040642D01*
X0222891Y0040484D01*
X0222881Y0040326D01*
X0222867Y0040168D01*
X0222849Y0040011D01*
X0222828Y0039854D01*
X0222802Y0039698D01*
X0222772Y0039542D01*
X0222739Y0039387D01*
X0222701Y0039234D01*
X0222660Y0039081D01*
X0222615Y0038929D01*
X0222566Y0038778D01*
X0222513Y0038629D01*
X0222457Y0038481D01*
X0222397Y0038335D01*
X0222333Y0038190D01*
X0222265Y0038047D01*
X0222194Y0037905D01*
X0222120Y0037765D01*
X0222042Y0037628D01*
X0221960Y0037492D01*
X0221876Y0037358D01*
X0221787Y0037227D01*
X0221696Y0037098D01*
X0221601Y0036971D01*
X0221504Y0036846D01*
X0221403Y0036724D01*
X0221299Y0036605D01*
X0221192Y0036488D01*
X0221082Y0036374D01*
X0220969Y0036263D01*
X0220854Y0036154D01*
X0220736Y0036049D01*
X0220615Y0035947D01*
X0220492Y0035847D01*
X0220366Y0035751D01*
X0220238Y0035658D01*
X0220108Y0035568D01*
X0219975Y0035482D01*
X0219840Y0035398D01*
X0219704Y0035319D01*
X0219565Y0035242D01*
X0219424Y0035170D01*
X0219282Y0035100D01*
X0219138Y0035035D01*
X0218992Y0034973D01*
X0218845Y0034915D01*
X0218696Y0034860D01*
X0218546Y0034809D01*
X0218395Y0034762D01*
X0218243Y0034719D01*
X0218090Y0034680D01*
X0217935Y0034644D01*
X0217780Y0034613D01*
X0217624Y0034585D01*
X0217468Y0034561D01*
X0217311Y0034541D01*
X0217153Y0034525D01*
X0216996Y0034513D01*
X0216837Y0034505D01*
X0216679Y0034501D01*
X0216521Y0034501D01*
X0216363Y0034505D01*
X0216204Y0034513D01*
X0216047Y0034525D01*
X0215889Y0034541D01*
X0215732Y0034561D01*
X0215576Y0034585D01*
X0215420Y0034613D01*
X0215265Y0034644D01*
X0215110Y0034680D01*
X0214957Y0034719D01*
X0214805Y0034762D01*
X0214654Y0034809D01*
X0214504Y0034860D01*
X0214355Y0034915D01*
X0214208Y0034973D01*
X0214062Y0035035D01*
X0213918Y0035100D01*
X0213776Y0035170D01*
X0213635Y0035242D01*
X0213496Y0035319D01*
X0213360Y0035398D01*
X0213225Y0035482D01*
X0213092Y0035568D01*
X0212962Y0035658D01*
X0212834Y0035751D01*
X0212708Y0035847D01*
X0212585Y0035947D01*
X0212464Y0036049D01*
X0212346Y0036154D01*
X0212231Y0036263D01*
X0212118Y0036374D01*
X0212008Y0036488D01*
X0211901Y0036605D01*
X0211797Y0036724D01*
X0211696Y0036846D01*
X0211599Y0036971D01*
X0211504Y0037098D01*
X0211413Y0037227D01*
X0211324Y0037358D01*
X0211240Y0037492D01*
X0211158Y0037628D01*
X0211080Y0037765D01*
X0211006Y0037905D01*
X0210935Y0038047D01*
X0210867Y0038190D01*
X0210803Y0038335D01*
X0210743Y0038481D01*
X0210687Y0038629D01*
X0210634Y0038778D01*
X0210585Y0038929D01*
X0210540Y0039081D01*
X0210499Y0039234D01*
X0210461Y0039387D01*
X0210428Y0039542D01*
X0210398Y0039698D01*
X0210372Y0039854D01*
X0210351Y0040011D01*
X0210333Y0040168D01*
X0210319Y0040326D01*
X0210309Y0040484D01*
X0210303Y0040642D01*
X0210301Y0040800D01*
X0210301Y0150800D02*
X0210303Y0150958D01*
X0210309Y0151116D01*
X0210319Y0151274D01*
X0210333Y0151432D01*
X0210351Y0151589D01*
X0210372Y0151746D01*
X0210398Y0151902D01*
X0210428Y0152058D01*
X0210461Y0152213D01*
X0210499Y0152366D01*
X0210540Y0152519D01*
X0210585Y0152671D01*
X0210634Y0152822D01*
X0210687Y0152971D01*
X0210743Y0153119D01*
X0210803Y0153265D01*
X0210867Y0153410D01*
X0210935Y0153553D01*
X0211006Y0153695D01*
X0211080Y0153835D01*
X0211158Y0153972D01*
X0211240Y0154108D01*
X0211324Y0154242D01*
X0211413Y0154373D01*
X0211504Y0154502D01*
X0211599Y0154629D01*
X0211696Y0154754D01*
X0211797Y0154876D01*
X0211901Y0154995D01*
X0212008Y0155112D01*
X0212118Y0155226D01*
X0212231Y0155337D01*
X0212346Y0155446D01*
X0212464Y0155551D01*
X0212585Y0155653D01*
X0212708Y0155753D01*
X0212834Y0155849D01*
X0212962Y0155942D01*
X0213092Y0156032D01*
X0213225Y0156118D01*
X0213360Y0156202D01*
X0213496Y0156281D01*
X0213635Y0156358D01*
X0213776Y0156430D01*
X0213918Y0156500D01*
X0214062Y0156565D01*
X0214208Y0156627D01*
X0214355Y0156685D01*
X0214504Y0156740D01*
X0214654Y0156791D01*
X0214805Y0156838D01*
X0214957Y0156881D01*
X0215110Y0156920D01*
X0215265Y0156956D01*
X0215420Y0156987D01*
X0215576Y0157015D01*
X0215732Y0157039D01*
X0215889Y0157059D01*
X0216047Y0157075D01*
X0216204Y0157087D01*
X0216363Y0157095D01*
X0216521Y0157099D01*
X0216679Y0157099D01*
X0216837Y0157095D01*
X0216996Y0157087D01*
X0217153Y0157075D01*
X0217311Y0157059D01*
X0217468Y0157039D01*
X0217624Y0157015D01*
X0217780Y0156987D01*
X0217935Y0156956D01*
X0218090Y0156920D01*
X0218243Y0156881D01*
X0218395Y0156838D01*
X0218546Y0156791D01*
X0218696Y0156740D01*
X0218845Y0156685D01*
X0218992Y0156627D01*
X0219138Y0156565D01*
X0219282Y0156500D01*
X0219424Y0156430D01*
X0219565Y0156358D01*
X0219704Y0156281D01*
X0219840Y0156202D01*
X0219975Y0156118D01*
X0220108Y0156032D01*
X0220238Y0155942D01*
X0220366Y0155849D01*
X0220492Y0155753D01*
X0220615Y0155653D01*
X0220736Y0155551D01*
X0220854Y0155446D01*
X0220969Y0155337D01*
X0221082Y0155226D01*
X0221192Y0155112D01*
X0221299Y0154995D01*
X0221403Y0154876D01*
X0221504Y0154754D01*
X0221601Y0154629D01*
X0221696Y0154502D01*
X0221787Y0154373D01*
X0221876Y0154242D01*
X0221960Y0154108D01*
X0222042Y0153972D01*
X0222120Y0153835D01*
X0222194Y0153695D01*
X0222265Y0153553D01*
X0222333Y0153410D01*
X0222397Y0153265D01*
X0222457Y0153119D01*
X0222513Y0152971D01*
X0222566Y0152822D01*
X0222615Y0152671D01*
X0222660Y0152519D01*
X0222701Y0152366D01*
X0222739Y0152213D01*
X0222772Y0152058D01*
X0222802Y0151902D01*
X0222828Y0151746D01*
X0222849Y0151589D01*
X0222867Y0151432D01*
X0222881Y0151274D01*
X0222891Y0151116D01*
X0222897Y0150958D01*
X0222899Y0150800D01*
X0222897Y0150642D01*
X0222891Y0150484D01*
X0222881Y0150326D01*
X0222867Y0150168D01*
X0222849Y0150011D01*
X0222828Y0149854D01*
X0222802Y0149698D01*
X0222772Y0149542D01*
X0222739Y0149387D01*
X0222701Y0149234D01*
X0222660Y0149081D01*
X0222615Y0148929D01*
X0222566Y0148778D01*
X0222513Y0148629D01*
X0222457Y0148481D01*
X0222397Y0148335D01*
X0222333Y0148190D01*
X0222265Y0148047D01*
X0222194Y0147905D01*
X0222120Y0147765D01*
X0222042Y0147628D01*
X0221960Y0147492D01*
X0221876Y0147358D01*
X0221787Y0147227D01*
X0221696Y0147098D01*
X0221601Y0146971D01*
X0221504Y0146846D01*
X0221403Y0146724D01*
X0221299Y0146605D01*
X0221192Y0146488D01*
X0221082Y0146374D01*
X0220969Y0146263D01*
X0220854Y0146154D01*
X0220736Y0146049D01*
X0220615Y0145947D01*
X0220492Y0145847D01*
X0220366Y0145751D01*
X0220238Y0145658D01*
X0220108Y0145568D01*
X0219975Y0145482D01*
X0219840Y0145398D01*
X0219704Y0145319D01*
X0219565Y0145242D01*
X0219424Y0145170D01*
X0219282Y0145100D01*
X0219138Y0145035D01*
X0218992Y0144973D01*
X0218845Y0144915D01*
X0218696Y0144860D01*
X0218546Y0144809D01*
X0218395Y0144762D01*
X0218243Y0144719D01*
X0218090Y0144680D01*
X0217935Y0144644D01*
X0217780Y0144613D01*
X0217624Y0144585D01*
X0217468Y0144561D01*
X0217311Y0144541D01*
X0217153Y0144525D01*
X0216996Y0144513D01*
X0216837Y0144505D01*
X0216679Y0144501D01*
X0216521Y0144501D01*
X0216363Y0144505D01*
X0216204Y0144513D01*
X0216047Y0144525D01*
X0215889Y0144541D01*
X0215732Y0144561D01*
X0215576Y0144585D01*
X0215420Y0144613D01*
X0215265Y0144644D01*
X0215110Y0144680D01*
X0214957Y0144719D01*
X0214805Y0144762D01*
X0214654Y0144809D01*
X0214504Y0144860D01*
X0214355Y0144915D01*
X0214208Y0144973D01*
X0214062Y0145035D01*
X0213918Y0145100D01*
X0213776Y0145170D01*
X0213635Y0145242D01*
X0213496Y0145319D01*
X0213360Y0145398D01*
X0213225Y0145482D01*
X0213092Y0145568D01*
X0212962Y0145658D01*
X0212834Y0145751D01*
X0212708Y0145847D01*
X0212585Y0145947D01*
X0212464Y0146049D01*
X0212346Y0146154D01*
X0212231Y0146263D01*
X0212118Y0146374D01*
X0212008Y0146488D01*
X0211901Y0146605D01*
X0211797Y0146724D01*
X0211696Y0146846D01*
X0211599Y0146971D01*
X0211504Y0147098D01*
X0211413Y0147227D01*
X0211324Y0147358D01*
X0211240Y0147492D01*
X0211158Y0147628D01*
X0211080Y0147765D01*
X0211006Y0147905D01*
X0210935Y0148047D01*
X0210867Y0148190D01*
X0210803Y0148335D01*
X0210743Y0148481D01*
X0210687Y0148629D01*
X0210634Y0148778D01*
X0210585Y0148929D01*
X0210540Y0149081D01*
X0210499Y0149234D01*
X0210461Y0149387D01*
X0210428Y0149542D01*
X0210398Y0149698D01*
X0210372Y0149854D01*
X0210351Y0150011D01*
X0210333Y0150168D01*
X0210319Y0150326D01*
X0210309Y0150484D01*
X0210303Y0150642D01*
X0210301Y0150800D01*
X0010301Y0210800D02*
X0010303Y0210958D01*
X0010309Y0211116D01*
X0010319Y0211274D01*
X0010333Y0211432D01*
X0010351Y0211589D01*
X0010372Y0211746D01*
X0010398Y0211902D01*
X0010428Y0212058D01*
X0010461Y0212213D01*
X0010499Y0212366D01*
X0010540Y0212519D01*
X0010585Y0212671D01*
X0010634Y0212822D01*
X0010687Y0212971D01*
X0010743Y0213119D01*
X0010803Y0213265D01*
X0010867Y0213410D01*
X0010935Y0213553D01*
X0011006Y0213695D01*
X0011080Y0213835D01*
X0011158Y0213972D01*
X0011240Y0214108D01*
X0011324Y0214242D01*
X0011413Y0214373D01*
X0011504Y0214502D01*
X0011599Y0214629D01*
X0011696Y0214754D01*
X0011797Y0214876D01*
X0011901Y0214995D01*
X0012008Y0215112D01*
X0012118Y0215226D01*
X0012231Y0215337D01*
X0012346Y0215446D01*
X0012464Y0215551D01*
X0012585Y0215653D01*
X0012708Y0215753D01*
X0012834Y0215849D01*
X0012962Y0215942D01*
X0013092Y0216032D01*
X0013225Y0216118D01*
X0013360Y0216202D01*
X0013496Y0216281D01*
X0013635Y0216358D01*
X0013776Y0216430D01*
X0013918Y0216500D01*
X0014062Y0216565D01*
X0014208Y0216627D01*
X0014355Y0216685D01*
X0014504Y0216740D01*
X0014654Y0216791D01*
X0014805Y0216838D01*
X0014957Y0216881D01*
X0015110Y0216920D01*
X0015265Y0216956D01*
X0015420Y0216987D01*
X0015576Y0217015D01*
X0015732Y0217039D01*
X0015889Y0217059D01*
X0016047Y0217075D01*
X0016204Y0217087D01*
X0016363Y0217095D01*
X0016521Y0217099D01*
X0016679Y0217099D01*
X0016837Y0217095D01*
X0016996Y0217087D01*
X0017153Y0217075D01*
X0017311Y0217059D01*
X0017468Y0217039D01*
X0017624Y0217015D01*
X0017780Y0216987D01*
X0017935Y0216956D01*
X0018090Y0216920D01*
X0018243Y0216881D01*
X0018395Y0216838D01*
X0018546Y0216791D01*
X0018696Y0216740D01*
X0018845Y0216685D01*
X0018992Y0216627D01*
X0019138Y0216565D01*
X0019282Y0216500D01*
X0019424Y0216430D01*
X0019565Y0216358D01*
X0019704Y0216281D01*
X0019840Y0216202D01*
X0019975Y0216118D01*
X0020108Y0216032D01*
X0020238Y0215942D01*
X0020366Y0215849D01*
X0020492Y0215753D01*
X0020615Y0215653D01*
X0020736Y0215551D01*
X0020854Y0215446D01*
X0020969Y0215337D01*
X0021082Y0215226D01*
X0021192Y0215112D01*
X0021299Y0214995D01*
X0021403Y0214876D01*
X0021504Y0214754D01*
X0021601Y0214629D01*
X0021696Y0214502D01*
X0021787Y0214373D01*
X0021876Y0214242D01*
X0021960Y0214108D01*
X0022042Y0213972D01*
X0022120Y0213835D01*
X0022194Y0213695D01*
X0022265Y0213553D01*
X0022333Y0213410D01*
X0022397Y0213265D01*
X0022457Y0213119D01*
X0022513Y0212971D01*
X0022566Y0212822D01*
X0022615Y0212671D01*
X0022660Y0212519D01*
X0022701Y0212366D01*
X0022739Y0212213D01*
X0022772Y0212058D01*
X0022802Y0211902D01*
X0022828Y0211746D01*
X0022849Y0211589D01*
X0022867Y0211432D01*
X0022881Y0211274D01*
X0022891Y0211116D01*
X0022897Y0210958D01*
X0022899Y0210800D01*
X0022897Y0210642D01*
X0022891Y0210484D01*
X0022881Y0210326D01*
X0022867Y0210168D01*
X0022849Y0210011D01*
X0022828Y0209854D01*
X0022802Y0209698D01*
X0022772Y0209542D01*
X0022739Y0209387D01*
X0022701Y0209234D01*
X0022660Y0209081D01*
X0022615Y0208929D01*
X0022566Y0208778D01*
X0022513Y0208629D01*
X0022457Y0208481D01*
X0022397Y0208335D01*
X0022333Y0208190D01*
X0022265Y0208047D01*
X0022194Y0207905D01*
X0022120Y0207765D01*
X0022042Y0207628D01*
X0021960Y0207492D01*
X0021876Y0207358D01*
X0021787Y0207227D01*
X0021696Y0207098D01*
X0021601Y0206971D01*
X0021504Y0206846D01*
X0021403Y0206724D01*
X0021299Y0206605D01*
X0021192Y0206488D01*
X0021082Y0206374D01*
X0020969Y0206263D01*
X0020854Y0206154D01*
X0020736Y0206049D01*
X0020615Y0205947D01*
X0020492Y0205847D01*
X0020366Y0205751D01*
X0020238Y0205658D01*
X0020108Y0205568D01*
X0019975Y0205482D01*
X0019840Y0205398D01*
X0019704Y0205319D01*
X0019565Y0205242D01*
X0019424Y0205170D01*
X0019282Y0205100D01*
X0019138Y0205035D01*
X0018992Y0204973D01*
X0018845Y0204915D01*
X0018696Y0204860D01*
X0018546Y0204809D01*
X0018395Y0204762D01*
X0018243Y0204719D01*
X0018090Y0204680D01*
X0017935Y0204644D01*
X0017780Y0204613D01*
X0017624Y0204585D01*
X0017468Y0204561D01*
X0017311Y0204541D01*
X0017153Y0204525D01*
X0016996Y0204513D01*
X0016837Y0204505D01*
X0016679Y0204501D01*
X0016521Y0204501D01*
X0016363Y0204505D01*
X0016204Y0204513D01*
X0016047Y0204525D01*
X0015889Y0204541D01*
X0015732Y0204561D01*
X0015576Y0204585D01*
X0015420Y0204613D01*
X0015265Y0204644D01*
X0015110Y0204680D01*
X0014957Y0204719D01*
X0014805Y0204762D01*
X0014654Y0204809D01*
X0014504Y0204860D01*
X0014355Y0204915D01*
X0014208Y0204973D01*
X0014062Y0205035D01*
X0013918Y0205100D01*
X0013776Y0205170D01*
X0013635Y0205242D01*
X0013496Y0205319D01*
X0013360Y0205398D01*
X0013225Y0205482D01*
X0013092Y0205568D01*
X0012962Y0205658D01*
X0012834Y0205751D01*
X0012708Y0205847D01*
X0012585Y0205947D01*
X0012464Y0206049D01*
X0012346Y0206154D01*
X0012231Y0206263D01*
X0012118Y0206374D01*
X0012008Y0206488D01*
X0011901Y0206605D01*
X0011797Y0206724D01*
X0011696Y0206846D01*
X0011599Y0206971D01*
X0011504Y0207098D01*
X0011413Y0207227D01*
X0011324Y0207358D01*
X0011240Y0207492D01*
X0011158Y0207628D01*
X0011080Y0207765D01*
X0011006Y0207905D01*
X0010935Y0208047D01*
X0010867Y0208190D01*
X0010803Y0208335D01*
X0010743Y0208481D01*
X0010687Y0208629D01*
X0010634Y0208778D01*
X0010585Y0208929D01*
X0010540Y0209081D01*
X0010499Y0209234D01*
X0010461Y0209387D01*
X0010428Y0209542D01*
X0010398Y0209698D01*
X0010372Y0209854D01*
X0010351Y0210011D01*
X0010333Y0210168D01*
X0010319Y0210326D01*
X0010309Y0210484D01*
X0010303Y0210642D01*
X0010301Y0210800D01*
X0005301Y0020800D02*
X0005303Y0020958D01*
X0005309Y0021116D01*
X0005319Y0021274D01*
X0005333Y0021432D01*
X0005351Y0021589D01*
X0005372Y0021746D01*
X0005398Y0021902D01*
X0005428Y0022058D01*
X0005461Y0022213D01*
X0005499Y0022366D01*
X0005540Y0022519D01*
X0005585Y0022671D01*
X0005634Y0022822D01*
X0005687Y0022971D01*
X0005743Y0023119D01*
X0005803Y0023265D01*
X0005867Y0023410D01*
X0005935Y0023553D01*
X0006006Y0023695D01*
X0006080Y0023835D01*
X0006158Y0023972D01*
X0006240Y0024108D01*
X0006324Y0024242D01*
X0006413Y0024373D01*
X0006504Y0024502D01*
X0006599Y0024629D01*
X0006696Y0024754D01*
X0006797Y0024876D01*
X0006901Y0024995D01*
X0007008Y0025112D01*
X0007118Y0025226D01*
X0007231Y0025337D01*
X0007346Y0025446D01*
X0007464Y0025551D01*
X0007585Y0025653D01*
X0007708Y0025753D01*
X0007834Y0025849D01*
X0007962Y0025942D01*
X0008092Y0026032D01*
X0008225Y0026118D01*
X0008360Y0026202D01*
X0008496Y0026281D01*
X0008635Y0026358D01*
X0008776Y0026430D01*
X0008918Y0026500D01*
X0009062Y0026565D01*
X0009208Y0026627D01*
X0009355Y0026685D01*
X0009504Y0026740D01*
X0009654Y0026791D01*
X0009805Y0026838D01*
X0009957Y0026881D01*
X0010110Y0026920D01*
X0010265Y0026956D01*
X0010420Y0026987D01*
X0010576Y0027015D01*
X0010732Y0027039D01*
X0010889Y0027059D01*
X0011047Y0027075D01*
X0011204Y0027087D01*
X0011363Y0027095D01*
X0011521Y0027099D01*
X0011679Y0027099D01*
X0011837Y0027095D01*
X0011996Y0027087D01*
X0012153Y0027075D01*
X0012311Y0027059D01*
X0012468Y0027039D01*
X0012624Y0027015D01*
X0012780Y0026987D01*
X0012935Y0026956D01*
X0013090Y0026920D01*
X0013243Y0026881D01*
X0013395Y0026838D01*
X0013546Y0026791D01*
X0013696Y0026740D01*
X0013845Y0026685D01*
X0013992Y0026627D01*
X0014138Y0026565D01*
X0014282Y0026500D01*
X0014424Y0026430D01*
X0014565Y0026358D01*
X0014704Y0026281D01*
X0014840Y0026202D01*
X0014975Y0026118D01*
X0015108Y0026032D01*
X0015238Y0025942D01*
X0015366Y0025849D01*
X0015492Y0025753D01*
X0015615Y0025653D01*
X0015736Y0025551D01*
X0015854Y0025446D01*
X0015969Y0025337D01*
X0016082Y0025226D01*
X0016192Y0025112D01*
X0016299Y0024995D01*
X0016403Y0024876D01*
X0016504Y0024754D01*
X0016601Y0024629D01*
X0016696Y0024502D01*
X0016787Y0024373D01*
X0016876Y0024242D01*
X0016960Y0024108D01*
X0017042Y0023972D01*
X0017120Y0023835D01*
X0017194Y0023695D01*
X0017265Y0023553D01*
X0017333Y0023410D01*
X0017397Y0023265D01*
X0017457Y0023119D01*
X0017513Y0022971D01*
X0017566Y0022822D01*
X0017615Y0022671D01*
X0017660Y0022519D01*
X0017701Y0022366D01*
X0017739Y0022213D01*
X0017772Y0022058D01*
X0017802Y0021902D01*
X0017828Y0021746D01*
X0017849Y0021589D01*
X0017867Y0021432D01*
X0017881Y0021274D01*
X0017891Y0021116D01*
X0017897Y0020958D01*
X0017899Y0020800D01*
X0017897Y0020642D01*
X0017891Y0020484D01*
X0017881Y0020326D01*
X0017867Y0020168D01*
X0017849Y0020011D01*
X0017828Y0019854D01*
X0017802Y0019698D01*
X0017772Y0019542D01*
X0017739Y0019387D01*
X0017701Y0019234D01*
X0017660Y0019081D01*
X0017615Y0018929D01*
X0017566Y0018778D01*
X0017513Y0018629D01*
X0017457Y0018481D01*
X0017397Y0018335D01*
X0017333Y0018190D01*
X0017265Y0018047D01*
X0017194Y0017905D01*
X0017120Y0017765D01*
X0017042Y0017628D01*
X0016960Y0017492D01*
X0016876Y0017358D01*
X0016787Y0017227D01*
X0016696Y0017098D01*
X0016601Y0016971D01*
X0016504Y0016846D01*
X0016403Y0016724D01*
X0016299Y0016605D01*
X0016192Y0016488D01*
X0016082Y0016374D01*
X0015969Y0016263D01*
X0015854Y0016154D01*
X0015736Y0016049D01*
X0015615Y0015947D01*
X0015492Y0015847D01*
X0015366Y0015751D01*
X0015238Y0015658D01*
X0015108Y0015568D01*
X0014975Y0015482D01*
X0014840Y0015398D01*
X0014704Y0015319D01*
X0014565Y0015242D01*
X0014424Y0015170D01*
X0014282Y0015100D01*
X0014138Y0015035D01*
X0013992Y0014973D01*
X0013845Y0014915D01*
X0013696Y0014860D01*
X0013546Y0014809D01*
X0013395Y0014762D01*
X0013243Y0014719D01*
X0013090Y0014680D01*
X0012935Y0014644D01*
X0012780Y0014613D01*
X0012624Y0014585D01*
X0012468Y0014561D01*
X0012311Y0014541D01*
X0012153Y0014525D01*
X0011996Y0014513D01*
X0011837Y0014505D01*
X0011679Y0014501D01*
X0011521Y0014501D01*
X0011363Y0014505D01*
X0011204Y0014513D01*
X0011047Y0014525D01*
X0010889Y0014541D01*
X0010732Y0014561D01*
X0010576Y0014585D01*
X0010420Y0014613D01*
X0010265Y0014644D01*
X0010110Y0014680D01*
X0009957Y0014719D01*
X0009805Y0014762D01*
X0009654Y0014809D01*
X0009504Y0014860D01*
X0009355Y0014915D01*
X0009208Y0014973D01*
X0009062Y0015035D01*
X0008918Y0015100D01*
X0008776Y0015170D01*
X0008635Y0015242D01*
X0008496Y0015319D01*
X0008360Y0015398D01*
X0008225Y0015482D01*
X0008092Y0015568D01*
X0007962Y0015658D01*
X0007834Y0015751D01*
X0007708Y0015847D01*
X0007585Y0015947D01*
X0007464Y0016049D01*
X0007346Y0016154D01*
X0007231Y0016263D01*
X0007118Y0016374D01*
X0007008Y0016488D01*
X0006901Y0016605D01*
X0006797Y0016724D01*
X0006696Y0016846D01*
X0006599Y0016971D01*
X0006504Y0017098D01*
X0006413Y0017227D01*
X0006324Y0017358D01*
X0006240Y0017492D01*
X0006158Y0017628D01*
X0006080Y0017765D01*
X0006006Y0017905D01*
X0005935Y0018047D01*
X0005867Y0018190D01*
X0005803Y0018335D01*
X0005743Y0018481D01*
X0005687Y0018629D01*
X0005634Y0018778D01*
X0005585Y0018929D01*
X0005540Y0019081D01*
X0005499Y0019234D01*
X0005461Y0019387D01*
X0005428Y0019542D01*
X0005398Y0019698D01*
X0005372Y0019854D01*
X0005351Y0020011D01*
X0005333Y0020168D01*
X0005319Y0020326D01*
X0005309Y0020484D01*
X0005303Y0020642D01*
X0005301Y0020800D01*
D14*
X0021678Y0131400D02*
X0024380Y0131400D01*
X0024380Y0135003D01*
X0026854Y0135003D02*
X0027755Y0135003D01*
X0027755Y0131400D01*
X0026854Y0131400D02*
X0028656Y0131400D01*
X0030906Y0131400D02*
X0030906Y0135003D01*
X0033608Y0135003D01*
X0034509Y0134102D01*
X0034509Y0131400D01*
X0036983Y0132301D02*
X0037884Y0131400D01*
X0039685Y0131400D01*
X0040586Y0132301D01*
X0040586Y0134102D01*
X0039685Y0135003D01*
X0037884Y0135003D01*
X0036983Y0134102D01*
X0036983Y0132301D01*
X0043060Y0134102D02*
X0046663Y0134102D01*
X0049137Y0135003D02*
X0049137Y0131400D01*
X0050939Y0131400D02*
X0050939Y0134102D01*
X0051840Y0135003D01*
X0052740Y0134102D01*
X0052740Y0131400D01*
X0055215Y0132301D02*
X0056115Y0131400D01*
X0057917Y0131400D01*
X0058818Y0132301D01*
X0058818Y0134102D01*
X0057917Y0135003D01*
X0056115Y0135003D01*
X0055215Y0134102D01*
X0055215Y0132301D01*
X0050939Y0134102D02*
X0050038Y0135003D01*
X0049137Y0135003D01*
X0061292Y0135003D02*
X0063093Y0135003D01*
X0062193Y0135904D02*
X0062193Y0132301D01*
X0063093Y0131400D01*
X0065343Y0132301D02*
X0066244Y0131400D01*
X0068046Y0131400D01*
X0068946Y0132301D01*
X0068946Y0134102D01*
X0068046Y0135003D01*
X0066244Y0135003D01*
X0065343Y0134102D01*
X0065343Y0132301D01*
X0071420Y0133202D02*
X0073222Y0135003D01*
X0074123Y0135003D01*
X0071420Y0135003D02*
X0071420Y0131400D01*
X0027755Y0136805D02*
X0027755Y0137705D01*
X0020777Y0135003D02*
X0020777Y0132301D01*
X0021678Y0131400D01*
X0018303Y0132301D02*
X0014700Y0135904D01*
X0016502Y0135904D02*
X0016502Y0132301D01*
X0014700Y0132301D02*
X0018303Y0135904D01*
X0018303Y0134102D02*
X0014700Y0134102D01*
D15*
X0018650Y0128003D02*
X0018083Y0127436D01*
X0018083Y0125167D01*
X0020352Y0127436D01*
X0020352Y0125167D01*
X0019785Y0124600D01*
X0018650Y0124600D01*
X0018083Y0125167D01*
X0016669Y0126869D02*
X0015534Y0124600D01*
X0014400Y0126869D01*
X0018650Y0128003D02*
X0019785Y0128003D01*
X0020352Y0127436D01*
X0021766Y0125167D02*
X0022333Y0125167D01*
X0022333Y0124600D01*
X0021766Y0124600D01*
X0021766Y0125167D01*
X0023608Y0124600D02*
X0025876Y0124600D01*
X0024742Y0124600D02*
X0024742Y0128003D01*
X0023608Y0126869D01*
X0026584Y0122003D02*
X0027718Y0120869D01*
X0027718Y0118600D01*
X0029133Y0119167D02*
X0029133Y0120301D01*
X0029700Y0120869D01*
X0031401Y0120869D01*
X0031401Y0122003D02*
X0031401Y0118600D01*
X0029700Y0118600D01*
X0029133Y0119167D01*
X0027718Y0120301D02*
X0025449Y0120301D01*
X0025449Y0120869D02*
X0025449Y0118600D01*
X0025449Y0120869D02*
X0026584Y0122003D01*
X0030974Y0124600D02*
X0033243Y0126869D01*
X0033243Y0127436D01*
X0032676Y0128003D01*
X0031541Y0128003D01*
X0030974Y0127436D01*
X0030974Y0124600D02*
X0033243Y0124600D01*
X0034657Y0125167D02*
X0036926Y0127436D01*
X0036926Y0125167D01*
X0036359Y0124600D01*
X0035224Y0124600D01*
X0034657Y0125167D01*
X0034657Y0127436D01*
X0035224Y0128003D01*
X0036359Y0128003D01*
X0036926Y0127436D01*
X0038340Y0126869D02*
X0039475Y0128003D01*
X0039475Y0124600D01*
X0040609Y0124600D02*
X0038340Y0124600D01*
X0038954Y0122003D02*
X0038954Y0118600D01*
X0041223Y0118600D01*
X0042637Y0118600D02*
X0043772Y0118600D01*
X0043205Y0118600D02*
X0043205Y0120869D01*
X0042637Y0120869D01*
X0043205Y0122003D02*
X0043205Y0122570D01*
X0043725Y0124600D02*
X0042591Y0124600D01*
X0042024Y0125167D01*
X0042024Y0126301D01*
X0043725Y0126301D01*
X0044292Y0125734D01*
X0044292Y0125167D01*
X0043725Y0124600D01*
X0045707Y0124600D02*
X0047975Y0128003D01*
X0049390Y0126869D02*
X0050524Y0128003D01*
X0050524Y0124600D01*
X0049390Y0124600D02*
X0051658Y0124600D01*
X0053073Y0124600D02*
X0055342Y0124600D01*
X0054207Y0124600D02*
X0054207Y0128003D01*
X0053073Y0126869D01*
X0056756Y0124600D02*
X0059025Y0128003D01*
X0060439Y0126869D02*
X0061574Y0128003D01*
X0061574Y0124600D01*
X0062708Y0124600D02*
X0060439Y0124600D01*
X0057844Y0120869D02*
X0058411Y0120301D01*
X0058411Y0118600D01*
X0056142Y0118600D02*
X0056142Y0120869D01*
X0057844Y0120869D01*
X0054728Y0120301D02*
X0054728Y0119734D01*
X0052459Y0119734D01*
X0052459Y0119167D02*
X0052459Y0120301D01*
X0053026Y0120869D01*
X0054161Y0120869D01*
X0054728Y0120301D01*
X0054161Y0118600D02*
X0053026Y0118600D01*
X0052459Y0119167D01*
X0051045Y0118600D02*
X0049343Y0118600D01*
X0048776Y0119167D01*
X0048776Y0120301D01*
X0049343Y0120869D01*
X0051045Y0120869D01*
X0051045Y0122003D02*
X0051045Y0118600D01*
X0047361Y0118600D02*
X0047361Y0120301D01*
X0046794Y0120869D01*
X0045093Y0120869D01*
X0045093Y0118600D01*
X0042024Y0126301D02*
X0043158Y0127436D01*
X0044292Y0128003D01*
X0033383Y0122570D02*
X0033383Y0122003D01*
X0033383Y0120869D02*
X0033383Y0118600D01*
X0032816Y0118600D02*
X0033950Y0118600D01*
X0033383Y0120869D02*
X0032816Y0120869D01*
X0020352Y0120869D02*
X0020352Y0118033D01*
X0019785Y0117466D01*
X0019217Y0117466D01*
X0018650Y0118600D02*
X0018083Y0119167D01*
X0018083Y0120869D01*
X0016669Y0120301D02*
X0016101Y0120869D01*
X0014400Y0120869D01*
X0014400Y0122003D02*
X0014400Y0118600D01*
X0016101Y0118600D01*
X0016669Y0119167D01*
X0016669Y0120301D01*
X0018650Y0118600D02*
X0020352Y0118600D01*
X0064122Y0124600D02*
X0066391Y0126869D01*
X0066391Y0127436D01*
X0065824Y0128003D01*
X0064690Y0128003D01*
X0064122Y0127436D01*
X0064122Y0124600D02*
X0066391Y0124600D01*
X0032114Y0070485D02*
X0028157Y0070485D01*
X0025834Y0070485D01*
X0025303Y0070485D01*
X0025303Y0031115D01*
X0005500Y0031115D01*
X0005500Y0070485D01*
X0025303Y0070485D01*
X0032114Y0070485D02*
X0032114Y0031115D01*
X0025303Y0031115D01*
X0005500Y0031115D02*
X0002586Y0031115D01*
X0002586Y0070485D01*
X0005500Y0070485D01*
X0196336Y0056115D02*
X0200293Y0056115D01*
X0202616Y0056115D01*
X0203147Y0056115D01*
X0203147Y0095485D01*
X0222950Y0095485D01*
X0222950Y0056115D01*
X0203147Y0056115D01*
X0196336Y0056115D02*
X0196336Y0095485D01*
X0203147Y0095485D01*
X0203147Y0096115D02*
X0203147Y0135485D01*
X0222950Y0135485D01*
X0222950Y0096115D01*
X0203147Y0096115D01*
X0202616Y0096115D01*
X0200293Y0096115D01*
X0196336Y0096115D01*
X0196336Y0135485D01*
X0203147Y0135485D01*
X0222950Y0135485D02*
X0225864Y0135485D01*
X0225864Y0096115D01*
X0222950Y0096115D01*
X0222950Y0095485D02*
X0225864Y0095485D01*
X0225864Y0056115D01*
X0222950Y0056115D01*
D16*
X0210441Y0053887D02*
X0210024Y0054304D01*
X0209190Y0054304D01*
X0208773Y0053887D01*
X0207678Y0054304D02*
X0206844Y0054304D01*
X0207261Y0054304D02*
X0207261Y0052219D01*
X0206844Y0051802D01*
X0206427Y0051802D01*
X0206010Y0052219D01*
X0208773Y0051802D02*
X0210441Y0053470D01*
X0210441Y0053887D01*
X0210441Y0051802D02*
X0208773Y0051802D01*
X0164156Y0007754D02*
X0161154Y0007754D01*
X0161154Y0005502D01*
X0162655Y0006253D01*
X0163406Y0006253D01*
X0164156Y0005502D01*
X0164156Y0004001D01*
X0163406Y0003250D01*
X0161905Y0003250D01*
X0161154Y0004001D01*
X0158802Y0004001D02*
X0158802Y0007754D01*
X0158051Y0007754D02*
X0159553Y0007754D01*
X0158802Y0004001D02*
X0158051Y0003250D01*
X0157301Y0003250D01*
X0156550Y0004001D01*
X0103100Y0050967D02*
X0103100Y0051384D01*
X0102683Y0051801D01*
X0100598Y0051801D01*
X0100598Y0051384D02*
X0100598Y0052218D01*
X0100598Y0053312D02*
X0100598Y0054563D01*
X0101015Y0054980D01*
X0101849Y0054980D01*
X0102266Y0054563D01*
X0102266Y0053312D01*
X0103100Y0053312D02*
X0100598Y0053312D01*
X0101015Y0056075D02*
X0100598Y0056492D01*
X0100598Y0057326D01*
X0101015Y0057743D01*
X0101432Y0057743D01*
X0101849Y0057326D01*
X0102266Y0057743D01*
X0102683Y0057743D01*
X0103100Y0057326D01*
X0103100Y0056492D01*
X0102683Y0056075D01*
X0101849Y0056909D02*
X0101849Y0057326D01*
X0103100Y0050967D02*
X0102683Y0050550D01*
X0093100Y0050967D02*
X0092683Y0050550D01*
X0093100Y0050967D02*
X0093100Y0051384D01*
X0092683Y0051801D01*
X0090598Y0051801D01*
X0090598Y0051384D02*
X0090598Y0052218D01*
X0090598Y0053312D02*
X0090598Y0054563D01*
X0091015Y0054980D01*
X0091849Y0054980D01*
X0092266Y0054563D01*
X0092266Y0053312D01*
X0093100Y0053312D02*
X0090598Y0053312D01*
X0091015Y0056075D02*
X0090598Y0056492D01*
X0090598Y0057326D01*
X0091015Y0057743D01*
X0091432Y0057743D01*
X0093100Y0056075D01*
X0093100Y0057743D01*
X0078030Y0045300D02*
X0076362Y0045300D01*
X0077196Y0045300D02*
X0077196Y0047802D01*
X0076362Y0046968D01*
X0075268Y0047385D02*
X0074851Y0047802D01*
X0074017Y0047802D01*
X0073600Y0047385D01*
X0073600Y0045717D01*
X0074017Y0045300D01*
X0074851Y0045300D01*
X0075268Y0045717D01*
X0071600Y0033243D02*
X0071600Y0031575D01*
X0071600Y0032409D02*
X0069098Y0032409D01*
X0069932Y0031575D01*
X0070349Y0030480D02*
X0070766Y0030063D01*
X0070766Y0028812D01*
X0071600Y0028812D02*
X0069098Y0028812D01*
X0069098Y0030063D01*
X0069515Y0030480D01*
X0070349Y0030480D01*
X0069098Y0027718D02*
X0069098Y0026884D01*
X0069098Y0027301D02*
X0071183Y0027301D01*
X0071600Y0026884D01*
X0071600Y0026467D01*
X0071183Y0026050D01*
X0058506Y0034050D02*
X0056838Y0034050D01*
X0058506Y0035718D01*
X0058506Y0036135D01*
X0058089Y0036552D01*
X0057255Y0036552D01*
X0056838Y0036135D01*
X0055743Y0036135D02*
X0055743Y0035301D01*
X0055326Y0034884D01*
X0054075Y0034884D01*
X0054075Y0034050D02*
X0054075Y0036552D01*
X0055326Y0036552D01*
X0055743Y0036135D01*
X0054909Y0034884D02*
X0055743Y0034050D01*
X0041280Y0030763D02*
X0039612Y0030763D01*
X0040446Y0030763D02*
X0040446Y0033265D01*
X0039612Y0032431D01*
X0038518Y0033265D02*
X0036850Y0033265D01*
X0036850Y0030763D01*
X0036850Y0032014D02*
X0037684Y0032014D01*
X0030357Y0029304D02*
X0030357Y0026802D01*
X0029523Y0026802D02*
X0031191Y0026802D01*
X0029523Y0028470D02*
X0030357Y0029304D01*
X0028428Y0029304D02*
X0027594Y0029304D01*
X0028011Y0029304D02*
X0028011Y0027219D01*
X0027594Y0026802D01*
X0027177Y0026802D01*
X0026760Y0027219D01*
X0054767Y0061050D02*
X0054350Y0061467D01*
X0054350Y0063135D01*
X0054767Y0063552D01*
X0055601Y0063552D01*
X0056018Y0063135D01*
X0056018Y0061467D01*
X0055601Y0061050D01*
X0054767Y0061050D01*
X0055184Y0061884D02*
X0056018Y0061050D01*
X0057112Y0061050D02*
X0058780Y0061050D01*
X0057946Y0061050D02*
X0057946Y0063552D01*
X0057112Y0062718D01*
X0067057Y0061871D02*
X0068308Y0061871D01*
X0068725Y0062288D01*
X0068725Y0063956D01*
X0068308Y0064373D01*
X0067057Y0064373D01*
X0067057Y0061871D01*
X0069819Y0061871D02*
X0071487Y0061871D01*
X0070653Y0061871D02*
X0070653Y0064373D01*
X0069819Y0063539D01*
X0106600Y0103050D02*
X0106600Y0105552D01*
X0107851Y0105552D01*
X0108268Y0105135D01*
X0108268Y0104301D01*
X0107851Y0103884D01*
X0106600Y0103884D01*
X0107434Y0103884D02*
X0108268Y0103050D01*
X0109362Y0103467D02*
X0109779Y0103050D01*
X0110613Y0103050D01*
X0111030Y0103467D01*
X0111030Y0104301D01*
X0110613Y0104718D01*
X0110196Y0104718D01*
X0109362Y0104301D01*
X0109362Y0105552D01*
X0111030Y0105552D01*
X0116100Y0105552D02*
X0116100Y0103050D01*
X0116100Y0103884D02*
X0117351Y0103884D01*
X0117768Y0104301D01*
X0117768Y0105135D01*
X0117351Y0105552D01*
X0116100Y0105552D01*
X0116934Y0103884D02*
X0117768Y0103050D01*
X0118862Y0103050D02*
X0120530Y0103050D01*
X0119696Y0103050D02*
X0119696Y0105552D01*
X0118862Y0104718D01*
X0125350Y0105135D02*
X0125350Y0103467D01*
X0125767Y0103050D01*
X0126601Y0103050D01*
X0127018Y0103467D01*
X0128112Y0103467D02*
X0128529Y0103050D01*
X0129363Y0103050D01*
X0129780Y0103467D01*
X0129780Y0103884D01*
X0129363Y0104301D01*
X0128946Y0104301D01*
X0129363Y0104301D02*
X0129780Y0104718D01*
X0129780Y0105135D01*
X0129363Y0105552D01*
X0128529Y0105552D01*
X0128112Y0105135D01*
X0127018Y0105135D02*
X0126601Y0105552D01*
X0125767Y0105552D01*
X0125350Y0105135D01*
X0117780Y0123550D02*
X0116112Y0123550D01*
X0117780Y0125218D01*
X0117780Y0125635D01*
X0117363Y0126052D01*
X0116529Y0126052D01*
X0116112Y0125635D01*
X0115018Y0126052D02*
X0115018Y0123967D01*
X0114601Y0123550D01*
X0113767Y0123550D01*
X0113350Y0123967D01*
X0113350Y0126052D01*
X0113350Y0137800D02*
X0113350Y0140302D01*
X0114601Y0140302D01*
X0115018Y0139885D01*
X0115018Y0139051D01*
X0114601Y0138634D01*
X0113350Y0138634D01*
X0114184Y0138634D02*
X0115018Y0137800D01*
X0116112Y0138217D02*
X0116529Y0137800D01*
X0117363Y0137800D01*
X0117780Y0138217D01*
X0117780Y0138634D01*
X0117363Y0139051D01*
X0116946Y0139051D01*
X0117363Y0139051D02*
X0117780Y0139468D01*
X0117780Y0139885D01*
X0117363Y0140302D01*
X0116529Y0140302D01*
X0116112Y0139885D01*
X0152100Y0140302D02*
X0152100Y0137800D01*
X0152100Y0138634D02*
X0153351Y0138634D01*
X0153768Y0139051D01*
X0153768Y0139885D01*
X0153351Y0140302D01*
X0152100Y0140302D01*
X0152934Y0138634D02*
X0153768Y0137800D01*
X0154862Y0139051D02*
X0156530Y0139051D01*
X0156113Y0137800D02*
X0156113Y0140302D01*
X0154862Y0139051D01*
X0155863Y0125552D02*
X0154612Y0124301D01*
X0156280Y0124301D01*
X0155863Y0123050D02*
X0155863Y0125552D01*
X0153518Y0125135D02*
X0153101Y0125552D01*
X0152267Y0125552D01*
X0151850Y0125135D01*
X0151850Y0123467D01*
X0152267Y0123050D01*
X0153101Y0123050D01*
X0153518Y0123467D01*
X0165600Y0117052D02*
X0165600Y0114967D01*
X0166017Y0114550D01*
X0166851Y0114550D01*
X0167268Y0114967D01*
X0167268Y0117052D01*
X0168362Y0116635D02*
X0168779Y0117052D01*
X0169613Y0117052D01*
X0170030Y0116635D01*
X0170030Y0116218D01*
X0169613Y0115801D01*
X0170030Y0115384D01*
X0170030Y0114967D01*
X0169613Y0114550D01*
X0168779Y0114550D01*
X0168362Y0114967D01*
X0169196Y0115801D02*
X0169613Y0115801D01*
X0204665Y0137715D02*
X0205082Y0137298D01*
X0205499Y0137298D01*
X0205916Y0137715D01*
X0205916Y0139800D01*
X0205499Y0139800D02*
X0206333Y0139800D01*
X0207427Y0139383D02*
X0207844Y0139800D01*
X0208678Y0139800D01*
X0209095Y0139383D01*
X0209095Y0138966D01*
X0208678Y0138549D01*
X0209095Y0138132D01*
X0209095Y0137715D01*
X0208678Y0137298D01*
X0207844Y0137298D01*
X0207427Y0137715D01*
X0208261Y0138549D02*
X0208678Y0138549D01*
X0192683Y0173550D02*
X0193100Y0173967D01*
X0193100Y0174384D01*
X0192683Y0174801D01*
X0190598Y0174801D01*
X0190598Y0174384D02*
X0190598Y0175218D01*
X0190598Y0176312D02*
X0190598Y0177563D01*
X0191015Y0177980D01*
X0191849Y0177980D01*
X0192266Y0177563D01*
X0192266Y0176312D01*
X0193100Y0176312D02*
X0190598Y0176312D01*
X0191432Y0179075D02*
X0190598Y0179909D01*
X0193100Y0179909D01*
X0193100Y0179075D02*
X0193100Y0180743D01*
X0192683Y0181837D02*
X0191015Y0183505D01*
X0192683Y0183505D01*
X0193100Y0183088D01*
X0193100Y0182254D01*
X0192683Y0181837D01*
X0191015Y0181837D01*
X0190598Y0182254D01*
X0190598Y0183088D01*
X0191015Y0183505D01*
X0178100Y0182826D02*
X0177683Y0183243D01*
X0176015Y0183243D01*
X0175598Y0182826D01*
X0175598Y0181992D01*
X0176015Y0181575D01*
X0176432Y0181575D01*
X0176849Y0181992D01*
X0176849Y0183243D01*
X0178100Y0182826D02*
X0178100Y0181992D01*
X0177683Y0181575D01*
X0176849Y0180480D02*
X0177266Y0180063D01*
X0177266Y0178812D01*
X0178100Y0178812D02*
X0175598Y0178812D01*
X0175598Y0180063D01*
X0176015Y0180480D01*
X0176849Y0180480D01*
X0175598Y0177718D02*
X0175598Y0176884D01*
X0175598Y0177301D02*
X0177683Y0177301D01*
X0178100Y0176884D01*
X0178100Y0176467D01*
X0177683Y0176050D01*
X0168100Y0176467D02*
X0168100Y0176884D01*
X0167683Y0177301D01*
X0165598Y0177301D01*
X0165598Y0176884D02*
X0165598Y0177718D01*
X0165598Y0178812D02*
X0165598Y0180063D01*
X0166015Y0180480D01*
X0166849Y0180480D01*
X0167266Y0180063D01*
X0167266Y0178812D01*
X0168100Y0178812D02*
X0165598Y0178812D01*
X0166015Y0181575D02*
X0166432Y0181575D01*
X0166849Y0181992D01*
X0166849Y0182826D01*
X0167266Y0183243D01*
X0167683Y0183243D01*
X0168100Y0182826D01*
X0168100Y0181992D01*
X0167683Y0181575D01*
X0167266Y0181575D01*
X0166849Y0181992D01*
X0166849Y0182826D02*
X0166432Y0183243D01*
X0166015Y0183243D01*
X0165598Y0182826D01*
X0165598Y0181992D01*
X0166015Y0181575D01*
X0168100Y0176467D02*
X0167683Y0176050D01*
X0158100Y0176467D02*
X0158100Y0176884D01*
X0157683Y0177301D01*
X0155598Y0177301D01*
X0155598Y0176884D02*
X0155598Y0177718D01*
X0155598Y0178812D02*
X0155598Y0180063D01*
X0156015Y0180480D01*
X0156849Y0180480D01*
X0157266Y0180063D01*
X0157266Y0178812D01*
X0158100Y0178812D02*
X0155598Y0178812D01*
X0155598Y0181575D02*
X0155598Y0183243D01*
X0156015Y0183243D01*
X0157683Y0181575D01*
X0158100Y0181575D01*
X0158100Y0176467D02*
X0157683Y0176050D01*
X0143100Y0176467D02*
X0143100Y0176884D01*
X0142683Y0177301D01*
X0140598Y0177301D01*
X0140598Y0176884D02*
X0140598Y0177718D01*
X0140598Y0178812D02*
X0140598Y0180063D01*
X0141015Y0180480D01*
X0141849Y0180480D01*
X0142266Y0180063D01*
X0142266Y0178812D01*
X0143100Y0178812D02*
X0140598Y0178812D01*
X0141849Y0181575D02*
X0141015Y0182409D01*
X0140598Y0183243D01*
X0141849Y0182826D02*
X0141849Y0181575D01*
X0142683Y0181575D01*
X0143100Y0181992D01*
X0143100Y0182826D01*
X0142683Y0183243D01*
X0142266Y0183243D01*
X0141849Y0182826D01*
X0143100Y0176467D02*
X0142683Y0176050D01*
X0133100Y0176467D02*
X0133100Y0176884D01*
X0132683Y0177301D01*
X0130598Y0177301D01*
X0130598Y0176884D02*
X0130598Y0177718D01*
X0130598Y0178812D02*
X0130598Y0180063D01*
X0131015Y0180480D01*
X0131849Y0180480D01*
X0132266Y0180063D01*
X0132266Y0178812D01*
X0133100Y0178812D02*
X0130598Y0178812D01*
X0130598Y0181575D02*
X0131849Y0181575D01*
X0131432Y0182409D01*
X0131432Y0182826D01*
X0131849Y0183243D01*
X0132683Y0183243D01*
X0133100Y0182826D01*
X0133100Y0181992D01*
X0132683Y0181575D01*
X0130598Y0181575D02*
X0130598Y0183243D01*
X0133100Y0176467D02*
X0132683Y0176050D01*
X0123100Y0176467D02*
X0123100Y0176884D01*
X0122683Y0177301D01*
X0120598Y0177301D01*
X0120598Y0176884D02*
X0120598Y0177718D01*
X0120598Y0178812D02*
X0120598Y0180063D01*
X0121015Y0180480D01*
X0121849Y0180480D01*
X0122266Y0180063D01*
X0122266Y0178812D01*
X0123100Y0178812D02*
X0120598Y0178812D01*
X0121849Y0181575D02*
X0120598Y0182826D01*
X0123100Y0182826D01*
X0121849Y0183243D02*
X0121849Y0181575D01*
X0123100Y0176467D02*
X0122683Y0176050D01*
X0116546Y0223850D02*
X0116546Y0224601D01*
X0119549Y0227603D01*
X0119549Y0228354D01*
X0116546Y0228354D01*
X0114945Y0228354D02*
X0113443Y0228354D01*
X0114194Y0228354D02*
X0114194Y0224601D01*
X0113443Y0223850D01*
X0112693Y0223850D01*
X0111942Y0224601D01*
X0197942Y0224601D02*
X0198693Y0223850D01*
X0199443Y0223850D01*
X0200194Y0224601D01*
X0200194Y0228354D01*
X0199443Y0228354D02*
X0200945Y0228354D01*
X0202546Y0226102D02*
X0204798Y0226102D01*
X0205549Y0225351D01*
X0205549Y0224601D01*
X0204798Y0223850D01*
X0203297Y0223850D01*
X0202546Y0224601D01*
X0202546Y0226102D01*
X0204047Y0227603D01*
X0205549Y0228354D01*
X0116696Y0083552D02*
X0116696Y0081050D01*
X0115862Y0081050D02*
X0117530Y0081050D01*
X0115862Y0082718D02*
X0116696Y0083552D01*
X0114768Y0083552D02*
X0114768Y0081467D01*
X0114351Y0081050D01*
X0113517Y0081050D01*
X0113100Y0081467D01*
X0113100Y0083552D01*
X0151825Y0068635D02*
X0151825Y0066967D01*
X0152242Y0066550D01*
X0153076Y0066550D01*
X0153493Y0066967D01*
X0154588Y0066550D02*
X0156256Y0068218D01*
X0156256Y0068635D01*
X0155839Y0069052D01*
X0155005Y0069052D01*
X0154588Y0068635D01*
X0153493Y0068635D02*
X0153076Y0069052D01*
X0152242Y0069052D01*
X0151825Y0068635D01*
X0154588Y0066550D02*
X0156256Y0066550D01*
X0094156Y0005502D02*
X0091154Y0005502D01*
X0093406Y0007754D01*
X0093406Y0003250D01*
X0088802Y0004001D02*
X0088802Y0007754D01*
X0088051Y0007754D02*
X0089553Y0007754D01*
X0088802Y0004001D02*
X0088051Y0003250D01*
X0087301Y0003250D01*
X0086550Y0004001D01*
D17*
X0025224Y0040957D02*
X0025226Y0041041D01*
X0025232Y0041124D01*
X0025242Y0041207D01*
X0025256Y0041290D01*
X0025273Y0041372D01*
X0025295Y0041453D01*
X0025320Y0041532D01*
X0025349Y0041611D01*
X0025382Y0041688D01*
X0025418Y0041763D01*
X0025458Y0041837D01*
X0025501Y0041909D01*
X0025548Y0041978D01*
X0025598Y0042045D01*
X0025651Y0042110D01*
X0025707Y0042172D01*
X0025765Y0042232D01*
X0025827Y0042289D01*
X0025891Y0042342D01*
X0025958Y0042393D01*
X0026027Y0042440D01*
X0026098Y0042485D01*
X0026171Y0042525D01*
X0026246Y0042562D01*
X0026323Y0042596D01*
X0026401Y0042626D01*
X0026480Y0042652D01*
X0026561Y0042675D01*
X0026643Y0042693D01*
X0026725Y0042708D01*
X0026808Y0042719D01*
X0026891Y0042726D01*
X0026975Y0042729D01*
X0027059Y0042728D01*
X0027142Y0042723D01*
X0027226Y0042714D01*
X0027308Y0042701D01*
X0027390Y0042685D01*
X0027471Y0042664D01*
X0027552Y0042640D01*
X0027630Y0042612D01*
X0027708Y0042580D01*
X0027784Y0042544D01*
X0027858Y0042505D01*
X0027930Y0042463D01*
X0028000Y0042417D01*
X0028068Y0042368D01*
X0028133Y0042316D01*
X0028196Y0042261D01*
X0028256Y0042203D01*
X0028314Y0042142D01*
X0028368Y0042078D01*
X0028420Y0042012D01*
X0028468Y0041944D01*
X0028513Y0041873D01*
X0028554Y0041800D01*
X0028593Y0041726D01*
X0028627Y0041650D01*
X0028658Y0041572D01*
X0028685Y0041493D01*
X0028709Y0041412D01*
X0028728Y0041331D01*
X0028744Y0041249D01*
X0028756Y0041166D01*
X0028764Y0041082D01*
X0028768Y0040999D01*
X0028768Y0040915D01*
X0028764Y0040832D01*
X0028756Y0040748D01*
X0028744Y0040665D01*
X0028728Y0040583D01*
X0028709Y0040502D01*
X0028685Y0040421D01*
X0028658Y0040342D01*
X0028627Y0040264D01*
X0028593Y0040188D01*
X0028554Y0040114D01*
X0028513Y0040041D01*
X0028468Y0039970D01*
X0028420Y0039902D01*
X0028368Y0039836D01*
X0028314Y0039772D01*
X0028256Y0039711D01*
X0028196Y0039653D01*
X0028133Y0039598D01*
X0028068Y0039546D01*
X0028000Y0039497D01*
X0027930Y0039451D01*
X0027858Y0039409D01*
X0027784Y0039370D01*
X0027708Y0039334D01*
X0027630Y0039302D01*
X0027552Y0039274D01*
X0027471Y0039250D01*
X0027390Y0039229D01*
X0027308Y0039213D01*
X0027226Y0039200D01*
X0027142Y0039191D01*
X0027059Y0039186D01*
X0026975Y0039185D01*
X0026891Y0039188D01*
X0026808Y0039195D01*
X0026725Y0039206D01*
X0026643Y0039221D01*
X0026561Y0039239D01*
X0026480Y0039262D01*
X0026401Y0039288D01*
X0026323Y0039318D01*
X0026246Y0039352D01*
X0026171Y0039389D01*
X0026098Y0039429D01*
X0026027Y0039474D01*
X0025958Y0039521D01*
X0025891Y0039572D01*
X0025827Y0039625D01*
X0025765Y0039682D01*
X0025707Y0039742D01*
X0025651Y0039804D01*
X0025598Y0039869D01*
X0025548Y0039936D01*
X0025501Y0040005D01*
X0025458Y0040077D01*
X0025418Y0040151D01*
X0025382Y0040226D01*
X0025349Y0040303D01*
X0025320Y0040382D01*
X0025295Y0040461D01*
X0025273Y0040542D01*
X0025256Y0040624D01*
X0025242Y0040707D01*
X0025232Y0040790D01*
X0025226Y0040873D01*
X0025224Y0040957D01*
X0025224Y0060643D02*
X0025226Y0060727D01*
X0025232Y0060810D01*
X0025242Y0060893D01*
X0025256Y0060976D01*
X0025273Y0061058D01*
X0025295Y0061139D01*
X0025320Y0061218D01*
X0025349Y0061297D01*
X0025382Y0061374D01*
X0025418Y0061449D01*
X0025458Y0061523D01*
X0025501Y0061595D01*
X0025548Y0061664D01*
X0025598Y0061731D01*
X0025651Y0061796D01*
X0025707Y0061858D01*
X0025765Y0061918D01*
X0025827Y0061975D01*
X0025891Y0062028D01*
X0025958Y0062079D01*
X0026027Y0062126D01*
X0026098Y0062171D01*
X0026171Y0062211D01*
X0026246Y0062248D01*
X0026323Y0062282D01*
X0026401Y0062312D01*
X0026480Y0062338D01*
X0026561Y0062361D01*
X0026643Y0062379D01*
X0026725Y0062394D01*
X0026808Y0062405D01*
X0026891Y0062412D01*
X0026975Y0062415D01*
X0027059Y0062414D01*
X0027142Y0062409D01*
X0027226Y0062400D01*
X0027308Y0062387D01*
X0027390Y0062371D01*
X0027471Y0062350D01*
X0027552Y0062326D01*
X0027630Y0062298D01*
X0027708Y0062266D01*
X0027784Y0062230D01*
X0027858Y0062191D01*
X0027930Y0062149D01*
X0028000Y0062103D01*
X0028068Y0062054D01*
X0028133Y0062002D01*
X0028196Y0061947D01*
X0028256Y0061889D01*
X0028314Y0061828D01*
X0028368Y0061764D01*
X0028420Y0061698D01*
X0028468Y0061630D01*
X0028513Y0061559D01*
X0028554Y0061486D01*
X0028593Y0061412D01*
X0028627Y0061336D01*
X0028658Y0061258D01*
X0028685Y0061179D01*
X0028709Y0061098D01*
X0028728Y0061017D01*
X0028744Y0060935D01*
X0028756Y0060852D01*
X0028764Y0060768D01*
X0028768Y0060685D01*
X0028768Y0060601D01*
X0028764Y0060518D01*
X0028756Y0060434D01*
X0028744Y0060351D01*
X0028728Y0060269D01*
X0028709Y0060188D01*
X0028685Y0060107D01*
X0028658Y0060028D01*
X0028627Y0059950D01*
X0028593Y0059874D01*
X0028554Y0059800D01*
X0028513Y0059727D01*
X0028468Y0059656D01*
X0028420Y0059588D01*
X0028368Y0059522D01*
X0028314Y0059458D01*
X0028256Y0059397D01*
X0028196Y0059339D01*
X0028133Y0059284D01*
X0028068Y0059232D01*
X0028000Y0059183D01*
X0027930Y0059137D01*
X0027858Y0059095D01*
X0027784Y0059056D01*
X0027708Y0059020D01*
X0027630Y0058988D01*
X0027552Y0058960D01*
X0027471Y0058936D01*
X0027390Y0058915D01*
X0027308Y0058899D01*
X0027226Y0058886D01*
X0027142Y0058877D01*
X0027059Y0058872D01*
X0026975Y0058871D01*
X0026891Y0058874D01*
X0026808Y0058881D01*
X0026725Y0058892D01*
X0026643Y0058907D01*
X0026561Y0058925D01*
X0026480Y0058948D01*
X0026401Y0058974D01*
X0026323Y0059004D01*
X0026246Y0059038D01*
X0026171Y0059075D01*
X0026098Y0059115D01*
X0026027Y0059160D01*
X0025958Y0059207D01*
X0025891Y0059258D01*
X0025827Y0059311D01*
X0025765Y0059368D01*
X0025707Y0059428D01*
X0025651Y0059490D01*
X0025598Y0059555D01*
X0025548Y0059622D01*
X0025501Y0059691D01*
X0025458Y0059763D01*
X0025418Y0059837D01*
X0025382Y0059912D01*
X0025349Y0059989D01*
X0025320Y0060068D01*
X0025295Y0060147D01*
X0025273Y0060228D01*
X0025256Y0060310D01*
X0025242Y0060393D01*
X0025232Y0060476D01*
X0025226Y0060559D01*
X0025224Y0060643D01*
X0025834Y0070485D02*
X0025224Y0072769D01*
X0028767Y0072769D01*
X0028157Y0070485D01*
X0199683Y0053831D02*
X0203226Y0053831D01*
X0202616Y0056115D01*
X0200293Y0056115D02*
X0199683Y0053831D01*
X0199682Y0065957D02*
X0199684Y0066041D01*
X0199690Y0066124D01*
X0199700Y0066207D01*
X0199714Y0066290D01*
X0199731Y0066372D01*
X0199753Y0066453D01*
X0199778Y0066532D01*
X0199807Y0066611D01*
X0199840Y0066688D01*
X0199876Y0066763D01*
X0199916Y0066837D01*
X0199959Y0066909D01*
X0200006Y0066978D01*
X0200056Y0067045D01*
X0200109Y0067110D01*
X0200165Y0067172D01*
X0200223Y0067232D01*
X0200285Y0067289D01*
X0200349Y0067342D01*
X0200416Y0067393D01*
X0200485Y0067440D01*
X0200556Y0067485D01*
X0200629Y0067525D01*
X0200704Y0067562D01*
X0200781Y0067596D01*
X0200859Y0067626D01*
X0200938Y0067652D01*
X0201019Y0067675D01*
X0201101Y0067693D01*
X0201183Y0067708D01*
X0201266Y0067719D01*
X0201349Y0067726D01*
X0201433Y0067729D01*
X0201517Y0067728D01*
X0201600Y0067723D01*
X0201684Y0067714D01*
X0201766Y0067701D01*
X0201848Y0067685D01*
X0201929Y0067664D01*
X0202010Y0067640D01*
X0202088Y0067612D01*
X0202166Y0067580D01*
X0202242Y0067544D01*
X0202316Y0067505D01*
X0202388Y0067463D01*
X0202458Y0067417D01*
X0202526Y0067368D01*
X0202591Y0067316D01*
X0202654Y0067261D01*
X0202714Y0067203D01*
X0202772Y0067142D01*
X0202826Y0067078D01*
X0202878Y0067012D01*
X0202926Y0066944D01*
X0202971Y0066873D01*
X0203012Y0066800D01*
X0203051Y0066726D01*
X0203085Y0066650D01*
X0203116Y0066572D01*
X0203143Y0066493D01*
X0203167Y0066412D01*
X0203186Y0066331D01*
X0203202Y0066249D01*
X0203214Y0066166D01*
X0203222Y0066082D01*
X0203226Y0065999D01*
X0203226Y0065915D01*
X0203222Y0065832D01*
X0203214Y0065748D01*
X0203202Y0065665D01*
X0203186Y0065583D01*
X0203167Y0065502D01*
X0203143Y0065421D01*
X0203116Y0065342D01*
X0203085Y0065264D01*
X0203051Y0065188D01*
X0203012Y0065114D01*
X0202971Y0065041D01*
X0202926Y0064970D01*
X0202878Y0064902D01*
X0202826Y0064836D01*
X0202772Y0064772D01*
X0202714Y0064711D01*
X0202654Y0064653D01*
X0202591Y0064598D01*
X0202526Y0064546D01*
X0202458Y0064497D01*
X0202388Y0064451D01*
X0202316Y0064409D01*
X0202242Y0064370D01*
X0202166Y0064334D01*
X0202088Y0064302D01*
X0202010Y0064274D01*
X0201929Y0064250D01*
X0201848Y0064229D01*
X0201766Y0064213D01*
X0201684Y0064200D01*
X0201600Y0064191D01*
X0201517Y0064186D01*
X0201433Y0064185D01*
X0201349Y0064188D01*
X0201266Y0064195D01*
X0201183Y0064206D01*
X0201101Y0064221D01*
X0201019Y0064239D01*
X0200938Y0064262D01*
X0200859Y0064288D01*
X0200781Y0064318D01*
X0200704Y0064352D01*
X0200629Y0064389D01*
X0200556Y0064429D01*
X0200485Y0064474D01*
X0200416Y0064521D01*
X0200349Y0064572D01*
X0200285Y0064625D01*
X0200223Y0064682D01*
X0200165Y0064742D01*
X0200109Y0064804D01*
X0200056Y0064869D01*
X0200006Y0064936D01*
X0199959Y0065005D01*
X0199916Y0065077D01*
X0199876Y0065151D01*
X0199840Y0065226D01*
X0199807Y0065303D01*
X0199778Y0065382D01*
X0199753Y0065461D01*
X0199731Y0065542D01*
X0199714Y0065624D01*
X0199700Y0065707D01*
X0199690Y0065790D01*
X0199684Y0065873D01*
X0199682Y0065957D01*
X0199682Y0085643D02*
X0199684Y0085727D01*
X0199690Y0085810D01*
X0199700Y0085893D01*
X0199714Y0085976D01*
X0199731Y0086058D01*
X0199753Y0086139D01*
X0199778Y0086218D01*
X0199807Y0086297D01*
X0199840Y0086374D01*
X0199876Y0086449D01*
X0199916Y0086523D01*
X0199959Y0086595D01*
X0200006Y0086664D01*
X0200056Y0086731D01*
X0200109Y0086796D01*
X0200165Y0086858D01*
X0200223Y0086918D01*
X0200285Y0086975D01*
X0200349Y0087028D01*
X0200416Y0087079D01*
X0200485Y0087126D01*
X0200556Y0087171D01*
X0200629Y0087211D01*
X0200704Y0087248D01*
X0200781Y0087282D01*
X0200859Y0087312D01*
X0200938Y0087338D01*
X0201019Y0087361D01*
X0201101Y0087379D01*
X0201183Y0087394D01*
X0201266Y0087405D01*
X0201349Y0087412D01*
X0201433Y0087415D01*
X0201517Y0087414D01*
X0201600Y0087409D01*
X0201684Y0087400D01*
X0201766Y0087387D01*
X0201848Y0087371D01*
X0201929Y0087350D01*
X0202010Y0087326D01*
X0202088Y0087298D01*
X0202166Y0087266D01*
X0202242Y0087230D01*
X0202316Y0087191D01*
X0202388Y0087149D01*
X0202458Y0087103D01*
X0202526Y0087054D01*
X0202591Y0087002D01*
X0202654Y0086947D01*
X0202714Y0086889D01*
X0202772Y0086828D01*
X0202826Y0086764D01*
X0202878Y0086698D01*
X0202926Y0086630D01*
X0202971Y0086559D01*
X0203012Y0086486D01*
X0203051Y0086412D01*
X0203085Y0086336D01*
X0203116Y0086258D01*
X0203143Y0086179D01*
X0203167Y0086098D01*
X0203186Y0086017D01*
X0203202Y0085935D01*
X0203214Y0085852D01*
X0203222Y0085768D01*
X0203226Y0085685D01*
X0203226Y0085601D01*
X0203222Y0085518D01*
X0203214Y0085434D01*
X0203202Y0085351D01*
X0203186Y0085269D01*
X0203167Y0085188D01*
X0203143Y0085107D01*
X0203116Y0085028D01*
X0203085Y0084950D01*
X0203051Y0084874D01*
X0203012Y0084800D01*
X0202971Y0084727D01*
X0202926Y0084656D01*
X0202878Y0084588D01*
X0202826Y0084522D01*
X0202772Y0084458D01*
X0202714Y0084397D01*
X0202654Y0084339D01*
X0202591Y0084284D01*
X0202526Y0084232D01*
X0202458Y0084183D01*
X0202388Y0084137D01*
X0202316Y0084095D01*
X0202242Y0084056D01*
X0202166Y0084020D01*
X0202088Y0083988D01*
X0202010Y0083960D01*
X0201929Y0083936D01*
X0201848Y0083915D01*
X0201766Y0083899D01*
X0201684Y0083886D01*
X0201600Y0083877D01*
X0201517Y0083872D01*
X0201433Y0083871D01*
X0201349Y0083874D01*
X0201266Y0083881D01*
X0201183Y0083892D01*
X0201101Y0083907D01*
X0201019Y0083925D01*
X0200938Y0083948D01*
X0200859Y0083974D01*
X0200781Y0084004D01*
X0200704Y0084038D01*
X0200629Y0084075D01*
X0200556Y0084115D01*
X0200485Y0084160D01*
X0200416Y0084207D01*
X0200349Y0084258D01*
X0200285Y0084311D01*
X0200223Y0084368D01*
X0200165Y0084428D01*
X0200109Y0084490D01*
X0200056Y0084555D01*
X0200006Y0084622D01*
X0199959Y0084691D01*
X0199916Y0084763D01*
X0199876Y0084837D01*
X0199840Y0084912D01*
X0199807Y0084989D01*
X0199778Y0085068D01*
X0199753Y0085147D01*
X0199731Y0085228D01*
X0199714Y0085310D01*
X0199700Y0085393D01*
X0199690Y0085476D01*
X0199684Y0085559D01*
X0199682Y0085643D01*
X0199683Y0093831D02*
X0203226Y0093831D01*
X0202616Y0096115D01*
X0200293Y0096115D02*
X0199683Y0093831D01*
X0199682Y0105957D02*
X0199684Y0106041D01*
X0199690Y0106124D01*
X0199700Y0106207D01*
X0199714Y0106290D01*
X0199731Y0106372D01*
X0199753Y0106453D01*
X0199778Y0106532D01*
X0199807Y0106611D01*
X0199840Y0106688D01*
X0199876Y0106763D01*
X0199916Y0106837D01*
X0199959Y0106909D01*
X0200006Y0106978D01*
X0200056Y0107045D01*
X0200109Y0107110D01*
X0200165Y0107172D01*
X0200223Y0107232D01*
X0200285Y0107289D01*
X0200349Y0107342D01*
X0200416Y0107393D01*
X0200485Y0107440D01*
X0200556Y0107485D01*
X0200629Y0107525D01*
X0200704Y0107562D01*
X0200781Y0107596D01*
X0200859Y0107626D01*
X0200938Y0107652D01*
X0201019Y0107675D01*
X0201101Y0107693D01*
X0201183Y0107708D01*
X0201266Y0107719D01*
X0201349Y0107726D01*
X0201433Y0107729D01*
X0201517Y0107728D01*
X0201600Y0107723D01*
X0201684Y0107714D01*
X0201766Y0107701D01*
X0201848Y0107685D01*
X0201929Y0107664D01*
X0202010Y0107640D01*
X0202088Y0107612D01*
X0202166Y0107580D01*
X0202242Y0107544D01*
X0202316Y0107505D01*
X0202388Y0107463D01*
X0202458Y0107417D01*
X0202526Y0107368D01*
X0202591Y0107316D01*
X0202654Y0107261D01*
X0202714Y0107203D01*
X0202772Y0107142D01*
X0202826Y0107078D01*
X0202878Y0107012D01*
X0202926Y0106944D01*
X0202971Y0106873D01*
X0203012Y0106800D01*
X0203051Y0106726D01*
X0203085Y0106650D01*
X0203116Y0106572D01*
X0203143Y0106493D01*
X0203167Y0106412D01*
X0203186Y0106331D01*
X0203202Y0106249D01*
X0203214Y0106166D01*
X0203222Y0106082D01*
X0203226Y0105999D01*
X0203226Y0105915D01*
X0203222Y0105832D01*
X0203214Y0105748D01*
X0203202Y0105665D01*
X0203186Y0105583D01*
X0203167Y0105502D01*
X0203143Y0105421D01*
X0203116Y0105342D01*
X0203085Y0105264D01*
X0203051Y0105188D01*
X0203012Y0105114D01*
X0202971Y0105041D01*
X0202926Y0104970D01*
X0202878Y0104902D01*
X0202826Y0104836D01*
X0202772Y0104772D01*
X0202714Y0104711D01*
X0202654Y0104653D01*
X0202591Y0104598D01*
X0202526Y0104546D01*
X0202458Y0104497D01*
X0202388Y0104451D01*
X0202316Y0104409D01*
X0202242Y0104370D01*
X0202166Y0104334D01*
X0202088Y0104302D01*
X0202010Y0104274D01*
X0201929Y0104250D01*
X0201848Y0104229D01*
X0201766Y0104213D01*
X0201684Y0104200D01*
X0201600Y0104191D01*
X0201517Y0104186D01*
X0201433Y0104185D01*
X0201349Y0104188D01*
X0201266Y0104195D01*
X0201183Y0104206D01*
X0201101Y0104221D01*
X0201019Y0104239D01*
X0200938Y0104262D01*
X0200859Y0104288D01*
X0200781Y0104318D01*
X0200704Y0104352D01*
X0200629Y0104389D01*
X0200556Y0104429D01*
X0200485Y0104474D01*
X0200416Y0104521D01*
X0200349Y0104572D01*
X0200285Y0104625D01*
X0200223Y0104682D01*
X0200165Y0104742D01*
X0200109Y0104804D01*
X0200056Y0104869D01*
X0200006Y0104936D01*
X0199959Y0105005D01*
X0199916Y0105077D01*
X0199876Y0105151D01*
X0199840Y0105226D01*
X0199807Y0105303D01*
X0199778Y0105382D01*
X0199753Y0105461D01*
X0199731Y0105542D01*
X0199714Y0105624D01*
X0199700Y0105707D01*
X0199690Y0105790D01*
X0199684Y0105873D01*
X0199682Y0105957D01*
X0199682Y0125643D02*
X0199684Y0125727D01*
X0199690Y0125810D01*
X0199700Y0125893D01*
X0199714Y0125976D01*
X0199731Y0126058D01*
X0199753Y0126139D01*
X0199778Y0126218D01*
X0199807Y0126297D01*
X0199840Y0126374D01*
X0199876Y0126449D01*
X0199916Y0126523D01*
X0199959Y0126595D01*
X0200006Y0126664D01*
X0200056Y0126731D01*
X0200109Y0126796D01*
X0200165Y0126858D01*
X0200223Y0126918D01*
X0200285Y0126975D01*
X0200349Y0127028D01*
X0200416Y0127079D01*
X0200485Y0127126D01*
X0200556Y0127171D01*
X0200629Y0127211D01*
X0200704Y0127248D01*
X0200781Y0127282D01*
X0200859Y0127312D01*
X0200938Y0127338D01*
X0201019Y0127361D01*
X0201101Y0127379D01*
X0201183Y0127394D01*
X0201266Y0127405D01*
X0201349Y0127412D01*
X0201433Y0127415D01*
X0201517Y0127414D01*
X0201600Y0127409D01*
X0201684Y0127400D01*
X0201766Y0127387D01*
X0201848Y0127371D01*
X0201929Y0127350D01*
X0202010Y0127326D01*
X0202088Y0127298D01*
X0202166Y0127266D01*
X0202242Y0127230D01*
X0202316Y0127191D01*
X0202388Y0127149D01*
X0202458Y0127103D01*
X0202526Y0127054D01*
X0202591Y0127002D01*
X0202654Y0126947D01*
X0202714Y0126889D01*
X0202772Y0126828D01*
X0202826Y0126764D01*
X0202878Y0126698D01*
X0202926Y0126630D01*
X0202971Y0126559D01*
X0203012Y0126486D01*
X0203051Y0126412D01*
X0203085Y0126336D01*
X0203116Y0126258D01*
X0203143Y0126179D01*
X0203167Y0126098D01*
X0203186Y0126017D01*
X0203202Y0125935D01*
X0203214Y0125852D01*
X0203222Y0125768D01*
X0203226Y0125685D01*
X0203226Y0125601D01*
X0203222Y0125518D01*
X0203214Y0125434D01*
X0203202Y0125351D01*
X0203186Y0125269D01*
X0203167Y0125188D01*
X0203143Y0125107D01*
X0203116Y0125028D01*
X0203085Y0124950D01*
X0203051Y0124874D01*
X0203012Y0124800D01*
X0202971Y0124727D01*
X0202926Y0124656D01*
X0202878Y0124588D01*
X0202826Y0124522D01*
X0202772Y0124458D01*
X0202714Y0124397D01*
X0202654Y0124339D01*
X0202591Y0124284D01*
X0202526Y0124232D01*
X0202458Y0124183D01*
X0202388Y0124137D01*
X0202316Y0124095D01*
X0202242Y0124056D01*
X0202166Y0124020D01*
X0202088Y0123988D01*
X0202010Y0123960D01*
X0201929Y0123936D01*
X0201848Y0123915D01*
X0201766Y0123899D01*
X0201684Y0123886D01*
X0201600Y0123877D01*
X0201517Y0123872D01*
X0201433Y0123871D01*
X0201349Y0123874D01*
X0201266Y0123881D01*
X0201183Y0123892D01*
X0201101Y0123907D01*
X0201019Y0123925D01*
X0200938Y0123948D01*
X0200859Y0123974D01*
X0200781Y0124004D01*
X0200704Y0124038D01*
X0200629Y0124075D01*
X0200556Y0124115D01*
X0200485Y0124160D01*
X0200416Y0124207D01*
X0200349Y0124258D01*
X0200285Y0124311D01*
X0200223Y0124368D01*
X0200165Y0124428D01*
X0200109Y0124490D01*
X0200056Y0124555D01*
X0200006Y0124622D01*
X0199959Y0124691D01*
X0199916Y0124763D01*
X0199876Y0124837D01*
X0199840Y0124912D01*
X0199807Y0124989D01*
X0199778Y0125068D01*
X0199753Y0125147D01*
X0199731Y0125228D01*
X0199714Y0125310D01*
X0199700Y0125393D01*
X0199690Y0125476D01*
X0199684Y0125559D01*
X0199682Y0125643D01*
D18*
X0118291Y0121597D02*
X0111909Y0121597D01*
X0111909Y0110003D02*
X0118291Y0110003D01*
X0118291Y0079097D02*
X0111909Y0079097D01*
X0111909Y0067503D02*
X0118291Y0067503D01*
D19*
X0114047Y0077050D03*
X0114047Y0119550D03*
D20*
X0069100Y0054678D03*
M02*
