G75*
%MOIN*%
%OFA0B0*%
%FSLAX25Y25*%
%IPPOS*%
%LPD*%
%AMOC8*
5,1,8,0,0,1.08239X$1,22.5*
%
%ADD10C,0.01000*%
%ADD11C,0.00000*%
%ADD12C,0.07400*%
%ADD13R,0.07400X0.07400*%
%ADD14C,0.09370*%
%ADD15C,0.03377*%
%ADD16C,0.02400*%
%ADD17C,0.01200*%
%ADD18C,0.03377*%
%ADD19C,0.07000*%
%ADD20C,0.05600*%
D10*
X0005537Y0010800D02*
X0212663Y0010800D01*
X0212787Y0010802D01*
X0212910Y0010808D01*
X0213034Y0010817D01*
X0213156Y0010831D01*
X0213279Y0010848D01*
X0213401Y0010870D01*
X0213522Y0010895D01*
X0213642Y0010924D01*
X0213761Y0010956D01*
X0213880Y0010993D01*
X0213997Y0011033D01*
X0214112Y0011076D01*
X0214227Y0011124D01*
X0214339Y0011175D01*
X0214450Y0011229D01*
X0214560Y0011287D01*
X0214667Y0011348D01*
X0214773Y0011413D01*
X0214876Y0011481D01*
X0214977Y0011552D01*
X0215076Y0011626D01*
X0215173Y0011703D01*
X0215267Y0011784D01*
X0215358Y0011867D01*
X0215447Y0011953D01*
X0215533Y0012042D01*
X0215616Y0012133D01*
X0215697Y0012227D01*
X0215774Y0012324D01*
X0215848Y0012423D01*
X0215919Y0012524D01*
X0215987Y0012627D01*
X0216052Y0012733D01*
X0216113Y0012840D01*
X0216171Y0012950D01*
X0216225Y0013061D01*
X0216276Y0013173D01*
X0216324Y0013288D01*
X0216367Y0013403D01*
X0216407Y0013520D01*
X0216444Y0013639D01*
X0216476Y0013758D01*
X0216505Y0013878D01*
X0216530Y0013999D01*
X0216552Y0014121D01*
X0216569Y0014244D01*
X0216583Y0014366D01*
X0216592Y0014490D01*
X0216598Y0014613D01*
X0216600Y0014737D01*
X0216600Y0020800D01*
X0226600Y0030800D01*
X0226600Y0159800D01*
X0216600Y0169800D01*
X0216600Y0214800D01*
X0210600Y0220800D01*
X0005537Y0220800D01*
X0005413Y0220798D01*
X0005290Y0220792D01*
X0005166Y0220783D01*
X0005044Y0220769D01*
X0004921Y0220752D01*
X0004799Y0220730D01*
X0004678Y0220705D01*
X0004558Y0220676D01*
X0004439Y0220644D01*
X0004320Y0220607D01*
X0004203Y0220567D01*
X0004088Y0220524D01*
X0003973Y0220476D01*
X0003861Y0220425D01*
X0003750Y0220371D01*
X0003640Y0220313D01*
X0003533Y0220252D01*
X0003427Y0220187D01*
X0003324Y0220119D01*
X0003223Y0220048D01*
X0003124Y0219974D01*
X0003027Y0219897D01*
X0002933Y0219816D01*
X0002842Y0219733D01*
X0002753Y0219647D01*
X0002667Y0219558D01*
X0002584Y0219467D01*
X0002503Y0219373D01*
X0002426Y0219276D01*
X0002352Y0219177D01*
X0002281Y0219076D01*
X0002213Y0218973D01*
X0002148Y0218867D01*
X0002087Y0218760D01*
X0002029Y0218650D01*
X0001975Y0218539D01*
X0001924Y0218427D01*
X0001876Y0218312D01*
X0001833Y0218197D01*
X0001793Y0218080D01*
X0001756Y0217961D01*
X0001724Y0217842D01*
X0001695Y0217722D01*
X0001670Y0217601D01*
X0001648Y0217479D01*
X0001631Y0217356D01*
X0001617Y0217234D01*
X0001608Y0217110D01*
X0001602Y0216987D01*
X0001600Y0216863D01*
X0001600Y0014737D01*
X0001602Y0014613D01*
X0001608Y0014490D01*
X0001617Y0014366D01*
X0001631Y0014244D01*
X0001648Y0014121D01*
X0001670Y0013999D01*
X0001695Y0013878D01*
X0001724Y0013758D01*
X0001756Y0013639D01*
X0001793Y0013520D01*
X0001833Y0013403D01*
X0001876Y0013288D01*
X0001924Y0013173D01*
X0001975Y0013061D01*
X0002029Y0012950D01*
X0002087Y0012840D01*
X0002148Y0012733D01*
X0002213Y0012627D01*
X0002281Y0012524D01*
X0002352Y0012423D01*
X0002426Y0012324D01*
X0002503Y0012227D01*
X0002584Y0012133D01*
X0002667Y0012042D01*
X0002753Y0011953D01*
X0002842Y0011867D01*
X0002933Y0011784D01*
X0003027Y0011703D01*
X0003124Y0011626D01*
X0003223Y0011552D01*
X0003324Y0011481D01*
X0003427Y0011413D01*
X0003533Y0011348D01*
X0003640Y0011287D01*
X0003750Y0011229D01*
X0003861Y0011175D01*
X0003973Y0011124D01*
X0004088Y0011076D01*
X0004203Y0011033D01*
X0004320Y0010993D01*
X0004439Y0010956D01*
X0004558Y0010924D01*
X0004678Y0010895D01*
X0004799Y0010870D01*
X0004921Y0010848D01*
X0005044Y0010831D01*
X0005166Y0010817D01*
X0005290Y0010808D01*
X0005413Y0010802D01*
X0005537Y0010800D01*
X0126600Y0085800D02*
X0129100Y0088300D01*
X0166350Y0091800D02*
X0166350Y0094800D01*
X0176600Y0094800D01*
X0176600Y0091800D01*
X0166350Y0091800D01*
X0166350Y0092678D02*
X0176600Y0092678D01*
X0176600Y0093676D02*
X0166350Y0093676D01*
X0166350Y0094675D02*
X0176600Y0094675D01*
X0176600Y0097000D02*
X0166350Y0097000D01*
X0166350Y0099800D01*
X0176600Y0099800D01*
X0176600Y0097000D01*
X0176600Y0097670D02*
X0166350Y0097670D01*
X0166350Y0098669D02*
X0176600Y0098669D01*
X0176600Y0099668D02*
X0166350Y0099668D01*
X0172850Y0099668D02*
X0202968Y0099668D01*
X0203966Y0100666D02*
X0173716Y0100666D01*
X0174350Y0101300D02*
X0194600Y0101300D01*
X0203350Y0110050D01*
X0217350Y0110050D01*
X0219100Y0108300D01*
X0219100Y0103300D01*
X0217600Y0101800D01*
X0205100Y0101800D01*
X0200300Y0097000D01*
X0172850Y0097000D01*
X0172850Y0099800D01*
X0174350Y0101300D01*
X0172850Y0098669D02*
X0201969Y0098669D01*
X0200970Y0097670D02*
X0172850Y0097670D01*
X0172850Y0094800D02*
X0200100Y0094800D01*
X0205100Y0089800D01*
X0217600Y0089550D01*
X0219100Y0088300D01*
X0219100Y0083300D01*
X0217350Y0081550D01*
X0203350Y0081550D01*
X0194600Y0090300D01*
X0174600Y0090300D01*
X0172850Y0092050D01*
X0172850Y0094800D01*
X0172850Y0094675D02*
X0200225Y0094675D01*
X0201224Y0093676D02*
X0172850Y0093676D01*
X0172850Y0092678D02*
X0202222Y0092678D01*
X0203221Y0091679D02*
X0173221Y0091679D01*
X0174219Y0090681D02*
X0204219Y0090681D01*
X0210980Y0089682D02*
X0195218Y0089682D01*
X0196216Y0088684D02*
X0218639Y0088684D01*
X0219100Y0087685D02*
X0197215Y0087685D01*
X0198213Y0086687D02*
X0219100Y0086687D01*
X0219100Y0085688D02*
X0199212Y0085688D01*
X0200210Y0084690D02*
X0219100Y0084690D01*
X0219100Y0083691D02*
X0201209Y0083691D01*
X0202207Y0082693D02*
X0218493Y0082693D01*
X0217494Y0081694D02*
X0203206Y0081694D01*
X0198198Y0076702D02*
X0188198Y0076702D01*
X0187200Y0077700D02*
X0197200Y0077700D01*
X0196201Y0078699D02*
X0175701Y0078699D01*
X0176100Y0078300D02*
X0172850Y0081550D01*
X0172850Y0084550D01*
X0190350Y0084550D01*
X0204850Y0070050D01*
X0217350Y0070050D01*
X0219100Y0068300D01*
X0219100Y0063300D01*
X0217600Y0061800D01*
X0203100Y0061800D01*
X0186600Y0078300D01*
X0176100Y0078300D01*
X0174703Y0079697D02*
X0195203Y0079697D01*
X0194204Y0080696D02*
X0173704Y0080696D01*
X0172850Y0081694D02*
X0193206Y0081694D01*
X0192207Y0082693D02*
X0172850Y0082693D01*
X0172850Y0083691D02*
X0191209Y0083691D01*
X0189197Y0075703D02*
X0199197Y0075703D01*
X0200195Y0074705D02*
X0190195Y0074705D01*
X0191194Y0073706D02*
X0201194Y0073706D01*
X0202192Y0072708D02*
X0192192Y0072708D01*
X0193191Y0071709D02*
X0203191Y0071709D01*
X0204189Y0070711D02*
X0194189Y0070711D01*
X0195188Y0069712D02*
X0217688Y0069712D01*
X0218686Y0068714D02*
X0196186Y0068714D01*
X0197185Y0067715D02*
X0219100Y0067715D01*
X0219100Y0066717D02*
X0198183Y0066717D01*
X0199182Y0065718D02*
X0219100Y0065718D01*
X0219100Y0064720D02*
X0200180Y0064720D01*
X0201179Y0063721D02*
X0219100Y0063721D01*
X0218523Y0062723D02*
X0202177Y0062723D01*
X0176600Y0081550D02*
X0166350Y0081550D01*
X0166350Y0084425D01*
X0176600Y0084425D01*
X0176600Y0081550D01*
X0176600Y0081694D02*
X0166350Y0081694D01*
X0166350Y0082693D02*
X0176600Y0082693D01*
X0176600Y0083691D02*
X0166350Y0083691D01*
X0166350Y0107175D02*
X0166350Y0110050D01*
X0176600Y0110050D01*
X0176600Y0107175D01*
X0166350Y0107175D01*
X0166350Y0107656D02*
X0176600Y0107656D01*
X0176600Y0108654D02*
X0166350Y0108654D01*
X0166350Y0109653D02*
X0176600Y0109653D01*
X0174700Y0111650D02*
X0196200Y0111650D01*
X0197198Y0112648D02*
X0175698Y0112648D01*
X0176350Y0113300D02*
X0172850Y0109800D01*
X0172850Y0107050D01*
X0191600Y0107050D01*
X0206100Y0121550D01*
X0217350Y0121550D01*
X0219100Y0123300D01*
X0219100Y0128300D01*
X0217600Y0129800D01*
X0203100Y0129800D01*
X0186600Y0113300D01*
X0176350Y0113300D01*
X0173701Y0110651D02*
X0195201Y0110651D01*
X0194203Y0109653D02*
X0172850Y0109653D01*
X0172850Y0108654D02*
X0193204Y0108654D01*
X0192206Y0107656D02*
X0172850Y0107656D01*
X0186947Y0113647D02*
X0198197Y0113647D01*
X0199195Y0114645D02*
X0187945Y0114645D01*
X0188944Y0115644D02*
X0200194Y0115644D01*
X0201192Y0116642D02*
X0189942Y0116642D01*
X0190941Y0117641D02*
X0202191Y0117641D01*
X0203189Y0118639D02*
X0191939Y0118639D01*
X0192938Y0119638D02*
X0204188Y0119638D01*
X0205186Y0120636D02*
X0193936Y0120636D01*
X0194935Y0121635D02*
X0217435Y0121635D01*
X0218433Y0122633D02*
X0195933Y0122633D01*
X0196932Y0123632D02*
X0219100Y0123632D01*
X0219100Y0124630D02*
X0197930Y0124630D01*
X0198929Y0125629D02*
X0219100Y0125629D01*
X0219100Y0126627D02*
X0199927Y0126627D01*
X0200926Y0127626D02*
X0219100Y0127626D01*
X0218776Y0128624D02*
X0201924Y0128624D01*
X0202923Y0129623D02*
X0217777Y0129623D01*
X0217747Y0109653D02*
X0202953Y0109653D01*
X0201954Y0108654D02*
X0218746Y0108654D01*
X0219100Y0107656D02*
X0200956Y0107656D01*
X0199957Y0106657D02*
X0219100Y0106657D01*
X0219100Y0105659D02*
X0198959Y0105659D01*
X0197960Y0104660D02*
X0219100Y0104660D01*
X0219100Y0103662D02*
X0196962Y0103662D01*
X0195963Y0102663D02*
X0218463Y0102663D01*
X0204965Y0101665D02*
X0194965Y0101665D01*
D11*
X0210301Y0150800D02*
X0210303Y0150958D01*
X0210309Y0151116D01*
X0210319Y0151274D01*
X0210333Y0151432D01*
X0210351Y0151589D01*
X0210372Y0151746D01*
X0210398Y0151902D01*
X0210428Y0152058D01*
X0210461Y0152213D01*
X0210499Y0152366D01*
X0210540Y0152519D01*
X0210585Y0152671D01*
X0210634Y0152822D01*
X0210687Y0152971D01*
X0210743Y0153119D01*
X0210803Y0153265D01*
X0210867Y0153410D01*
X0210935Y0153553D01*
X0211006Y0153695D01*
X0211080Y0153835D01*
X0211158Y0153972D01*
X0211240Y0154108D01*
X0211324Y0154242D01*
X0211413Y0154373D01*
X0211504Y0154502D01*
X0211599Y0154629D01*
X0211696Y0154754D01*
X0211797Y0154876D01*
X0211901Y0154995D01*
X0212008Y0155112D01*
X0212118Y0155226D01*
X0212231Y0155337D01*
X0212346Y0155446D01*
X0212464Y0155551D01*
X0212585Y0155653D01*
X0212708Y0155753D01*
X0212834Y0155849D01*
X0212962Y0155942D01*
X0213092Y0156032D01*
X0213225Y0156118D01*
X0213360Y0156202D01*
X0213496Y0156281D01*
X0213635Y0156358D01*
X0213776Y0156430D01*
X0213918Y0156500D01*
X0214062Y0156565D01*
X0214208Y0156627D01*
X0214355Y0156685D01*
X0214504Y0156740D01*
X0214654Y0156791D01*
X0214805Y0156838D01*
X0214957Y0156881D01*
X0215110Y0156920D01*
X0215265Y0156956D01*
X0215420Y0156987D01*
X0215576Y0157015D01*
X0215732Y0157039D01*
X0215889Y0157059D01*
X0216047Y0157075D01*
X0216204Y0157087D01*
X0216363Y0157095D01*
X0216521Y0157099D01*
X0216679Y0157099D01*
X0216837Y0157095D01*
X0216996Y0157087D01*
X0217153Y0157075D01*
X0217311Y0157059D01*
X0217468Y0157039D01*
X0217624Y0157015D01*
X0217780Y0156987D01*
X0217935Y0156956D01*
X0218090Y0156920D01*
X0218243Y0156881D01*
X0218395Y0156838D01*
X0218546Y0156791D01*
X0218696Y0156740D01*
X0218845Y0156685D01*
X0218992Y0156627D01*
X0219138Y0156565D01*
X0219282Y0156500D01*
X0219424Y0156430D01*
X0219565Y0156358D01*
X0219704Y0156281D01*
X0219840Y0156202D01*
X0219975Y0156118D01*
X0220108Y0156032D01*
X0220238Y0155942D01*
X0220366Y0155849D01*
X0220492Y0155753D01*
X0220615Y0155653D01*
X0220736Y0155551D01*
X0220854Y0155446D01*
X0220969Y0155337D01*
X0221082Y0155226D01*
X0221192Y0155112D01*
X0221299Y0154995D01*
X0221403Y0154876D01*
X0221504Y0154754D01*
X0221601Y0154629D01*
X0221696Y0154502D01*
X0221787Y0154373D01*
X0221876Y0154242D01*
X0221960Y0154108D01*
X0222042Y0153972D01*
X0222120Y0153835D01*
X0222194Y0153695D01*
X0222265Y0153553D01*
X0222333Y0153410D01*
X0222397Y0153265D01*
X0222457Y0153119D01*
X0222513Y0152971D01*
X0222566Y0152822D01*
X0222615Y0152671D01*
X0222660Y0152519D01*
X0222701Y0152366D01*
X0222739Y0152213D01*
X0222772Y0152058D01*
X0222802Y0151902D01*
X0222828Y0151746D01*
X0222849Y0151589D01*
X0222867Y0151432D01*
X0222881Y0151274D01*
X0222891Y0151116D01*
X0222897Y0150958D01*
X0222899Y0150800D01*
X0222897Y0150642D01*
X0222891Y0150484D01*
X0222881Y0150326D01*
X0222867Y0150168D01*
X0222849Y0150011D01*
X0222828Y0149854D01*
X0222802Y0149698D01*
X0222772Y0149542D01*
X0222739Y0149387D01*
X0222701Y0149234D01*
X0222660Y0149081D01*
X0222615Y0148929D01*
X0222566Y0148778D01*
X0222513Y0148629D01*
X0222457Y0148481D01*
X0222397Y0148335D01*
X0222333Y0148190D01*
X0222265Y0148047D01*
X0222194Y0147905D01*
X0222120Y0147765D01*
X0222042Y0147628D01*
X0221960Y0147492D01*
X0221876Y0147358D01*
X0221787Y0147227D01*
X0221696Y0147098D01*
X0221601Y0146971D01*
X0221504Y0146846D01*
X0221403Y0146724D01*
X0221299Y0146605D01*
X0221192Y0146488D01*
X0221082Y0146374D01*
X0220969Y0146263D01*
X0220854Y0146154D01*
X0220736Y0146049D01*
X0220615Y0145947D01*
X0220492Y0145847D01*
X0220366Y0145751D01*
X0220238Y0145658D01*
X0220108Y0145568D01*
X0219975Y0145482D01*
X0219840Y0145398D01*
X0219704Y0145319D01*
X0219565Y0145242D01*
X0219424Y0145170D01*
X0219282Y0145100D01*
X0219138Y0145035D01*
X0218992Y0144973D01*
X0218845Y0144915D01*
X0218696Y0144860D01*
X0218546Y0144809D01*
X0218395Y0144762D01*
X0218243Y0144719D01*
X0218090Y0144680D01*
X0217935Y0144644D01*
X0217780Y0144613D01*
X0217624Y0144585D01*
X0217468Y0144561D01*
X0217311Y0144541D01*
X0217153Y0144525D01*
X0216996Y0144513D01*
X0216837Y0144505D01*
X0216679Y0144501D01*
X0216521Y0144501D01*
X0216363Y0144505D01*
X0216204Y0144513D01*
X0216047Y0144525D01*
X0215889Y0144541D01*
X0215732Y0144561D01*
X0215576Y0144585D01*
X0215420Y0144613D01*
X0215265Y0144644D01*
X0215110Y0144680D01*
X0214957Y0144719D01*
X0214805Y0144762D01*
X0214654Y0144809D01*
X0214504Y0144860D01*
X0214355Y0144915D01*
X0214208Y0144973D01*
X0214062Y0145035D01*
X0213918Y0145100D01*
X0213776Y0145170D01*
X0213635Y0145242D01*
X0213496Y0145319D01*
X0213360Y0145398D01*
X0213225Y0145482D01*
X0213092Y0145568D01*
X0212962Y0145658D01*
X0212834Y0145751D01*
X0212708Y0145847D01*
X0212585Y0145947D01*
X0212464Y0146049D01*
X0212346Y0146154D01*
X0212231Y0146263D01*
X0212118Y0146374D01*
X0212008Y0146488D01*
X0211901Y0146605D01*
X0211797Y0146724D01*
X0211696Y0146846D01*
X0211599Y0146971D01*
X0211504Y0147098D01*
X0211413Y0147227D01*
X0211324Y0147358D01*
X0211240Y0147492D01*
X0211158Y0147628D01*
X0211080Y0147765D01*
X0211006Y0147905D01*
X0210935Y0148047D01*
X0210867Y0148190D01*
X0210803Y0148335D01*
X0210743Y0148481D01*
X0210687Y0148629D01*
X0210634Y0148778D01*
X0210585Y0148929D01*
X0210540Y0149081D01*
X0210499Y0149234D01*
X0210461Y0149387D01*
X0210428Y0149542D01*
X0210398Y0149698D01*
X0210372Y0149854D01*
X0210351Y0150011D01*
X0210333Y0150168D01*
X0210319Y0150326D01*
X0210309Y0150484D01*
X0210303Y0150642D01*
X0210301Y0150800D01*
X0210301Y0040800D02*
X0210303Y0040958D01*
X0210309Y0041116D01*
X0210319Y0041274D01*
X0210333Y0041432D01*
X0210351Y0041589D01*
X0210372Y0041746D01*
X0210398Y0041902D01*
X0210428Y0042058D01*
X0210461Y0042213D01*
X0210499Y0042366D01*
X0210540Y0042519D01*
X0210585Y0042671D01*
X0210634Y0042822D01*
X0210687Y0042971D01*
X0210743Y0043119D01*
X0210803Y0043265D01*
X0210867Y0043410D01*
X0210935Y0043553D01*
X0211006Y0043695D01*
X0211080Y0043835D01*
X0211158Y0043972D01*
X0211240Y0044108D01*
X0211324Y0044242D01*
X0211413Y0044373D01*
X0211504Y0044502D01*
X0211599Y0044629D01*
X0211696Y0044754D01*
X0211797Y0044876D01*
X0211901Y0044995D01*
X0212008Y0045112D01*
X0212118Y0045226D01*
X0212231Y0045337D01*
X0212346Y0045446D01*
X0212464Y0045551D01*
X0212585Y0045653D01*
X0212708Y0045753D01*
X0212834Y0045849D01*
X0212962Y0045942D01*
X0213092Y0046032D01*
X0213225Y0046118D01*
X0213360Y0046202D01*
X0213496Y0046281D01*
X0213635Y0046358D01*
X0213776Y0046430D01*
X0213918Y0046500D01*
X0214062Y0046565D01*
X0214208Y0046627D01*
X0214355Y0046685D01*
X0214504Y0046740D01*
X0214654Y0046791D01*
X0214805Y0046838D01*
X0214957Y0046881D01*
X0215110Y0046920D01*
X0215265Y0046956D01*
X0215420Y0046987D01*
X0215576Y0047015D01*
X0215732Y0047039D01*
X0215889Y0047059D01*
X0216047Y0047075D01*
X0216204Y0047087D01*
X0216363Y0047095D01*
X0216521Y0047099D01*
X0216679Y0047099D01*
X0216837Y0047095D01*
X0216996Y0047087D01*
X0217153Y0047075D01*
X0217311Y0047059D01*
X0217468Y0047039D01*
X0217624Y0047015D01*
X0217780Y0046987D01*
X0217935Y0046956D01*
X0218090Y0046920D01*
X0218243Y0046881D01*
X0218395Y0046838D01*
X0218546Y0046791D01*
X0218696Y0046740D01*
X0218845Y0046685D01*
X0218992Y0046627D01*
X0219138Y0046565D01*
X0219282Y0046500D01*
X0219424Y0046430D01*
X0219565Y0046358D01*
X0219704Y0046281D01*
X0219840Y0046202D01*
X0219975Y0046118D01*
X0220108Y0046032D01*
X0220238Y0045942D01*
X0220366Y0045849D01*
X0220492Y0045753D01*
X0220615Y0045653D01*
X0220736Y0045551D01*
X0220854Y0045446D01*
X0220969Y0045337D01*
X0221082Y0045226D01*
X0221192Y0045112D01*
X0221299Y0044995D01*
X0221403Y0044876D01*
X0221504Y0044754D01*
X0221601Y0044629D01*
X0221696Y0044502D01*
X0221787Y0044373D01*
X0221876Y0044242D01*
X0221960Y0044108D01*
X0222042Y0043972D01*
X0222120Y0043835D01*
X0222194Y0043695D01*
X0222265Y0043553D01*
X0222333Y0043410D01*
X0222397Y0043265D01*
X0222457Y0043119D01*
X0222513Y0042971D01*
X0222566Y0042822D01*
X0222615Y0042671D01*
X0222660Y0042519D01*
X0222701Y0042366D01*
X0222739Y0042213D01*
X0222772Y0042058D01*
X0222802Y0041902D01*
X0222828Y0041746D01*
X0222849Y0041589D01*
X0222867Y0041432D01*
X0222881Y0041274D01*
X0222891Y0041116D01*
X0222897Y0040958D01*
X0222899Y0040800D01*
X0222897Y0040642D01*
X0222891Y0040484D01*
X0222881Y0040326D01*
X0222867Y0040168D01*
X0222849Y0040011D01*
X0222828Y0039854D01*
X0222802Y0039698D01*
X0222772Y0039542D01*
X0222739Y0039387D01*
X0222701Y0039234D01*
X0222660Y0039081D01*
X0222615Y0038929D01*
X0222566Y0038778D01*
X0222513Y0038629D01*
X0222457Y0038481D01*
X0222397Y0038335D01*
X0222333Y0038190D01*
X0222265Y0038047D01*
X0222194Y0037905D01*
X0222120Y0037765D01*
X0222042Y0037628D01*
X0221960Y0037492D01*
X0221876Y0037358D01*
X0221787Y0037227D01*
X0221696Y0037098D01*
X0221601Y0036971D01*
X0221504Y0036846D01*
X0221403Y0036724D01*
X0221299Y0036605D01*
X0221192Y0036488D01*
X0221082Y0036374D01*
X0220969Y0036263D01*
X0220854Y0036154D01*
X0220736Y0036049D01*
X0220615Y0035947D01*
X0220492Y0035847D01*
X0220366Y0035751D01*
X0220238Y0035658D01*
X0220108Y0035568D01*
X0219975Y0035482D01*
X0219840Y0035398D01*
X0219704Y0035319D01*
X0219565Y0035242D01*
X0219424Y0035170D01*
X0219282Y0035100D01*
X0219138Y0035035D01*
X0218992Y0034973D01*
X0218845Y0034915D01*
X0218696Y0034860D01*
X0218546Y0034809D01*
X0218395Y0034762D01*
X0218243Y0034719D01*
X0218090Y0034680D01*
X0217935Y0034644D01*
X0217780Y0034613D01*
X0217624Y0034585D01*
X0217468Y0034561D01*
X0217311Y0034541D01*
X0217153Y0034525D01*
X0216996Y0034513D01*
X0216837Y0034505D01*
X0216679Y0034501D01*
X0216521Y0034501D01*
X0216363Y0034505D01*
X0216204Y0034513D01*
X0216047Y0034525D01*
X0215889Y0034541D01*
X0215732Y0034561D01*
X0215576Y0034585D01*
X0215420Y0034613D01*
X0215265Y0034644D01*
X0215110Y0034680D01*
X0214957Y0034719D01*
X0214805Y0034762D01*
X0214654Y0034809D01*
X0214504Y0034860D01*
X0214355Y0034915D01*
X0214208Y0034973D01*
X0214062Y0035035D01*
X0213918Y0035100D01*
X0213776Y0035170D01*
X0213635Y0035242D01*
X0213496Y0035319D01*
X0213360Y0035398D01*
X0213225Y0035482D01*
X0213092Y0035568D01*
X0212962Y0035658D01*
X0212834Y0035751D01*
X0212708Y0035847D01*
X0212585Y0035947D01*
X0212464Y0036049D01*
X0212346Y0036154D01*
X0212231Y0036263D01*
X0212118Y0036374D01*
X0212008Y0036488D01*
X0211901Y0036605D01*
X0211797Y0036724D01*
X0211696Y0036846D01*
X0211599Y0036971D01*
X0211504Y0037098D01*
X0211413Y0037227D01*
X0211324Y0037358D01*
X0211240Y0037492D01*
X0211158Y0037628D01*
X0211080Y0037765D01*
X0211006Y0037905D01*
X0210935Y0038047D01*
X0210867Y0038190D01*
X0210803Y0038335D01*
X0210743Y0038481D01*
X0210687Y0038629D01*
X0210634Y0038778D01*
X0210585Y0038929D01*
X0210540Y0039081D01*
X0210499Y0039234D01*
X0210461Y0039387D01*
X0210428Y0039542D01*
X0210398Y0039698D01*
X0210372Y0039854D01*
X0210351Y0040011D01*
X0210333Y0040168D01*
X0210319Y0040326D01*
X0210309Y0040484D01*
X0210303Y0040642D01*
X0210301Y0040800D01*
X0010301Y0210800D02*
X0010303Y0210958D01*
X0010309Y0211116D01*
X0010319Y0211274D01*
X0010333Y0211432D01*
X0010351Y0211589D01*
X0010372Y0211746D01*
X0010398Y0211902D01*
X0010428Y0212058D01*
X0010461Y0212213D01*
X0010499Y0212366D01*
X0010540Y0212519D01*
X0010585Y0212671D01*
X0010634Y0212822D01*
X0010687Y0212971D01*
X0010743Y0213119D01*
X0010803Y0213265D01*
X0010867Y0213410D01*
X0010935Y0213553D01*
X0011006Y0213695D01*
X0011080Y0213835D01*
X0011158Y0213972D01*
X0011240Y0214108D01*
X0011324Y0214242D01*
X0011413Y0214373D01*
X0011504Y0214502D01*
X0011599Y0214629D01*
X0011696Y0214754D01*
X0011797Y0214876D01*
X0011901Y0214995D01*
X0012008Y0215112D01*
X0012118Y0215226D01*
X0012231Y0215337D01*
X0012346Y0215446D01*
X0012464Y0215551D01*
X0012585Y0215653D01*
X0012708Y0215753D01*
X0012834Y0215849D01*
X0012962Y0215942D01*
X0013092Y0216032D01*
X0013225Y0216118D01*
X0013360Y0216202D01*
X0013496Y0216281D01*
X0013635Y0216358D01*
X0013776Y0216430D01*
X0013918Y0216500D01*
X0014062Y0216565D01*
X0014208Y0216627D01*
X0014355Y0216685D01*
X0014504Y0216740D01*
X0014654Y0216791D01*
X0014805Y0216838D01*
X0014957Y0216881D01*
X0015110Y0216920D01*
X0015265Y0216956D01*
X0015420Y0216987D01*
X0015576Y0217015D01*
X0015732Y0217039D01*
X0015889Y0217059D01*
X0016047Y0217075D01*
X0016204Y0217087D01*
X0016363Y0217095D01*
X0016521Y0217099D01*
X0016679Y0217099D01*
X0016837Y0217095D01*
X0016996Y0217087D01*
X0017153Y0217075D01*
X0017311Y0217059D01*
X0017468Y0217039D01*
X0017624Y0217015D01*
X0017780Y0216987D01*
X0017935Y0216956D01*
X0018090Y0216920D01*
X0018243Y0216881D01*
X0018395Y0216838D01*
X0018546Y0216791D01*
X0018696Y0216740D01*
X0018845Y0216685D01*
X0018992Y0216627D01*
X0019138Y0216565D01*
X0019282Y0216500D01*
X0019424Y0216430D01*
X0019565Y0216358D01*
X0019704Y0216281D01*
X0019840Y0216202D01*
X0019975Y0216118D01*
X0020108Y0216032D01*
X0020238Y0215942D01*
X0020366Y0215849D01*
X0020492Y0215753D01*
X0020615Y0215653D01*
X0020736Y0215551D01*
X0020854Y0215446D01*
X0020969Y0215337D01*
X0021082Y0215226D01*
X0021192Y0215112D01*
X0021299Y0214995D01*
X0021403Y0214876D01*
X0021504Y0214754D01*
X0021601Y0214629D01*
X0021696Y0214502D01*
X0021787Y0214373D01*
X0021876Y0214242D01*
X0021960Y0214108D01*
X0022042Y0213972D01*
X0022120Y0213835D01*
X0022194Y0213695D01*
X0022265Y0213553D01*
X0022333Y0213410D01*
X0022397Y0213265D01*
X0022457Y0213119D01*
X0022513Y0212971D01*
X0022566Y0212822D01*
X0022615Y0212671D01*
X0022660Y0212519D01*
X0022701Y0212366D01*
X0022739Y0212213D01*
X0022772Y0212058D01*
X0022802Y0211902D01*
X0022828Y0211746D01*
X0022849Y0211589D01*
X0022867Y0211432D01*
X0022881Y0211274D01*
X0022891Y0211116D01*
X0022897Y0210958D01*
X0022899Y0210800D01*
X0022897Y0210642D01*
X0022891Y0210484D01*
X0022881Y0210326D01*
X0022867Y0210168D01*
X0022849Y0210011D01*
X0022828Y0209854D01*
X0022802Y0209698D01*
X0022772Y0209542D01*
X0022739Y0209387D01*
X0022701Y0209234D01*
X0022660Y0209081D01*
X0022615Y0208929D01*
X0022566Y0208778D01*
X0022513Y0208629D01*
X0022457Y0208481D01*
X0022397Y0208335D01*
X0022333Y0208190D01*
X0022265Y0208047D01*
X0022194Y0207905D01*
X0022120Y0207765D01*
X0022042Y0207628D01*
X0021960Y0207492D01*
X0021876Y0207358D01*
X0021787Y0207227D01*
X0021696Y0207098D01*
X0021601Y0206971D01*
X0021504Y0206846D01*
X0021403Y0206724D01*
X0021299Y0206605D01*
X0021192Y0206488D01*
X0021082Y0206374D01*
X0020969Y0206263D01*
X0020854Y0206154D01*
X0020736Y0206049D01*
X0020615Y0205947D01*
X0020492Y0205847D01*
X0020366Y0205751D01*
X0020238Y0205658D01*
X0020108Y0205568D01*
X0019975Y0205482D01*
X0019840Y0205398D01*
X0019704Y0205319D01*
X0019565Y0205242D01*
X0019424Y0205170D01*
X0019282Y0205100D01*
X0019138Y0205035D01*
X0018992Y0204973D01*
X0018845Y0204915D01*
X0018696Y0204860D01*
X0018546Y0204809D01*
X0018395Y0204762D01*
X0018243Y0204719D01*
X0018090Y0204680D01*
X0017935Y0204644D01*
X0017780Y0204613D01*
X0017624Y0204585D01*
X0017468Y0204561D01*
X0017311Y0204541D01*
X0017153Y0204525D01*
X0016996Y0204513D01*
X0016837Y0204505D01*
X0016679Y0204501D01*
X0016521Y0204501D01*
X0016363Y0204505D01*
X0016204Y0204513D01*
X0016047Y0204525D01*
X0015889Y0204541D01*
X0015732Y0204561D01*
X0015576Y0204585D01*
X0015420Y0204613D01*
X0015265Y0204644D01*
X0015110Y0204680D01*
X0014957Y0204719D01*
X0014805Y0204762D01*
X0014654Y0204809D01*
X0014504Y0204860D01*
X0014355Y0204915D01*
X0014208Y0204973D01*
X0014062Y0205035D01*
X0013918Y0205100D01*
X0013776Y0205170D01*
X0013635Y0205242D01*
X0013496Y0205319D01*
X0013360Y0205398D01*
X0013225Y0205482D01*
X0013092Y0205568D01*
X0012962Y0205658D01*
X0012834Y0205751D01*
X0012708Y0205847D01*
X0012585Y0205947D01*
X0012464Y0206049D01*
X0012346Y0206154D01*
X0012231Y0206263D01*
X0012118Y0206374D01*
X0012008Y0206488D01*
X0011901Y0206605D01*
X0011797Y0206724D01*
X0011696Y0206846D01*
X0011599Y0206971D01*
X0011504Y0207098D01*
X0011413Y0207227D01*
X0011324Y0207358D01*
X0011240Y0207492D01*
X0011158Y0207628D01*
X0011080Y0207765D01*
X0011006Y0207905D01*
X0010935Y0208047D01*
X0010867Y0208190D01*
X0010803Y0208335D01*
X0010743Y0208481D01*
X0010687Y0208629D01*
X0010634Y0208778D01*
X0010585Y0208929D01*
X0010540Y0209081D01*
X0010499Y0209234D01*
X0010461Y0209387D01*
X0010428Y0209542D01*
X0010398Y0209698D01*
X0010372Y0209854D01*
X0010351Y0210011D01*
X0010333Y0210168D01*
X0010319Y0210326D01*
X0010309Y0210484D01*
X0010303Y0210642D01*
X0010301Y0210800D01*
X0005301Y0020800D02*
X0005303Y0020958D01*
X0005309Y0021116D01*
X0005319Y0021274D01*
X0005333Y0021432D01*
X0005351Y0021589D01*
X0005372Y0021746D01*
X0005398Y0021902D01*
X0005428Y0022058D01*
X0005461Y0022213D01*
X0005499Y0022366D01*
X0005540Y0022519D01*
X0005585Y0022671D01*
X0005634Y0022822D01*
X0005687Y0022971D01*
X0005743Y0023119D01*
X0005803Y0023265D01*
X0005867Y0023410D01*
X0005935Y0023553D01*
X0006006Y0023695D01*
X0006080Y0023835D01*
X0006158Y0023972D01*
X0006240Y0024108D01*
X0006324Y0024242D01*
X0006413Y0024373D01*
X0006504Y0024502D01*
X0006599Y0024629D01*
X0006696Y0024754D01*
X0006797Y0024876D01*
X0006901Y0024995D01*
X0007008Y0025112D01*
X0007118Y0025226D01*
X0007231Y0025337D01*
X0007346Y0025446D01*
X0007464Y0025551D01*
X0007585Y0025653D01*
X0007708Y0025753D01*
X0007834Y0025849D01*
X0007962Y0025942D01*
X0008092Y0026032D01*
X0008225Y0026118D01*
X0008360Y0026202D01*
X0008496Y0026281D01*
X0008635Y0026358D01*
X0008776Y0026430D01*
X0008918Y0026500D01*
X0009062Y0026565D01*
X0009208Y0026627D01*
X0009355Y0026685D01*
X0009504Y0026740D01*
X0009654Y0026791D01*
X0009805Y0026838D01*
X0009957Y0026881D01*
X0010110Y0026920D01*
X0010265Y0026956D01*
X0010420Y0026987D01*
X0010576Y0027015D01*
X0010732Y0027039D01*
X0010889Y0027059D01*
X0011047Y0027075D01*
X0011204Y0027087D01*
X0011363Y0027095D01*
X0011521Y0027099D01*
X0011679Y0027099D01*
X0011837Y0027095D01*
X0011996Y0027087D01*
X0012153Y0027075D01*
X0012311Y0027059D01*
X0012468Y0027039D01*
X0012624Y0027015D01*
X0012780Y0026987D01*
X0012935Y0026956D01*
X0013090Y0026920D01*
X0013243Y0026881D01*
X0013395Y0026838D01*
X0013546Y0026791D01*
X0013696Y0026740D01*
X0013845Y0026685D01*
X0013992Y0026627D01*
X0014138Y0026565D01*
X0014282Y0026500D01*
X0014424Y0026430D01*
X0014565Y0026358D01*
X0014704Y0026281D01*
X0014840Y0026202D01*
X0014975Y0026118D01*
X0015108Y0026032D01*
X0015238Y0025942D01*
X0015366Y0025849D01*
X0015492Y0025753D01*
X0015615Y0025653D01*
X0015736Y0025551D01*
X0015854Y0025446D01*
X0015969Y0025337D01*
X0016082Y0025226D01*
X0016192Y0025112D01*
X0016299Y0024995D01*
X0016403Y0024876D01*
X0016504Y0024754D01*
X0016601Y0024629D01*
X0016696Y0024502D01*
X0016787Y0024373D01*
X0016876Y0024242D01*
X0016960Y0024108D01*
X0017042Y0023972D01*
X0017120Y0023835D01*
X0017194Y0023695D01*
X0017265Y0023553D01*
X0017333Y0023410D01*
X0017397Y0023265D01*
X0017457Y0023119D01*
X0017513Y0022971D01*
X0017566Y0022822D01*
X0017615Y0022671D01*
X0017660Y0022519D01*
X0017701Y0022366D01*
X0017739Y0022213D01*
X0017772Y0022058D01*
X0017802Y0021902D01*
X0017828Y0021746D01*
X0017849Y0021589D01*
X0017867Y0021432D01*
X0017881Y0021274D01*
X0017891Y0021116D01*
X0017897Y0020958D01*
X0017899Y0020800D01*
X0017897Y0020642D01*
X0017891Y0020484D01*
X0017881Y0020326D01*
X0017867Y0020168D01*
X0017849Y0020011D01*
X0017828Y0019854D01*
X0017802Y0019698D01*
X0017772Y0019542D01*
X0017739Y0019387D01*
X0017701Y0019234D01*
X0017660Y0019081D01*
X0017615Y0018929D01*
X0017566Y0018778D01*
X0017513Y0018629D01*
X0017457Y0018481D01*
X0017397Y0018335D01*
X0017333Y0018190D01*
X0017265Y0018047D01*
X0017194Y0017905D01*
X0017120Y0017765D01*
X0017042Y0017628D01*
X0016960Y0017492D01*
X0016876Y0017358D01*
X0016787Y0017227D01*
X0016696Y0017098D01*
X0016601Y0016971D01*
X0016504Y0016846D01*
X0016403Y0016724D01*
X0016299Y0016605D01*
X0016192Y0016488D01*
X0016082Y0016374D01*
X0015969Y0016263D01*
X0015854Y0016154D01*
X0015736Y0016049D01*
X0015615Y0015947D01*
X0015492Y0015847D01*
X0015366Y0015751D01*
X0015238Y0015658D01*
X0015108Y0015568D01*
X0014975Y0015482D01*
X0014840Y0015398D01*
X0014704Y0015319D01*
X0014565Y0015242D01*
X0014424Y0015170D01*
X0014282Y0015100D01*
X0014138Y0015035D01*
X0013992Y0014973D01*
X0013845Y0014915D01*
X0013696Y0014860D01*
X0013546Y0014809D01*
X0013395Y0014762D01*
X0013243Y0014719D01*
X0013090Y0014680D01*
X0012935Y0014644D01*
X0012780Y0014613D01*
X0012624Y0014585D01*
X0012468Y0014561D01*
X0012311Y0014541D01*
X0012153Y0014525D01*
X0011996Y0014513D01*
X0011837Y0014505D01*
X0011679Y0014501D01*
X0011521Y0014501D01*
X0011363Y0014505D01*
X0011204Y0014513D01*
X0011047Y0014525D01*
X0010889Y0014541D01*
X0010732Y0014561D01*
X0010576Y0014585D01*
X0010420Y0014613D01*
X0010265Y0014644D01*
X0010110Y0014680D01*
X0009957Y0014719D01*
X0009805Y0014762D01*
X0009654Y0014809D01*
X0009504Y0014860D01*
X0009355Y0014915D01*
X0009208Y0014973D01*
X0009062Y0015035D01*
X0008918Y0015100D01*
X0008776Y0015170D01*
X0008635Y0015242D01*
X0008496Y0015319D01*
X0008360Y0015398D01*
X0008225Y0015482D01*
X0008092Y0015568D01*
X0007962Y0015658D01*
X0007834Y0015751D01*
X0007708Y0015847D01*
X0007585Y0015947D01*
X0007464Y0016049D01*
X0007346Y0016154D01*
X0007231Y0016263D01*
X0007118Y0016374D01*
X0007008Y0016488D01*
X0006901Y0016605D01*
X0006797Y0016724D01*
X0006696Y0016846D01*
X0006599Y0016971D01*
X0006504Y0017098D01*
X0006413Y0017227D01*
X0006324Y0017358D01*
X0006240Y0017492D01*
X0006158Y0017628D01*
X0006080Y0017765D01*
X0006006Y0017905D01*
X0005935Y0018047D01*
X0005867Y0018190D01*
X0005803Y0018335D01*
X0005743Y0018481D01*
X0005687Y0018629D01*
X0005634Y0018778D01*
X0005585Y0018929D01*
X0005540Y0019081D01*
X0005499Y0019234D01*
X0005461Y0019387D01*
X0005428Y0019542D01*
X0005398Y0019698D01*
X0005372Y0019854D01*
X0005351Y0020011D01*
X0005333Y0020168D01*
X0005319Y0020326D01*
X0005309Y0020484D01*
X0005303Y0020642D01*
X0005301Y0020800D01*
D12*
X0041600Y0023300D03*
X0061600Y0023300D03*
X0086600Y0020800D03*
X0096600Y0020800D03*
X0106600Y0020800D03*
X0116600Y0020800D03*
X0126600Y0020800D03*
X0136600Y0020800D03*
X0156600Y0020800D03*
X0166600Y0020800D03*
X0176600Y0020800D03*
X0186600Y0020800D03*
X0196600Y0020800D03*
X0206600Y0020800D03*
X0196600Y0210800D03*
X0186600Y0210800D03*
X0176600Y0210800D03*
X0166600Y0210800D03*
X0156600Y0210800D03*
X0146600Y0210800D03*
X0136600Y0210800D03*
X0110600Y0210800D03*
X0100600Y0210800D03*
X0090600Y0210800D03*
X0080600Y0210800D03*
X0070600Y0210800D03*
X0060600Y0210800D03*
X0050600Y0210800D03*
D13*
X0120600Y0210800D03*
X0206600Y0210800D03*
D14*
X0208187Y0125643D02*
X0217557Y0125643D01*
X0217557Y0105957D02*
X0208187Y0105957D01*
X0208187Y0085643D02*
X0217557Y0085643D01*
X0217557Y0065957D02*
X0208187Y0065957D01*
X0020263Y0060643D02*
X0010893Y0060643D01*
X0010893Y0040957D02*
X0020263Y0040957D01*
D15*
X0099100Y0049300D03*
X0109100Y0049300D03*
X0122850Y0085800D03*
X0122850Y0090800D03*
X0125600Y0115800D03*
X0129100Y0119300D03*
X0161600Y0186300D03*
X0171600Y0186300D03*
X0181600Y0186300D03*
D16*
X0176600Y0200800D02*
X0176600Y0210800D01*
X0166600Y0210800D02*
X0166600Y0200800D01*
X0156600Y0200800D02*
X0156600Y0210800D01*
X0146600Y0210800D02*
X0146600Y0200800D01*
X0136600Y0200800D02*
X0136600Y0210800D01*
X0120600Y0210800D02*
X0120600Y0200800D01*
X0110600Y0200800D02*
X0110600Y0210800D01*
X0100600Y0210800D02*
X0100600Y0200800D01*
X0090600Y0200800D02*
X0090600Y0210800D01*
X0080600Y0210800D02*
X0080600Y0200800D01*
X0070600Y0200800D02*
X0070600Y0210800D01*
X0186600Y0210800D02*
X0186600Y0200800D01*
X0196600Y0200800D02*
X0196600Y0210800D01*
X0206600Y0210800D02*
X0206600Y0200800D01*
X0122850Y0090800D02*
X0096600Y0090800D01*
X0091600Y0085800D01*
X0091600Y0064300D01*
X0099100Y0049300D02*
X0096600Y0046800D01*
X0096600Y0020800D01*
X0106600Y0020800D02*
X0106600Y0046800D01*
X0109100Y0049300D01*
X0156600Y0030800D02*
X0156600Y0020800D01*
X0166600Y0020800D02*
X0166600Y0030800D01*
X0176600Y0030800D02*
X0176600Y0020800D01*
X0186600Y0020800D02*
X0186600Y0030800D01*
X0196600Y0030800D02*
X0196600Y0020800D01*
X0206600Y0020800D02*
X0206600Y0030800D01*
D17*
X0211499Y0028778D02*
X0221325Y0028778D01*
X0222523Y0029976D02*
X0211900Y0029976D01*
X0211900Y0029746D02*
X0211900Y0031854D01*
X0211093Y0033802D01*
X0209602Y0035293D01*
X0207654Y0036100D01*
X0205546Y0036100D01*
X0203598Y0035293D01*
X0202107Y0033802D01*
X0201600Y0032578D01*
X0201093Y0033802D01*
X0199602Y0035293D01*
X0197654Y0036100D01*
X0195546Y0036100D01*
X0193598Y0035293D01*
X0192107Y0033802D01*
X0191600Y0032578D01*
X0191093Y0033802D01*
X0189602Y0035293D01*
X0187654Y0036100D01*
X0185546Y0036100D01*
X0183598Y0035293D01*
X0182107Y0033802D01*
X0181600Y0032578D01*
X0181093Y0033802D01*
X0179602Y0035293D01*
X0177654Y0036100D01*
X0175546Y0036100D01*
X0173598Y0035293D01*
X0172107Y0033802D01*
X0171600Y0032578D01*
X0171093Y0033802D01*
X0169602Y0035293D01*
X0167654Y0036100D01*
X0165546Y0036100D01*
X0163598Y0035293D01*
X0162107Y0033802D01*
X0161600Y0032578D01*
X0161093Y0033802D01*
X0159602Y0035293D01*
X0157654Y0036100D01*
X0155546Y0036100D01*
X0153598Y0035293D01*
X0152107Y0033802D01*
X0151300Y0031854D01*
X0151300Y0029746D01*
X0152107Y0027798D01*
X0153598Y0026307D01*
X0153600Y0026306D01*
X0153600Y0025510D01*
X0153484Y0025463D01*
X0151937Y0023915D01*
X0151100Y0021894D01*
X0151100Y0019706D01*
X0151937Y0017684D01*
X0153484Y0016137D01*
X0155506Y0015300D01*
X0157694Y0015300D01*
X0159715Y0016137D01*
X0161263Y0017684D01*
X0161600Y0018499D01*
X0161937Y0017684D01*
X0163484Y0016137D01*
X0165506Y0015300D01*
X0167694Y0015300D01*
X0169715Y0016137D01*
X0171263Y0017684D01*
X0171600Y0018499D01*
X0171937Y0017684D01*
X0173484Y0016137D01*
X0175506Y0015300D01*
X0177694Y0015300D01*
X0179715Y0016137D01*
X0181263Y0017684D01*
X0181600Y0018499D01*
X0181937Y0017684D01*
X0183484Y0016137D01*
X0185506Y0015300D01*
X0187694Y0015300D01*
X0189715Y0016137D01*
X0191263Y0017684D01*
X0191600Y0018499D01*
X0191937Y0017684D01*
X0193484Y0016137D01*
X0195506Y0015300D01*
X0197694Y0015300D01*
X0199715Y0016137D01*
X0201263Y0017684D01*
X0201600Y0018499D01*
X0201937Y0017684D01*
X0203484Y0016137D01*
X0205506Y0015300D01*
X0207694Y0015300D01*
X0209715Y0016137D01*
X0211263Y0017684D01*
X0212100Y0019706D01*
X0212100Y0021894D01*
X0211263Y0023915D01*
X0209715Y0025463D01*
X0209600Y0025510D01*
X0209600Y0026306D01*
X0209602Y0026307D01*
X0211093Y0027798D01*
X0211900Y0029746D01*
X0211900Y0031175D02*
X0223722Y0031175D01*
X0224300Y0031753D02*
X0215647Y0023100D01*
X0214300Y0021753D01*
X0214300Y0014737D01*
X0214269Y0014418D01*
X0214024Y0013828D01*
X0213572Y0013376D01*
X0212982Y0013131D01*
X0212663Y0013100D01*
X0014175Y0013100D01*
X0016188Y0013934D01*
X0018466Y0016212D01*
X0019699Y0019189D01*
X0019699Y0022411D01*
X0018466Y0025388D01*
X0016188Y0027666D01*
X0013211Y0028899D01*
X0009989Y0028899D01*
X0007012Y0027666D01*
X0004734Y0025388D01*
X0003900Y0023375D01*
X0003900Y0216863D01*
X0003931Y0217182D01*
X0004176Y0217772D01*
X0004628Y0218224D01*
X0005218Y0218469D01*
X0005537Y0218500D01*
X0014025Y0218500D01*
X0012012Y0217666D01*
X0009734Y0215388D01*
X0008501Y0212411D01*
X0008501Y0209189D01*
X0009734Y0206212D01*
X0012012Y0203934D01*
X0014989Y0202701D01*
X0018211Y0202701D01*
X0021188Y0203934D01*
X0023466Y0206212D01*
X0024699Y0209189D01*
X0024699Y0212411D01*
X0023466Y0215388D01*
X0021188Y0217666D01*
X0019175Y0218500D01*
X0209647Y0218500D01*
X0214300Y0213847D01*
X0214300Y0168847D01*
X0215647Y0167500D01*
X0215647Y0167500D01*
X0224300Y0158847D01*
X0224300Y0153375D01*
X0223466Y0155388D01*
X0221188Y0157666D01*
X0218211Y0158899D01*
X0214989Y0158899D01*
X0212012Y0157666D01*
X0209734Y0155388D01*
X0208501Y0152411D01*
X0208501Y0149189D01*
X0209734Y0146212D01*
X0212012Y0143934D01*
X0214989Y0142701D01*
X0218211Y0142701D01*
X0221188Y0143934D01*
X0223466Y0146212D01*
X0224300Y0148225D01*
X0224300Y0043375D01*
X0223466Y0045388D01*
X0221188Y0047666D01*
X0218211Y0048899D01*
X0214989Y0048899D01*
X0212012Y0047666D01*
X0209734Y0045388D01*
X0208501Y0042411D01*
X0208501Y0039189D01*
X0209734Y0036212D01*
X0212012Y0033934D01*
X0214989Y0032701D01*
X0218211Y0032701D01*
X0221188Y0033934D01*
X0223466Y0036212D01*
X0224300Y0038225D01*
X0224300Y0031753D01*
X0224300Y0032373D02*
X0211685Y0032373D01*
X0211189Y0033572D02*
X0212886Y0033572D01*
X0211176Y0034770D02*
X0210125Y0034770D01*
X0209977Y0035969D02*
X0207971Y0035969D01*
X0209338Y0037167D02*
X0109600Y0037167D01*
X0109600Y0035969D02*
X0155229Y0035969D01*
X0153075Y0034770D02*
X0109600Y0034770D01*
X0109600Y0033572D02*
X0152011Y0033572D01*
X0151515Y0032373D02*
X0109600Y0032373D01*
X0109600Y0031175D02*
X0151300Y0031175D01*
X0151300Y0029976D02*
X0109600Y0029976D01*
X0109600Y0028778D02*
X0151701Y0028778D01*
X0152326Y0027579D02*
X0109600Y0027579D01*
X0109600Y0026381D02*
X0153524Y0026381D01*
X0153204Y0025182D02*
X0139996Y0025182D01*
X0139715Y0025463D02*
X0137694Y0026300D01*
X0135506Y0026300D01*
X0133484Y0025463D01*
X0131937Y0023915D01*
X0131499Y0022858D01*
X0131133Y0023578D01*
X0130643Y0024253D01*
X0130053Y0024843D01*
X0129378Y0025333D01*
X0128634Y0025712D01*
X0127841Y0025969D01*
X0127017Y0026100D01*
X0127000Y0026100D01*
X0127000Y0021200D01*
X0126200Y0021200D01*
X0126200Y0026100D01*
X0126183Y0026100D01*
X0125359Y0025969D01*
X0124566Y0025712D01*
X0123822Y0025333D01*
X0123147Y0024843D01*
X0122557Y0024253D01*
X0122067Y0023578D01*
X0121688Y0022834D01*
X0121600Y0022563D01*
X0121512Y0022834D01*
X0121133Y0023578D01*
X0120643Y0024253D01*
X0120053Y0024843D01*
X0119378Y0025333D01*
X0118634Y0025712D01*
X0117841Y0025969D01*
X0117017Y0026100D01*
X0117000Y0026100D01*
X0117000Y0021200D01*
X0116200Y0021200D01*
X0116200Y0026100D01*
X0116183Y0026100D01*
X0115359Y0025969D01*
X0114566Y0025712D01*
X0113822Y0025333D01*
X0113147Y0024843D01*
X0112557Y0024253D01*
X0112067Y0023578D01*
X0111701Y0022858D01*
X0111263Y0023915D01*
X0109715Y0025463D01*
X0109600Y0025511D01*
X0109600Y0045557D01*
X0209903Y0045557D01*
X0209307Y0044358D02*
X0109600Y0044358D01*
X0109600Y0043160D02*
X0208811Y0043160D01*
X0208501Y0041961D02*
X0109600Y0041961D01*
X0109600Y0040763D02*
X0208501Y0040763D01*
X0208501Y0039564D02*
X0109600Y0039564D01*
X0109600Y0038366D02*
X0208842Y0038366D01*
X0205229Y0035969D02*
X0197971Y0035969D01*
X0200125Y0034770D02*
X0203075Y0034770D01*
X0202011Y0033572D02*
X0201189Y0033572D01*
X0195229Y0035969D02*
X0187971Y0035969D01*
X0190125Y0034770D02*
X0193075Y0034770D01*
X0192011Y0033572D02*
X0191189Y0033572D01*
X0185229Y0035969D02*
X0177971Y0035969D01*
X0180125Y0034770D02*
X0183075Y0034770D01*
X0182011Y0033572D02*
X0181189Y0033572D01*
X0175229Y0035969D02*
X0167971Y0035969D01*
X0170125Y0034770D02*
X0173075Y0034770D01*
X0172011Y0033572D02*
X0171189Y0033572D01*
X0165229Y0035969D02*
X0157971Y0035969D01*
X0160125Y0034770D02*
X0163075Y0034770D01*
X0162011Y0033572D02*
X0161189Y0033572D01*
X0152005Y0023984D02*
X0141195Y0023984D01*
X0141263Y0023915D02*
X0139715Y0025463D01*
X0141263Y0023915D02*
X0142100Y0021894D01*
X0142100Y0019706D01*
X0141263Y0017684D01*
X0139715Y0016137D01*
X0137694Y0015300D01*
X0135506Y0015300D01*
X0133484Y0016137D01*
X0131937Y0017684D01*
X0131499Y0018742D01*
X0131133Y0018022D01*
X0130643Y0017347D01*
X0130053Y0016757D01*
X0129378Y0016267D01*
X0128634Y0015888D01*
X0127841Y0015630D01*
X0127017Y0015500D01*
X0127000Y0015500D01*
X0127000Y0020400D01*
X0126200Y0020400D01*
X0126200Y0015500D01*
X0126183Y0015500D01*
X0125359Y0015630D01*
X0124566Y0015888D01*
X0123822Y0016267D01*
X0123147Y0016757D01*
X0122557Y0017347D01*
X0122067Y0018022D01*
X0121688Y0018766D01*
X0121600Y0019037D01*
X0121512Y0018766D01*
X0121133Y0018022D01*
X0120643Y0017347D01*
X0120053Y0016757D01*
X0119378Y0016267D01*
X0118634Y0015888D01*
X0117841Y0015630D01*
X0117017Y0015500D01*
X0117000Y0015500D01*
X0117000Y0020400D01*
X0117000Y0021200D01*
X0126200Y0021200D01*
X0126200Y0020400D01*
X0121300Y0020400D01*
X0117000Y0020400D01*
X0116200Y0020400D01*
X0116200Y0015500D01*
X0116183Y0015500D01*
X0115359Y0015630D01*
X0114566Y0015888D01*
X0113822Y0016267D01*
X0113147Y0016757D01*
X0112557Y0017347D01*
X0112067Y0018022D01*
X0111701Y0018742D01*
X0111263Y0017684D01*
X0109715Y0016137D01*
X0107694Y0015300D01*
X0105506Y0015300D01*
X0103484Y0016137D01*
X0101937Y0017684D01*
X0101600Y0018499D01*
X0101263Y0017684D01*
X0099715Y0016137D01*
X0097694Y0015300D01*
X0095506Y0015300D01*
X0093484Y0016137D01*
X0091937Y0017684D01*
X0091600Y0018499D01*
X0091263Y0017684D01*
X0089715Y0016137D01*
X0087694Y0015300D01*
X0085506Y0015300D01*
X0083484Y0016137D01*
X0081937Y0017684D01*
X0081100Y0019706D01*
X0081100Y0021894D01*
X0081937Y0023915D01*
X0083484Y0025463D01*
X0085506Y0026300D01*
X0087694Y0026300D01*
X0089715Y0025463D01*
X0091263Y0023915D01*
X0091600Y0023101D01*
X0091937Y0023915D01*
X0093484Y0025463D01*
X0093600Y0025511D01*
X0093600Y0047397D01*
X0094057Y0048499D01*
X0094901Y0049343D01*
X0095654Y0050097D01*
X0096143Y0051276D01*
X0097124Y0052257D01*
X0098406Y0052788D01*
X0099794Y0052788D01*
X0101076Y0052257D01*
X0102057Y0051276D01*
X0102588Y0049994D01*
X0102588Y0048606D01*
X0102057Y0047324D01*
X0101076Y0046343D01*
X0099897Y0045854D01*
X0099600Y0045557D01*
X0103600Y0045557D01*
X0103600Y0046755D02*
X0101489Y0046755D01*
X0102318Y0047954D02*
X0103831Y0047954D01*
X0104057Y0048499D02*
X0103600Y0047397D01*
X0103600Y0025511D01*
X0103484Y0025463D01*
X0101937Y0023915D01*
X0101600Y0023101D01*
X0101263Y0023915D01*
X0099715Y0025463D01*
X0099600Y0025511D01*
X0099600Y0045557D01*
X0099600Y0044358D02*
X0103600Y0044358D01*
X0103600Y0043160D02*
X0099600Y0043160D01*
X0099600Y0041961D02*
X0103600Y0041961D01*
X0103600Y0040763D02*
X0099600Y0040763D01*
X0099600Y0039564D02*
X0103600Y0039564D01*
X0103600Y0038366D02*
X0099600Y0038366D01*
X0099600Y0037167D02*
X0103600Y0037167D01*
X0103600Y0035969D02*
X0099600Y0035969D01*
X0099600Y0034770D02*
X0103600Y0034770D01*
X0103600Y0033572D02*
X0099600Y0033572D01*
X0099600Y0032373D02*
X0103600Y0032373D01*
X0103600Y0031175D02*
X0099600Y0031175D01*
X0099600Y0029976D02*
X0103600Y0029976D01*
X0103600Y0028778D02*
X0099600Y0028778D01*
X0099600Y0027579D02*
X0103600Y0027579D01*
X0103600Y0026381D02*
X0099600Y0026381D01*
X0099996Y0025182D02*
X0103204Y0025182D01*
X0102005Y0023984D02*
X0101195Y0023984D01*
X0101390Y0017991D02*
X0101810Y0017991D01*
X0102829Y0016793D02*
X0100371Y0016793D01*
X0098404Y0015594D02*
X0104796Y0015594D01*
X0108404Y0015594D02*
X0115589Y0015594D01*
X0116200Y0015594D02*
X0117000Y0015594D01*
X0117611Y0015594D02*
X0125589Y0015594D01*
X0126200Y0015594D02*
X0127000Y0015594D01*
X0127611Y0015594D02*
X0134796Y0015594D01*
X0132829Y0016793D02*
X0130088Y0016793D01*
X0131110Y0017991D02*
X0131810Y0017991D01*
X0127000Y0017991D02*
X0126200Y0017991D01*
X0126200Y0016793D02*
X0127000Y0016793D01*
X0127000Y0019190D02*
X0126200Y0019190D01*
X0126200Y0020388D02*
X0127000Y0020388D01*
X0127000Y0021587D02*
X0126200Y0021587D01*
X0126200Y0022785D02*
X0127000Y0022785D01*
X0127000Y0023984D02*
X0126200Y0023984D01*
X0126200Y0025182D02*
X0127000Y0025182D01*
X0129585Y0025182D02*
X0133204Y0025182D01*
X0132005Y0023984D02*
X0130838Y0023984D01*
X0123615Y0025182D02*
X0119585Y0025182D01*
X0120838Y0023984D02*
X0122362Y0023984D01*
X0121672Y0022785D02*
X0121528Y0022785D01*
X0117000Y0022785D02*
X0116200Y0022785D01*
X0116200Y0021587D02*
X0117000Y0021587D01*
X0117000Y0020388D02*
X0116200Y0020388D01*
X0116200Y0019190D02*
X0117000Y0019190D01*
X0117000Y0017991D02*
X0116200Y0017991D01*
X0116200Y0016793D02*
X0117000Y0016793D01*
X0120088Y0016793D02*
X0123112Y0016793D01*
X0122090Y0017991D02*
X0121110Y0017991D01*
X0117000Y0023984D02*
X0116200Y0023984D01*
X0116200Y0025182D02*
X0117000Y0025182D01*
X0113615Y0025182D02*
X0109996Y0025182D01*
X0111195Y0023984D02*
X0112362Y0023984D01*
X0112090Y0017991D02*
X0111390Y0017991D01*
X0110371Y0016793D02*
X0113112Y0016793D01*
X0094796Y0015594D02*
X0088404Y0015594D01*
X0090371Y0016793D02*
X0092829Y0016793D01*
X0091810Y0017991D02*
X0091390Y0017991D01*
X0091195Y0023984D02*
X0092005Y0023984D01*
X0093204Y0025182D02*
X0089996Y0025182D01*
X0093600Y0026381D02*
X0066277Y0026381D01*
X0066263Y0026415D02*
X0064715Y0027963D01*
X0062694Y0028800D01*
X0060506Y0028800D01*
X0058484Y0027963D01*
X0058422Y0027900D01*
X0056005Y0027900D01*
X0046200Y0037705D01*
X0046200Y0043895D01*
X0049206Y0046900D01*
X0053000Y0050694D01*
X0053700Y0052385D01*
X0053700Y0054215D01*
X0053000Y0055906D01*
X0051706Y0057200D01*
X0050015Y0057900D01*
X0048185Y0057900D01*
X0046494Y0057200D01*
X0042700Y0053406D01*
X0037700Y0048406D01*
X0037000Y0046715D01*
X0037000Y0034885D01*
X0037700Y0033194D01*
X0038994Y0031900D01*
X0042095Y0028800D01*
X0040506Y0028800D01*
X0038484Y0027963D01*
X0038464Y0027942D01*
X0026745Y0039660D01*
X0026748Y0039668D01*
X0026748Y0042247D01*
X0025761Y0044631D01*
X0023937Y0046455D01*
X0021553Y0047443D01*
X0009603Y0047443D01*
X0007220Y0046455D01*
X0005396Y0044631D01*
X0004408Y0042247D01*
X0004408Y0039668D01*
X0005396Y0037284D01*
X0007220Y0035460D01*
X0009603Y0034472D01*
X0018922Y0034472D01*
X0032700Y0020694D01*
X0033994Y0019400D01*
X0035685Y0018700D01*
X0038422Y0018700D01*
X0038484Y0018637D01*
X0040506Y0017800D01*
X0042694Y0017800D01*
X0044715Y0018637D01*
X0046263Y0020184D01*
X0047100Y0022206D01*
X0047100Y0023795D01*
X0051494Y0019400D01*
X0053185Y0018700D01*
X0058422Y0018700D01*
X0058484Y0018637D01*
X0060506Y0017800D01*
X0062694Y0017800D01*
X0064715Y0018637D01*
X0066263Y0020184D01*
X0067100Y0022206D01*
X0067100Y0024394D01*
X0066263Y0026415D01*
X0066774Y0025182D02*
X0083204Y0025182D01*
X0082005Y0023984D02*
X0067100Y0023984D01*
X0067100Y0022785D02*
X0081469Y0022785D01*
X0081100Y0021587D02*
X0066843Y0021587D01*
X0066347Y0020388D02*
X0081100Y0020388D01*
X0081314Y0019190D02*
X0065268Y0019190D01*
X0063155Y0017991D02*
X0081810Y0017991D01*
X0082829Y0016793D02*
X0018707Y0016793D01*
X0019203Y0017991D02*
X0040045Y0017991D01*
X0043155Y0017991D02*
X0060045Y0017991D01*
X0052003Y0019190D02*
X0045268Y0019190D01*
X0046347Y0020388D02*
X0050507Y0020388D01*
X0049308Y0021587D02*
X0046843Y0021587D01*
X0047100Y0022785D02*
X0048109Y0022785D01*
X0055128Y0028778D02*
X0060452Y0028778D01*
X0062748Y0028778D02*
X0093600Y0028778D01*
X0093600Y0029976D02*
X0053929Y0029976D01*
X0052731Y0031175D02*
X0093600Y0031175D01*
X0093600Y0032373D02*
X0051532Y0032373D01*
X0050334Y0033572D02*
X0093600Y0033572D01*
X0093600Y0034770D02*
X0049135Y0034770D01*
X0047937Y0035969D02*
X0093600Y0035969D01*
X0093600Y0037167D02*
X0046738Y0037167D01*
X0046200Y0038366D02*
X0093600Y0038366D01*
X0093600Y0039564D02*
X0046200Y0039564D01*
X0046200Y0040763D02*
X0093600Y0040763D01*
X0093600Y0041961D02*
X0046200Y0041961D01*
X0046200Y0043160D02*
X0093600Y0043160D01*
X0093600Y0044358D02*
X0046664Y0044358D01*
X0047862Y0045557D02*
X0093600Y0045557D01*
X0093600Y0046755D02*
X0049061Y0046755D01*
X0050259Y0047954D02*
X0093831Y0047954D01*
X0094710Y0049152D02*
X0051458Y0049152D01*
X0052656Y0050351D02*
X0095759Y0050351D01*
X0096416Y0051549D02*
X0053354Y0051549D01*
X0053700Y0052748D02*
X0098308Y0052748D01*
X0099892Y0052748D02*
X0108308Y0052748D01*
X0108406Y0052788D02*
X0107124Y0052257D01*
X0106143Y0051276D01*
X0105654Y0050097D01*
X0104901Y0049343D01*
X0104057Y0048499D01*
X0104710Y0049152D02*
X0102588Y0049152D01*
X0102441Y0050351D02*
X0105759Y0050351D01*
X0106416Y0051549D02*
X0101784Y0051549D01*
X0108406Y0052788D02*
X0109794Y0052788D01*
X0111076Y0052257D01*
X0112057Y0051276D01*
X0112588Y0049994D01*
X0112588Y0048606D01*
X0112057Y0047324D01*
X0111076Y0046343D01*
X0109897Y0045854D01*
X0109600Y0045557D01*
X0111489Y0046755D02*
X0211101Y0046755D01*
X0212707Y0047954D02*
X0112318Y0047954D01*
X0112588Y0049152D02*
X0224300Y0049152D01*
X0224300Y0047954D02*
X0220493Y0047954D01*
X0222099Y0046755D02*
X0224300Y0046755D01*
X0224300Y0045557D02*
X0223297Y0045557D01*
X0223893Y0044358D02*
X0224300Y0044358D01*
X0224300Y0050351D02*
X0112441Y0050351D01*
X0111784Y0051549D02*
X0224300Y0051549D01*
X0224300Y0052748D02*
X0109892Y0052748D01*
X0094557Y0062324D02*
X0095089Y0063606D01*
X0095089Y0064994D01*
X0094600Y0066173D01*
X0094600Y0084557D01*
X0097843Y0087800D01*
X0119917Y0087800D01*
X0119893Y0087776D01*
X0119361Y0086494D01*
X0119361Y0085106D01*
X0119893Y0083824D01*
X0120874Y0082843D01*
X0122156Y0082311D01*
X0123544Y0082311D01*
X0124826Y0082843D01*
X0125383Y0083400D01*
X0127077Y0083400D01*
X0127319Y0083500D01*
X0127553Y0083500D01*
X0127718Y0083665D01*
X0127959Y0083765D01*
X0128635Y0084441D01*
X0128735Y0084682D01*
X0130218Y0086165D01*
X0130459Y0086265D01*
X0131135Y0086941D01*
X0131235Y0087182D01*
X0131400Y0087347D01*
X0131400Y0087581D01*
X0131500Y0087823D01*
X0131500Y0116767D01*
X0132057Y0117324D01*
X0132588Y0118606D01*
X0132588Y0119994D01*
X0132057Y0121276D01*
X0131500Y0121833D01*
X0131500Y0127306D01*
X0132594Y0128400D01*
X0157077Y0128400D01*
X0157959Y0128765D01*
X0158635Y0129441D01*
X0194944Y0165749D01*
X0195546Y0165500D01*
X0197654Y0165500D01*
X0199602Y0166307D01*
X0201093Y0167798D01*
X0201900Y0169746D01*
X0201900Y0171854D01*
X0201093Y0173802D01*
X0199602Y0175293D01*
X0197654Y0176100D01*
X0195546Y0176100D01*
X0193598Y0175293D01*
X0192107Y0173802D01*
X0191300Y0171854D01*
X0191300Y0169746D01*
X0191549Y0169144D01*
X0155606Y0133200D01*
X0131123Y0133200D01*
X0130241Y0132835D01*
X0127741Y0130335D01*
X0127065Y0129659D01*
X0126700Y0128777D01*
X0126700Y0121833D01*
X0126143Y0121276D01*
X0125611Y0119994D01*
X0125611Y0119288D01*
X0124906Y0119288D01*
X0123624Y0118757D01*
X0122643Y0117776D01*
X0122111Y0116494D01*
X0122111Y0115106D01*
X0122643Y0113824D01*
X0123624Y0112843D01*
X0124200Y0112604D01*
X0124200Y0094017D01*
X0123544Y0094288D01*
X0122156Y0094288D01*
X0120977Y0093800D01*
X0096003Y0093800D01*
X0094901Y0093343D01*
X0089057Y0087499D01*
X0088600Y0086397D01*
X0088600Y0066173D01*
X0088111Y0064994D01*
X0088111Y0063606D01*
X0088643Y0062324D01*
X0089624Y0061343D01*
X0090906Y0060811D01*
X0092294Y0060811D01*
X0093576Y0061343D01*
X0094557Y0062324D01*
X0094562Y0062336D02*
X0199311Y0062336D01*
X0198113Y0063534D02*
X0095059Y0063534D01*
X0095089Y0064733D02*
X0196914Y0064733D01*
X0195716Y0065932D02*
X0094700Y0065932D01*
X0094600Y0067130D02*
X0194517Y0067130D01*
X0193319Y0068329D02*
X0094600Y0068329D01*
X0094600Y0069527D02*
X0192120Y0069527D01*
X0190922Y0070726D02*
X0094600Y0070726D01*
X0094600Y0071924D02*
X0189723Y0071924D01*
X0188525Y0073123D02*
X0094600Y0073123D01*
X0094600Y0074321D02*
X0187326Y0074321D01*
X0186128Y0075520D02*
X0094600Y0075520D01*
X0094600Y0076718D02*
X0174429Y0076718D01*
X0173800Y0077347D02*
X0175147Y0076000D01*
X0185647Y0076000D01*
X0200800Y0060847D01*
X0202147Y0059500D01*
X0206830Y0059500D01*
X0206897Y0059472D01*
X0218847Y0059472D01*
X0221230Y0060460D01*
X0223054Y0062284D01*
X0224042Y0064668D01*
X0224042Y0067247D01*
X0223054Y0069631D01*
X0221230Y0071455D01*
X0218847Y0072443D01*
X0206897Y0072443D01*
X0206673Y0072350D01*
X0205803Y0072350D01*
X0192650Y0085503D01*
X0191303Y0086850D01*
X0173803Y0086850D01*
X0171897Y0086850D01*
X0171772Y0086725D01*
X0165397Y0086725D01*
X0164050Y0085378D01*
X0164050Y0080597D01*
X0165397Y0079250D01*
X0171897Y0079250D01*
X0173800Y0077347D01*
X0173231Y0077917D02*
X0094600Y0077917D01*
X0094600Y0079115D02*
X0172032Y0079115D01*
X0164334Y0080314D02*
X0094600Y0080314D01*
X0094600Y0081512D02*
X0164050Y0081512D01*
X0164050Y0082711D02*
X0124508Y0082711D01*
X0121192Y0082711D02*
X0094600Y0082711D01*
X0094600Y0083909D02*
X0119857Y0083909D01*
X0119361Y0085108D02*
X0095150Y0085108D01*
X0096349Y0086306D02*
X0119361Y0086306D01*
X0119780Y0087505D02*
X0097547Y0087505D01*
X0093856Y0092299D02*
X0003900Y0092299D01*
X0003900Y0093497D02*
X0095272Y0093497D01*
X0092658Y0091100D02*
X0003900Y0091100D01*
X0003900Y0089902D02*
X0091459Y0089902D01*
X0090261Y0088703D02*
X0003900Y0088703D01*
X0003900Y0087505D02*
X0089062Y0087505D01*
X0088600Y0086306D02*
X0003900Y0086306D01*
X0003900Y0085108D02*
X0088600Y0085108D01*
X0088600Y0083909D02*
X0003900Y0083909D01*
X0003900Y0082711D02*
X0088600Y0082711D01*
X0088600Y0081512D02*
X0003900Y0081512D01*
X0003900Y0080314D02*
X0088600Y0080314D01*
X0088600Y0079115D02*
X0003900Y0079115D01*
X0003900Y0077917D02*
X0088600Y0077917D01*
X0088600Y0076718D02*
X0003900Y0076718D01*
X0003900Y0075520D02*
X0088600Y0075520D01*
X0088600Y0074321D02*
X0003900Y0074321D01*
X0003900Y0073123D02*
X0088600Y0073123D01*
X0088600Y0071924D02*
X0003900Y0071924D01*
X0003900Y0070726D02*
X0088600Y0070726D01*
X0088600Y0069527D02*
X0003900Y0069527D01*
X0003900Y0068329D02*
X0088600Y0068329D01*
X0088600Y0067130D02*
X0003900Y0067130D01*
X0003900Y0065932D02*
X0007480Y0065932D01*
X0007599Y0066018D02*
X0006799Y0065436D01*
X0006099Y0064737D01*
X0005518Y0063937D01*
X0005069Y0063055D01*
X0004763Y0062114D01*
X0004625Y0061242D01*
X0014978Y0061242D01*
X0014978Y0060043D01*
X0004625Y0060043D01*
X0004763Y0059171D01*
X0005069Y0058230D01*
X0005518Y0057348D01*
X0006099Y0056548D01*
X0006799Y0055849D01*
X0007599Y0055267D01*
X0008481Y0054818D01*
X0009422Y0054512D01*
X0010399Y0054357D01*
X0014978Y0054357D01*
X0014978Y0060042D01*
X0016178Y0060042D01*
X0016178Y0054357D01*
X0020758Y0054357D01*
X0021735Y0054512D01*
X0022676Y0054818D01*
X0023557Y0055267D01*
X0024358Y0055849D01*
X0025057Y0056548D01*
X0025639Y0057348D01*
X0026088Y0058230D01*
X0026394Y0059171D01*
X0026532Y0060043D01*
X0016178Y0060043D01*
X0016178Y0061242D01*
X0026532Y0061242D01*
X0026394Y0062114D01*
X0026088Y0063055D01*
X0025639Y0063937D01*
X0025057Y0064737D01*
X0024358Y0065436D01*
X0023557Y0066018D01*
X0022676Y0066467D01*
X0021735Y0066773D01*
X0020758Y0066928D01*
X0016178Y0066928D01*
X0016178Y0061243D01*
X0014978Y0061243D01*
X0014978Y0066928D01*
X0010399Y0066928D01*
X0009422Y0066773D01*
X0008481Y0066467D01*
X0007599Y0066018D01*
X0006097Y0064733D02*
X0003900Y0064733D01*
X0003900Y0063534D02*
X0005313Y0063534D01*
X0004835Y0062336D02*
X0003900Y0062336D01*
X0003900Y0061137D02*
X0014978Y0061137D01*
X0014978Y0059939D02*
X0016178Y0059939D01*
X0016178Y0061137D02*
X0090119Y0061137D01*
X0088638Y0062336D02*
X0026322Y0062336D01*
X0025844Y0063534D02*
X0088141Y0063534D01*
X0088111Y0064733D02*
X0025060Y0064733D01*
X0023676Y0065932D02*
X0088500Y0065932D01*
X0093081Y0061137D02*
X0200510Y0061137D01*
X0201708Y0059939D02*
X0026515Y0059939D01*
X0026254Y0058740D02*
X0224300Y0058740D01*
X0224300Y0057542D02*
X0050879Y0057542D01*
X0052562Y0056343D02*
X0224300Y0056343D01*
X0224300Y0055145D02*
X0053315Y0055145D01*
X0053700Y0053946D02*
X0224300Y0053946D01*
X0224300Y0059939D02*
X0219973Y0059939D01*
X0221908Y0061137D02*
X0224300Y0061137D01*
X0224300Y0062336D02*
X0223076Y0062336D01*
X0223572Y0063534D02*
X0224300Y0063534D01*
X0224300Y0064733D02*
X0224042Y0064733D01*
X0224042Y0065932D02*
X0224300Y0065932D01*
X0224300Y0067130D02*
X0224042Y0067130D01*
X0224300Y0068329D02*
X0223594Y0068329D01*
X0223097Y0069527D02*
X0224300Y0069527D01*
X0224300Y0070726D02*
X0221960Y0070726D01*
X0220098Y0071924D02*
X0224300Y0071924D01*
X0224300Y0073123D02*
X0205030Y0073123D01*
X0203832Y0074321D02*
X0224300Y0074321D01*
X0224300Y0075520D02*
X0202633Y0075520D01*
X0201435Y0076718D02*
X0224300Y0076718D01*
X0224300Y0077917D02*
X0200236Y0077917D01*
X0199038Y0079115D02*
X0224300Y0079115D01*
X0224300Y0080314D02*
X0221399Y0080314D01*
X0221230Y0080145D02*
X0223054Y0081969D01*
X0224042Y0084353D01*
X0224042Y0086932D01*
X0223054Y0089316D01*
X0221230Y0091140D01*
X0218847Y0092128D01*
X0206897Y0092128D01*
X0206752Y0092067D01*
X0206072Y0092081D01*
X0202353Y0095800D01*
X0206053Y0099500D01*
X0206830Y0099500D01*
X0206897Y0099472D01*
X0218847Y0099472D01*
X0221230Y0100460D01*
X0223054Y0102284D01*
X0224042Y0104668D01*
X0224042Y0107247D01*
X0223054Y0109631D01*
X0221230Y0111455D01*
X0218847Y0112443D01*
X0206897Y0112443D01*
X0206673Y0112350D01*
X0202397Y0112350D01*
X0193647Y0103600D01*
X0173397Y0103600D01*
X0171897Y0102100D01*
X0165397Y0102100D01*
X0164050Y0100753D01*
X0164050Y0095847D01*
X0164097Y0095800D01*
X0164050Y0095753D01*
X0164050Y0090847D01*
X0165397Y0089500D01*
X0172147Y0089500D01*
X0172300Y0089347D01*
X0173647Y0088000D01*
X0193647Y0088000D01*
X0202397Y0079250D01*
X0206673Y0079250D01*
X0206897Y0079157D01*
X0218847Y0079157D01*
X0221230Y0080145D01*
X0222598Y0081512D02*
X0224300Y0081512D01*
X0224300Y0082711D02*
X0223362Y0082711D01*
X0223858Y0083909D02*
X0224300Y0083909D01*
X0224300Y0085108D02*
X0224042Y0085108D01*
X0224042Y0086306D02*
X0224300Y0086306D01*
X0224300Y0087505D02*
X0223805Y0087505D01*
X0224300Y0088703D02*
X0223308Y0088703D01*
X0222469Y0089902D02*
X0224300Y0089902D01*
X0224300Y0091100D02*
X0221270Y0091100D01*
X0224300Y0092299D02*
X0205854Y0092299D01*
X0204655Y0093497D02*
X0224300Y0093497D01*
X0224300Y0094696D02*
X0203457Y0094696D01*
X0202447Y0095894D02*
X0224300Y0095894D01*
X0224300Y0097093D02*
X0203645Y0097093D01*
X0204844Y0098291D02*
X0224300Y0098291D01*
X0224300Y0099490D02*
X0218889Y0099490D01*
X0221459Y0100688D02*
X0224300Y0100688D01*
X0224300Y0101887D02*
X0222657Y0101887D01*
X0223386Y0103085D02*
X0224300Y0103085D01*
X0224300Y0104284D02*
X0223883Y0104284D01*
X0224042Y0105482D02*
X0224300Y0105482D01*
X0224300Y0106681D02*
X0224042Y0106681D01*
X0224300Y0107879D02*
X0223780Y0107879D01*
X0223284Y0109078D02*
X0224300Y0109078D01*
X0224300Y0110276D02*
X0222409Y0110276D01*
X0221183Y0111475D02*
X0224300Y0111475D01*
X0224300Y0112673D02*
X0200476Y0112673D01*
X0201522Y0111475D02*
X0199278Y0111475D01*
X0200324Y0110276D02*
X0198079Y0110276D01*
X0199125Y0109078D02*
X0196881Y0109078D01*
X0197927Y0107879D02*
X0195682Y0107879D01*
X0196728Y0106681D02*
X0194484Y0106681D01*
X0195530Y0105482D02*
X0193285Y0105482D01*
X0192553Y0104750D02*
X0206960Y0119157D01*
X0218847Y0119157D01*
X0221230Y0120145D01*
X0223054Y0121969D01*
X0224042Y0124353D01*
X0224042Y0126932D01*
X0223054Y0129316D01*
X0221230Y0131140D01*
X0218847Y0132128D01*
X0206897Y0132128D01*
X0206830Y0132100D01*
X0202147Y0132100D01*
X0185647Y0115600D01*
X0175397Y0115600D01*
X0172147Y0112350D01*
X0165397Y0112350D01*
X0164050Y0111003D01*
X0164050Y0106222D01*
X0165397Y0104875D01*
X0171772Y0104875D01*
X0171897Y0104750D01*
X0173803Y0104750D01*
X0190647Y0104750D01*
X0192553Y0104750D01*
X0194331Y0104284D02*
X0131500Y0104284D01*
X0131500Y0105482D02*
X0164790Y0105482D01*
X0164050Y0106681D02*
X0131500Y0106681D01*
X0131500Y0107879D02*
X0164050Y0107879D01*
X0164050Y0109078D02*
X0131500Y0109078D01*
X0131500Y0110276D02*
X0164050Y0110276D01*
X0164522Y0111475D02*
X0131500Y0111475D01*
X0131500Y0112673D02*
X0172471Y0112673D01*
X0173669Y0113872D02*
X0131500Y0113872D01*
X0131500Y0115070D02*
X0174868Y0115070D01*
X0186316Y0116269D02*
X0131500Y0116269D01*
X0132117Y0117468D02*
X0187515Y0117468D01*
X0188713Y0118666D02*
X0132588Y0118666D01*
X0132588Y0119865D02*
X0189912Y0119865D01*
X0191110Y0121063D02*
X0132146Y0121063D01*
X0131500Y0122262D02*
X0192309Y0122262D01*
X0193507Y0123460D02*
X0131500Y0123460D01*
X0131500Y0124659D02*
X0194706Y0124659D01*
X0195904Y0125857D02*
X0131500Y0125857D01*
X0131500Y0127056D02*
X0197103Y0127056D01*
X0198301Y0128254D02*
X0132448Y0128254D01*
X0131600Y0130800D02*
X0129100Y0128300D01*
X0129100Y0119300D01*
X0129100Y0088300D01*
X0131400Y0087505D02*
X0194143Y0087505D01*
X0195341Y0086306D02*
X0191846Y0086306D01*
X0192650Y0085503D02*
X0192650Y0085503D01*
X0193045Y0085108D02*
X0196540Y0085108D01*
X0197738Y0083909D02*
X0194243Y0083909D01*
X0195442Y0082711D02*
X0198937Y0082711D01*
X0200135Y0081512D02*
X0196641Y0081512D01*
X0197839Y0080314D02*
X0201334Y0080314D01*
X0206043Y0099490D02*
X0206855Y0099490D01*
X0201675Y0113872D02*
X0224300Y0113872D01*
X0224300Y0115070D02*
X0202873Y0115070D01*
X0204072Y0116269D02*
X0224300Y0116269D01*
X0224300Y0117468D02*
X0205270Y0117468D01*
X0206469Y0118666D02*
X0224300Y0118666D01*
X0224300Y0119865D02*
X0220554Y0119865D01*
X0222148Y0121063D02*
X0224300Y0121063D01*
X0224300Y0122262D02*
X0223176Y0122262D01*
X0223672Y0123460D02*
X0224300Y0123460D01*
X0224300Y0124659D02*
X0224042Y0124659D01*
X0224042Y0125857D02*
X0224300Y0125857D01*
X0224300Y0127056D02*
X0223991Y0127056D01*
X0224300Y0128254D02*
X0223494Y0128254D01*
X0222918Y0129453D02*
X0224300Y0129453D01*
X0224300Y0130651D02*
X0221719Y0130651D01*
X0219518Y0131850D02*
X0224300Y0131850D01*
X0224300Y0133048D02*
X0162242Y0133048D01*
X0161044Y0131850D02*
X0201897Y0131850D01*
X0200698Y0130651D02*
X0159845Y0130651D01*
X0158647Y0129453D02*
X0199500Y0129453D01*
X0212251Y0143835D02*
X0173029Y0143835D01*
X0174227Y0145033D02*
X0210913Y0145033D01*
X0209726Y0146232D02*
X0175426Y0146232D01*
X0176624Y0147430D02*
X0209229Y0147430D01*
X0208733Y0148629D02*
X0177823Y0148629D01*
X0179021Y0149827D02*
X0208501Y0149827D01*
X0208501Y0151026D02*
X0180220Y0151026D01*
X0181418Y0152224D02*
X0208501Y0152224D01*
X0208920Y0153423D02*
X0182617Y0153423D01*
X0183815Y0154621D02*
X0209416Y0154621D01*
X0210166Y0155820D02*
X0185014Y0155820D01*
X0186212Y0157018D02*
X0211364Y0157018D01*
X0213342Y0158217D02*
X0187411Y0158217D01*
X0188610Y0159415D02*
X0223732Y0159415D01*
X0224300Y0158217D02*
X0219858Y0158217D01*
X0221836Y0157018D02*
X0224300Y0157018D01*
X0224300Y0155820D02*
X0223034Y0155820D01*
X0223784Y0154621D02*
X0224300Y0154621D01*
X0224280Y0153423D02*
X0224300Y0153423D01*
X0224300Y0147430D02*
X0223971Y0147430D01*
X0224300Y0146232D02*
X0223474Y0146232D01*
X0224300Y0145033D02*
X0222287Y0145033D01*
X0220949Y0143835D02*
X0224300Y0143835D01*
X0224300Y0142636D02*
X0171830Y0142636D01*
X0170632Y0141438D02*
X0224300Y0141438D01*
X0224300Y0140239D02*
X0169433Y0140239D01*
X0168235Y0139041D02*
X0224300Y0139041D01*
X0224300Y0137842D02*
X0167036Y0137842D01*
X0165838Y0136644D02*
X0224300Y0136644D01*
X0224300Y0135445D02*
X0164639Y0135445D01*
X0163441Y0134247D02*
X0224300Y0134247D01*
X0222533Y0160614D02*
X0189808Y0160614D01*
X0191007Y0161812D02*
X0221335Y0161812D01*
X0220136Y0163011D02*
X0192205Y0163011D01*
X0193404Y0164209D02*
X0218938Y0164209D01*
X0217739Y0165408D02*
X0194602Y0165408D01*
X0191409Y0169003D02*
X0186593Y0169003D01*
X0186900Y0169746D02*
X0186093Y0167798D01*
X0184602Y0166307D01*
X0182654Y0165500D01*
X0180546Y0165500D01*
X0178598Y0166307D01*
X0177107Y0167798D01*
X0176600Y0169022D01*
X0176093Y0167798D01*
X0174602Y0166307D01*
X0172654Y0165500D01*
X0170546Y0165500D01*
X0168598Y0166307D01*
X0167107Y0167798D01*
X0166600Y0169022D01*
X0166093Y0167798D01*
X0164602Y0166307D01*
X0162654Y0165500D01*
X0160546Y0165500D01*
X0158598Y0166307D01*
X0157107Y0167798D01*
X0156300Y0169746D01*
X0156300Y0171854D01*
X0157107Y0173802D01*
X0158598Y0175293D01*
X0160546Y0176100D01*
X0162654Y0176100D01*
X0164602Y0175293D01*
X0166093Y0173802D01*
X0166600Y0172578D01*
X0167107Y0173802D01*
X0168598Y0175293D01*
X0170546Y0176100D01*
X0172654Y0176100D01*
X0174602Y0175293D01*
X0176093Y0173802D01*
X0176600Y0172578D01*
X0177107Y0173802D01*
X0178598Y0175293D01*
X0180546Y0176100D01*
X0182654Y0176100D01*
X0184602Y0175293D01*
X0186093Y0173802D01*
X0186900Y0171854D01*
X0186900Y0169746D01*
X0186900Y0170202D02*
X0191300Y0170202D01*
X0191300Y0171401D02*
X0186900Y0171401D01*
X0186591Y0172599D02*
X0191609Y0172599D01*
X0192105Y0173798D02*
X0186095Y0173798D01*
X0184899Y0174996D02*
X0193301Y0174996D01*
X0196600Y0170800D02*
X0156600Y0130800D01*
X0131600Y0130800D01*
X0130756Y0133048D02*
X0003900Y0133048D01*
X0003900Y0131850D02*
X0129256Y0131850D01*
X0128057Y0130651D02*
X0003900Y0130651D01*
X0003900Y0129453D02*
X0126980Y0129453D01*
X0126700Y0128254D02*
X0003900Y0128254D01*
X0003900Y0127056D02*
X0126700Y0127056D01*
X0126700Y0125857D02*
X0003900Y0125857D01*
X0003900Y0124659D02*
X0126700Y0124659D01*
X0126700Y0123460D02*
X0003900Y0123460D01*
X0003900Y0122262D02*
X0126700Y0122262D01*
X0126054Y0121063D02*
X0003900Y0121063D01*
X0003900Y0119865D02*
X0125611Y0119865D01*
X0123533Y0118666D02*
X0003900Y0118666D01*
X0003900Y0117468D02*
X0122515Y0117468D01*
X0122111Y0116269D02*
X0003900Y0116269D01*
X0003900Y0115070D02*
X0122126Y0115070D01*
X0122623Y0113872D02*
X0003900Y0113872D01*
X0003900Y0112673D02*
X0124032Y0112673D01*
X0124200Y0111475D02*
X0003900Y0111475D01*
X0003900Y0110276D02*
X0124200Y0110276D01*
X0124200Y0109078D02*
X0003900Y0109078D01*
X0003900Y0107879D02*
X0124200Y0107879D01*
X0124200Y0106681D02*
X0003900Y0106681D01*
X0003900Y0105482D02*
X0124200Y0105482D01*
X0124200Y0104284D02*
X0003900Y0104284D01*
X0003900Y0103085D02*
X0124200Y0103085D01*
X0124200Y0101887D02*
X0003900Y0101887D01*
X0003900Y0100688D02*
X0124200Y0100688D01*
X0124200Y0099490D02*
X0003900Y0099490D01*
X0003900Y0098291D02*
X0124200Y0098291D01*
X0124200Y0097093D02*
X0003900Y0097093D01*
X0003900Y0095894D02*
X0124200Y0095894D01*
X0124200Y0094696D02*
X0003900Y0094696D01*
X0014978Y0065932D02*
X0016178Y0065932D01*
X0016178Y0064733D02*
X0014978Y0064733D01*
X0014978Y0063534D02*
X0016178Y0063534D01*
X0016178Y0062336D02*
X0014978Y0062336D01*
X0014978Y0058740D02*
X0016178Y0058740D01*
X0016178Y0057542D02*
X0014978Y0057542D01*
X0014978Y0056343D02*
X0016178Y0056343D01*
X0016178Y0055145D02*
X0014978Y0055145D01*
X0007839Y0055145D02*
X0003900Y0055145D01*
X0003900Y0056343D02*
X0006304Y0056343D01*
X0005419Y0057542D02*
X0003900Y0057542D01*
X0003900Y0058740D02*
X0004903Y0058740D01*
X0004641Y0059939D02*
X0003900Y0059939D01*
X0003900Y0053946D02*
X0043241Y0053946D01*
X0042043Y0052748D02*
X0003900Y0052748D01*
X0003900Y0051549D02*
X0040844Y0051549D01*
X0039645Y0050351D02*
X0003900Y0050351D01*
X0003900Y0049152D02*
X0038447Y0049152D01*
X0037513Y0047954D02*
X0003900Y0047954D01*
X0003900Y0046755D02*
X0007944Y0046755D01*
X0006321Y0045557D02*
X0003900Y0045557D01*
X0003900Y0044358D02*
X0005283Y0044358D01*
X0004786Y0043160D02*
X0003900Y0043160D01*
X0003900Y0041961D02*
X0004408Y0041961D01*
X0004408Y0040763D02*
X0003900Y0040763D01*
X0003900Y0039564D02*
X0004451Y0039564D01*
X0004947Y0038366D02*
X0003900Y0038366D01*
X0003900Y0037167D02*
X0005512Y0037167D01*
X0006711Y0035969D02*
X0003900Y0035969D01*
X0003900Y0034770D02*
X0008884Y0034770D01*
X0003900Y0033572D02*
X0019823Y0033572D01*
X0021021Y0032373D02*
X0003900Y0032373D01*
X0003900Y0031175D02*
X0022220Y0031175D01*
X0023418Y0029976D02*
X0003900Y0029976D01*
X0003900Y0028778D02*
X0009696Y0028778D01*
X0006925Y0027579D02*
X0003900Y0027579D01*
X0003900Y0026381D02*
X0005727Y0026381D01*
X0004649Y0025182D02*
X0003900Y0025182D01*
X0003900Y0023984D02*
X0004152Y0023984D01*
X0013504Y0028778D02*
X0024617Y0028778D01*
X0025815Y0027579D02*
X0016275Y0027579D01*
X0017473Y0026381D02*
X0027014Y0026381D01*
X0028212Y0025182D02*
X0018551Y0025182D01*
X0019048Y0023984D02*
X0029411Y0023984D01*
X0030609Y0022785D02*
X0019544Y0022785D01*
X0019699Y0021587D02*
X0031808Y0021587D01*
X0033007Y0020388D02*
X0019699Y0020388D01*
X0019699Y0019190D02*
X0034503Y0019190D01*
X0037628Y0028778D02*
X0040452Y0028778D01*
X0040918Y0029976D02*
X0036429Y0029976D01*
X0035231Y0031175D02*
X0039720Y0031175D01*
X0038521Y0032373D02*
X0034032Y0032373D01*
X0032834Y0033572D02*
X0037544Y0033572D01*
X0037048Y0034770D02*
X0031635Y0034770D01*
X0030437Y0035969D02*
X0037000Y0035969D01*
X0037000Y0037167D02*
X0029238Y0037167D01*
X0028040Y0038366D02*
X0037000Y0038366D01*
X0037000Y0039564D02*
X0026841Y0039564D01*
X0026748Y0040763D02*
X0037000Y0040763D01*
X0037000Y0041961D02*
X0026748Y0041961D01*
X0026370Y0043160D02*
X0037000Y0043160D01*
X0037000Y0044358D02*
X0025874Y0044358D01*
X0024835Y0045557D02*
X0037000Y0045557D01*
X0037017Y0046755D02*
X0023212Y0046755D01*
X0023318Y0055145D02*
X0044440Y0055145D01*
X0045638Y0056343D02*
X0024853Y0056343D01*
X0025737Y0057542D02*
X0047321Y0057542D01*
X0065099Y0027579D02*
X0093600Y0027579D01*
X0084796Y0015594D02*
X0017848Y0015594D01*
X0016650Y0014396D02*
X0214259Y0014396D01*
X0214300Y0015594D02*
X0208404Y0015594D01*
X0210371Y0016793D02*
X0214300Y0016793D01*
X0214300Y0017991D02*
X0211390Y0017991D01*
X0211886Y0019190D02*
X0214300Y0019190D01*
X0214300Y0020388D02*
X0212100Y0020388D01*
X0212100Y0021587D02*
X0214300Y0021587D01*
X0215332Y0022785D02*
X0211731Y0022785D01*
X0211195Y0023984D02*
X0216531Y0023984D01*
X0217729Y0025182D02*
X0209996Y0025182D01*
X0209676Y0026381D02*
X0218928Y0026381D01*
X0220126Y0027579D02*
X0210874Y0027579D01*
X0220314Y0033572D02*
X0224300Y0033572D01*
X0224300Y0034770D02*
X0222024Y0034770D01*
X0223223Y0035969D02*
X0224300Y0035969D01*
X0224300Y0037167D02*
X0223862Y0037167D01*
X0204796Y0015594D02*
X0198404Y0015594D01*
X0200371Y0016793D02*
X0202829Y0016793D01*
X0201810Y0017991D02*
X0201390Y0017991D01*
X0194796Y0015594D02*
X0188404Y0015594D01*
X0190371Y0016793D02*
X0192829Y0016793D01*
X0191810Y0017991D02*
X0191390Y0017991D01*
X0184796Y0015594D02*
X0178404Y0015594D01*
X0180371Y0016793D02*
X0182829Y0016793D01*
X0181810Y0017991D02*
X0181390Y0017991D01*
X0174796Y0015594D02*
X0168404Y0015594D01*
X0170371Y0016793D02*
X0172829Y0016793D01*
X0171810Y0017991D02*
X0171390Y0017991D01*
X0164796Y0015594D02*
X0158404Y0015594D01*
X0160371Y0016793D02*
X0162829Y0016793D01*
X0161810Y0017991D02*
X0161390Y0017991D01*
X0154796Y0015594D02*
X0138404Y0015594D01*
X0140371Y0016793D02*
X0152829Y0016793D01*
X0151810Y0017991D02*
X0141390Y0017991D01*
X0141886Y0019190D02*
X0151314Y0019190D01*
X0151100Y0020388D02*
X0142100Y0020388D01*
X0142100Y0021587D02*
X0151100Y0021587D01*
X0151469Y0022785D02*
X0141731Y0022785D01*
X0128103Y0083909D02*
X0164050Y0083909D01*
X0164050Y0085108D02*
X0129160Y0085108D01*
X0130500Y0086306D02*
X0164979Y0086306D01*
X0164996Y0089902D02*
X0131500Y0089902D01*
X0131500Y0091100D02*
X0164050Y0091100D01*
X0164050Y0092299D02*
X0131500Y0092299D01*
X0131500Y0093497D02*
X0164050Y0093497D01*
X0164050Y0094696D02*
X0131500Y0094696D01*
X0131500Y0095894D02*
X0164050Y0095894D01*
X0164050Y0097093D02*
X0131500Y0097093D01*
X0131500Y0098291D02*
X0164050Y0098291D01*
X0164050Y0099490D02*
X0131500Y0099490D01*
X0131500Y0100688D02*
X0164050Y0100688D01*
X0165184Y0101887D02*
X0131500Y0101887D01*
X0131500Y0103085D02*
X0172883Y0103085D01*
X0172300Y0089347D02*
X0172300Y0089347D01*
X0172944Y0088703D02*
X0131500Y0088703D01*
X0126600Y0085800D02*
X0122850Y0085800D01*
X0122850Y0090800D02*
X0125100Y0090800D01*
X0126600Y0092300D01*
X0126600Y0114800D01*
X0125600Y0115800D01*
X0156653Y0134247D02*
X0003900Y0134247D01*
X0003900Y0135445D02*
X0157851Y0135445D01*
X0159050Y0136644D02*
X0003900Y0136644D01*
X0003900Y0137842D02*
X0160248Y0137842D01*
X0161447Y0139041D02*
X0003900Y0139041D01*
X0003900Y0140239D02*
X0162645Y0140239D01*
X0163844Y0141438D02*
X0003900Y0141438D01*
X0003900Y0142636D02*
X0165042Y0142636D01*
X0166241Y0143835D02*
X0003900Y0143835D01*
X0003900Y0145033D02*
X0167439Y0145033D01*
X0168638Y0146232D02*
X0003900Y0146232D01*
X0003900Y0147430D02*
X0169836Y0147430D01*
X0171035Y0148629D02*
X0003900Y0148629D01*
X0003900Y0149827D02*
X0172233Y0149827D01*
X0173432Y0151026D02*
X0003900Y0151026D01*
X0003900Y0152224D02*
X0174630Y0152224D01*
X0175829Y0153423D02*
X0003900Y0153423D01*
X0003900Y0154621D02*
X0177027Y0154621D01*
X0178226Y0155820D02*
X0003900Y0155820D01*
X0003900Y0157018D02*
X0179424Y0157018D01*
X0180623Y0158217D02*
X0003900Y0158217D01*
X0003900Y0159415D02*
X0181821Y0159415D01*
X0183020Y0160614D02*
X0003900Y0160614D01*
X0003900Y0161812D02*
X0184218Y0161812D01*
X0185417Y0163011D02*
X0003900Y0163011D01*
X0003900Y0164209D02*
X0186615Y0164209D01*
X0187814Y0165408D02*
X0003900Y0165408D01*
X0003900Y0166606D02*
X0123298Y0166606D01*
X0123598Y0166307D02*
X0125546Y0165500D01*
X0127654Y0165500D01*
X0129602Y0166307D01*
X0131093Y0167798D01*
X0131600Y0169022D01*
X0132107Y0167798D01*
X0133598Y0166307D01*
X0135546Y0165500D01*
X0137654Y0165500D01*
X0139602Y0166307D01*
X0141093Y0167798D01*
X0141600Y0169022D01*
X0142107Y0167798D01*
X0143598Y0166307D01*
X0145546Y0165500D01*
X0147654Y0165500D01*
X0149602Y0166307D01*
X0151093Y0167798D01*
X0151900Y0169746D01*
X0151900Y0171854D01*
X0151093Y0173802D01*
X0149602Y0175293D01*
X0147654Y0176100D01*
X0145546Y0176100D01*
X0143598Y0175293D01*
X0142107Y0173802D01*
X0141600Y0172578D01*
X0141093Y0173802D01*
X0139602Y0175293D01*
X0137654Y0176100D01*
X0135546Y0176100D01*
X0133598Y0175293D01*
X0132107Y0173802D01*
X0131600Y0172578D01*
X0131093Y0173802D01*
X0129602Y0175293D01*
X0127654Y0176100D01*
X0125546Y0176100D01*
X0123598Y0175293D01*
X0122107Y0173802D01*
X0121300Y0171854D01*
X0121300Y0169746D01*
X0122107Y0167798D01*
X0123598Y0166307D01*
X0122104Y0167805D02*
X0003900Y0167805D01*
X0003900Y0169003D02*
X0121607Y0169003D01*
X0121300Y0170202D02*
X0003900Y0170202D01*
X0003900Y0171401D02*
X0121300Y0171401D01*
X0121609Y0172599D02*
X0003900Y0172599D01*
X0003900Y0173798D02*
X0122105Y0173798D01*
X0123301Y0174996D02*
X0003900Y0174996D01*
X0003900Y0176195D02*
X0214300Y0176195D01*
X0214300Y0177393D02*
X0003900Y0177393D01*
X0003900Y0178592D02*
X0214300Y0178592D01*
X0214300Y0179790D02*
X0003900Y0179790D01*
X0003900Y0180989D02*
X0214300Y0180989D01*
X0214300Y0182187D02*
X0003900Y0182187D01*
X0003900Y0183386D02*
X0159581Y0183386D01*
X0159624Y0183343D02*
X0160906Y0182811D01*
X0162294Y0182811D01*
X0163576Y0183343D01*
X0164557Y0184324D01*
X0165088Y0185606D01*
X0165088Y0186994D01*
X0164557Y0188276D01*
X0164433Y0188400D01*
X0166106Y0188400D01*
X0168111Y0186394D01*
X0168111Y0185606D01*
X0168643Y0184324D01*
X0169624Y0183343D01*
X0170906Y0182811D01*
X0172294Y0182811D01*
X0173576Y0183343D01*
X0174557Y0184324D01*
X0175088Y0185606D01*
X0175088Y0186994D01*
X0174557Y0188276D01*
X0173576Y0189257D01*
X0172294Y0189788D01*
X0171506Y0189788D01*
X0170394Y0190900D01*
X0173606Y0190900D01*
X0178111Y0186394D01*
X0178111Y0185606D01*
X0178643Y0184324D01*
X0179624Y0183343D01*
X0180906Y0182811D01*
X0182294Y0182811D01*
X0183576Y0183343D01*
X0184557Y0184324D01*
X0185088Y0185606D01*
X0185088Y0186994D01*
X0184557Y0188276D01*
X0183576Y0189257D01*
X0182294Y0189788D01*
X0181506Y0189788D01*
X0176635Y0194659D01*
X0175959Y0195335D01*
X0175560Y0195500D01*
X0177654Y0195500D01*
X0179602Y0196307D01*
X0181093Y0197798D01*
X0181600Y0199022D01*
X0182107Y0197798D01*
X0183598Y0196307D01*
X0185546Y0195500D01*
X0187654Y0195500D01*
X0189602Y0196307D01*
X0191093Y0197798D01*
X0191600Y0199022D01*
X0192107Y0197798D01*
X0193598Y0196307D01*
X0195546Y0195500D01*
X0197654Y0195500D01*
X0199602Y0196307D01*
X0201093Y0197798D01*
X0201600Y0199022D01*
X0202107Y0197798D01*
X0203598Y0196307D01*
X0205546Y0195500D01*
X0207654Y0195500D01*
X0209602Y0196307D01*
X0211093Y0197798D01*
X0211900Y0199746D01*
X0211900Y0201854D01*
X0211093Y0203802D01*
X0209602Y0205293D01*
X0209600Y0205294D01*
X0209600Y0205300D01*
X0211046Y0205300D01*
X0212100Y0206354D01*
X0212100Y0215246D01*
X0211046Y0216300D01*
X0202154Y0216300D01*
X0201100Y0215246D01*
X0201100Y0214078D01*
X0199715Y0215463D01*
X0197694Y0216300D01*
X0195506Y0216300D01*
X0193484Y0215463D01*
X0191937Y0213915D01*
X0191600Y0213101D01*
X0191263Y0213915D01*
X0189715Y0215463D01*
X0187694Y0216300D01*
X0185506Y0216300D01*
X0183484Y0215463D01*
X0181937Y0213915D01*
X0181600Y0213101D01*
X0181263Y0213915D01*
X0179715Y0215463D01*
X0177694Y0216300D01*
X0175506Y0216300D01*
X0173484Y0215463D01*
X0171937Y0213915D01*
X0171600Y0213101D01*
X0171263Y0213915D01*
X0169715Y0215463D01*
X0167694Y0216300D01*
X0165506Y0216300D01*
X0163484Y0215463D01*
X0161937Y0213915D01*
X0161600Y0213101D01*
X0161263Y0213915D01*
X0159715Y0215463D01*
X0157694Y0216300D01*
X0155506Y0216300D01*
X0153484Y0215463D01*
X0151937Y0213915D01*
X0151600Y0213101D01*
X0151263Y0213915D01*
X0149715Y0215463D01*
X0147694Y0216300D01*
X0145506Y0216300D01*
X0143484Y0215463D01*
X0141937Y0213915D01*
X0141600Y0213101D01*
X0141263Y0213915D01*
X0139715Y0215463D01*
X0137694Y0216300D01*
X0135506Y0216300D01*
X0133484Y0215463D01*
X0131937Y0213915D01*
X0131100Y0211894D01*
X0131100Y0209706D01*
X0131937Y0207684D01*
X0133484Y0206137D01*
X0133600Y0206089D01*
X0133600Y0205294D01*
X0133598Y0205293D01*
X0132107Y0203802D01*
X0131300Y0201854D01*
X0131300Y0199746D01*
X0132107Y0197798D01*
X0133598Y0196307D01*
X0134200Y0196057D01*
X0134200Y0192823D01*
X0134565Y0191941D01*
X0135806Y0190700D01*
X0124094Y0190700D01*
X0123000Y0191794D01*
X0123000Y0196057D01*
X0123602Y0196307D01*
X0125093Y0197798D01*
X0125900Y0199746D01*
X0125900Y0201854D01*
X0125093Y0203802D01*
X0123602Y0205293D01*
X0123600Y0205294D01*
X0123600Y0205300D01*
X0125046Y0205300D01*
X0126100Y0206354D01*
X0126100Y0215246D01*
X0125046Y0216300D01*
X0116154Y0216300D01*
X0115100Y0215246D01*
X0115100Y0214078D01*
X0113715Y0215463D01*
X0111694Y0216300D01*
X0109506Y0216300D01*
X0107484Y0215463D01*
X0105937Y0213915D01*
X0105600Y0213101D01*
X0105263Y0213915D01*
X0103715Y0215463D01*
X0101694Y0216300D01*
X0099506Y0216300D01*
X0097484Y0215463D01*
X0095937Y0213915D01*
X0095600Y0213101D01*
X0095263Y0213915D01*
X0093715Y0215463D01*
X0091694Y0216300D01*
X0089506Y0216300D01*
X0087484Y0215463D01*
X0085937Y0213915D01*
X0085600Y0213101D01*
X0085263Y0213915D01*
X0083715Y0215463D01*
X0081694Y0216300D01*
X0079506Y0216300D01*
X0077484Y0215463D01*
X0075937Y0213915D01*
X0075600Y0213101D01*
X0075263Y0213915D01*
X0073715Y0215463D01*
X0071694Y0216300D01*
X0069506Y0216300D01*
X0067484Y0215463D01*
X0065937Y0213915D01*
X0065499Y0212858D01*
X0065133Y0213578D01*
X0064643Y0214253D01*
X0064053Y0214843D01*
X0063378Y0215333D01*
X0062634Y0215712D01*
X0061841Y0215969D01*
X0061017Y0216100D01*
X0061000Y0216100D01*
X0061000Y0211200D01*
X0060200Y0211200D01*
X0060200Y0216100D01*
X0060183Y0216100D01*
X0059359Y0215969D01*
X0058566Y0215712D01*
X0057822Y0215333D01*
X0057147Y0214843D01*
X0056557Y0214253D01*
X0056067Y0213578D01*
X0055701Y0212858D01*
X0055263Y0213915D01*
X0053715Y0215463D01*
X0051694Y0216300D01*
X0049506Y0216300D01*
X0047484Y0215463D01*
X0045937Y0213915D01*
X0045100Y0211894D01*
X0045100Y0209706D01*
X0045937Y0207684D01*
X0047484Y0206137D01*
X0049506Y0205300D01*
X0051694Y0205300D01*
X0053715Y0206137D01*
X0055263Y0207684D01*
X0055701Y0208742D01*
X0056067Y0208022D01*
X0056557Y0207347D01*
X0057147Y0206757D01*
X0057822Y0206267D01*
X0058566Y0205888D01*
X0059359Y0205630D01*
X0060183Y0205500D01*
X0060200Y0205500D01*
X0060200Y0210400D01*
X0061000Y0210400D01*
X0061000Y0205500D01*
X0061017Y0205500D01*
X0061841Y0205630D01*
X0062634Y0205888D01*
X0063378Y0206267D01*
X0064053Y0206757D01*
X0064643Y0207347D01*
X0065133Y0208022D01*
X0065499Y0208742D01*
X0065937Y0207684D01*
X0067484Y0206137D01*
X0067600Y0206089D01*
X0067600Y0205294D01*
X0067598Y0205293D01*
X0066107Y0203802D01*
X0065300Y0201854D01*
X0065300Y0199746D01*
X0066107Y0197798D01*
X0067598Y0196307D01*
X0069546Y0195500D01*
X0071654Y0195500D01*
X0073602Y0196307D01*
X0075093Y0197798D01*
X0075600Y0199022D01*
X0076107Y0197798D01*
X0077598Y0196307D01*
X0079546Y0195500D01*
X0081654Y0195500D01*
X0083602Y0196307D01*
X0085093Y0197798D01*
X0085600Y0199022D01*
X0086107Y0197798D01*
X0087598Y0196307D01*
X0089546Y0195500D01*
X0091654Y0195500D01*
X0093602Y0196307D01*
X0095093Y0197798D01*
X0095600Y0199022D01*
X0096107Y0197798D01*
X0097598Y0196307D01*
X0099546Y0195500D01*
X0101654Y0195500D01*
X0103602Y0196307D01*
X0105093Y0197798D01*
X0105600Y0199022D01*
X0106107Y0197798D01*
X0107598Y0196307D01*
X0109546Y0195500D01*
X0111654Y0195500D01*
X0113602Y0196307D01*
X0115093Y0197798D01*
X0115600Y0199022D01*
X0116107Y0197798D01*
X0117598Y0196307D01*
X0118200Y0196057D01*
X0118200Y0190323D01*
X0118565Y0189441D01*
X0121065Y0186941D01*
X0121741Y0186265D01*
X0122623Y0185900D01*
X0158111Y0185900D01*
X0158111Y0185606D01*
X0158643Y0184324D01*
X0159624Y0183343D01*
X0158535Y0184584D02*
X0003900Y0184584D01*
X0003900Y0185783D02*
X0158111Y0185783D01*
X0159600Y0188300D02*
X0123100Y0188300D01*
X0120600Y0190800D01*
X0120600Y0200800D01*
X0115623Y0198966D02*
X0115577Y0198966D01*
X0115063Y0197768D02*
X0116137Y0197768D01*
X0117335Y0196569D02*
X0113865Y0196569D01*
X0118200Y0195371D02*
X0003900Y0195371D01*
X0003900Y0196569D02*
X0067335Y0196569D01*
X0066137Y0197768D02*
X0003900Y0197768D01*
X0003900Y0198966D02*
X0065623Y0198966D01*
X0065300Y0200165D02*
X0003900Y0200165D01*
X0003900Y0201363D02*
X0065300Y0201363D01*
X0065593Y0202562D02*
X0003900Y0202562D01*
X0003900Y0203760D02*
X0012431Y0203760D01*
X0010987Y0204959D02*
X0003900Y0204959D01*
X0003900Y0206157D02*
X0009789Y0206157D01*
X0009260Y0207356D02*
X0003900Y0207356D01*
X0003900Y0208554D02*
X0008764Y0208554D01*
X0008501Y0209753D02*
X0003900Y0209753D01*
X0003900Y0210951D02*
X0008501Y0210951D01*
X0008501Y0212150D02*
X0003900Y0212150D01*
X0003900Y0213348D02*
X0008889Y0213348D01*
X0009386Y0214547D02*
X0003900Y0214547D01*
X0003900Y0215745D02*
X0010091Y0215745D01*
X0011290Y0216944D02*
X0003908Y0216944D01*
X0004546Y0218142D02*
X0013162Y0218142D01*
X0020038Y0218142D02*
X0210005Y0218142D01*
X0211203Y0216944D02*
X0021910Y0216944D01*
X0023109Y0215745D02*
X0048167Y0215745D01*
X0046569Y0214547D02*
X0023814Y0214547D01*
X0024311Y0213348D02*
X0045702Y0213348D01*
X0045206Y0212150D02*
X0024699Y0212150D01*
X0024699Y0210951D02*
X0045100Y0210951D01*
X0045100Y0209753D02*
X0024699Y0209753D01*
X0024436Y0208554D02*
X0045577Y0208554D01*
X0046266Y0207356D02*
X0023940Y0207356D01*
X0023411Y0206157D02*
X0047464Y0206157D01*
X0053736Y0206157D02*
X0058037Y0206157D01*
X0056551Y0207356D02*
X0054934Y0207356D01*
X0055623Y0208554D02*
X0055796Y0208554D01*
X0060200Y0208554D02*
X0061000Y0208554D01*
X0061000Y0207356D02*
X0060200Y0207356D01*
X0060200Y0206157D02*
X0061000Y0206157D01*
X0063163Y0206157D02*
X0067464Y0206157D01*
X0067264Y0204959D02*
X0022213Y0204959D01*
X0020769Y0203760D02*
X0066090Y0203760D01*
X0066266Y0207356D02*
X0064649Y0207356D01*
X0065404Y0208554D02*
X0065577Y0208554D01*
X0061000Y0209753D02*
X0060200Y0209753D01*
X0060200Y0212150D02*
X0061000Y0212150D01*
X0061000Y0213348D02*
X0060200Y0213348D01*
X0060200Y0214547D02*
X0061000Y0214547D01*
X0061000Y0215745D02*
X0060200Y0215745D01*
X0058669Y0215745D02*
X0053033Y0215745D01*
X0054631Y0214547D02*
X0056852Y0214547D01*
X0055950Y0213348D02*
X0055498Y0213348D01*
X0062531Y0215745D02*
X0068167Y0215745D01*
X0066569Y0214547D02*
X0064348Y0214547D01*
X0065250Y0213348D02*
X0065702Y0213348D01*
X0073033Y0215745D02*
X0078167Y0215745D01*
X0076569Y0214547D02*
X0074631Y0214547D01*
X0075498Y0213348D02*
X0075702Y0213348D01*
X0083033Y0215745D02*
X0088167Y0215745D01*
X0086569Y0214547D02*
X0084631Y0214547D01*
X0085498Y0213348D02*
X0085702Y0213348D01*
X0093033Y0215745D02*
X0098167Y0215745D01*
X0096569Y0214547D02*
X0094631Y0214547D01*
X0095498Y0213348D02*
X0095702Y0213348D01*
X0103033Y0215745D02*
X0108167Y0215745D01*
X0106569Y0214547D02*
X0104631Y0214547D01*
X0105498Y0213348D02*
X0105702Y0213348D01*
X0113033Y0215745D02*
X0115600Y0215745D01*
X0115100Y0214547D02*
X0114631Y0214547D01*
X0123936Y0204959D02*
X0133264Y0204959D01*
X0133464Y0206157D02*
X0125903Y0206157D01*
X0126100Y0207356D02*
X0132266Y0207356D01*
X0131577Y0208554D02*
X0126100Y0208554D01*
X0126100Y0209753D02*
X0131100Y0209753D01*
X0131100Y0210951D02*
X0126100Y0210951D01*
X0126100Y0212150D02*
X0131206Y0212150D01*
X0131702Y0213348D02*
X0126100Y0213348D01*
X0126100Y0214547D02*
X0132569Y0214547D01*
X0134167Y0215745D02*
X0125600Y0215745D01*
X0139033Y0215745D02*
X0144167Y0215745D01*
X0142569Y0214547D02*
X0140631Y0214547D01*
X0141498Y0213348D02*
X0141702Y0213348D01*
X0149033Y0215745D02*
X0154167Y0215745D01*
X0152569Y0214547D02*
X0150631Y0214547D01*
X0151498Y0213348D02*
X0151702Y0213348D01*
X0159033Y0215745D02*
X0164167Y0215745D01*
X0162569Y0214547D02*
X0160631Y0214547D01*
X0161498Y0213348D02*
X0161702Y0213348D01*
X0169033Y0215745D02*
X0174167Y0215745D01*
X0172569Y0214547D02*
X0170631Y0214547D01*
X0171498Y0213348D02*
X0171702Y0213348D01*
X0179033Y0215745D02*
X0184167Y0215745D01*
X0182569Y0214547D02*
X0180631Y0214547D01*
X0181498Y0213348D02*
X0181702Y0213348D01*
X0189033Y0215745D02*
X0194167Y0215745D01*
X0192569Y0214547D02*
X0190631Y0214547D01*
X0191498Y0213348D02*
X0191702Y0213348D01*
X0199033Y0215745D02*
X0201600Y0215745D01*
X0201100Y0214547D02*
X0200631Y0214547D01*
X0209936Y0204959D02*
X0214300Y0204959D01*
X0214300Y0206157D02*
X0211903Y0206157D01*
X0212100Y0207356D02*
X0214300Y0207356D01*
X0214300Y0208554D02*
X0212100Y0208554D01*
X0212100Y0209753D02*
X0214300Y0209753D01*
X0214300Y0210951D02*
X0212100Y0210951D01*
X0212100Y0212150D02*
X0214300Y0212150D01*
X0214300Y0213348D02*
X0212100Y0213348D01*
X0212100Y0214547D02*
X0213600Y0214547D01*
X0212402Y0215745D02*
X0211600Y0215745D01*
X0211110Y0203760D02*
X0214300Y0203760D01*
X0214300Y0202562D02*
X0211607Y0202562D01*
X0211900Y0201363D02*
X0214300Y0201363D01*
X0214300Y0200165D02*
X0211900Y0200165D01*
X0211577Y0198966D02*
X0214300Y0198966D01*
X0214300Y0197768D02*
X0211063Y0197768D01*
X0209865Y0196569D02*
X0214300Y0196569D01*
X0214300Y0195371D02*
X0175872Y0195371D01*
X0177122Y0194172D02*
X0214300Y0194172D01*
X0214300Y0192974D02*
X0178320Y0192974D01*
X0179519Y0191775D02*
X0214300Y0191775D01*
X0214300Y0190577D02*
X0180717Y0190577D01*
X0183284Y0189378D02*
X0214300Y0189378D01*
X0214300Y0188180D02*
X0184597Y0188180D01*
X0185088Y0186981D02*
X0214300Y0186981D01*
X0214300Y0185783D02*
X0185088Y0185783D01*
X0184665Y0184584D02*
X0214300Y0184584D01*
X0214300Y0183386D02*
X0183619Y0183386D01*
X0181600Y0186300D02*
X0174600Y0193300D01*
X0149100Y0193300D01*
X0146600Y0195800D01*
X0146600Y0200800D01*
X0139100Y0190800D02*
X0167100Y0190800D01*
X0171600Y0186300D01*
X0173284Y0189378D02*
X0175128Y0189378D01*
X0174597Y0188180D02*
X0176326Y0188180D01*
X0177525Y0186981D02*
X0175088Y0186981D01*
X0175088Y0185783D02*
X0178111Y0185783D01*
X0178535Y0184584D02*
X0174665Y0184584D01*
X0173619Y0183386D02*
X0179581Y0183386D01*
X0173929Y0190577D02*
X0170717Y0190577D01*
X0167525Y0186981D02*
X0165088Y0186981D01*
X0165088Y0185783D02*
X0168111Y0185783D01*
X0168535Y0184584D02*
X0164665Y0184584D01*
X0163619Y0183386D02*
X0169581Y0183386D01*
X0166326Y0188180D02*
X0164597Y0188180D01*
X0161600Y0186300D02*
X0159600Y0188300D01*
X0158301Y0174996D02*
X0149899Y0174996D01*
X0151095Y0173798D02*
X0157105Y0173798D01*
X0156609Y0172599D02*
X0151591Y0172599D01*
X0151900Y0171401D02*
X0156300Y0171401D01*
X0156300Y0170202D02*
X0151900Y0170202D01*
X0151593Y0169003D02*
X0156607Y0169003D01*
X0157104Y0167805D02*
X0151096Y0167805D01*
X0149902Y0166606D02*
X0158298Y0166606D01*
X0164902Y0166606D02*
X0168298Y0166606D01*
X0167104Y0167805D02*
X0166096Y0167805D01*
X0166593Y0169003D02*
X0166607Y0169003D01*
X0166591Y0172599D02*
X0166609Y0172599D01*
X0167105Y0173798D02*
X0166095Y0173798D01*
X0164899Y0174996D02*
X0168301Y0174996D01*
X0174899Y0174996D02*
X0178301Y0174996D01*
X0177105Y0173798D02*
X0176095Y0173798D01*
X0176591Y0172599D02*
X0176609Y0172599D01*
X0176593Y0169003D02*
X0176607Y0169003D01*
X0177104Y0167805D02*
X0176096Y0167805D01*
X0174902Y0166606D02*
X0178298Y0166606D01*
X0184902Y0166606D02*
X0189012Y0166606D01*
X0190211Y0167805D02*
X0186096Y0167805D01*
X0199902Y0166606D02*
X0216541Y0166606D01*
X0215342Y0167805D02*
X0201096Y0167805D01*
X0201593Y0169003D02*
X0214300Y0169003D01*
X0214300Y0170202D02*
X0201900Y0170202D01*
X0201900Y0171401D02*
X0214300Y0171401D01*
X0214300Y0172599D02*
X0201591Y0172599D01*
X0201095Y0173798D02*
X0214300Y0173798D01*
X0214300Y0174996D02*
X0199899Y0174996D01*
X0199865Y0196569D02*
X0203335Y0196569D01*
X0202137Y0197768D02*
X0201063Y0197768D01*
X0201577Y0198966D02*
X0201623Y0198966D01*
X0193335Y0196569D02*
X0189865Y0196569D01*
X0191063Y0197768D02*
X0192137Y0197768D01*
X0191623Y0198966D02*
X0191577Y0198966D01*
X0183335Y0196569D02*
X0179865Y0196569D01*
X0181063Y0197768D02*
X0182137Y0197768D01*
X0181623Y0198966D02*
X0181577Y0198966D01*
X0143301Y0174996D02*
X0139899Y0174996D01*
X0141095Y0173798D02*
X0142105Y0173798D01*
X0141609Y0172599D02*
X0141591Y0172599D01*
X0141593Y0169003D02*
X0141607Y0169003D01*
X0142104Y0167805D02*
X0141096Y0167805D01*
X0139902Y0166606D02*
X0143298Y0166606D01*
X0133298Y0166606D02*
X0129902Y0166606D01*
X0131096Y0167805D02*
X0132104Y0167805D01*
X0131607Y0169003D02*
X0131593Y0169003D01*
X0131591Y0172599D02*
X0131609Y0172599D01*
X0132105Y0173798D02*
X0131095Y0173798D01*
X0129899Y0174996D02*
X0133301Y0174996D01*
X0121025Y0186981D02*
X0003900Y0186981D01*
X0003900Y0188180D02*
X0119826Y0188180D01*
X0118628Y0189378D02*
X0003900Y0189378D01*
X0003900Y0190577D02*
X0118200Y0190577D01*
X0118200Y0191775D02*
X0003900Y0191775D01*
X0003900Y0192974D02*
X0118200Y0192974D01*
X0118200Y0194172D02*
X0003900Y0194172D01*
X0073865Y0196569D02*
X0077335Y0196569D01*
X0076137Y0197768D02*
X0075063Y0197768D01*
X0075577Y0198966D02*
X0075623Y0198966D01*
X0083865Y0196569D02*
X0087335Y0196569D01*
X0086137Y0197768D02*
X0085063Y0197768D01*
X0085577Y0198966D02*
X0085623Y0198966D01*
X0093865Y0196569D02*
X0097335Y0196569D01*
X0096137Y0197768D02*
X0095063Y0197768D01*
X0095577Y0198966D02*
X0095623Y0198966D01*
X0103865Y0196569D02*
X0107335Y0196569D01*
X0106137Y0197768D02*
X0105063Y0197768D01*
X0105577Y0198966D02*
X0105623Y0198966D01*
X0123000Y0195371D02*
X0134200Y0195371D01*
X0134200Y0194172D02*
X0123000Y0194172D01*
X0123000Y0192974D02*
X0134200Y0192974D01*
X0134731Y0191775D02*
X0123019Y0191775D01*
X0123865Y0196569D02*
X0133335Y0196569D01*
X0132137Y0197768D02*
X0125063Y0197768D01*
X0125577Y0198966D02*
X0131623Y0198966D01*
X0131300Y0200165D02*
X0125900Y0200165D01*
X0125900Y0201363D02*
X0131300Y0201363D01*
X0131593Y0202562D02*
X0125607Y0202562D01*
X0125110Y0203760D02*
X0132090Y0203760D01*
X0136600Y0200800D02*
X0136600Y0193300D01*
X0139100Y0190800D01*
X0213141Y0013197D02*
X0014409Y0013197D01*
D18*
X0046600Y0050800D03*
X0049100Y0053300D03*
X0049100Y0068300D03*
X0041600Y0068300D03*
X0071600Y0020800D03*
X0079100Y0020800D03*
X0116600Y0058550D03*
X0106600Y0082800D03*
X0091600Y0064300D03*
X0091600Y0104550D03*
X0113350Y0104550D03*
X0122350Y0104550D03*
X0106600Y0127050D03*
X0091600Y0127050D03*
X0126600Y0133300D03*
X0150350Y0143300D03*
X0157850Y0143300D03*
X0154100Y0155800D03*
X0154100Y0163300D03*
X0128600Y0203300D03*
X0128600Y0210800D03*
X0209100Y0178300D03*
X0209100Y0170800D03*
X0211600Y0115800D03*
X0211600Y0095800D03*
X0211600Y0075800D03*
X0176600Y0055800D03*
X0169100Y0055800D03*
X0161600Y0080800D03*
X0156600Y0085800D03*
X0161600Y0090800D03*
X0156600Y0095800D03*
X0161600Y0100800D03*
X0156600Y0105800D03*
X0161600Y0110800D03*
X0169100Y0108550D03*
X0169100Y0103550D03*
X0169100Y0098300D03*
X0169100Y0093300D03*
X0174100Y0093300D03*
X0174100Y0098300D03*
X0174100Y0108550D03*
X0169100Y0088050D03*
X0169100Y0083050D03*
X0174100Y0083050D03*
X0149100Y0020800D03*
X0144100Y0020800D03*
X0039100Y0210800D03*
X0031600Y0210800D03*
D19*
X0070600Y0200800D03*
X0080600Y0200800D03*
X0090600Y0200800D03*
X0100600Y0200800D03*
X0110600Y0200800D03*
X0120600Y0200800D03*
X0136600Y0200800D03*
X0146600Y0200800D03*
X0156600Y0200800D03*
X0166600Y0200800D03*
X0176600Y0200800D03*
X0186600Y0200800D03*
X0196600Y0200800D03*
X0206600Y0200800D03*
X0196600Y0170800D03*
X0181600Y0170800D03*
X0171600Y0170800D03*
X0161600Y0170800D03*
X0146600Y0170800D03*
X0136600Y0170800D03*
X0126600Y0170800D03*
X0156600Y0030800D03*
X0166600Y0030800D03*
X0176600Y0030800D03*
X0186600Y0030800D03*
X0196600Y0030800D03*
X0206600Y0030800D03*
D20*
X0061600Y0023300D02*
X0054100Y0023300D01*
X0041600Y0035800D01*
X0041600Y0045800D01*
X0046600Y0050800D01*
X0049100Y0053300D01*
X0041600Y0023300D02*
X0036600Y0023300D01*
X0018943Y0040957D01*
X0015578Y0040957D01*
M02*
