%
M48
M72
T01C0.01377
T02C0.01377
T03C0.03150
T04C0.03937
T05C0.04000
T06C0.05512
T07C0.12598
%
T01
X99100Y49300
X109100Y49300
X122850Y85800
X122850Y90800
X125600Y115800
X129100Y119300
X161600Y186300
X171600Y186300
X181600Y186300
T02
X46600Y50800
X49100Y53300
X49100Y68300
X41600Y68300
X71600Y20800
X79100Y20800
X116600Y58550
X106600Y82800
X91600Y64300
X91600Y104550
X113350Y104550
X122350Y104550
X106600Y127050
X91600Y127050
X126600Y133300
X150350Y143300
X157850Y143300
X154100Y155800
X154100Y163300
X128600Y203300
X128600Y210800
X209100Y178300
X209100Y170800
X211600Y115800
X211600Y95800
X211600Y75800
X176600Y55800
X169100Y55800
X161600Y80800
X156600Y85800
X161600Y90800
X156600Y95800
X161600Y100800
X156600Y105800
X161600Y110800
X169100Y108550
X169100Y103550
X169100Y98300
X169100Y93300
X174100Y93300
X174100Y98300
X174100Y108550
X169100Y88050
X169100Y83050
X174100Y83050
X149100Y20800
X144100Y20800
X39100Y210800
X31600Y210800
T03
X41600Y23300
X61600Y23300
T04
X126600Y170800
X136600Y170800
X146600Y170800
X161600Y170800
X171600Y170800
X181600Y170800
X196600Y170800
X206600Y200800
X196600Y200800
X186600Y200800
X176600Y200800
X166600Y200800
X156600Y200800
X146600Y200800
X136600Y200800
X120600Y200800
X110600Y200800
X100600Y200800
X90600Y200800
X80600Y200800
X70600Y200800
X156600Y30800
X166600Y30800
X176600Y30800
X186600Y30800
X196600Y30800
X206600Y30800
T05
X86600Y20800
X96600Y20800
X106600Y20800
X116600Y20800
X126600Y20800
X136600Y20800
X156600Y20800
X166600Y20800
X176600Y20800
X186600Y20800
X196600Y20800
X206600Y20800
X206600Y210800
X196600Y210800
X186600Y210800
X176600Y210800
X166600Y210800
X156600Y210800
X146600Y210800
X136600Y210800
X120600Y210800
X110600Y210800
X100600Y210800
X90600Y210800
X80600Y210800
X70600Y210800
X60600Y210800
X50600Y210800
T06
X15578Y40957
X15578Y60643
X212872Y125643
X212872Y105957
X212872Y85643
X212872Y65957
T07
X11600Y20800
X16600Y210800
X216600Y150800
X216600Y40800
M30
