G75*
%MOIN*%
%OFA0B0*%
%FSLAX25Y25*%
%IPPOS*%
%LPD*%
%AMOC8*
5,1,8,0,0,1.08239X$1,22.5*
%
%ADD10C,0.01000*%
%ADD11C,0.00000*%
%ADD12C,0.07400*%
%ADD13R,0.07400X0.07400*%
%ADD14C,0.09370*%
%ADD15R,0.04724X0.02165*%
%ADD16R,0.05118X0.04724*%
%ADD17R,0.05512X0.03937*%
%ADD18R,0.02362X0.03937*%
%ADD19R,0.04724X0.05118*%
%ADD20R,0.01000X0.01000*%
%ADD21C,0.00500*%
%ADD22R,0.05500X0.01370*%
%ADD23C,0.02400*%
%ADD24C,0.03377*%
%ADD25C,0.01200*%
%ADD26C,0.03377*%
%ADD27C,0.07000*%
%ADD28C,0.01600*%
%ADD29C,0.05600*%
D10*
X0005537Y0010800D02*
X0212663Y0010800D01*
X0212787Y0010802D01*
X0212910Y0010808D01*
X0213034Y0010817D01*
X0213156Y0010831D01*
X0213279Y0010848D01*
X0213401Y0010870D01*
X0213522Y0010895D01*
X0213642Y0010924D01*
X0213761Y0010956D01*
X0213880Y0010993D01*
X0213997Y0011033D01*
X0214112Y0011076D01*
X0214227Y0011124D01*
X0214339Y0011175D01*
X0214450Y0011229D01*
X0214560Y0011287D01*
X0214667Y0011348D01*
X0214773Y0011413D01*
X0214876Y0011481D01*
X0214977Y0011552D01*
X0215076Y0011626D01*
X0215173Y0011703D01*
X0215267Y0011784D01*
X0215358Y0011867D01*
X0215447Y0011953D01*
X0215533Y0012042D01*
X0215616Y0012133D01*
X0215697Y0012227D01*
X0215774Y0012324D01*
X0215848Y0012423D01*
X0215919Y0012524D01*
X0215987Y0012627D01*
X0216052Y0012733D01*
X0216113Y0012840D01*
X0216171Y0012950D01*
X0216225Y0013061D01*
X0216276Y0013173D01*
X0216324Y0013288D01*
X0216367Y0013403D01*
X0216407Y0013520D01*
X0216444Y0013639D01*
X0216476Y0013758D01*
X0216505Y0013878D01*
X0216530Y0013999D01*
X0216552Y0014121D01*
X0216569Y0014244D01*
X0216583Y0014366D01*
X0216592Y0014490D01*
X0216598Y0014613D01*
X0216600Y0014737D01*
X0216600Y0020800D01*
X0226600Y0030800D01*
X0226600Y0159800D01*
X0216600Y0169800D01*
X0216600Y0214800D01*
X0210600Y0220800D01*
X0005537Y0220800D01*
X0005413Y0220798D01*
X0005290Y0220792D01*
X0005166Y0220783D01*
X0005044Y0220769D01*
X0004921Y0220752D01*
X0004799Y0220730D01*
X0004678Y0220705D01*
X0004558Y0220676D01*
X0004439Y0220644D01*
X0004320Y0220607D01*
X0004203Y0220567D01*
X0004088Y0220524D01*
X0003973Y0220476D01*
X0003861Y0220425D01*
X0003750Y0220371D01*
X0003640Y0220313D01*
X0003533Y0220252D01*
X0003427Y0220187D01*
X0003324Y0220119D01*
X0003223Y0220048D01*
X0003124Y0219974D01*
X0003027Y0219897D01*
X0002933Y0219816D01*
X0002842Y0219733D01*
X0002753Y0219647D01*
X0002667Y0219558D01*
X0002584Y0219467D01*
X0002503Y0219373D01*
X0002426Y0219276D01*
X0002352Y0219177D01*
X0002281Y0219076D01*
X0002213Y0218973D01*
X0002148Y0218867D01*
X0002087Y0218760D01*
X0002029Y0218650D01*
X0001975Y0218539D01*
X0001924Y0218427D01*
X0001876Y0218312D01*
X0001833Y0218197D01*
X0001793Y0218080D01*
X0001756Y0217961D01*
X0001724Y0217842D01*
X0001695Y0217722D01*
X0001670Y0217601D01*
X0001648Y0217479D01*
X0001631Y0217356D01*
X0001617Y0217234D01*
X0001608Y0217110D01*
X0001602Y0216987D01*
X0001600Y0216863D01*
X0001600Y0014737D01*
X0001602Y0014613D01*
X0001608Y0014490D01*
X0001617Y0014366D01*
X0001631Y0014244D01*
X0001648Y0014121D01*
X0001670Y0013999D01*
X0001695Y0013878D01*
X0001724Y0013758D01*
X0001756Y0013639D01*
X0001793Y0013520D01*
X0001833Y0013403D01*
X0001876Y0013288D01*
X0001924Y0013173D01*
X0001975Y0013061D01*
X0002029Y0012950D01*
X0002087Y0012840D01*
X0002148Y0012733D01*
X0002213Y0012627D01*
X0002281Y0012524D01*
X0002352Y0012423D01*
X0002426Y0012324D01*
X0002503Y0012227D01*
X0002584Y0012133D01*
X0002667Y0012042D01*
X0002753Y0011953D01*
X0002842Y0011867D01*
X0002933Y0011784D01*
X0003027Y0011703D01*
X0003124Y0011626D01*
X0003223Y0011552D01*
X0003324Y0011481D01*
X0003427Y0011413D01*
X0003533Y0011348D01*
X0003640Y0011287D01*
X0003750Y0011229D01*
X0003861Y0011175D01*
X0003973Y0011124D01*
X0004088Y0011076D01*
X0004203Y0011033D01*
X0004320Y0010993D01*
X0004439Y0010956D01*
X0004558Y0010924D01*
X0004678Y0010895D01*
X0004799Y0010870D01*
X0004921Y0010848D01*
X0005044Y0010831D01*
X0005166Y0010817D01*
X0005290Y0010808D01*
X0005413Y0010802D01*
X0005537Y0010800D01*
X0109981Y0119540D02*
X0110100Y0119659D01*
X0128860Y0119540D02*
X0129100Y0119300D01*
X0136643Y0104757D02*
X0139706Y0104757D01*
X0139706Y0102198D02*
X0135702Y0102198D01*
X0134761Y0099639D02*
X0139706Y0099639D01*
X0139706Y0094520D02*
X0130880Y0094520D01*
X0130600Y0094800D02*
X0119100Y0094800D01*
X0118100Y0095800D01*
X0118100Y0098800D01*
X0127600Y0090800D02*
X0128100Y0090300D01*
X0128100Y0086800D01*
X0126600Y0085300D01*
X0122850Y0085550D02*
X0122850Y0085800D01*
X0133761Y0091961D02*
X0139706Y0091961D01*
X0139706Y0089402D02*
X0134702Y0089402D01*
X0135643Y0086843D02*
X0139706Y0086843D01*
X0139706Y0084284D02*
X0136584Y0084284D01*
X0161600Y0085800D02*
X0161600Y0090800D01*
X0164044Y0090800D01*
X0164044Y0090572D01*
X0165040Y0089576D01*
X0171948Y0089576D01*
X0171971Y0089600D01*
X0172189Y0089600D01*
X0173689Y0088100D01*
X0179100Y0088100D01*
X0179100Y0086750D01*
X0173761Y0086750D01*
X0171939Y0086750D01*
X0171858Y0086669D01*
X0165040Y0086669D01*
X0164170Y0085800D01*
X0161600Y0085800D01*
X0161600Y0086687D02*
X0171876Y0086687D01*
X0173105Y0088684D02*
X0161600Y0088684D01*
X0161600Y0089682D02*
X0164934Y0089682D01*
X0164044Y0090681D02*
X0161600Y0090681D01*
X0161600Y0087685D02*
X0179100Y0087685D01*
X0176600Y0084425D02*
X0166350Y0084425D01*
X0166350Y0081550D01*
X0176600Y0081550D01*
X0176600Y0084425D01*
X0176600Y0083691D02*
X0166350Y0083691D01*
X0166350Y0082693D02*
X0176600Y0082693D01*
X0176600Y0081694D02*
X0166350Y0081694D01*
X0172850Y0081694D02*
X0193206Y0081694D01*
X0194204Y0080696D02*
X0173704Y0080696D01*
X0172850Y0081550D02*
X0176100Y0078300D01*
X0186600Y0078300D01*
X0203100Y0061800D01*
X0217600Y0061800D01*
X0219100Y0063300D01*
X0219100Y0068300D01*
X0217350Y0070050D01*
X0204850Y0070050D01*
X0190350Y0084550D01*
X0172850Y0084550D01*
X0172850Y0081550D01*
X0172850Y0082693D02*
X0192207Y0082693D01*
X0191209Y0083691D02*
X0172850Y0083691D01*
X0174703Y0079697D02*
X0195203Y0079697D01*
X0196201Y0078699D02*
X0175701Y0078699D01*
X0174600Y0090300D02*
X0172850Y0092050D01*
X0172850Y0094800D01*
X0200100Y0094800D01*
X0205100Y0089800D01*
X0217600Y0089800D01*
X0219100Y0088300D01*
X0219100Y0083300D01*
X0217350Y0081550D01*
X0203350Y0081550D01*
X0194600Y0090300D01*
X0174600Y0090300D01*
X0174219Y0090681D02*
X0204219Y0090681D01*
X0203221Y0091679D02*
X0173221Y0091679D01*
X0172850Y0092678D02*
X0202222Y0092678D01*
X0201224Y0093676D02*
X0172850Y0093676D01*
X0172850Y0094675D02*
X0200225Y0094675D01*
X0200300Y0097000D02*
X0172850Y0097000D01*
X0172850Y0099800D01*
X0174350Y0101300D01*
X0194600Y0101300D01*
X0203350Y0110050D01*
X0217350Y0110050D01*
X0219100Y0108300D01*
X0219100Y0103300D01*
X0217600Y0101800D01*
X0205100Y0101800D01*
X0200300Y0097000D01*
X0200970Y0097670D02*
X0172850Y0097670D01*
X0172850Y0098669D02*
X0201969Y0098669D01*
X0202968Y0099668D02*
X0172850Y0099668D01*
X0173716Y0100666D02*
X0203966Y0100666D01*
X0204965Y0101665D02*
X0194965Y0101665D01*
X0195963Y0102663D02*
X0218463Y0102663D01*
X0219100Y0103662D02*
X0196962Y0103662D01*
X0197960Y0104660D02*
X0219100Y0104660D01*
X0219100Y0105659D02*
X0198959Y0105659D01*
X0199957Y0106657D02*
X0219100Y0106657D01*
X0219100Y0107656D02*
X0200956Y0107656D01*
X0201954Y0108654D02*
X0218746Y0108654D01*
X0217747Y0109653D02*
X0202953Y0109653D01*
X0198197Y0113647D02*
X0186947Y0113647D01*
X0186600Y0113300D02*
X0203100Y0129800D01*
X0217600Y0129800D01*
X0219100Y0128300D01*
X0219100Y0123300D01*
X0217350Y0121550D01*
X0206100Y0121550D01*
X0191600Y0107050D01*
X0172850Y0107050D01*
X0172850Y0109800D01*
X0176350Y0113300D01*
X0186600Y0113300D01*
X0187945Y0114645D02*
X0199195Y0114645D01*
X0200194Y0115644D02*
X0188944Y0115644D01*
X0189942Y0116642D02*
X0201192Y0116642D01*
X0202191Y0117641D02*
X0190941Y0117641D01*
X0191939Y0118639D02*
X0203189Y0118639D01*
X0204188Y0119638D02*
X0192938Y0119638D01*
X0193936Y0120636D02*
X0205186Y0120636D01*
X0199927Y0126627D02*
X0219100Y0126627D01*
X0219100Y0125629D02*
X0198929Y0125629D01*
X0197930Y0124630D02*
X0219100Y0124630D01*
X0219100Y0123632D02*
X0196932Y0123632D01*
X0195933Y0122633D02*
X0218433Y0122633D01*
X0217435Y0121635D02*
X0194935Y0121635D01*
X0200926Y0127626D02*
X0219100Y0127626D01*
X0218776Y0128624D02*
X0201924Y0128624D01*
X0202923Y0129623D02*
X0217777Y0129623D01*
X0197198Y0112648D02*
X0175698Y0112648D01*
X0174700Y0111650D02*
X0196200Y0111650D01*
X0195201Y0110651D02*
X0173701Y0110651D01*
X0172850Y0109653D02*
X0194203Y0109653D01*
X0193204Y0108654D02*
X0172850Y0108654D01*
X0172850Y0107656D02*
X0192206Y0107656D01*
X0179100Y0104850D02*
X0179100Y0103500D01*
X0173439Y0103500D01*
X0171955Y0102016D01*
X0171948Y0102024D01*
X0165040Y0102024D01*
X0164044Y0101028D01*
X0164044Y0100800D01*
X0161600Y0100800D01*
X0161600Y0105800D01*
X0164170Y0105800D01*
X0165040Y0104931D01*
X0171858Y0104931D01*
X0171939Y0104850D01*
X0179100Y0104850D01*
X0179100Y0104660D02*
X0161600Y0104660D01*
X0161600Y0103662D02*
X0179100Y0103662D01*
X0176600Y0099800D02*
X0166350Y0099800D01*
X0166350Y0097000D01*
X0176600Y0097000D01*
X0176600Y0099800D01*
X0176600Y0099668D02*
X0166350Y0099668D01*
X0166350Y0098669D02*
X0176600Y0098669D01*
X0176600Y0097670D02*
X0166350Y0097670D01*
X0164680Y0101665D02*
X0161600Y0101665D01*
X0161600Y0102663D02*
X0172602Y0102663D01*
X0176600Y0107175D02*
X0166350Y0107175D01*
X0166350Y0110050D01*
X0176600Y0110050D01*
X0176600Y0107175D01*
X0176600Y0107656D02*
X0166350Y0107656D01*
X0166350Y0108654D02*
X0176600Y0108654D01*
X0176600Y0109653D02*
X0166350Y0109653D01*
X0164312Y0105659D02*
X0161600Y0105659D01*
X0166350Y0094694D02*
X0171948Y0094694D01*
X0172053Y0094800D01*
X0176600Y0094800D01*
X0176600Y0091800D01*
X0166350Y0091800D01*
X0166350Y0094694D01*
X0166350Y0094675D02*
X0176600Y0094675D01*
X0176600Y0093676D02*
X0166350Y0093676D01*
X0166350Y0092678D02*
X0176600Y0092678D01*
X0187200Y0077700D02*
X0197200Y0077700D01*
X0198198Y0076702D02*
X0188198Y0076702D01*
X0189197Y0075703D02*
X0199197Y0075703D01*
X0200195Y0074705D02*
X0190195Y0074705D01*
X0191194Y0073706D02*
X0201194Y0073706D01*
X0202192Y0072708D02*
X0192192Y0072708D01*
X0193191Y0071709D02*
X0203191Y0071709D01*
X0204189Y0070711D02*
X0194189Y0070711D01*
X0195188Y0069712D02*
X0217688Y0069712D01*
X0218686Y0068714D02*
X0196186Y0068714D01*
X0197185Y0067715D02*
X0219100Y0067715D01*
X0219100Y0066717D02*
X0198183Y0066717D01*
X0199182Y0065718D02*
X0219100Y0065718D01*
X0219100Y0064720D02*
X0200180Y0064720D01*
X0201179Y0063721D02*
X0219100Y0063721D01*
X0218523Y0062723D02*
X0202177Y0062723D01*
X0203206Y0081694D02*
X0217494Y0081694D01*
X0218493Y0082693D02*
X0202207Y0082693D01*
X0201209Y0083691D02*
X0219100Y0083691D01*
X0219100Y0084690D02*
X0200210Y0084690D01*
X0199212Y0085688D02*
X0219100Y0085688D01*
X0219100Y0086687D02*
X0198213Y0086687D01*
X0197215Y0087685D02*
X0219100Y0087685D01*
X0218716Y0088684D02*
X0196216Y0088684D01*
X0195218Y0089682D02*
X0217718Y0089682D01*
D11*
X0210301Y0040800D02*
X0210303Y0040958D01*
X0210309Y0041116D01*
X0210319Y0041274D01*
X0210333Y0041432D01*
X0210351Y0041589D01*
X0210372Y0041746D01*
X0210398Y0041902D01*
X0210428Y0042058D01*
X0210461Y0042213D01*
X0210499Y0042366D01*
X0210540Y0042519D01*
X0210585Y0042671D01*
X0210634Y0042822D01*
X0210687Y0042971D01*
X0210743Y0043119D01*
X0210803Y0043265D01*
X0210867Y0043410D01*
X0210935Y0043553D01*
X0211006Y0043695D01*
X0211080Y0043835D01*
X0211158Y0043972D01*
X0211240Y0044108D01*
X0211324Y0044242D01*
X0211413Y0044373D01*
X0211504Y0044502D01*
X0211599Y0044629D01*
X0211696Y0044754D01*
X0211797Y0044876D01*
X0211901Y0044995D01*
X0212008Y0045112D01*
X0212118Y0045226D01*
X0212231Y0045337D01*
X0212346Y0045446D01*
X0212464Y0045551D01*
X0212585Y0045653D01*
X0212708Y0045753D01*
X0212834Y0045849D01*
X0212962Y0045942D01*
X0213092Y0046032D01*
X0213225Y0046118D01*
X0213360Y0046202D01*
X0213496Y0046281D01*
X0213635Y0046358D01*
X0213776Y0046430D01*
X0213918Y0046500D01*
X0214062Y0046565D01*
X0214208Y0046627D01*
X0214355Y0046685D01*
X0214504Y0046740D01*
X0214654Y0046791D01*
X0214805Y0046838D01*
X0214957Y0046881D01*
X0215110Y0046920D01*
X0215265Y0046956D01*
X0215420Y0046987D01*
X0215576Y0047015D01*
X0215732Y0047039D01*
X0215889Y0047059D01*
X0216047Y0047075D01*
X0216204Y0047087D01*
X0216363Y0047095D01*
X0216521Y0047099D01*
X0216679Y0047099D01*
X0216837Y0047095D01*
X0216996Y0047087D01*
X0217153Y0047075D01*
X0217311Y0047059D01*
X0217468Y0047039D01*
X0217624Y0047015D01*
X0217780Y0046987D01*
X0217935Y0046956D01*
X0218090Y0046920D01*
X0218243Y0046881D01*
X0218395Y0046838D01*
X0218546Y0046791D01*
X0218696Y0046740D01*
X0218845Y0046685D01*
X0218992Y0046627D01*
X0219138Y0046565D01*
X0219282Y0046500D01*
X0219424Y0046430D01*
X0219565Y0046358D01*
X0219704Y0046281D01*
X0219840Y0046202D01*
X0219975Y0046118D01*
X0220108Y0046032D01*
X0220238Y0045942D01*
X0220366Y0045849D01*
X0220492Y0045753D01*
X0220615Y0045653D01*
X0220736Y0045551D01*
X0220854Y0045446D01*
X0220969Y0045337D01*
X0221082Y0045226D01*
X0221192Y0045112D01*
X0221299Y0044995D01*
X0221403Y0044876D01*
X0221504Y0044754D01*
X0221601Y0044629D01*
X0221696Y0044502D01*
X0221787Y0044373D01*
X0221876Y0044242D01*
X0221960Y0044108D01*
X0222042Y0043972D01*
X0222120Y0043835D01*
X0222194Y0043695D01*
X0222265Y0043553D01*
X0222333Y0043410D01*
X0222397Y0043265D01*
X0222457Y0043119D01*
X0222513Y0042971D01*
X0222566Y0042822D01*
X0222615Y0042671D01*
X0222660Y0042519D01*
X0222701Y0042366D01*
X0222739Y0042213D01*
X0222772Y0042058D01*
X0222802Y0041902D01*
X0222828Y0041746D01*
X0222849Y0041589D01*
X0222867Y0041432D01*
X0222881Y0041274D01*
X0222891Y0041116D01*
X0222897Y0040958D01*
X0222899Y0040800D01*
X0222897Y0040642D01*
X0222891Y0040484D01*
X0222881Y0040326D01*
X0222867Y0040168D01*
X0222849Y0040011D01*
X0222828Y0039854D01*
X0222802Y0039698D01*
X0222772Y0039542D01*
X0222739Y0039387D01*
X0222701Y0039234D01*
X0222660Y0039081D01*
X0222615Y0038929D01*
X0222566Y0038778D01*
X0222513Y0038629D01*
X0222457Y0038481D01*
X0222397Y0038335D01*
X0222333Y0038190D01*
X0222265Y0038047D01*
X0222194Y0037905D01*
X0222120Y0037765D01*
X0222042Y0037628D01*
X0221960Y0037492D01*
X0221876Y0037358D01*
X0221787Y0037227D01*
X0221696Y0037098D01*
X0221601Y0036971D01*
X0221504Y0036846D01*
X0221403Y0036724D01*
X0221299Y0036605D01*
X0221192Y0036488D01*
X0221082Y0036374D01*
X0220969Y0036263D01*
X0220854Y0036154D01*
X0220736Y0036049D01*
X0220615Y0035947D01*
X0220492Y0035847D01*
X0220366Y0035751D01*
X0220238Y0035658D01*
X0220108Y0035568D01*
X0219975Y0035482D01*
X0219840Y0035398D01*
X0219704Y0035319D01*
X0219565Y0035242D01*
X0219424Y0035170D01*
X0219282Y0035100D01*
X0219138Y0035035D01*
X0218992Y0034973D01*
X0218845Y0034915D01*
X0218696Y0034860D01*
X0218546Y0034809D01*
X0218395Y0034762D01*
X0218243Y0034719D01*
X0218090Y0034680D01*
X0217935Y0034644D01*
X0217780Y0034613D01*
X0217624Y0034585D01*
X0217468Y0034561D01*
X0217311Y0034541D01*
X0217153Y0034525D01*
X0216996Y0034513D01*
X0216837Y0034505D01*
X0216679Y0034501D01*
X0216521Y0034501D01*
X0216363Y0034505D01*
X0216204Y0034513D01*
X0216047Y0034525D01*
X0215889Y0034541D01*
X0215732Y0034561D01*
X0215576Y0034585D01*
X0215420Y0034613D01*
X0215265Y0034644D01*
X0215110Y0034680D01*
X0214957Y0034719D01*
X0214805Y0034762D01*
X0214654Y0034809D01*
X0214504Y0034860D01*
X0214355Y0034915D01*
X0214208Y0034973D01*
X0214062Y0035035D01*
X0213918Y0035100D01*
X0213776Y0035170D01*
X0213635Y0035242D01*
X0213496Y0035319D01*
X0213360Y0035398D01*
X0213225Y0035482D01*
X0213092Y0035568D01*
X0212962Y0035658D01*
X0212834Y0035751D01*
X0212708Y0035847D01*
X0212585Y0035947D01*
X0212464Y0036049D01*
X0212346Y0036154D01*
X0212231Y0036263D01*
X0212118Y0036374D01*
X0212008Y0036488D01*
X0211901Y0036605D01*
X0211797Y0036724D01*
X0211696Y0036846D01*
X0211599Y0036971D01*
X0211504Y0037098D01*
X0211413Y0037227D01*
X0211324Y0037358D01*
X0211240Y0037492D01*
X0211158Y0037628D01*
X0211080Y0037765D01*
X0211006Y0037905D01*
X0210935Y0038047D01*
X0210867Y0038190D01*
X0210803Y0038335D01*
X0210743Y0038481D01*
X0210687Y0038629D01*
X0210634Y0038778D01*
X0210585Y0038929D01*
X0210540Y0039081D01*
X0210499Y0039234D01*
X0210461Y0039387D01*
X0210428Y0039542D01*
X0210398Y0039698D01*
X0210372Y0039854D01*
X0210351Y0040011D01*
X0210333Y0040168D01*
X0210319Y0040326D01*
X0210309Y0040484D01*
X0210303Y0040642D01*
X0210301Y0040800D01*
X0210301Y0150800D02*
X0210303Y0150958D01*
X0210309Y0151116D01*
X0210319Y0151274D01*
X0210333Y0151432D01*
X0210351Y0151589D01*
X0210372Y0151746D01*
X0210398Y0151902D01*
X0210428Y0152058D01*
X0210461Y0152213D01*
X0210499Y0152366D01*
X0210540Y0152519D01*
X0210585Y0152671D01*
X0210634Y0152822D01*
X0210687Y0152971D01*
X0210743Y0153119D01*
X0210803Y0153265D01*
X0210867Y0153410D01*
X0210935Y0153553D01*
X0211006Y0153695D01*
X0211080Y0153835D01*
X0211158Y0153972D01*
X0211240Y0154108D01*
X0211324Y0154242D01*
X0211413Y0154373D01*
X0211504Y0154502D01*
X0211599Y0154629D01*
X0211696Y0154754D01*
X0211797Y0154876D01*
X0211901Y0154995D01*
X0212008Y0155112D01*
X0212118Y0155226D01*
X0212231Y0155337D01*
X0212346Y0155446D01*
X0212464Y0155551D01*
X0212585Y0155653D01*
X0212708Y0155753D01*
X0212834Y0155849D01*
X0212962Y0155942D01*
X0213092Y0156032D01*
X0213225Y0156118D01*
X0213360Y0156202D01*
X0213496Y0156281D01*
X0213635Y0156358D01*
X0213776Y0156430D01*
X0213918Y0156500D01*
X0214062Y0156565D01*
X0214208Y0156627D01*
X0214355Y0156685D01*
X0214504Y0156740D01*
X0214654Y0156791D01*
X0214805Y0156838D01*
X0214957Y0156881D01*
X0215110Y0156920D01*
X0215265Y0156956D01*
X0215420Y0156987D01*
X0215576Y0157015D01*
X0215732Y0157039D01*
X0215889Y0157059D01*
X0216047Y0157075D01*
X0216204Y0157087D01*
X0216363Y0157095D01*
X0216521Y0157099D01*
X0216679Y0157099D01*
X0216837Y0157095D01*
X0216996Y0157087D01*
X0217153Y0157075D01*
X0217311Y0157059D01*
X0217468Y0157039D01*
X0217624Y0157015D01*
X0217780Y0156987D01*
X0217935Y0156956D01*
X0218090Y0156920D01*
X0218243Y0156881D01*
X0218395Y0156838D01*
X0218546Y0156791D01*
X0218696Y0156740D01*
X0218845Y0156685D01*
X0218992Y0156627D01*
X0219138Y0156565D01*
X0219282Y0156500D01*
X0219424Y0156430D01*
X0219565Y0156358D01*
X0219704Y0156281D01*
X0219840Y0156202D01*
X0219975Y0156118D01*
X0220108Y0156032D01*
X0220238Y0155942D01*
X0220366Y0155849D01*
X0220492Y0155753D01*
X0220615Y0155653D01*
X0220736Y0155551D01*
X0220854Y0155446D01*
X0220969Y0155337D01*
X0221082Y0155226D01*
X0221192Y0155112D01*
X0221299Y0154995D01*
X0221403Y0154876D01*
X0221504Y0154754D01*
X0221601Y0154629D01*
X0221696Y0154502D01*
X0221787Y0154373D01*
X0221876Y0154242D01*
X0221960Y0154108D01*
X0222042Y0153972D01*
X0222120Y0153835D01*
X0222194Y0153695D01*
X0222265Y0153553D01*
X0222333Y0153410D01*
X0222397Y0153265D01*
X0222457Y0153119D01*
X0222513Y0152971D01*
X0222566Y0152822D01*
X0222615Y0152671D01*
X0222660Y0152519D01*
X0222701Y0152366D01*
X0222739Y0152213D01*
X0222772Y0152058D01*
X0222802Y0151902D01*
X0222828Y0151746D01*
X0222849Y0151589D01*
X0222867Y0151432D01*
X0222881Y0151274D01*
X0222891Y0151116D01*
X0222897Y0150958D01*
X0222899Y0150800D01*
X0222897Y0150642D01*
X0222891Y0150484D01*
X0222881Y0150326D01*
X0222867Y0150168D01*
X0222849Y0150011D01*
X0222828Y0149854D01*
X0222802Y0149698D01*
X0222772Y0149542D01*
X0222739Y0149387D01*
X0222701Y0149234D01*
X0222660Y0149081D01*
X0222615Y0148929D01*
X0222566Y0148778D01*
X0222513Y0148629D01*
X0222457Y0148481D01*
X0222397Y0148335D01*
X0222333Y0148190D01*
X0222265Y0148047D01*
X0222194Y0147905D01*
X0222120Y0147765D01*
X0222042Y0147628D01*
X0221960Y0147492D01*
X0221876Y0147358D01*
X0221787Y0147227D01*
X0221696Y0147098D01*
X0221601Y0146971D01*
X0221504Y0146846D01*
X0221403Y0146724D01*
X0221299Y0146605D01*
X0221192Y0146488D01*
X0221082Y0146374D01*
X0220969Y0146263D01*
X0220854Y0146154D01*
X0220736Y0146049D01*
X0220615Y0145947D01*
X0220492Y0145847D01*
X0220366Y0145751D01*
X0220238Y0145658D01*
X0220108Y0145568D01*
X0219975Y0145482D01*
X0219840Y0145398D01*
X0219704Y0145319D01*
X0219565Y0145242D01*
X0219424Y0145170D01*
X0219282Y0145100D01*
X0219138Y0145035D01*
X0218992Y0144973D01*
X0218845Y0144915D01*
X0218696Y0144860D01*
X0218546Y0144809D01*
X0218395Y0144762D01*
X0218243Y0144719D01*
X0218090Y0144680D01*
X0217935Y0144644D01*
X0217780Y0144613D01*
X0217624Y0144585D01*
X0217468Y0144561D01*
X0217311Y0144541D01*
X0217153Y0144525D01*
X0216996Y0144513D01*
X0216837Y0144505D01*
X0216679Y0144501D01*
X0216521Y0144501D01*
X0216363Y0144505D01*
X0216204Y0144513D01*
X0216047Y0144525D01*
X0215889Y0144541D01*
X0215732Y0144561D01*
X0215576Y0144585D01*
X0215420Y0144613D01*
X0215265Y0144644D01*
X0215110Y0144680D01*
X0214957Y0144719D01*
X0214805Y0144762D01*
X0214654Y0144809D01*
X0214504Y0144860D01*
X0214355Y0144915D01*
X0214208Y0144973D01*
X0214062Y0145035D01*
X0213918Y0145100D01*
X0213776Y0145170D01*
X0213635Y0145242D01*
X0213496Y0145319D01*
X0213360Y0145398D01*
X0213225Y0145482D01*
X0213092Y0145568D01*
X0212962Y0145658D01*
X0212834Y0145751D01*
X0212708Y0145847D01*
X0212585Y0145947D01*
X0212464Y0146049D01*
X0212346Y0146154D01*
X0212231Y0146263D01*
X0212118Y0146374D01*
X0212008Y0146488D01*
X0211901Y0146605D01*
X0211797Y0146724D01*
X0211696Y0146846D01*
X0211599Y0146971D01*
X0211504Y0147098D01*
X0211413Y0147227D01*
X0211324Y0147358D01*
X0211240Y0147492D01*
X0211158Y0147628D01*
X0211080Y0147765D01*
X0211006Y0147905D01*
X0210935Y0148047D01*
X0210867Y0148190D01*
X0210803Y0148335D01*
X0210743Y0148481D01*
X0210687Y0148629D01*
X0210634Y0148778D01*
X0210585Y0148929D01*
X0210540Y0149081D01*
X0210499Y0149234D01*
X0210461Y0149387D01*
X0210428Y0149542D01*
X0210398Y0149698D01*
X0210372Y0149854D01*
X0210351Y0150011D01*
X0210333Y0150168D01*
X0210319Y0150326D01*
X0210309Y0150484D01*
X0210303Y0150642D01*
X0210301Y0150800D01*
X0010301Y0210800D02*
X0010303Y0210958D01*
X0010309Y0211116D01*
X0010319Y0211274D01*
X0010333Y0211432D01*
X0010351Y0211589D01*
X0010372Y0211746D01*
X0010398Y0211902D01*
X0010428Y0212058D01*
X0010461Y0212213D01*
X0010499Y0212366D01*
X0010540Y0212519D01*
X0010585Y0212671D01*
X0010634Y0212822D01*
X0010687Y0212971D01*
X0010743Y0213119D01*
X0010803Y0213265D01*
X0010867Y0213410D01*
X0010935Y0213553D01*
X0011006Y0213695D01*
X0011080Y0213835D01*
X0011158Y0213972D01*
X0011240Y0214108D01*
X0011324Y0214242D01*
X0011413Y0214373D01*
X0011504Y0214502D01*
X0011599Y0214629D01*
X0011696Y0214754D01*
X0011797Y0214876D01*
X0011901Y0214995D01*
X0012008Y0215112D01*
X0012118Y0215226D01*
X0012231Y0215337D01*
X0012346Y0215446D01*
X0012464Y0215551D01*
X0012585Y0215653D01*
X0012708Y0215753D01*
X0012834Y0215849D01*
X0012962Y0215942D01*
X0013092Y0216032D01*
X0013225Y0216118D01*
X0013360Y0216202D01*
X0013496Y0216281D01*
X0013635Y0216358D01*
X0013776Y0216430D01*
X0013918Y0216500D01*
X0014062Y0216565D01*
X0014208Y0216627D01*
X0014355Y0216685D01*
X0014504Y0216740D01*
X0014654Y0216791D01*
X0014805Y0216838D01*
X0014957Y0216881D01*
X0015110Y0216920D01*
X0015265Y0216956D01*
X0015420Y0216987D01*
X0015576Y0217015D01*
X0015732Y0217039D01*
X0015889Y0217059D01*
X0016047Y0217075D01*
X0016204Y0217087D01*
X0016363Y0217095D01*
X0016521Y0217099D01*
X0016679Y0217099D01*
X0016837Y0217095D01*
X0016996Y0217087D01*
X0017153Y0217075D01*
X0017311Y0217059D01*
X0017468Y0217039D01*
X0017624Y0217015D01*
X0017780Y0216987D01*
X0017935Y0216956D01*
X0018090Y0216920D01*
X0018243Y0216881D01*
X0018395Y0216838D01*
X0018546Y0216791D01*
X0018696Y0216740D01*
X0018845Y0216685D01*
X0018992Y0216627D01*
X0019138Y0216565D01*
X0019282Y0216500D01*
X0019424Y0216430D01*
X0019565Y0216358D01*
X0019704Y0216281D01*
X0019840Y0216202D01*
X0019975Y0216118D01*
X0020108Y0216032D01*
X0020238Y0215942D01*
X0020366Y0215849D01*
X0020492Y0215753D01*
X0020615Y0215653D01*
X0020736Y0215551D01*
X0020854Y0215446D01*
X0020969Y0215337D01*
X0021082Y0215226D01*
X0021192Y0215112D01*
X0021299Y0214995D01*
X0021403Y0214876D01*
X0021504Y0214754D01*
X0021601Y0214629D01*
X0021696Y0214502D01*
X0021787Y0214373D01*
X0021876Y0214242D01*
X0021960Y0214108D01*
X0022042Y0213972D01*
X0022120Y0213835D01*
X0022194Y0213695D01*
X0022265Y0213553D01*
X0022333Y0213410D01*
X0022397Y0213265D01*
X0022457Y0213119D01*
X0022513Y0212971D01*
X0022566Y0212822D01*
X0022615Y0212671D01*
X0022660Y0212519D01*
X0022701Y0212366D01*
X0022739Y0212213D01*
X0022772Y0212058D01*
X0022802Y0211902D01*
X0022828Y0211746D01*
X0022849Y0211589D01*
X0022867Y0211432D01*
X0022881Y0211274D01*
X0022891Y0211116D01*
X0022897Y0210958D01*
X0022899Y0210800D01*
X0022897Y0210642D01*
X0022891Y0210484D01*
X0022881Y0210326D01*
X0022867Y0210168D01*
X0022849Y0210011D01*
X0022828Y0209854D01*
X0022802Y0209698D01*
X0022772Y0209542D01*
X0022739Y0209387D01*
X0022701Y0209234D01*
X0022660Y0209081D01*
X0022615Y0208929D01*
X0022566Y0208778D01*
X0022513Y0208629D01*
X0022457Y0208481D01*
X0022397Y0208335D01*
X0022333Y0208190D01*
X0022265Y0208047D01*
X0022194Y0207905D01*
X0022120Y0207765D01*
X0022042Y0207628D01*
X0021960Y0207492D01*
X0021876Y0207358D01*
X0021787Y0207227D01*
X0021696Y0207098D01*
X0021601Y0206971D01*
X0021504Y0206846D01*
X0021403Y0206724D01*
X0021299Y0206605D01*
X0021192Y0206488D01*
X0021082Y0206374D01*
X0020969Y0206263D01*
X0020854Y0206154D01*
X0020736Y0206049D01*
X0020615Y0205947D01*
X0020492Y0205847D01*
X0020366Y0205751D01*
X0020238Y0205658D01*
X0020108Y0205568D01*
X0019975Y0205482D01*
X0019840Y0205398D01*
X0019704Y0205319D01*
X0019565Y0205242D01*
X0019424Y0205170D01*
X0019282Y0205100D01*
X0019138Y0205035D01*
X0018992Y0204973D01*
X0018845Y0204915D01*
X0018696Y0204860D01*
X0018546Y0204809D01*
X0018395Y0204762D01*
X0018243Y0204719D01*
X0018090Y0204680D01*
X0017935Y0204644D01*
X0017780Y0204613D01*
X0017624Y0204585D01*
X0017468Y0204561D01*
X0017311Y0204541D01*
X0017153Y0204525D01*
X0016996Y0204513D01*
X0016837Y0204505D01*
X0016679Y0204501D01*
X0016521Y0204501D01*
X0016363Y0204505D01*
X0016204Y0204513D01*
X0016047Y0204525D01*
X0015889Y0204541D01*
X0015732Y0204561D01*
X0015576Y0204585D01*
X0015420Y0204613D01*
X0015265Y0204644D01*
X0015110Y0204680D01*
X0014957Y0204719D01*
X0014805Y0204762D01*
X0014654Y0204809D01*
X0014504Y0204860D01*
X0014355Y0204915D01*
X0014208Y0204973D01*
X0014062Y0205035D01*
X0013918Y0205100D01*
X0013776Y0205170D01*
X0013635Y0205242D01*
X0013496Y0205319D01*
X0013360Y0205398D01*
X0013225Y0205482D01*
X0013092Y0205568D01*
X0012962Y0205658D01*
X0012834Y0205751D01*
X0012708Y0205847D01*
X0012585Y0205947D01*
X0012464Y0206049D01*
X0012346Y0206154D01*
X0012231Y0206263D01*
X0012118Y0206374D01*
X0012008Y0206488D01*
X0011901Y0206605D01*
X0011797Y0206724D01*
X0011696Y0206846D01*
X0011599Y0206971D01*
X0011504Y0207098D01*
X0011413Y0207227D01*
X0011324Y0207358D01*
X0011240Y0207492D01*
X0011158Y0207628D01*
X0011080Y0207765D01*
X0011006Y0207905D01*
X0010935Y0208047D01*
X0010867Y0208190D01*
X0010803Y0208335D01*
X0010743Y0208481D01*
X0010687Y0208629D01*
X0010634Y0208778D01*
X0010585Y0208929D01*
X0010540Y0209081D01*
X0010499Y0209234D01*
X0010461Y0209387D01*
X0010428Y0209542D01*
X0010398Y0209698D01*
X0010372Y0209854D01*
X0010351Y0210011D01*
X0010333Y0210168D01*
X0010319Y0210326D01*
X0010309Y0210484D01*
X0010303Y0210642D01*
X0010301Y0210800D01*
X0005301Y0020800D02*
X0005303Y0020958D01*
X0005309Y0021116D01*
X0005319Y0021274D01*
X0005333Y0021432D01*
X0005351Y0021589D01*
X0005372Y0021746D01*
X0005398Y0021902D01*
X0005428Y0022058D01*
X0005461Y0022213D01*
X0005499Y0022366D01*
X0005540Y0022519D01*
X0005585Y0022671D01*
X0005634Y0022822D01*
X0005687Y0022971D01*
X0005743Y0023119D01*
X0005803Y0023265D01*
X0005867Y0023410D01*
X0005935Y0023553D01*
X0006006Y0023695D01*
X0006080Y0023835D01*
X0006158Y0023972D01*
X0006240Y0024108D01*
X0006324Y0024242D01*
X0006413Y0024373D01*
X0006504Y0024502D01*
X0006599Y0024629D01*
X0006696Y0024754D01*
X0006797Y0024876D01*
X0006901Y0024995D01*
X0007008Y0025112D01*
X0007118Y0025226D01*
X0007231Y0025337D01*
X0007346Y0025446D01*
X0007464Y0025551D01*
X0007585Y0025653D01*
X0007708Y0025753D01*
X0007834Y0025849D01*
X0007962Y0025942D01*
X0008092Y0026032D01*
X0008225Y0026118D01*
X0008360Y0026202D01*
X0008496Y0026281D01*
X0008635Y0026358D01*
X0008776Y0026430D01*
X0008918Y0026500D01*
X0009062Y0026565D01*
X0009208Y0026627D01*
X0009355Y0026685D01*
X0009504Y0026740D01*
X0009654Y0026791D01*
X0009805Y0026838D01*
X0009957Y0026881D01*
X0010110Y0026920D01*
X0010265Y0026956D01*
X0010420Y0026987D01*
X0010576Y0027015D01*
X0010732Y0027039D01*
X0010889Y0027059D01*
X0011047Y0027075D01*
X0011204Y0027087D01*
X0011363Y0027095D01*
X0011521Y0027099D01*
X0011679Y0027099D01*
X0011837Y0027095D01*
X0011996Y0027087D01*
X0012153Y0027075D01*
X0012311Y0027059D01*
X0012468Y0027039D01*
X0012624Y0027015D01*
X0012780Y0026987D01*
X0012935Y0026956D01*
X0013090Y0026920D01*
X0013243Y0026881D01*
X0013395Y0026838D01*
X0013546Y0026791D01*
X0013696Y0026740D01*
X0013845Y0026685D01*
X0013992Y0026627D01*
X0014138Y0026565D01*
X0014282Y0026500D01*
X0014424Y0026430D01*
X0014565Y0026358D01*
X0014704Y0026281D01*
X0014840Y0026202D01*
X0014975Y0026118D01*
X0015108Y0026032D01*
X0015238Y0025942D01*
X0015366Y0025849D01*
X0015492Y0025753D01*
X0015615Y0025653D01*
X0015736Y0025551D01*
X0015854Y0025446D01*
X0015969Y0025337D01*
X0016082Y0025226D01*
X0016192Y0025112D01*
X0016299Y0024995D01*
X0016403Y0024876D01*
X0016504Y0024754D01*
X0016601Y0024629D01*
X0016696Y0024502D01*
X0016787Y0024373D01*
X0016876Y0024242D01*
X0016960Y0024108D01*
X0017042Y0023972D01*
X0017120Y0023835D01*
X0017194Y0023695D01*
X0017265Y0023553D01*
X0017333Y0023410D01*
X0017397Y0023265D01*
X0017457Y0023119D01*
X0017513Y0022971D01*
X0017566Y0022822D01*
X0017615Y0022671D01*
X0017660Y0022519D01*
X0017701Y0022366D01*
X0017739Y0022213D01*
X0017772Y0022058D01*
X0017802Y0021902D01*
X0017828Y0021746D01*
X0017849Y0021589D01*
X0017867Y0021432D01*
X0017881Y0021274D01*
X0017891Y0021116D01*
X0017897Y0020958D01*
X0017899Y0020800D01*
X0017897Y0020642D01*
X0017891Y0020484D01*
X0017881Y0020326D01*
X0017867Y0020168D01*
X0017849Y0020011D01*
X0017828Y0019854D01*
X0017802Y0019698D01*
X0017772Y0019542D01*
X0017739Y0019387D01*
X0017701Y0019234D01*
X0017660Y0019081D01*
X0017615Y0018929D01*
X0017566Y0018778D01*
X0017513Y0018629D01*
X0017457Y0018481D01*
X0017397Y0018335D01*
X0017333Y0018190D01*
X0017265Y0018047D01*
X0017194Y0017905D01*
X0017120Y0017765D01*
X0017042Y0017628D01*
X0016960Y0017492D01*
X0016876Y0017358D01*
X0016787Y0017227D01*
X0016696Y0017098D01*
X0016601Y0016971D01*
X0016504Y0016846D01*
X0016403Y0016724D01*
X0016299Y0016605D01*
X0016192Y0016488D01*
X0016082Y0016374D01*
X0015969Y0016263D01*
X0015854Y0016154D01*
X0015736Y0016049D01*
X0015615Y0015947D01*
X0015492Y0015847D01*
X0015366Y0015751D01*
X0015238Y0015658D01*
X0015108Y0015568D01*
X0014975Y0015482D01*
X0014840Y0015398D01*
X0014704Y0015319D01*
X0014565Y0015242D01*
X0014424Y0015170D01*
X0014282Y0015100D01*
X0014138Y0015035D01*
X0013992Y0014973D01*
X0013845Y0014915D01*
X0013696Y0014860D01*
X0013546Y0014809D01*
X0013395Y0014762D01*
X0013243Y0014719D01*
X0013090Y0014680D01*
X0012935Y0014644D01*
X0012780Y0014613D01*
X0012624Y0014585D01*
X0012468Y0014561D01*
X0012311Y0014541D01*
X0012153Y0014525D01*
X0011996Y0014513D01*
X0011837Y0014505D01*
X0011679Y0014501D01*
X0011521Y0014501D01*
X0011363Y0014505D01*
X0011204Y0014513D01*
X0011047Y0014525D01*
X0010889Y0014541D01*
X0010732Y0014561D01*
X0010576Y0014585D01*
X0010420Y0014613D01*
X0010265Y0014644D01*
X0010110Y0014680D01*
X0009957Y0014719D01*
X0009805Y0014762D01*
X0009654Y0014809D01*
X0009504Y0014860D01*
X0009355Y0014915D01*
X0009208Y0014973D01*
X0009062Y0015035D01*
X0008918Y0015100D01*
X0008776Y0015170D01*
X0008635Y0015242D01*
X0008496Y0015319D01*
X0008360Y0015398D01*
X0008225Y0015482D01*
X0008092Y0015568D01*
X0007962Y0015658D01*
X0007834Y0015751D01*
X0007708Y0015847D01*
X0007585Y0015947D01*
X0007464Y0016049D01*
X0007346Y0016154D01*
X0007231Y0016263D01*
X0007118Y0016374D01*
X0007008Y0016488D01*
X0006901Y0016605D01*
X0006797Y0016724D01*
X0006696Y0016846D01*
X0006599Y0016971D01*
X0006504Y0017098D01*
X0006413Y0017227D01*
X0006324Y0017358D01*
X0006240Y0017492D01*
X0006158Y0017628D01*
X0006080Y0017765D01*
X0006006Y0017905D01*
X0005935Y0018047D01*
X0005867Y0018190D01*
X0005803Y0018335D01*
X0005743Y0018481D01*
X0005687Y0018629D01*
X0005634Y0018778D01*
X0005585Y0018929D01*
X0005540Y0019081D01*
X0005499Y0019234D01*
X0005461Y0019387D01*
X0005428Y0019542D01*
X0005398Y0019698D01*
X0005372Y0019854D01*
X0005351Y0020011D01*
X0005333Y0020168D01*
X0005319Y0020326D01*
X0005309Y0020484D01*
X0005303Y0020642D01*
X0005301Y0020800D01*
D12*
X0041600Y0023300D03*
X0061600Y0023300D03*
X0086600Y0020800D03*
X0096600Y0020800D03*
X0106600Y0020800D03*
X0116600Y0020800D03*
X0126600Y0020800D03*
X0136600Y0020800D03*
X0156600Y0020800D03*
X0166600Y0020800D03*
X0176600Y0020800D03*
X0186600Y0020800D03*
X0196600Y0020800D03*
X0206600Y0020800D03*
X0196600Y0210800D03*
X0186600Y0210800D03*
X0176600Y0210800D03*
X0166600Y0210800D03*
X0156600Y0210800D03*
X0146600Y0210800D03*
X0136600Y0210800D03*
X0110600Y0210800D03*
X0100600Y0210800D03*
X0090600Y0210800D03*
X0080600Y0210800D03*
X0070600Y0210800D03*
X0060600Y0210800D03*
X0050600Y0210800D03*
D13*
X0120600Y0210800D03*
X0206600Y0210800D03*
D14*
X0208187Y0125643D02*
X0217557Y0125643D01*
X0217557Y0105957D02*
X0208187Y0105957D01*
X0208187Y0085643D02*
X0217557Y0085643D01*
X0217557Y0065957D02*
X0208187Y0065957D01*
X0020263Y0060643D02*
X0010893Y0060643D01*
X0010893Y0040957D02*
X0020263Y0040957D01*
D15*
X0109981Y0069560D03*
X0109981Y0073300D03*
X0109981Y0077040D03*
X0120219Y0077040D03*
X0120219Y0073300D03*
X0120219Y0069560D03*
X0120219Y0112060D03*
X0120219Y0115800D03*
X0120219Y0119540D03*
X0109981Y0119540D03*
X0109981Y0115800D03*
X0109981Y0112060D03*
D16*
X0108600Y0098800D03*
X0108600Y0090800D03*
X0118100Y0090800D03*
X0118100Y0098800D03*
X0127600Y0098800D03*
X0127600Y0090800D03*
D17*
X0060931Y0057040D03*
X0060931Y0049560D03*
X0052269Y0053300D03*
D18*
X0069100Y0048800D03*
X0069100Y0057800D03*
D19*
X0070100Y0040800D03*
X0078100Y0040800D03*
X0060600Y0040800D03*
X0052600Y0040800D03*
X0111100Y0133300D03*
X0119100Y0133300D03*
X0150100Y0133300D03*
X0158100Y0133300D03*
X0158100Y0118300D03*
X0150100Y0118300D03*
X0150100Y0073300D03*
X0158100Y0073300D03*
D20*
X0106600Y0058300D03*
X0106600Y0055300D03*
X0096600Y0055300D03*
X0096600Y0058300D03*
X0075100Y0031800D03*
X0075100Y0028800D03*
X0126600Y0179300D03*
X0126600Y0182300D03*
X0136600Y0182300D03*
X0136600Y0179300D03*
X0146600Y0179300D03*
X0146600Y0182300D03*
X0161600Y0182300D03*
X0161600Y0179300D03*
X0171600Y0179300D03*
X0171600Y0182300D03*
X0181600Y0182300D03*
X0181600Y0179300D03*
X0196600Y0179300D03*
X0196600Y0182300D03*
D21*
X0196600Y0183312D02*
X0196061Y0183256D01*
X0195544Y0183093D01*
X0195071Y0182827D01*
X0194662Y0182471D01*
X0194334Y0182039D01*
X0194100Y0181550D01*
X0199100Y0181550D01*
X0198866Y0182039D01*
X0198538Y0182471D01*
X0198129Y0182827D01*
X0197656Y0183093D01*
X0197139Y0183256D01*
X0196600Y0183312D01*
X0196338Y0183285D02*
X0196862Y0183285D01*
X0198176Y0182786D02*
X0195024Y0182786D01*
X0194522Y0182288D02*
X0198677Y0182288D01*
X0198986Y0181789D02*
X0194214Y0181789D01*
X0194100Y0180050D02*
X0194327Y0179552D01*
X0194652Y0179112D01*
X0195060Y0178748D01*
X0195535Y0178477D01*
X0196056Y0178309D01*
X0196600Y0178252D01*
X0197144Y0178309D01*
X0197665Y0178477D01*
X0198140Y0178748D01*
X0198548Y0179112D01*
X0198873Y0179552D01*
X0199100Y0180050D01*
X0194100Y0180050D01*
X0194216Y0179795D02*
X0198984Y0179795D01*
X0198685Y0179297D02*
X0194515Y0179297D01*
X0195004Y0178798D02*
X0198196Y0178798D01*
X0197057Y0178300D02*
X0196143Y0178300D01*
X0184100Y0180050D02*
X0183873Y0179552D01*
X0183548Y0179112D01*
X0183140Y0178748D01*
X0182665Y0178477D01*
X0182144Y0178309D01*
X0181600Y0178252D01*
X0181056Y0178309D01*
X0180535Y0178477D01*
X0180060Y0178748D01*
X0179652Y0179112D01*
X0179327Y0179552D01*
X0179100Y0180050D01*
X0184100Y0180050D01*
X0183984Y0179795D02*
X0179216Y0179795D01*
X0179515Y0179297D02*
X0183685Y0179297D01*
X0183196Y0178798D02*
X0180004Y0178798D01*
X0181143Y0178300D02*
X0182057Y0178300D01*
X0184100Y0181550D02*
X0179100Y0181550D01*
X0179334Y0182039D01*
X0179662Y0182471D01*
X0180071Y0182827D01*
X0180544Y0183093D01*
X0181061Y0183256D01*
X0181600Y0183312D01*
X0182139Y0183256D01*
X0182656Y0183093D01*
X0183129Y0182827D01*
X0183538Y0182471D01*
X0183866Y0182039D01*
X0184100Y0181550D01*
X0183986Y0181789D02*
X0179214Y0181789D01*
X0179522Y0182288D02*
X0183677Y0182288D01*
X0183176Y0182786D02*
X0180024Y0182786D01*
X0181338Y0183285D02*
X0181862Y0183285D01*
X0174100Y0181550D02*
X0173866Y0182039D01*
X0173538Y0182471D01*
X0173129Y0182827D01*
X0172656Y0183093D01*
X0172139Y0183256D01*
X0171600Y0183312D01*
X0171061Y0183256D01*
X0170544Y0183093D01*
X0170071Y0182827D01*
X0169662Y0182471D01*
X0169334Y0182039D01*
X0169100Y0181550D01*
X0174100Y0181550D01*
X0173986Y0181789D02*
X0169214Y0181789D01*
X0169522Y0182288D02*
X0173677Y0182288D01*
X0173176Y0182786D02*
X0170024Y0182786D01*
X0171338Y0183285D02*
X0171862Y0183285D01*
X0174100Y0180050D02*
X0169100Y0180050D01*
X0169327Y0179552D01*
X0169652Y0179112D01*
X0170060Y0178748D01*
X0170535Y0178477D01*
X0171056Y0178309D01*
X0171600Y0178252D01*
X0172144Y0178309D01*
X0172665Y0178477D01*
X0173140Y0178748D01*
X0173548Y0179112D01*
X0173873Y0179552D01*
X0174100Y0180050D01*
X0173984Y0179795D02*
X0169216Y0179795D01*
X0169515Y0179297D02*
X0173685Y0179297D01*
X0173196Y0178798D02*
X0170004Y0178798D01*
X0171143Y0178300D02*
X0172057Y0178300D01*
X0164100Y0180050D02*
X0163873Y0179552D01*
X0163548Y0179112D01*
X0163140Y0178748D01*
X0162665Y0178477D01*
X0162144Y0178309D01*
X0161600Y0178252D01*
X0161056Y0178309D01*
X0160535Y0178477D01*
X0160060Y0178748D01*
X0159652Y0179112D01*
X0159327Y0179552D01*
X0159100Y0180050D01*
X0164100Y0180050D01*
X0163984Y0179795D02*
X0159216Y0179795D01*
X0159515Y0179297D02*
X0163685Y0179297D01*
X0163196Y0178798D02*
X0160004Y0178798D01*
X0161143Y0178300D02*
X0162057Y0178300D01*
X0164100Y0181550D02*
X0159100Y0181550D01*
X0159334Y0182039D01*
X0159662Y0182471D01*
X0160071Y0182827D01*
X0160544Y0183093D01*
X0161061Y0183256D01*
X0161600Y0183312D01*
X0162139Y0183256D01*
X0162656Y0183093D01*
X0163129Y0182827D01*
X0163538Y0182471D01*
X0163866Y0182039D01*
X0164100Y0181550D01*
X0163986Y0181789D02*
X0159214Y0181789D01*
X0159522Y0182288D02*
X0163677Y0182288D01*
X0163176Y0182786D02*
X0160024Y0182786D01*
X0161338Y0183285D02*
X0161862Y0183285D01*
X0149100Y0181550D02*
X0148866Y0182039D01*
X0148538Y0182471D01*
X0148129Y0182827D01*
X0147656Y0183093D01*
X0147139Y0183256D01*
X0146600Y0183312D01*
X0146061Y0183256D01*
X0145544Y0183093D01*
X0145071Y0182827D01*
X0144662Y0182471D01*
X0144334Y0182039D01*
X0144100Y0181550D01*
X0149100Y0181550D01*
X0148986Y0181789D02*
X0144214Y0181789D01*
X0144522Y0182288D02*
X0148677Y0182288D01*
X0148176Y0182786D02*
X0145024Y0182786D01*
X0146338Y0183285D02*
X0146862Y0183285D01*
X0149100Y0180050D02*
X0144100Y0180050D01*
X0144327Y0179552D01*
X0144652Y0179112D01*
X0145060Y0178748D01*
X0145535Y0178477D01*
X0146056Y0178309D01*
X0146600Y0178252D01*
X0147144Y0178309D01*
X0147665Y0178477D01*
X0148140Y0178748D01*
X0148548Y0179112D01*
X0148873Y0179552D01*
X0149100Y0180050D01*
X0148984Y0179795D02*
X0144216Y0179795D01*
X0144515Y0179297D02*
X0148685Y0179297D01*
X0148196Y0178798D02*
X0145004Y0178798D01*
X0146143Y0178300D02*
X0147057Y0178300D01*
X0139100Y0180050D02*
X0138873Y0179552D01*
X0138548Y0179112D01*
X0138140Y0178748D01*
X0137665Y0178477D01*
X0137144Y0178309D01*
X0136600Y0178252D01*
X0136056Y0178309D01*
X0135535Y0178477D01*
X0135060Y0178748D01*
X0134652Y0179112D01*
X0134327Y0179552D01*
X0134100Y0180050D01*
X0139100Y0180050D01*
X0138984Y0179795D02*
X0134216Y0179795D01*
X0134515Y0179297D02*
X0138685Y0179297D01*
X0138196Y0178798D02*
X0135004Y0178798D01*
X0136143Y0178300D02*
X0137057Y0178300D01*
X0139100Y0181550D02*
X0134100Y0181550D01*
X0134334Y0182039D01*
X0134662Y0182471D01*
X0135071Y0182827D01*
X0135544Y0183093D01*
X0136061Y0183256D01*
X0136600Y0183312D01*
X0137139Y0183256D01*
X0137656Y0183093D01*
X0138129Y0182827D01*
X0138538Y0182471D01*
X0138866Y0182039D01*
X0139100Y0181550D01*
X0138986Y0181789D02*
X0134214Y0181789D01*
X0134522Y0182288D02*
X0138677Y0182288D01*
X0138176Y0182786D02*
X0135024Y0182786D01*
X0136338Y0183285D02*
X0136862Y0183285D01*
X0129100Y0181550D02*
X0128866Y0182039D01*
X0128538Y0182471D01*
X0128129Y0182827D01*
X0127656Y0183093D01*
X0127139Y0183256D01*
X0126600Y0183312D01*
X0126061Y0183256D01*
X0125544Y0183093D01*
X0125071Y0182827D01*
X0124662Y0182471D01*
X0124334Y0182039D01*
X0124100Y0181550D01*
X0129100Y0181550D01*
X0128986Y0181789D02*
X0124214Y0181789D01*
X0124522Y0182288D02*
X0128677Y0182288D01*
X0128176Y0182786D02*
X0125024Y0182786D01*
X0126338Y0183285D02*
X0126862Y0183285D01*
X0129100Y0180050D02*
X0124100Y0180050D01*
X0124327Y0179552D01*
X0124652Y0179112D01*
X0125060Y0178748D01*
X0125535Y0178477D01*
X0126056Y0178309D01*
X0126600Y0178252D01*
X0127144Y0178309D01*
X0127665Y0178477D01*
X0128140Y0178748D01*
X0128548Y0179112D01*
X0128873Y0179552D01*
X0129100Y0180050D01*
X0128984Y0179795D02*
X0124216Y0179795D01*
X0124515Y0179297D02*
X0128685Y0179297D01*
X0128196Y0178798D02*
X0125004Y0178798D01*
X0126143Y0178300D02*
X0127057Y0178300D01*
X0107144Y0059291D02*
X0107665Y0059123D01*
X0108140Y0058852D01*
X0108548Y0058488D01*
X0108873Y0058048D01*
X0109100Y0057550D01*
X0104100Y0057550D01*
X0104327Y0058048D01*
X0104652Y0058488D01*
X0105060Y0058852D01*
X0105535Y0059123D01*
X0106056Y0059291D01*
X0106600Y0059348D01*
X0107144Y0059291D01*
X0107565Y0059156D02*
X0105635Y0059156D01*
X0104842Y0058657D02*
X0108358Y0058657D01*
X0108791Y0058159D02*
X0104409Y0058159D01*
X0104150Y0057660D02*
X0109050Y0057660D01*
X0109100Y0056050D02*
X0108866Y0055561D01*
X0108538Y0055129D01*
X0108129Y0054773D01*
X0107656Y0054507D01*
X0107139Y0054344D01*
X0106600Y0054288D01*
X0106061Y0054344D01*
X0105544Y0054507D01*
X0105071Y0054773D01*
X0104662Y0055129D01*
X0104334Y0055561D01*
X0104100Y0056050D01*
X0109100Y0056050D01*
X0108917Y0055666D02*
X0104283Y0055666D01*
X0104632Y0055168D02*
X0108568Y0055168D01*
X0107944Y0054669D02*
X0105256Y0054669D01*
X0099100Y0056050D02*
X0098866Y0055561D01*
X0098538Y0055129D01*
X0098129Y0054773D01*
X0097656Y0054507D01*
X0097139Y0054344D01*
X0096600Y0054288D01*
X0096061Y0054344D01*
X0095544Y0054507D01*
X0095071Y0054773D01*
X0094662Y0055129D01*
X0094334Y0055561D01*
X0094100Y0056050D01*
X0099100Y0056050D01*
X0098917Y0055666D02*
X0094283Y0055666D01*
X0094632Y0055168D02*
X0098568Y0055168D01*
X0097944Y0054669D02*
X0095256Y0054669D01*
X0094100Y0057550D02*
X0094327Y0058048D01*
X0094652Y0058488D01*
X0095060Y0058852D01*
X0095535Y0059123D01*
X0096056Y0059291D01*
X0096600Y0059348D01*
X0097144Y0059291D01*
X0097665Y0059123D01*
X0098140Y0058852D01*
X0098548Y0058488D01*
X0098873Y0058048D01*
X0099100Y0057550D01*
X0094100Y0057550D01*
X0094150Y0057660D02*
X0099050Y0057660D01*
X0098791Y0058159D02*
X0094409Y0058159D01*
X0094842Y0058657D02*
X0098358Y0058657D01*
X0097565Y0059156D02*
X0095635Y0059156D01*
X0076640Y0032352D02*
X0076165Y0032623D01*
X0075644Y0032791D01*
X0075100Y0032848D01*
X0074556Y0032791D01*
X0074035Y0032623D01*
X0073560Y0032352D01*
X0073152Y0031988D01*
X0072827Y0031548D01*
X0072600Y0031050D01*
X0077600Y0031050D01*
X0077373Y0031548D01*
X0077048Y0031988D01*
X0076640Y0032352D01*
X0076770Y0032236D02*
X0073430Y0032236D01*
X0072967Y0031737D02*
X0077233Y0031737D01*
X0077514Y0031239D02*
X0072686Y0031239D01*
X0072600Y0029550D02*
X0072834Y0029061D01*
X0073162Y0028629D01*
X0073571Y0028273D01*
X0074044Y0028007D01*
X0074561Y0027844D01*
X0075100Y0027788D01*
X0075639Y0027844D01*
X0076156Y0028007D01*
X0076629Y0028273D01*
X0077038Y0028629D01*
X0077366Y0029061D01*
X0077600Y0029550D01*
X0072600Y0029550D01*
X0072746Y0029245D02*
X0077454Y0029245D01*
X0077128Y0028746D02*
X0073072Y0028746D01*
X0073615Y0028248D02*
X0076585Y0028248D01*
X0075820Y0032734D02*
X0074380Y0032734D01*
D22*
X0139706Y0081725D03*
X0139706Y0084284D03*
X0139706Y0086843D03*
X0139706Y0089402D03*
X0139706Y0091961D03*
X0139706Y0094520D03*
X0139706Y0097080D03*
X0139706Y0099639D03*
X0139706Y0102198D03*
X0139706Y0104757D03*
X0139706Y0107316D03*
X0139706Y0109875D03*
X0168494Y0109875D03*
X0168494Y0107316D03*
X0168494Y0104757D03*
X0168494Y0102198D03*
X0168494Y0099639D03*
X0168494Y0097080D03*
X0168494Y0094520D03*
X0168494Y0091961D03*
X0168494Y0089402D03*
X0168494Y0086843D03*
X0168494Y0084284D03*
X0168494Y0081725D03*
D23*
X0166600Y0030800D02*
X0166600Y0020800D01*
X0176600Y0020800D02*
X0176600Y0030800D01*
X0186600Y0030800D02*
X0186600Y0020800D01*
X0196600Y0020800D02*
X0196600Y0030800D01*
X0206600Y0030800D02*
X0206600Y0020800D01*
X0156600Y0020800D02*
X0156600Y0030800D01*
X0136600Y0023300D02*
X0136600Y0020800D01*
X0136600Y0023300D02*
X0133600Y0026300D01*
X0077600Y0026300D01*
X0075100Y0028800D01*
X0075100Y0031800D02*
X0079100Y0035800D01*
X0096600Y0051800D02*
X0096600Y0055300D01*
X0096600Y0051800D02*
X0099100Y0049300D01*
X0106600Y0051800D02*
X0109100Y0049300D01*
X0106600Y0051800D02*
X0106600Y0055300D01*
X0106600Y0058300D02*
X0106600Y0060300D01*
X0105100Y0061800D01*
X0096600Y0061800D01*
X0094100Y0061800D01*
X0091600Y0064300D01*
X0096600Y0061800D02*
X0096600Y0058300D01*
X0100600Y0200800D02*
X0100600Y0210800D01*
X0110600Y0210800D02*
X0110600Y0200800D01*
X0120600Y0200800D02*
X0120600Y0210800D01*
X0136600Y0210800D02*
X0136600Y0200800D01*
X0146600Y0200800D02*
X0146600Y0210800D01*
X0156600Y0210800D02*
X0156600Y0200800D01*
X0166600Y0200800D02*
X0166600Y0210800D01*
X0176600Y0210800D02*
X0176600Y0200800D01*
X0186600Y0200800D02*
X0186600Y0210800D01*
X0196600Y0210800D02*
X0196600Y0200800D01*
X0206600Y0200800D02*
X0206600Y0210800D01*
X0090600Y0210800D02*
X0090600Y0200800D01*
X0080600Y0200800D02*
X0080600Y0210800D01*
X0070600Y0210800D02*
X0070600Y0200800D01*
D24*
X0129100Y0119300D03*
X0125600Y0115800D03*
X0122850Y0090800D03*
X0122850Y0085800D03*
X0109100Y0049300D03*
X0099100Y0049300D03*
X0161600Y0186300D03*
X0171600Y0186300D03*
X0181600Y0186300D03*
D25*
X0181600Y0182300D01*
X0181600Y0179300D02*
X0181600Y0170800D01*
X0174100Y0163300D01*
X0174100Y0128800D01*
X0168600Y0123300D01*
X0136600Y0123300D01*
X0134100Y0120800D01*
X0134100Y0107300D01*
X0136643Y0104757D01*
X0137658Y0107242D02*
X0136600Y0108300D01*
X0136600Y0113300D01*
X0151600Y0113300D01*
X0151600Y0078300D01*
X0136600Y0078300D01*
X0136600Y0080800D01*
X0137599Y0081799D01*
X0143202Y0081799D01*
X0144256Y0082854D01*
X0144256Y0106187D01*
X0143202Y0107242D01*
X0137658Y0107242D01*
X0137021Y0107879D02*
X0151600Y0107879D01*
X0151600Y0106681D02*
X0143763Y0106681D01*
X0144256Y0105482D02*
X0151600Y0105482D01*
X0151600Y0104284D02*
X0144256Y0104284D01*
X0144256Y0103085D02*
X0151600Y0103085D01*
X0151600Y0101887D02*
X0144256Y0101887D01*
X0144256Y0100688D02*
X0151600Y0100688D01*
X0151600Y0099490D02*
X0144256Y0099490D01*
X0144256Y0098291D02*
X0151600Y0098291D01*
X0151600Y0097093D02*
X0144256Y0097093D01*
X0144256Y0095894D02*
X0151600Y0095894D01*
X0151600Y0094696D02*
X0144256Y0094696D01*
X0144256Y0093497D02*
X0151600Y0093497D01*
X0151600Y0092299D02*
X0144256Y0092299D01*
X0144256Y0091100D02*
X0151600Y0091100D01*
X0151600Y0089902D02*
X0144256Y0089902D01*
X0144256Y0088703D02*
X0151600Y0088703D01*
X0151600Y0087505D02*
X0144256Y0087505D01*
X0144256Y0086306D02*
X0151600Y0086306D01*
X0151600Y0085108D02*
X0144256Y0085108D01*
X0144256Y0083909D02*
X0151600Y0083909D01*
X0151600Y0082711D02*
X0144113Y0082711D01*
X0147120Y0077350D02*
X0146755Y0077139D01*
X0146457Y0076841D01*
X0146247Y0076477D01*
X0146138Y0076070D01*
X0146138Y0073881D01*
X0149519Y0073881D01*
X0149519Y0072719D01*
X0146138Y0072719D01*
X0146138Y0070530D01*
X0146247Y0070123D01*
X0146457Y0069759D01*
X0146755Y0069461D01*
X0147120Y0069250D01*
X0147527Y0069141D01*
X0149519Y0069141D01*
X0149519Y0072719D01*
X0150681Y0072719D01*
X0150681Y0069141D01*
X0151600Y0069141D01*
X0151600Y0068300D01*
X0116600Y0033300D01*
X0080600Y0033300D01*
X0077259Y0036641D01*
X0077519Y0036641D01*
X0077519Y0040219D01*
X0078681Y0040219D01*
X0078681Y0041381D01*
X0082062Y0041381D01*
X0082062Y0043570D01*
X0081953Y0043977D01*
X0081743Y0044341D01*
X0081445Y0044639D01*
X0081080Y0044850D01*
X0080673Y0044959D01*
X0078681Y0044959D01*
X0078681Y0041381D01*
X0077519Y0041381D01*
X0077519Y0044959D01*
X0075600Y0044959D01*
X0075600Y0053300D01*
X0072600Y0056300D01*
X0071881Y0056300D01*
X0071881Y0057800D01*
X0071881Y0059979D01*
X0071772Y0060386D01*
X0071561Y0060751D01*
X0071264Y0061049D01*
X0070899Y0061259D01*
X0070492Y0061368D01*
X0069100Y0061368D01*
X0067708Y0061368D01*
X0067301Y0061259D01*
X0066936Y0061049D01*
X0066639Y0060751D01*
X0066428Y0060386D01*
X0066319Y0059979D01*
X0066319Y0057800D01*
X0069100Y0057800D01*
X0069100Y0057800D01*
X0069100Y0061368D01*
X0069100Y0057800D01*
X0071881Y0057800D01*
X0069100Y0057800D01*
X0069100Y0057800D01*
X0069100Y0057800D01*
X0066319Y0057800D01*
X0066319Y0056300D01*
X0065600Y0056300D01*
X0065600Y0068300D01*
X0081600Y0068300D01*
X0085600Y0064300D01*
X0085600Y0051800D01*
X0094100Y0043300D01*
X0111600Y0043300D01*
X0116600Y0048300D01*
X0116600Y0033300D01*
X0116600Y0048300D01*
X0136600Y0068300D01*
X0136600Y0078300D01*
X0151600Y0078300D01*
X0151600Y0077459D01*
X0150681Y0077459D01*
X0150681Y0073881D01*
X0149519Y0073881D01*
X0149519Y0077459D01*
X0147527Y0077459D01*
X0147120Y0077350D01*
X0146386Y0076718D02*
X0136600Y0076718D01*
X0136600Y0075520D02*
X0146138Y0075520D01*
X0146138Y0074321D02*
X0136600Y0074321D01*
X0136600Y0073123D02*
X0149519Y0073123D01*
X0149519Y0074321D02*
X0150681Y0074321D01*
X0150681Y0075520D02*
X0149519Y0075520D01*
X0149519Y0076718D02*
X0150681Y0076718D01*
X0151600Y0077917D02*
X0136600Y0077917D01*
X0136600Y0079115D02*
X0151600Y0079115D01*
X0151600Y0080314D02*
X0136600Y0080314D01*
X0137312Y0081512D02*
X0151600Y0081512D01*
X0154000Y0081512D02*
X0163944Y0081512D01*
X0163944Y0080314D02*
X0154000Y0080314D01*
X0154000Y0079115D02*
X0172032Y0079115D01*
X0171907Y0079240D02*
X0173800Y0077347D01*
X0175147Y0076000D01*
X0185647Y0076000D01*
X0200800Y0060847D01*
X0202147Y0059500D01*
X0206830Y0059500D01*
X0206897Y0059472D01*
X0218847Y0059472D01*
X0221230Y0060460D01*
X0223054Y0062284D01*
X0224042Y0064668D01*
X0224042Y0067247D01*
X0223054Y0069631D01*
X0221230Y0071455D01*
X0218847Y0072443D01*
X0206897Y0072443D01*
X0206673Y0072350D01*
X0205803Y0072350D01*
X0192650Y0085503D01*
X0191303Y0086850D01*
X0172844Y0086850D01*
X0172844Y0087739D01*
X0172741Y0088123D01*
X0172844Y0088507D01*
X0172844Y0088804D01*
X0173647Y0088000D01*
X0193647Y0088000D01*
X0202397Y0079250D01*
X0206673Y0079250D01*
X0206897Y0079157D01*
X0218847Y0079157D01*
X0221230Y0080145D01*
X0223054Y0081969D01*
X0224042Y0084353D01*
X0224042Y0086932D01*
X0223054Y0089316D01*
X0221230Y0091140D01*
X0218847Y0092128D01*
X0206897Y0092128D01*
X0206830Y0092100D01*
X0206053Y0092100D01*
X0202353Y0095800D01*
X0206053Y0099500D01*
X0206830Y0099500D01*
X0206897Y0099472D01*
X0218847Y0099472D01*
X0221230Y0100460D01*
X0223054Y0102284D01*
X0224042Y0104668D01*
X0224042Y0107247D01*
X0223054Y0109631D01*
X0221230Y0111455D01*
X0218847Y0112443D01*
X0206897Y0112443D01*
X0206673Y0112350D01*
X0202397Y0112350D01*
X0193647Y0103600D01*
X0173397Y0103600D01*
X0172844Y0103046D01*
X0172844Y0103093D01*
X0172741Y0103477D01*
X0172844Y0103861D01*
X0172844Y0104750D01*
X0192553Y0104750D01*
X0206960Y0119157D01*
X0218847Y0119157D01*
X0221230Y0120145D01*
X0223054Y0121969D01*
X0224042Y0124353D01*
X0224042Y0126932D01*
X0223054Y0129316D01*
X0221230Y0131140D01*
X0218847Y0132128D01*
X0206897Y0132128D01*
X0206830Y0132100D01*
X0202147Y0132100D01*
X0185647Y0115600D01*
X0175397Y0115600D01*
X0172147Y0112350D01*
X0171999Y0112350D01*
X0171989Y0112360D01*
X0164998Y0112360D01*
X0163944Y0111305D01*
X0163944Y0105885D01*
X0164151Y0105678D01*
X0164144Y0105652D01*
X0164144Y0104757D01*
X0168494Y0104757D01*
X0168494Y0104757D01*
X0168494Y0102472D01*
X0168494Y0102198D01*
X0168494Y0102198D01*
X0168494Y0104757D01*
X0168494Y0104757D01*
X0164144Y0104757D01*
X0164144Y0103861D01*
X0164247Y0103477D01*
X0164144Y0103093D01*
X0164144Y0102198D01*
X0168494Y0102198D01*
X0168494Y0102198D01*
X0164144Y0102198D01*
X0164144Y0101302D01*
X0164151Y0101276D01*
X0163944Y0101069D01*
X0163944Y0090531D01*
X0164151Y0090324D01*
X0164144Y0090298D01*
X0164144Y0089402D01*
X0164144Y0088507D01*
X0164247Y0088123D01*
X0164144Y0087739D01*
X0164144Y0086843D01*
X0164144Y0085948D01*
X0164151Y0085922D01*
X0163944Y0085715D01*
X0163944Y0080295D01*
X0164998Y0079240D01*
X0171907Y0079240D01*
X0173231Y0077917D02*
X0154000Y0077917D01*
X0154000Y0076867D02*
X0154000Y0114733D01*
X0154262Y0114995D01*
X0154262Y0115097D01*
X0154457Y0114759D01*
X0154755Y0114461D01*
X0155120Y0114250D01*
X0155527Y0114141D01*
X0157519Y0114141D01*
X0157519Y0117719D01*
X0158681Y0117719D01*
X0158681Y0118881D01*
X0162062Y0118881D01*
X0162062Y0120900D01*
X0169077Y0120900D01*
X0169959Y0121265D01*
X0170635Y0121941D01*
X0175459Y0126765D01*
X0176135Y0127441D01*
X0176500Y0128323D01*
X0176500Y0162306D01*
X0179944Y0165749D01*
X0180546Y0165500D01*
X0182654Y0165500D01*
X0184602Y0166307D01*
X0186093Y0167798D01*
X0186900Y0169746D01*
X0186900Y0171854D01*
X0186093Y0173802D01*
X0184602Y0175293D01*
X0184000Y0175543D01*
X0184000Y0176093D01*
X0184007Y0176098D01*
X0184247Y0176198D01*
X0184384Y0176199D01*
X0184479Y0176295D01*
X0184603Y0176347D01*
X0184655Y0176473D01*
X0184838Y0176658D01*
X0185053Y0176803D01*
X0185187Y0176831D01*
X0185261Y0176944D01*
X0185373Y0177019D01*
X0185399Y0177154D01*
X0185542Y0177371D01*
X0185725Y0177556D01*
X0185851Y0177609D01*
X0185901Y0177734D01*
X0185996Y0177830D01*
X0185995Y0177967D01*
X0186092Y0178208D01*
X0186235Y0178425D01*
X0186348Y0178502D01*
X0186373Y0178635D01*
X0186447Y0178747D01*
X0186419Y0178881D01*
X0186467Y0179137D01*
X0186556Y0179357D01*
X0186650Y0179451D01*
X0186650Y0179590D01*
X0186709Y0179735D01*
X0186650Y0179874D01*
X0186650Y0180109D01*
X0186772Y0180756D01*
X0186743Y0180797D01*
X0186770Y0180837D01*
X0186650Y0181487D01*
X0186650Y0181718D01*
X0186711Y0181860D01*
X0186650Y0182011D01*
X0186650Y0182149D01*
X0186558Y0182241D01*
X0186471Y0182459D01*
X0186423Y0182718D01*
X0186451Y0182851D01*
X0186378Y0182962D01*
X0186354Y0183093D01*
X0186242Y0183170D01*
X0186098Y0183391D01*
X0186000Y0183636D01*
X0186001Y0183771D01*
X0185908Y0183866D01*
X0185858Y0183990D01*
X0185733Y0184043D01*
X0185548Y0184231D01*
X0185404Y0184452D01*
X0185378Y0184585D01*
X0185268Y0184660D01*
X0185195Y0184771D01*
X0185063Y0184799D01*
X0184844Y0184947D01*
X0184824Y0184967D01*
X0185088Y0185606D01*
X0185088Y0186994D01*
X0184557Y0188276D01*
X0183576Y0189257D01*
X0182294Y0189788D01*
X0180906Y0189788D01*
X0179624Y0189257D01*
X0178643Y0188276D01*
X0178111Y0186994D01*
X0178111Y0185606D01*
X0178376Y0184967D01*
X0178356Y0184947D01*
X0178137Y0184799D01*
X0178005Y0184771D01*
X0177932Y0184660D01*
X0177822Y0184585D01*
X0177796Y0184452D01*
X0177652Y0184231D01*
X0177467Y0184043D01*
X0177342Y0183990D01*
X0177292Y0183866D01*
X0177199Y0183771D01*
X0177200Y0183636D01*
X0177102Y0183391D01*
X0176958Y0183170D01*
X0176846Y0183093D01*
X0176822Y0182962D01*
X0176749Y0182851D01*
X0176777Y0182718D01*
X0176729Y0182459D01*
X0176642Y0182241D01*
X0176600Y0182199D01*
X0176558Y0182241D01*
X0176471Y0182459D01*
X0176423Y0182718D01*
X0176451Y0182851D01*
X0176378Y0182962D01*
X0176354Y0183093D01*
X0176242Y0183170D01*
X0176098Y0183391D01*
X0176000Y0183636D01*
X0176001Y0183771D01*
X0175908Y0183866D01*
X0175858Y0183990D01*
X0175733Y0184043D01*
X0175548Y0184231D01*
X0175404Y0184452D01*
X0175378Y0184585D01*
X0175268Y0184660D01*
X0175195Y0184771D01*
X0175063Y0184799D01*
X0174844Y0184947D01*
X0174824Y0184967D01*
X0175088Y0185606D01*
X0175088Y0186994D01*
X0174870Y0187521D01*
X0175459Y0187765D01*
X0177959Y0190265D01*
X0178635Y0190941D01*
X0179000Y0191823D01*
X0179000Y0196057D01*
X0179602Y0196307D01*
X0181093Y0197798D01*
X0181600Y0199022D01*
X0182107Y0197798D01*
X0183598Y0196307D01*
X0184200Y0196057D01*
X0184200Y0190323D01*
X0184565Y0189441D01*
X0185241Y0188765D01*
X0190241Y0183765D01*
X0191123Y0183400D01*
X0192106Y0183400D01*
X0192102Y0183391D01*
X0191958Y0183170D01*
X0191846Y0183093D01*
X0191822Y0182962D01*
X0191749Y0182851D01*
X0191777Y0182718D01*
X0191729Y0182459D01*
X0191642Y0182241D01*
X0191550Y0182149D01*
X0191550Y0182011D01*
X0191489Y0181860D01*
X0191550Y0181718D01*
X0191550Y0181487D01*
X0191430Y0180837D01*
X0191457Y0180797D01*
X0191428Y0180756D01*
X0191550Y0180109D01*
X0191550Y0179874D01*
X0191491Y0179735D01*
X0191550Y0179590D01*
X0191550Y0179451D01*
X0191644Y0179357D01*
X0191733Y0179137D01*
X0191781Y0178881D01*
X0191753Y0178747D01*
X0191827Y0178635D01*
X0191852Y0178502D01*
X0191965Y0178425D01*
X0192108Y0178208D01*
X0192205Y0177967D01*
X0192204Y0177830D01*
X0192299Y0177734D01*
X0192349Y0177609D01*
X0192475Y0177556D01*
X0192658Y0177371D01*
X0192801Y0177154D01*
X0192827Y0177019D01*
X0192939Y0176944D01*
X0193013Y0176831D01*
X0193147Y0176803D01*
X0193362Y0176658D01*
X0193545Y0176473D01*
X0193597Y0176347D01*
X0193721Y0176295D01*
X0193816Y0176199D01*
X0193953Y0176198D01*
X0194193Y0176098D01*
X0194200Y0176093D01*
X0194200Y0175543D01*
X0193598Y0175293D01*
X0192107Y0173802D01*
X0191300Y0171854D01*
X0191300Y0169746D01*
X0192107Y0167798D01*
X0193598Y0166307D01*
X0195546Y0165500D01*
X0197654Y0165500D01*
X0199602Y0166307D01*
X0201093Y0167798D01*
X0201900Y0169746D01*
X0201900Y0171854D01*
X0201093Y0173802D01*
X0199602Y0175293D01*
X0199000Y0175543D01*
X0199000Y0176093D01*
X0199007Y0176098D01*
X0199247Y0176198D01*
X0199384Y0176199D01*
X0199479Y0176295D01*
X0199603Y0176347D01*
X0199655Y0176473D01*
X0199838Y0176658D01*
X0200053Y0176803D01*
X0200187Y0176831D01*
X0200261Y0176944D01*
X0200373Y0177019D01*
X0200399Y0177154D01*
X0200542Y0177371D01*
X0200725Y0177556D01*
X0200851Y0177609D01*
X0200901Y0177734D01*
X0200996Y0177830D01*
X0200995Y0177967D01*
X0201092Y0178208D01*
X0201235Y0178425D01*
X0201348Y0178502D01*
X0201373Y0178635D01*
X0201447Y0178747D01*
X0201419Y0178881D01*
X0201467Y0179137D01*
X0201556Y0179357D01*
X0201650Y0179451D01*
X0201650Y0179590D01*
X0201709Y0179735D01*
X0201650Y0179874D01*
X0201650Y0180109D01*
X0201772Y0180756D01*
X0201743Y0180797D01*
X0201770Y0180837D01*
X0201650Y0181487D01*
X0201650Y0181718D01*
X0201711Y0181860D01*
X0201650Y0182011D01*
X0201650Y0182149D01*
X0201558Y0182241D01*
X0201471Y0182459D01*
X0201423Y0182718D01*
X0201451Y0182851D01*
X0201378Y0182962D01*
X0201354Y0183093D01*
X0201242Y0183170D01*
X0201098Y0183391D01*
X0201000Y0183636D01*
X0201001Y0183771D01*
X0200908Y0183866D01*
X0200858Y0183990D01*
X0200733Y0184043D01*
X0200548Y0184231D01*
X0200404Y0184452D01*
X0200378Y0184585D01*
X0200268Y0184660D01*
X0200195Y0184771D01*
X0200063Y0184799D01*
X0199844Y0184947D01*
X0199659Y0185135D01*
X0199608Y0185260D01*
X0199485Y0185312D01*
X0199392Y0185407D01*
X0199256Y0185408D01*
X0199013Y0185510D01*
X0198794Y0185658D01*
X0198719Y0185771D01*
X0198588Y0185797D01*
X0198478Y0185871D01*
X0198432Y0185862D01*
X0197135Y0187159D01*
X0196459Y0187835D01*
X0195577Y0188200D01*
X0192594Y0188200D01*
X0189000Y0191794D01*
X0189000Y0196057D01*
X0189602Y0196307D01*
X0191093Y0197798D01*
X0191600Y0199022D01*
X0192107Y0197798D01*
X0193598Y0196307D01*
X0195546Y0195500D01*
X0197654Y0195500D01*
X0199602Y0196307D01*
X0201093Y0197798D01*
X0201600Y0199022D01*
X0202107Y0197798D01*
X0203598Y0196307D01*
X0205546Y0195500D01*
X0207654Y0195500D01*
X0209602Y0196307D01*
X0211093Y0197798D01*
X0211900Y0199746D01*
X0211900Y0201854D01*
X0211093Y0203802D01*
X0209602Y0205293D01*
X0209600Y0205294D01*
X0209600Y0205300D01*
X0211046Y0205300D01*
X0212100Y0206354D01*
X0212100Y0215246D01*
X0211046Y0216300D01*
X0202154Y0216300D01*
X0201100Y0215246D01*
X0201100Y0214078D01*
X0199715Y0215463D01*
X0197694Y0216300D01*
X0195506Y0216300D01*
X0193484Y0215463D01*
X0191937Y0213915D01*
X0191600Y0213101D01*
X0191263Y0213915D01*
X0189715Y0215463D01*
X0187694Y0216300D01*
X0185506Y0216300D01*
X0183484Y0215463D01*
X0181937Y0213915D01*
X0181600Y0213101D01*
X0181263Y0213915D01*
X0179715Y0215463D01*
X0177694Y0216300D01*
X0175506Y0216300D01*
X0173484Y0215463D01*
X0171937Y0213915D01*
X0171600Y0213101D01*
X0171263Y0213915D01*
X0169715Y0215463D01*
X0167694Y0216300D01*
X0165506Y0216300D01*
X0163484Y0215463D01*
X0161937Y0213915D01*
X0161600Y0213101D01*
X0161263Y0213915D01*
X0159715Y0215463D01*
X0157694Y0216300D01*
X0155506Y0216300D01*
X0153484Y0215463D01*
X0151937Y0213915D01*
X0151600Y0213101D01*
X0151263Y0213915D01*
X0149715Y0215463D01*
X0147694Y0216300D01*
X0145506Y0216300D01*
X0143484Y0215463D01*
X0141937Y0213915D01*
X0141600Y0213101D01*
X0141263Y0213915D01*
X0139715Y0215463D01*
X0137694Y0216300D01*
X0135506Y0216300D01*
X0133484Y0215463D01*
X0131937Y0213915D01*
X0131100Y0211894D01*
X0131100Y0209706D01*
X0131937Y0207684D01*
X0133484Y0206137D01*
X0133600Y0206089D01*
X0133600Y0205294D01*
X0133598Y0205293D01*
X0132107Y0203802D01*
X0131300Y0201854D01*
X0131300Y0199746D01*
X0132107Y0197798D01*
X0132705Y0197200D01*
X0128623Y0197200D01*
X0127741Y0196835D01*
X0127065Y0196159D01*
X0124565Y0193659D01*
X0124200Y0192777D01*
X0124200Y0185518D01*
X0124187Y0185510D01*
X0123944Y0185408D01*
X0123808Y0185407D01*
X0123715Y0185312D01*
X0123592Y0185260D01*
X0123541Y0185135D01*
X0123356Y0184947D01*
X0123137Y0184799D01*
X0123005Y0184771D01*
X0122932Y0184660D01*
X0122822Y0184585D01*
X0122796Y0184452D01*
X0122652Y0184231D01*
X0122467Y0184043D01*
X0122342Y0183990D01*
X0122292Y0183866D01*
X0122199Y0183771D01*
X0122200Y0183636D01*
X0122102Y0183391D01*
X0121958Y0183170D01*
X0121846Y0183093D01*
X0121822Y0182962D01*
X0121749Y0182851D01*
X0121777Y0182718D01*
X0121729Y0182459D01*
X0121642Y0182241D01*
X0121550Y0182149D01*
X0121550Y0182011D01*
X0121489Y0181860D01*
X0121550Y0181718D01*
X0121550Y0181487D01*
X0121430Y0180837D01*
X0121457Y0180797D01*
X0121428Y0180756D01*
X0121550Y0180109D01*
X0121550Y0179874D01*
X0121491Y0179735D01*
X0121550Y0179590D01*
X0121550Y0179451D01*
X0121644Y0179357D01*
X0121733Y0179137D01*
X0121781Y0178881D01*
X0121753Y0178747D01*
X0121827Y0178635D01*
X0121852Y0178502D01*
X0121965Y0178425D01*
X0122108Y0178208D01*
X0122205Y0177967D01*
X0122204Y0177830D01*
X0122299Y0177734D01*
X0122349Y0177609D01*
X0122475Y0177556D01*
X0122658Y0177371D01*
X0122801Y0177154D01*
X0122827Y0177019D01*
X0122939Y0176944D01*
X0123013Y0176831D01*
X0123147Y0176803D01*
X0123362Y0176658D01*
X0123545Y0176473D01*
X0123597Y0176347D01*
X0123721Y0176295D01*
X0123816Y0176199D01*
X0123953Y0176198D01*
X0124193Y0176098D01*
X0124200Y0176093D01*
X0124200Y0175543D01*
X0123598Y0175293D01*
X0122107Y0173802D01*
X0121300Y0171854D01*
X0121300Y0169746D01*
X0122107Y0167798D01*
X0123598Y0166307D01*
X0125546Y0165500D01*
X0127654Y0165500D01*
X0128256Y0165749D01*
X0131700Y0162306D01*
X0131700Y0146794D01*
X0130606Y0145700D01*
X0101623Y0145700D01*
X0100741Y0145335D01*
X0100065Y0144659D01*
X0095241Y0139835D01*
X0095241Y0139835D01*
X0094565Y0139159D01*
X0094200Y0138277D01*
X0094200Y0070323D01*
X0094565Y0069441D01*
X0095241Y0068765D01*
X0099206Y0064800D01*
X0095343Y0064800D01*
X0095046Y0065097D01*
X0094557Y0066276D01*
X0093576Y0067257D01*
X0092294Y0067789D01*
X0090906Y0067789D01*
X0089624Y0067257D01*
X0088643Y0066276D01*
X0088111Y0064994D01*
X0088111Y0063606D01*
X0088643Y0062324D01*
X0089624Y0061343D01*
X0090803Y0060854D01*
X0092153Y0059504D01*
X0092108Y0059392D01*
X0091965Y0059175D01*
X0091852Y0059098D01*
X0091827Y0058965D01*
X0091753Y0058853D01*
X0091781Y0058719D01*
X0091733Y0058463D01*
X0091644Y0058243D01*
X0091550Y0058149D01*
X0091550Y0058010D01*
X0091491Y0057865D01*
X0091550Y0057726D01*
X0091550Y0057491D01*
X0091428Y0056844D01*
X0091457Y0056803D01*
X0091430Y0056763D01*
X0091550Y0056113D01*
X0091550Y0055882D01*
X0091489Y0055740D01*
X0091550Y0055589D01*
X0091550Y0055451D01*
X0091642Y0055359D01*
X0091729Y0055141D01*
X0091777Y0054882D01*
X0091749Y0054749D01*
X0091822Y0054638D01*
X0091846Y0054507D01*
X0091958Y0054430D01*
X0092102Y0054209D01*
X0092200Y0053964D01*
X0092199Y0053829D01*
X0092292Y0053734D01*
X0092342Y0053610D01*
X0092467Y0053557D01*
X0092652Y0053369D01*
X0092796Y0053148D01*
X0092822Y0053015D01*
X0092932Y0052940D01*
X0093005Y0052829D01*
X0093137Y0052801D01*
X0093356Y0052653D01*
X0093541Y0052465D01*
X0093592Y0052340D01*
X0093600Y0052336D01*
X0093600Y0051203D01*
X0094057Y0050101D01*
X0095654Y0048503D01*
X0096143Y0047324D01*
X0097124Y0046343D01*
X0098406Y0045811D01*
X0099794Y0045811D01*
X0101076Y0046343D01*
X0102057Y0047324D01*
X0102588Y0048606D01*
X0102588Y0049994D01*
X0102057Y0051276D01*
X0101076Y0052257D01*
X0099949Y0052724D01*
X0100063Y0052801D01*
X0100195Y0052829D01*
X0100268Y0052940D01*
X0100378Y0053015D01*
X0100404Y0053148D01*
X0100548Y0053369D01*
X0100733Y0053557D01*
X0100858Y0053610D01*
X0100908Y0053734D01*
X0101001Y0053829D01*
X0101000Y0053964D01*
X0101098Y0054209D01*
X0101242Y0054430D01*
X0101354Y0054507D01*
X0101378Y0054638D01*
X0101451Y0054749D01*
X0101423Y0054882D01*
X0101471Y0055141D01*
X0101558Y0055359D01*
X0101600Y0055401D01*
X0101642Y0055359D01*
X0101729Y0055141D01*
X0101777Y0054882D01*
X0101749Y0054749D01*
X0101822Y0054638D01*
X0101846Y0054507D01*
X0101958Y0054430D01*
X0102102Y0054209D01*
X0102200Y0053964D01*
X0102199Y0053829D01*
X0102292Y0053734D01*
X0102342Y0053610D01*
X0102467Y0053557D01*
X0102652Y0053369D01*
X0102796Y0053148D01*
X0102822Y0053015D01*
X0102932Y0052940D01*
X0103005Y0052829D01*
X0103137Y0052801D01*
X0103356Y0052653D01*
X0103541Y0052465D01*
X0103592Y0052340D01*
X0103600Y0052336D01*
X0103600Y0051203D01*
X0104057Y0050101D01*
X0105654Y0048503D01*
X0106143Y0047324D01*
X0107124Y0046343D01*
X0108406Y0045811D01*
X0109794Y0045811D01*
X0111076Y0046343D01*
X0112057Y0047324D01*
X0112588Y0048606D01*
X0112588Y0049994D01*
X0112057Y0051276D01*
X0111076Y0052257D01*
X0109949Y0052724D01*
X0110063Y0052801D01*
X0110195Y0052829D01*
X0110268Y0052940D01*
X0110378Y0053015D01*
X0110404Y0053148D01*
X0110548Y0053369D01*
X0110733Y0053557D01*
X0110858Y0053610D01*
X0110908Y0053734D01*
X0111001Y0053829D01*
X0111000Y0053964D01*
X0111098Y0054209D01*
X0111242Y0054430D01*
X0111354Y0054507D01*
X0111378Y0054638D01*
X0111451Y0054749D01*
X0111423Y0054882D01*
X0111471Y0055141D01*
X0111558Y0055359D01*
X0111650Y0055451D01*
X0111650Y0055589D01*
X0111711Y0055740D01*
X0111650Y0055882D01*
X0111650Y0056113D01*
X0111770Y0056763D01*
X0111743Y0056803D01*
X0111772Y0056844D01*
X0111650Y0057491D01*
X0111650Y0057726D01*
X0111709Y0057865D01*
X0111650Y0058010D01*
X0111650Y0058149D01*
X0111556Y0058243D01*
X0111467Y0058463D01*
X0111419Y0058719D01*
X0111447Y0058853D01*
X0111373Y0058965D01*
X0111348Y0059098D01*
X0111235Y0059175D01*
X0111092Y0059392D01*
X0110995Y0059633D01*
X0110996Y0059770D01*
X0110901Y0059866D01*
X0110851Y0059991D01*
X0110725Y0060044D01*
X0110542Y0060229D01*
X0110399Y0060446D01*
X0110373Y0060581D01*
X0110261Y0060656D01*
X0110187Y0060769D01*
X0110053Y0060797D01*
X0109838Y0060942D01*
X0109655Y0061127D01*
X0109603Y0061253D01*
X0109479Y0061305D01*
X0109396Y0061389D01*
X0109240Y0061766D01*
X0109241Y0061765D01*
X0110123Y0061400D01*
X0126306Y0061400D01*
X0115241Y0050335D01*
X0115241Y0050335D01*
X0114565Y0049659D01*
X0110606Y0045700D01*
X0095094Y0045700D01*
X0088000Y0052794D01*
X0088000Y0064777D01*
X0087635Y0065659D01*
X0086959Y0066335D01*
X0082959Y0070335D01*
X0082077Y0070700D01*
X0061123Y0070700D01*
X0060241Y0070335D01*
X0059565Y0069659D01*
X0056741Y0066835D01*
X0056065Y0066159D01*
X0055700Y0065277D01*
X0055700Y0057068D01*
X0051837Y0057068D01*
X0051706Y0057200D01*
X0050015Y0057900D01*
X0048185Y0057900D01*
X0046494Y0057200D01*
X0042700Y0053406D01*
X0037700Y0048406D01*
X0037000Y0046715D01*
X0037000Y0034885D01*
X0037700Y0033194D01*
X0038994Y0031900D01*
X0042095Y0028800D01*
X0040506Y0028800D01*
X0038484Y0027963D01*
X0038464Y0027942D01*
X0026745Y0039660D01*
X0026748Y0039668D01*
X0026748Y0042247D01*
X0025761Y0044631D01*
X0023937Y0046455D01*
X0021553Y0047443D01*
X0009603Y0047443D01*
X0007220Y0046455D01*
X0005396Y0044631D01*
X0004408Y0042247D01*
X0004408Y0039668D01*
X0005396Y0037284D01*
X0007220Y0035460D01*
X0009603Y0034472D01*
X0018922Y0034472D01*
X0032700Y0020694D01*
X0033994Y0019400D01*
X0035685Y0018700D01*
X0038422Y0018700D01*
X0038484Y0018637D01*
X0040506Y0017800D01*
X0042694Y0017800D01*
X0044715Y0018637D01*
X0046263Y0020184D01*
X0047100Y0022206D01*
X0047100Y0023795D01*
X0051494Y0019400D01*
X0053185Y0018700D01*
X0058422Y0018700D01*
X0058484Y0018637D01*
X0060506Y0017800D01*
X0062694Y0017800D01*
X0064715Y0018637D01*
X0066263Y0020184D01*
X0067100Y0022206D01*
X0067100Y0024394D01*
X0066263Y0026415D01*
X0064715Y0027963D01*
X0062694Y0028800D01*
X0060506Y0028800D01*
X0058484Y0027963D01*
X0058422Y0027900D01*
X0056005Y0027900D01*
X0046200Y0037705D01*
X0046200Y0043895D01*
X0049206Y0046900D01*
X0051837Y0049531D01*
X0052937Y0049531D01*
X0051241Y0047835D01*
X0050565Y0047159D01*
X0050200Y0046277D01*
X0050200Y0045159D01*
X0049492Y0045159D01*
X0048438Y0044105D01*
X0048438Y0037495D01*
X0049492Y0036441D01*
X0055708Y0036441D01*
X0056762Y0037495D01*
X0056762Y0037597D01*
X0056957Y0037259D01*
X0057255Y0036961D01*
X0057620Y0036750D01*
X0058027Y0036641D01*
X0060019Y0036641D01*
X0060019Y0040219D01*
X0061181Y0040219D01*
X0061181Y0041381D01*
X0060019Y0041381D01*
X0060019Y0044959D01*
X0058027Y0044959D01*
X0057620Y0044850D01*
X0057255Y0044639D01*
X0056957Y0044341D01*
X0056762Y0044003D01*
X0056762Y0044105D01*
X0055708Y0045159D01*
X0055353Y0045159D01*
X0056707Y0046513D01*
X0057429Y0045791D01*
X0064432Y0045791D01*
X0065211Y0046570D01*
X0065623Y0046400D01*
X0066119Y0046400D01*
X0066119Y0046086D01*
X0067173Y0045031D01*
X0071027Y0045031D01*
X0072081Y0046086D01*
X0072081Y0051514D01*
X0071027Y0052568D01*
X0067173Y0052568D01*
X0066346Y0051741D01*
X0065818Y0051960D01*
X0065487Y0051960D01*
X0065487Y0052274D01*
X0064461Y0053300D01*
X0065061Y0053900D01*
X0071606Y0053900D01*
X0073200Y0052306D01*
X0073200Y0044781D01*
X0073080Y0044850D01*
X0072673Y0044959D01*
X0070681Y0044959D01*
X0070681Y0041381D01*
X0069519Y0041381D01*
X0069519Y0040219D01*
X0070681Y0040219D01*
X0070681Y0036641D01*
X0072673Y0036641D01*
X0073080Y0036750D01*
X0073445Y0036961D01*
X0073524Y0037040D01*
X0073565Y0036941D01*
X0074241Y0036265D01*
X0074782Y0035724D01*
X0074653Y0035596D01*
X0074599Y0035585D01*
X0074339Y0035585D01*
X0074213Y0035637D01*
X0074088Y0035585D01*
X0073953Y0035585D01*
X0073857Y0035488D01*
X0073617Y0035388D01*
X0073362Y0035337D01*
X0073228Y0035363D01*
X0073116Y0035288D01*
X0072984Y0035261D01*
X0072908Y0035148D01*
X0072693Y0035002D01*
X0072453Y0034902D01*
X0072316Y0034901D01*
X0072221Y0034805D01*
X0072097Y0034753D01*
X0072045Y0034627D01*
X0071862Y0034442D01*
X0071647Y0034297D01*
X0071513Y0034269D01*
X0071439Y0034156D01*
X0071327Y0034081D01*
X0071301Y0033946D01*
X0071158Y0033729D01*
X0070975Y0033544D01*
X0070849Y0033491D01*
X0070799Y0033366D01*
X0070704Y0033270D01*
X0070705Y0033133D01*
X0070608Y0032892D01*
X0070465Y0032675D01*
X0070352Y0032598D01*
X0070327Y0032465D01*
X0070253Y0032353D01*
X0070281Y0032219D01*
X0070233Y0031963D01*
X0070144Y0031743D01*
X0070050Y0031649D01*
X0070050Y0031510D01*
X0069991Y0031365D01*
X0070050Y0031226D01*
X0070050Y0030991D01*
X0069928Y0030344D01*
X0069957Y0030303D01*
X0069930Y0030263D01*
X0070050Y0029613D01*
X0070050Y0029382D01*
X0069989Y0029240D01*
X0070050Y0029089D01*
X0070050Y0028951D01*
X0070142Y0028859D01*
X0070229Y0028641D01*
X0070277Y0028382D01*
X0070249Y0028249D01*
X0070322Y0028138D01*
X0070346Y0028007D01*
X0070458Y0027930D01*
X0070602Y0027709D01*
X0070700Y0027464D01*
X0070699Y0027329D01*
X0070792Y0027234D01*
X0070842Y0027110D01*
X0070967Y0027057D01*
X0071152Y0026869D01*
X0071296Y0026648D01*
X0071322Y0026515D01*
X0071432Y0026440D01*
X0071505Y0026329D01*
X0071637Y0026301D01*
X0071856Y0026153D01*
X0072041Y0025965D01*
X0072092Y0025840D01*
X0072215Y0025788D01*
X0072308Y0025693D01*
X0072444Y0025692D01*
X0072687Y0025590D01*
X0072906Y0025442D01*
X0072981Y0025329D01*
X0073111Y0025303D01*
X0073222Y0025229D01*
X0073355Y0025254D01*
X0073613Y0025202D01*
X0073857Y0025100D01*
X0073953Y0025004D01*
X0074086Y0025004D01*
X0074209Y0024953D01*
X0074334Y0025004D01*
X0074598Y0025004D01*
X0074667Y0024991D01*
X0075057Y0024601D01*
X0075901Y0023757D01*
X0077003Y0023300D01*
X0081682Y0023300D01*
X0081100Y0021894D01*
X0081100Y0019706D01*
X0081937Y0017684D01*
X0083484Y0016137D01*
X0085506Y0015300D01*
X0087694Y0015300D01*
X0089715Y0016137D01*
X0091263Y0017684D01*
X0091600Y0018499D01*
X0091937Y0017684D01*
X0093484Y0016137D01*
X0095506Y0015300D01*
X0097694Y0015300D01*
X0099715Y0016137D01*
X0101263Y0017684D01*
X0101600Y0018499D01*
X0101937Y0017684D01*
X0103484Y0016137D01*
X0105506Y0015300D01*
X0107694Y0015300D01*
X0109715Y0016137D01*
X0111263Y0017684D01*
X0111701Y0018742D01*
X0112067Y0018022D01*
X0112557Y0017347D01*
X0113147Y0016757D01*
X0113822Y0016267D01*
X0114566Y0015888D01*
X0115359Y0015630D01*
X0116183Y0015500D01*
X0116200Y0015500D01*
X0116200Y0020400D01*
X0117000Y0020400D01*
X0117000Y0021200D01*
X0126200Y0021200D01*
X0126200Y0020400D01*
X0127000Y0020400D01*
X0127000Y0015500D01*
X0127017Y0015500D01*
X0127841Y0015630D01*
X0128634Y0015888D01*
X0129378Y0016267D01*
X0130053Y0016757D01*
X0130643Y0017347D01*
X0131133Y0018022D01*
X0131499Y0018742D01*
X0131937Y0017684D01*
X0133484Y0016137D01*
X0135506Y0015300D01*
X0137694Y0015300D01*
X0139715Y0016137D01*
X0141263Y0017684D01*
X0142100Y0019706D01*
X0142100Y0021894D01*
X0141263Y0023915D01*
X0139715Y0025463D01*
X0137948Y0026195D01*
X0135299Y0028843D01*
X0134197Y0029300D01*
X0080185Y0029300D01*
X0080150Y0029382D01*
X0080150Y0029613D01*
X0080270Y0030263D01*
X0080243Y0030303D01*
X0080272Y0030344D01*
X0080167Y0030900D01*
X0117077Y0030900D01*
X0117959Y0031265D01*
X0118635Y0031941D01*
X0152959Y0066265D01*
X0153635Y0066941D01*
X0154000Y0067823D01*
X0154000Y0069733D01*
X0154262Y0069995D01*
X0154262Y0070097D01*
X0154457Y0069759D01*
X0154755Y0069461D01*
X0155120Y0069250D01*
X0155527Y0069141D01*
X0157519Y0069141D01*
X0157519Y0072719D01*
X0158681Y0072719D01*
X0158681Y0073881D01*
X0157519Y0073881D01*
X0157519Y0077459D01*
X0155527Y0077459D01*
X0155120Y0077350D01*
X0154755Y0077139D01*
X0154457Y0076841D01*
X0154262Y0076503D01*
X0154262Y0076605D01*
X0154000Y0076867D01*
X0154149Y0076718D02*
X0154386Y0076718D01*
X0157519Y0076718D02*
X0158681Y0076718D01*
X0158681Y0077459D02*
X0158681Y0073881D01*
X0162062Y0073881D01*
X0162062Y0076070D01*
X0161953Y0076477D01*
X0161743Y0076841D01*
X0161445Y0077139D01*
X0161080Y0077350D01*
X0160673Y0077459D01*
X0158681Y0077459D01*
X0158681Y0075520D02*
X0157519Y0075520D01*
X0157519Y0074321D02*
X0158681Y0074321D01*
X0158681Y0073123D02*
X0188525Y0073123D01*
X0187326Y0074321D02*
X0162062Y0074321D01*
X0162062Y0075520D02*
X0186128Y0075520D01*
X0189723Y0071924D02*
X0162062Y0071924D01*
X0162062Y0072719D02*
X0158681Y0072719D01*
X0158681Y0069141D01*
X0160673Y0069141D01*
X0161080Y0069250D01*
X0161445Y0069461D01*
X0161743Y0069759D01*
X0161953Y0070123D01*
X0162062Y0070530D01*
X0162062Y0072719D01*
X0162062Y0070726D02*
X0190922Y0070726D01*
X0192120Y0069527D02*
X0161511Y0069527D01*
X0158681Y0069527D02*
X0157519Y0069527D01*
X0157519Y0070726D02*
X0158681Y0070726D01*
X0158681Y0071924D02*
X0157519Y0071924D01*
X0154689Y0069527D02*
X0154000Y0069527D01*
X0154000Y0068329D02*
X0193319Y0068329D01*
X0194517Y0067130D02*
X0153713Y0067130D01*
X0152626Y0065932D02*
X0195716Y0065932D01*
X0196914Y0064733D02*
X0151427Y0064733D01*
X0150229Y0063534D02*
X0198113Y0063534D01*
X0199311Y0062336D02*
X0149030Y0062336D01*
X0147832Y0061137D02*
X0200510Y0061137D01*
X0201708Y0059939D02*
X0146633Y0059939D01*
X0145435Y0058740D02*
X0224300Y0058740D01*
X0224300Y0057542D02*
X0144236Y0057542D01*
X0143038Y0056343D02*
X0224300Y0056343D01*
X0224300Y0055145D02*
X0141839Y0055145D01*
X0140641Y0053946D02*
X0224300Y0053946D01*
X0224300Y0052748D02*
X0139442Y0052748D01*
X0138243Y0051549D02*
X0224300Y0051549D01*
X0224300Y0050351D02*
X0137045Y0050351D01*
X0135846Y0049152D02*
X0224300Y0049152D01*
X0224300Y0047954D02*
X0220493Y0047954D01*
X0221188Y0047666D02*
X0218211Y0048899D01*
X0214989Y0048899D01*
X0212012Y0047666D01*
X0209734Y0045388D01*
X0208501Y0042411D01*
X0208501Y0039189D01*
X0209734Y0036212D01*
X0212012Y0033934D01*
X0214989Y0032701D01*
X0218211Y0032701D01*
X0221188Y0033934D01*
X0223466Y0036212D01*
X0224300Y0038225D01*
X0224300Y0031753D01*
X0215647Y0023100D01*
X0214300Y0021753D01*
X0214300Y0014737D01*
X0214269Y0014418D01*
X0214024Y0013828D01*
X0213572Y0013376D01*
X0212982Y0013131D01*
X0212663Y0013100D01*
X0014175Y0013100D01*
X0016188Y0013934D01*
X0018466Y0016212D01*
X0019699Y0019189D01*
X0019699Y0022411D01*
X0018466Y0025388D01*
X0016188Y0027666D01*
X0013211Y0028899D01*
X0009989Y0028899D01*
X0007012Y0027666D01*
X0004734Y0025388D01*
X0003900Y0023375D01*
X0003900Y0216863D01*
X0003931Y0217182D01*
X0004176Y0217772D01*
X0004628Y0218224D01*
X0005218Y0218469D01*
X0005537Y0218500D01*
X0014025Y0218500D01*
X0012012Y0217666D01*
X0009734Y0215388D01*
X0008501Y0212411D01*
X0008501Y0209189D01*
X0009734Y0206212D01*
X0012012Y0203934D01*
X0014989Y0202701D01*
X0018211Y0202701D01*
X0021188Y0203934D01*
X0023466Y0206212D01*
X0024699Y0209189D01*
X0024699Y0212411D01*
X0023466Y0215388D01*
X0021188Y0217666D01*
X0019175Y0218500D01*
X0209647Y0218500D01*
X0214300Y0213847D01*
X0214300Y0168847D01*
X0215647Y0167500D01*
X0215647Y0167500D01*
X0224300Y0158847D01*
X0224300Y0153375D01*
X0223466Y0155388D01*
X0221188Y0157666D01*
X0218211Y0158899D01*
X0214989Y0158899D01*
X0212012Y0157666D01*
X0209734Y0155388D01*
X0208501Y0152411D01*
X0208501Y0149189D01*
X0209734Y0146212D01*
X0212012Y0143934D01*
X0214989Y0142701D01*
X0218211Y0142701D01*
X0221188Y0143934D01*
X0223466Y0146212D01*
X0224300Y0148225D01*
X0224300Y0043375D01*
X0223466Y0045388D01*
X0221188Y0047666D01*
X0222099Y0046755D02*
X0224300Y0046755D01*
X0224300Y0045557D02*
X0223297Y0045557D01*
X0223893Y0044358D02*
X0224300Y0044358D01*
X0224300Y0037167D02*
X0223862Y0037167D01*
X0224300Y0035969D02*
X0223223Y0035969D01*
X0224300Y0034770D02*
X0222024Y0034770D01*
X0220314Y0033572D02*
X0224300Y0033572D01*
X0224300Y0032373D02*
X0211685Y0032373D01*
X0211900Y0031854D02*
X0211093Y0033802D01*
X0209602Y0035293D01*
X0207654Y0036100D01*
X0205546Y0036100D01*
X0203598Y0035293D01*
X0202107Y0033802D01*
X0201600Y0032578D01*
X0201093Y0033802D01*
X0199602Y0035293D01*
X0197654Y0036100D01*
X0195546Y0036100D01*
X0193598Y0035293D01*
X0192107Y0033802D01*
X0191600Y0032578D01*
X0191093Y0033802D01*
X0189602Y0035293D01*
X0187654Y0036100D01*
X0185546Y0036100D01*
X0183598Y0035293D01*
X0182107Y0033802D01*
X0181600Y0032578D01*
X0181093Y0033802D01*
X0179602Y0035293D01*
X0177654Y0036100D01*
X0175546Y0036100D01*
X0173598Y0035293D01*
X0172107Y0033802D01*
X0171600Y0032578D01*
X0171093Y0033802D01*
X0169602Y0035293D01*
X0167654Y0036100D01*
X0165546Y0036100D01*
X0163598Y0035293D01*
X0162107Y0033802D01*
X0161600Y0032578D01*
X0161093Y0033802D01*
X0159602Y0035293D01*
X0157654Y0036100D01*
X0155546Y0036100D01*
X0153598Y0035293D01*
X0152107Y0033802D01*
X0151300Y0031854D01*
X0151300Y0029746D01*
X0152107Y0027798D01*
X0153598Y0026307D01*
X0153600Y0026306D01*
X0153600Y0025510D01*
X0153484Y0025463D01*
X0151937Y0023915D01*
X0151100Y0021894D01*
X0151100Y0019706D01*
X0151937Y0017684D01*
X0153484Y0016137D01*
X0155506Y0015300D01*
X0157694Y0015300D01*
X0159715Y0016137D01*
X0161263Y0017684D01*
X0161600Y0018499D01*
X0161937Y0017684D01*
X0163484Y0016137D01*
X0165506Y0015300D01*
X0167694Y0015300D01*
X0169715Y0016137D01*
X0171263Y0017684D01*
X0171600Y0018499D01*
X0171937Y0017684D01*
X0173484Y0016137D01*
X0175506Y0015300D01*
X0177694Y0015300D01*
X0179715Y0016137D01*
X0181263Y0017684D01*
X0181600Y0018499D01*
X0181937Y0017684D01*
X0183484Y0016137D01*
X0185506Y0015300D01*
X0187694Y0015300D01*
X0189715Y0016137D01*
X0191263Y0017684D01*
X0191600Y0018499D01*
X0191937Y0017684D01*
X0193484Y0016137D01*
X0195506Y0015300D01*
X0197694Y0015300D01*
X0199715Y0016137D01*
X0201263Y0017684D01*
X0201600Y0018499D01*
X0201937Y0017684D01*
X0203484Y0016137D01*
X0205506Y0015300D01*
X0207694Y0015300D01*
X0209715Y0016137D01*
X0211263Y0017684D01*
X0212100Y0019706D01*
X0212100Y0021894D01*
X0211263Y0023915D01*
X0209715Y0025463D01*
X0209600Y0025510D01*
X0209600Y0026306D01*
X0209602Y0026307D01*
X0211093Y0027798D01*
X0211900Y0029746D01*
X0211900Y0031854D01*
X0211900Y0031175D02*
X0223722Y0031175D01*
X0222523Y0029976D02*
X0211900Y0029976D01*
X0211499Y0028778D02*
X0221325Y0028778D01*
X0220126Y0027579D02*
X0210874Y0027579D01*
X0209676Y0026381D02*
X0218928Y0026381D01*
X0217729Y0025182D02*
X0209996Y0025182D01*
X0211195Y0023984D02*
X0216531Y0023984D01*
X0215332Y0022785D02*
X0211731Y0022785D01*
X0212100Y0021587D02*
X0214300Y0021587D01*
X0214300Y0020388D02*
X0212100Y0020388D01*
X0211886Y0019190D02*
X0214300Y0019190D01*
X0214300Y0017991D02*
X0211390Y0017991D01*
X0210371Y0016793D02*
X0214300Y0016793D01*
X0214300Y0015594D02*
X0208404Y0015594D01*
X0204796Y0015594D02*
X0198404Y0015594D01*
X0200371Y0016793D02*
X0202829Y0016793D01*
X0201810Y0017991D02*
X0201390Y0017991D01*
X0194796Y0015594D02*
X0188404Y0015594D01*
X0190371Y0016793D02*
X0192829Y0016793D01*
X0191810Y0017991D02*
X0191390Y0017991D01*
X0184796Y0015594D02*
X0178404Y0015594D01*
X0180371Y0016793D02*
X0182829Y0016793D01*
X0181810Y0017991D02*
X0181390Y0017991D01*
X0174796Y0015594D02*
X0168404Y0015594D01*
X0170371Y0016793D02*
X0172829Y0016793D01*
X0171810Y0017991D02*
X0171390Y0017991D01*
X0164796Y0015594D02*
X0158404Y0015594D01*
X0160371Y0016793D02*
X0162829Y0016793D01*
X0161810Y0017991D02*
X0161390Y0017991D01*
X0154796Y0015594D02*
X0138404Y0015594D01*
X0140371Y0016793D02*
X0152829Y0016793D01*
X0151810Y0017991D02*
X0141390Y0017991D01*
X0141886Y0019190D02*
X0151314Y0019190D01*
X0151100Y0020388D02*
X0142100Y0020388D01*
X0142100Y0021587D02*
X0151100Y0021587D01*
X0151469Y0022785D02*
X0141731Y0022785D01*
X0141195Y0023984D02*
X0152005Y0023984D01*
X0153204Y0025182D02*
X0139996Y0025182D01*
X0137762Y0026381D02*
X0153524Y0026381D01*
X0152326Y0027579D02*
X0136563Y0027579D01*
X0135365Y0028778D02*
X0151701Y0028778D01*
X0151300Y0029976D02*
X0080217Y0029976D01*
X0080328Y0033572D02*
X0116600Y0033572D01*
X0116872Y0033572D01*
X0116600Y0034770D02*
X0079130Y0034770D01*
X0077931Y0035969D02*
X0116600Y0035969D01*
X0119269Y0035969D01*
X0120467Y0037167D02*
X0116600Y0037167D01*
X0081651Y0037167D01*
X0081743Y0037259D02*
X0081953Y0037623D01*
X0082062Y0038030D01*
X0082062Y0040219D01*
X0078681Y0040219D01*
X0078681Y0036641D01*
X0080673Y0036641D01*
X0081080Y0036750D01*
X0081445Y0036961D01*
X0081743Y0037259D01*
X0082062Y0038366D02*
X0116600Y0038366D01*
X0121666Y0038366D01*
X0122864Y0039564D02*
X0116600Y0039564D01*
X0082062Y0039564D01*
X0082062Y0041961D02*
X0116600Y0041961D01*
X0125261Y0041961D01*
X0124063Y0040763D02*
X0116600Y0040763D01*
X0078681Y0040763D01*
X0078681Y0041961D02*
X0077519Y0041961D01*
X0077519Y0043160D02*
X0078681Y0043160D01*
X0078681Y0044358D02*
X0077519Y0044358D01*
X0075600Y0045557D02*
X0091843Y0045557D01*
X0090645Y0046755D02*
X0075600Y0046755D01*
X0075600Y0047954D02*
X0089446Y0047954D01*
X0088248Y0049152D02*
X0075600Y0049152D01*
X0075600Y0050351D02*
X0087049Y0050351D01*
X0085851Y0051549D02*
X0075600Y0051549D01*
X0075600Y0052748D02*
X0085600Y0052748D01*
X0085600Y0053946D02*
X0074954Y0053946D01*
X0073755Y0055145D02*
X0085600Y0055145D01*
X0085600Y0056343D02*
X0071881Y0056343D01*
X0071881Y0057542D02*
X0085600Y0057542D01*
X0085600Y0058740D02*
X0071881Y0058740D01*
X0071881Y0059939D02*
X0085600Y0059939D01*
X0085600Y0061137D02*
X0071110Y0061137D01*
X0069100Y0061137D02*
X0069100Y0061137D01*
X0069100Y0059939D02*
X0069100Y0059939D01*
X0069100Y0058740D02*
X0069100Y0058740D01*
X0066319Y0058740D02*
X0065600Y0058740D01*
X0066100Y0058740D02*
X0058100Y0058740D01*
X0058100Y0057542D02*
X0066100Y0057542D01*
X0066319Y0057542D02*
X0065600Y0057542D01*
X0065600Y0056343D02*
X0066319Y0056343D01*
X0066100Y0056343D02*
X0058100Y0056343D01*
X0058100Y0056300D02*
X0058100Y0064800D01*
X0061600Y0068300D01*
X0066100Y0068300D01*
X0066100Y0056300D01*
X0058100Y0056300D01*
X0055700Y0057542D02*
X0050879Y0057542D01*
X0047321Y0057542D02*
X0025737Y0057542D01*
X0025639Y0057348D02*
X0026088Y0058230D01*
X0026394Y0059171D01*
X0026532Y0060043D01*
X0016178Y0060043D01*
X0016178Y0061242D01*
X0026532Y0061242D01*
X0026394Y0062114D01*
X0026088Y0063055D01*
X0025639Y0063937D01*
X0025057Y0064737D01*
X0024358Y0065436D01*
X0023557Y0066018D01*
X0022676Y0066467D01*
X0021735Y0066773D01*
X0020758Y0066928D01*
X0016178Y0066928D01*
X0016178Y0061243D01*
X0014978Y0061243D01*
X0014978Y0066928D01*
X0010399Y0066928D01*
X0009422Y0066773D01*
X0008481Y0066467D01*
X0007599Y0066018D01*
X0006799Y0065436D01*
X0006099Y0064737D01*
X0005518Y0063937D01*
X0005069Y0063055D01*
X0004763Y0062114D01*
X0004625Y0061242D01*
X0014978Y0061242D01*
X0014978Y0060043D01*
X0004625Y0060043D01*
X0004763Y0059171D01*
X0005069Y0058230D01*
X0005518Y0057348D01*
X0006099Y0056548D01*
X0006799Y0055849D01*
X0007599Y0055267D01*
X0008481Y0054818D01*
X0009422Y0054512D01*
X0010399Y0054357D01*
X0014978Y0054357D01*
X0014978Y0060042D01*
X0016178Y0060042D01*
X0016178Y0054357D01*
X0020758Y0054357D01*
X0021735Y0054512D01*
X0022676Y0054818D01*
X0023557Y0055267D01*
X0024358Y0055849D01*
X0025057Y0056548D01*
X0025639Y0057348D01*
X0024853Y0056343D02*
X0045638Y0056343D01*
X0044440Y0055145D02*
X0023318Y0055145D01*
X0026254Y0058740D02*
X0055700Y0058740D01*
X0055700Y0059939D02*
X0026515Y0059939D01*
X0026322Y0062336D02*
X0055700Y0062336D01*
X0055700Y0063534D02*
X0025844Y0063534D01*
X0025060Y0064733D02*
X0055700Y0064733D01*
X0055971Y0065932D02*
X0023676Y0065932D01*
X0016178Y0065932D02*
X0014978Y0065932D01*
X0014978Y0064733D02*
X0016178Y0064733D01*
X0016178Y0063534D02*
X0014978Y0063534D01*
X0014978Y0062336D02*
X0016178Y0062336D01*
X0016178Y0061137D02*
X0055700Y0061137D01*
X0058100Y0061137D02*
X0066100Y0061137D01*
X0065600Y0061137D02*
X0067090Y0061137D01*
X0066319Y0059939D02*
X0065600Y0059939D01*
X0066100Y0059939D02*
X0058100Y0059939D01*
X0058100Y0062336D02*
X0066100Y0062336D01*
X0065600Y0062336D02*
X0085600Y0062336D01*
X0085600Y0063534D02*
X0065600Y0063534D01*
X0066100Y0063534D02*
X0058100Y0063534D01*
X0058100Y0064733D02*
X0066100Y0064733D01*
X0065600Y0064733D02*
X0085167Y0064733D01*
X0083968Y0065932D02*
X0065600Y0065932D01*
X0066100Y0065932D02*
X0059232Y0065932D01*
X0060430Y0067130D02*
X0066100Y0067130D01*
X0065600Y0067130D02*
X0082770Y0067130D01*
X0084966Y0068329D02*
X0095677Y0068329D01*
X0094530Y0069527D02*
X0083767Y0069527D01*
X0086164Y0067130D02*
X0089497Y0067130D01*
X0088500Y0065932D02*
X0087363Y0065932D01*
X0088000Y0064733D02*
X0088111Y0064733D01*
X0088141Y0063534D02*
X0088000Y0063534D01*
X0088000Y0062336D02*
X0088638Y0062336D01*
X0088000Y0061137D02*
X0090119Y0061137D01*
X0091718Y0059939D02*
X0088000Y0059939D01*
X0088000Y0058740D02*
X0091776Y0058740D01*
X0091550Y0057542D02*
X0088000Y0057542D01*
X0088000Y0056343D02*
X0091507Y0056343D01*
X0091728Y0055145D02*
X0088000Y0055145D01*
X0088000Y0053946D02*
X0092200Y0053946D01*
X0093216Y0052748D02*
X0088046Y0052748D01*
X0089245Y0051549D02*
X0093600Y0051549D01*
X0093953Y0050351D02*
X0090443Y0050351D01*
X0091642Y0049152D02*
X0095005Y0049152D01*
X0095882Y0047954D02*
X0092840Y0047954D01*
X0094039Y0046755D02*
X0096711Y0046755D01*
X0093042Y0044358D02*
X0081726Y0044358D01*
X0082062Y0043160D02*
X0116600Y0043160D01*
X0126460Y0043160D01*
X0127658Y0044358D02*
X0116600Y0044358D01*
X0112658Y0044358D01*
X0113857Y0045557D02*
X0116600Y0045557D01*
X0128857Y0045557D01*
X0130055Y0046755D02*
X0116600Y0046755D01*
X0115055Y0046755D01*
X0116254Y0047954D02*
X0116600Y0047954D01*
X0131254Y0047954D01*
X0132452Y0049152D02*
X0117452Y0049152D01*
X0118651Y0050351D02*
X0133651Y0050351D01*
X0134849Y0051549D02*
X0119849Y0051549D01*
X0121048Y0052748D02*
X0136048Y0052748D01*
X0137246Y0053946D02*
X0122246Y0053946D01*
X0123445Y0055145D02*
X0138445Y0055145D01*
X0139643Y0056343D02*
X0124643Y0056343D01*
X0125842Y0057542D02*
X0140842Y0057542D01*
X0142040Y0058740D02*
X0127040Y0058740D01*
X0128239Y0059939D02*
X0143239Y0059939D01*
X0144437Y0061137D02*
X0129437Y0061137D01*
X0130636Y0062336D02*
X0145636Y0062336D01*
X0146834Y0063534D02*
X0131834Y0063534D01*
X0133033Y0064733D02*
X0148033Y0064733D01*
X0149232Y0065932D02*
X0134232Y0065932D01*
X0135430Y0067130D02*
X0150430Y0067130D01*
X0151600Y0068329D02*
X0136600Y0068329D01*
X0136600Y0069527D02*
X0146689Y0069527D01*
X0146138Y0070726D02*
X0136600Y0070726D01*
X0136600Y0071924D02*
X0146138Y0071924D01*
X0149519Y0071924D02*
X0150681Y0071924D01*
X0150681Y0070726D02*
X0149519Y0070726D01*
X0149519Y0069527D02*
X0150681Y0069527D01*
X0161814Y0076718D02*
X0174429Y0076718D01*
X0172844Y0087505D02*
X0194143Y0087505D01*
X0195341Y0086306D02*
X0191846Y0086306D01*
X0193045Y0085108D02*
X0196540Y0085108D01*
X0197738Y0083909D02*
X0194243Y0083909D01*
X0195442Y0082711D02*
X0198937Y0082711D01*
X0200135Y0081512D02*
X0196641Y0081512D01*
X0197839Y0080314D02*
X0201334Y0080314D01*
X0199038Y0079115D02*
X0224300Y0079115D01*
X0224300Y0077917D02*
X0200236Y0077917D01*
X0201435Y0076718D02*
X0224300Y0076718D01*
X0224300Y0075520D02*
X0202633Y0075520D01*
X0203832Y0074321D02*
X0224300Y0074321D01*
X0224300Y0073123D02*
X0205030Y0073123D01*
X0220098Y0071924D02*
X0224300Y0071924D01*
X0224300Y0070726D02*
X0221960Y0070726D01*
X0223097Y0069527D02*
X0224300Y0069527D01*
X0224300Y0068329D02*
X0223594Y0068329D01*
X0224042Y0067130D02*
X0224300Y0067130D01*
X0224300Y0065932D02*
X0224042Y0065932D01*
X0224042Y0064733D02*
X0224300Y0064733D01*
X0224300Y0063534D02*
X0223572Y0063534D01*
X0223076Y0062336D02*
X0224300Y0062336D01*
X0224300Y0061137D02*
X0221908Y0061137D01*
X0219973Y0059939D02*
X0224300Y0059939D01*
X0212707Y0047954D02*
X0134648Y0047954D01*
X0133449Y0046755D02*
X0211101Y0046755D01*
X0209903Y0045557D02*
X0132251Y0045557D01*
X0131052Y0044358D02*
X0209307Y0044358D01*
X0208811Y0043160D02*
X0129854Y0043160D01*
X0128655Y0041961D02*
X0208501Y0041961D01*
X0208501Y0040763D02*
X0127457Y0040763D01*
X0126258Y0039564D02*
X0208501Y0039564D01*
X0208842Y0038366D02*
X0125060Y0038366D01*
X0123861Y0037167D02*
X0209338Y0037167D01*
X0209977Y0035969D02*
X0207971Y0035969D01*
X0210125Y0034770D02*
X0211176Y0034770D01*
X0211189Y0033572D02*
X0212886Y0033572D01*
X0205229Y0035969D02*
X0197971Y0035969D01*
X0200125Y0034770D02*
X0203075Y0034770D01*
X0202011Y0033572D02*
X0201189Y0033572D01*
X0195229Y0035969D02*
X0187971Y0035969D01*
X0190125Y0034770D02*
X0193075Y0034770D01*
X0192011Y0033572D02*
X0191189Y0033572D01*
X0185229Y0035969D02*
X0177971Y0035969D01*
X0180125Y0034770D02*
X0183075Y0034770D01*
X0182011Y0033572D02*
X0181189Y0033572D01*
X0175229Y0035969D02*
X0167971Y0035969D01*
X0170125Y0034770D02*
X0173075Y0034770D01*
X0172011Y0033572D02*
X0171189Y0033572D01*
X0165229Y0035969D02*
X0157971Y0035969D01*
X0160125Y0034770D02*
X0163075Y0034770D01*
X0162011Y0033572D02*
X0161189Y0033572D01*
X0155229Y0035969D02*
X0122663Y0035969D01*
X0121464Y0034770D02*
X0153075Y0034770D01*
X0152011Y0033572D02*
X0120266Y0033572D01*
X0119067Y0032373D02*
X0151515Y0032373D01*
X0151300Y0031175D02*
X0117741Y0031175D01*
X0118635Y0031941D02*
X0118635Y0031941D01*
X0118070Y0034770D02*
X0116600Y0034770D01*
X0111661Y0046755D02*
X0111489Y0046755D01*
X0112318Y0047954D02*
X0112860Y0047954D01*
X0112588Y0049152D02*
X0114058Y0049152D01*
X0115257Y0050351D02*
X0112441Y0050351D01*
X0111784Y0051549D02*
X0116455Y0051549D01*
X0117654Y0052748D02*
X0109984Y0052748D01*
X0111000Y0053946D02*
X0118852Y0053946D01*
X0120051Y0055145D02*
X0111472Y0055145D01*
X0111693Y0056343D02*
X0121249Y0056343D01*
X0122448Y0057542D02*
X0111650Y0057542D01*
X0111424Y0058740D02*
X0123646Y0058740D01*
X0124845Y0059939D02*
X0110871Y0059939D01*
X0109651Y0061137D02*
X0126043Y0061137D01*
X0128100Y0063800D02*
X0110600Y0063800D01*
X0107600Y0066800D01*
X0100600Y0066800D01*
X0096600Y0070800D01*
X0096600Y0137800D01*
X0102100Y0143300D01*
X0131600Y0143300D01*
X0134100Y0145800D01*
X0134100Y0163300D01*
X0126600Y0170800D01*
X0126600Y0179300D01*
X0126600Y0182300D02*
X0126600Y0192300D01*
X0129100Y0194800D01*
X0154100Y0194800D01*
X0156600Y0197300D01*
X0156600Y0200800D01*
X0164100Y0192300D02*
X0166600Y0194800D01*
X0166600Y0200800D01*
X0164100Y0192300D02*
X0139100Y0192300D01*
X0136600Y0189800D01*
X0136600Y0182300D01*
X0136600Y0179300D02*
X0136600Y0170800D01*
X0136600Y0144800D01*
X0132600Y0140800D01*
X0103100Y0140800D01*
X0099100Y0136800D01*
X0099100Y0071800D01*
X0101340Y0069560D01*
X0109981Y0069560D01*
X0109981Y0067919D01*
X0111600Y0066300D01*
X0126600Y0066300D01*
X0131600Y0071300D01*
X0131600Y0082800D01*
X0135643Y0086843D01*
X0136584Y0084284D02*
X0134100Y0081800D01*
X0134100Y0069800D01*
X0128100Y0063800D01*
X0126360Y0069560D02*
X0120219Y0069560D01*
X0120219Y0073300D02*
X0125100Y0073300D01*
X0126600Y0074800D01*
X0126600Y0085300D01*
X0124100Y0084300D02*
X0122850Y0085550D01*
X0122850Y0085800D02*
X0110600Y0085800D01*
X0108600Y0087800D01*
X0108600Y0090800D01*
X0105029Y0094696D02*
X0104000Y0094696D01*
X0104241Y0093908D02*
X0104241Y0087692D01*
X0105295Y0086638D01*
X0106484Y0086638D01*
X0106565Y0086441D01*
X0108565Y0084441D01*
X0109241Y0083765D01*
X0110123Y0083400D01*
X0120317Y0083400D01*
X0120874Y0082843D01*
X0121700Y0082500D01*
X0121700Y0079923D01*
X0117111Y0079923D01*
X0116056Y0078868D01*
X0116056Y0075212D01*
X0116098Y0075170D01*
X0116056Y0075128D01*
X0116056Y0071472D01*
X0116098Y0071430D01*
X0116056Y0071388D01*
X0116056Y0068700D01*
X0114144Y0068700D01*
X0114144Y0071388D01*
X0113855Y0071677D01*
X0113944Y0072007D01*
X0113944Y0073300D01*
X0113944Y0074593D01*
X0113855Y0074923D01*
X0114144Y0075212D01*
X0114144Y0078868D01*
X0113089Y0079923D01*
X0106874Y0079923D01*
X0106391Y0079440D01*
X0104354Y0079440D01*
X0104000Y0079794D01*
X0104000Y0134806D01*
X0105094Y0135900D01*
X0106938Y0135900D01*
X0106938Y0129995D01*
X0107992Y0128941D01*
X0114208Y0128941D01*
X0115262Y0129995D01*
X0115262Y0130097D01*
X0115457Y0129759D01*
X0115755Y0129461D01*
X0116120Y0129250D01*
X0116527Y0129141D01*
X0118519Y0129141D01*
X0118519Y0132719D01*
X0119681Y0132719D01*
X0119681Y0133881D01*
X0123062Y0133881D01*
X0123062Y0135900D01*
X0134077Y0135900D01*
X0134959Y0136265D01*
X0141135Y0142441D01*
X0141500Y0143323D01*
X0141500Y0162306D01*
X0144944Y0165749D01*
X0145546Y0165500D01*
X0147654Y0165500D01*
X0149602Y0166307D01*
X0151093Y0167798D01*
X0151900Y0169746D01*
X0151900Y0171854D01*
X0151093Y0173802D01*
X0149602Y0175293D01*
X0149000Y0175543D01*
X0149000Y0176093D01*
X0149007Y0176098D01*
X0149247Y0176198D01*
X0149384Y0176199D01*
X0149479Y0176295D01*
X0149603Y0176347D01*
X0149655Y0176473D01*
X0149838Y0176658D01*
X0150053Y0176803D01*
X0150187Y0176831D01*
X0150261Y0176944D01*
X0150373Y0177019D01*
X0150399Y0177154D01*
X0150542Y0177371D01*
X0150725Y0177556D01*
X0150851Y0177609D01*
X0150901Y0177734D01*
X0150996Y0177830D01*
X0150995Y0177967D01*
X0151092Y0178208D01*
X0151235Y0178425D01*
X0151348Y0178502D01*
X0151373Y0178635D01*
X0151447Y0178747D01*
X0151419Y0178881D01*
X0151467Y0179137D01*
X0151556Y0179357D01*
X0151650Y0179451D01*
X0151650Y0179590D01*
X0151709Y0179735D01*
X0151650Y0179874D01*
X0151650Y0180109D01*
X0151772Y0180756D01*
X0151743Y0180797D01*
X0151770Y0180837D01*
X0151650Y0181487D01*
X0151650Y0181718D01*
X0151711Y0181860D01*
X0151650Y0182011D01*
X0151650Y0182149D01*
X0151558Y0182241D01*
X0151471Y0182459D01*
X0151423Y0182718D01*
X0151451Y0182851D01*
X0151378Y0182962D01*
X0151354Y0183093D01*
X0151242Y0183170D01*
X0151098Y0183391D01*
X0151000Y0183636D01*
X0151001Y0183771D01*
X0150908Y0183866D01*
X0150858Y0183990D01*
X0150733Y0184043D01*
X0150548Y0184231D01*
X0150404Y0184452D01*
X0150378Y0184585D01*
X0150268Y0184660D01*
X0150195Y0184771D01*
X0150063Y0184799D01*
X0149844Y0184947D01*
X0149659Y0185135D01*
X0149608Y0185260D01*
X0149485Y0185312D01*
X0149392Y0185407D01*
X0149256Y0185408D01*
X0149013Y0185510D01*
X0149000Y0185518D01*
X0149000Y0186306D01*
X0150094Y0187400D01*
X0158280Y0187400D01*
X0158111Y0186994D01*
X0158111Y0185606D01*
X0158376Y0184967D01*
X0158356Y0184947D01*
X0158137Y0184799D01*
X0158005Y0184771D01*
X0157932Y0184660D01*
X0157822Y0184585D01*
X0157796Y0184452D01*
X0157652Y0184231D01*
X0157467Y0184043D01*
X0157342Y0183990D01*
X0157292Y0183866D01*
X0157199Y0183771D01*
X0157200Y0183636D01*
X0157102Y0183391D01*
X0156958Y0183170D01*
X0156846Y0183093D01*
X0156822Y0182962D01*
X0156749Y0182851D01*
X0156777Y0182718D01*
X0156729Y0182459D01*
X0156642Y0182241D01*
X0156550Y0182149D01*
X0156550Y0182011D01*
X0156489Y0181860D01*
X0156550Y0181718D01*
X0156550Y0181487D01*
X0156430Y0180837D01*
X0156457Y0180797D01*
X0156428Y0180756D01*
X0156550Y0180109D01*
X0156550Y0179874D01*
X0156491Y0179735D01*
X0156550Y0179590D01*
X0156550Y0179451D01*
X0156644Y0179357D01*
X0156733Y0179137D01*
X0156781Y0178881D01*
X0156753Y0178747D01*
X0156827Y0178635D01*
X0156852Y0178502D01*
X0156965Y0178425D01*
X0157108Y0178208D01*
X0157205Y0177967D01*
X0157204Y0177830D01*
X0157299Y0177734D01*
X0157349Y0177609D01*
X0157475Y0177556D01*
X0157658Y0177371D01*
X0157801Y0177154D01*
X0157827Y0177019D01*
X0157939Y0176944D01*
X0158013Y0176831D01*
X0158147Y0176803D01*
X0158362Y0176658D01*
X0158545Y0176473D01*
X0158597Y0176347D01*
X0158721Y0176295D01*
X0158816Y0176199D01*
X0158953Y0176198D01*
X0159193Y0176098D01*
X0159200Y0176093D01*
X0159200Y0175543D01*
X0158598Y0175293D01*
X0157107Y0173802D01*
X0156300Y0171854D01*
X0156300Y0169746D01*
X0157107Y0167798D01*
X0158598Y0166307D01*
X0160546Y0165500D01*
X0162654Y0165500D01*
X0163256Y0165749D01*
X0166700Y0162306D01*
X0166700Y0131794D01*
X0165606Y0130700D01*
X0162262Y0130700D01*
X0162262Y0136605D01*
X0161208Y0137659D01*
X0154992Y0137659D01*
X0153938Y0136605D01*
X0153938Y0136503D01*
X0153743Y0136841D01*
X0153445Y0137139D01*
X0153080Y0137350D01*
X0152673Y0137459D01*
X0150681Y0137459D01*
X0150681Y0133881D01*
X0149519Y0133881D01*
X0149519Y0132719D01*
X0146138Y0132719D01*
X0146138Y0130700D01*
X0134123Y0130700D01*
X0133241Y0130335D01*
X0131106Y0128200D01*
X0112123Y0128200D01*
X0111241Y0127835D01*
X0110565Y0127159D01*
X0108741Y0125335D01*
X0108741Y0125335D01*
X0108065Y0124659D01*
X0104000Y0124659D01*
X0104000Y0125857D02*
X0109263Y0125857D01*
X0108065Y0124659D02*
X0107700Y0123777D01*
X0107700Y0122423D01*
X0106874Y0122423D01*
X0105819Y0121368D01*
X0105819Y0117712D01*
X0106108Y0117423D01*
X0106019Y0117093D01*
X0106019Y0115800D01*
X0106019Y0114507D01*
X0106108Y0114177D01*
X0105819Y0113888D01*
X0105819Y0110232D01*
X0106874Y0109177D01*
X0107898Y0109177D01*
X0107947Y0109059D01*
X0110241Y0106765D01*
X0111123Y0106400D01*
X0126606Y0106400D01*
X0126700Y0106306D01*
X0126700Y0104823D01*
X0127065Y0103941D01*
X0127741Y0103265D01*
X0128244Y0102762D01*
X0128181Y0102762D01*
X0128181Y0099381D01*
X0127019Y0099381D01*
X0127019Y0098219D01*
X0123441Y0098219D01*
X0123441Y0097100D01*
X0122459Y0097100D01*
X0122459Y0101908D01*
X0121405Y0102962D01*
X0114795Y0102962D01*
X0113741Y0101908D01*
X0113741Y0095692D01*
X0114633Y0094800D01*
X0113741Y0093908D01*
X0113741Y0088200D01*
X0112959Y0088200D01*
X0112959Y0093908D01*
X0111905Y0094962D01*
X0111803Y0094962D01*
X0112141Y0095157D01*
X0112439Y0095455D01*
X0112650Y0095820D01*
X0112759Y0096227D01*
X0112759Y0098219D01*
X0109181Y0098219D01*
X0109181Y0099381D01*
X0108019Y0099381D01*
X0108019Y0098219D01*
X0104441Y0098219D01*
X0104441Y0096227D01*
X0104550Y0095820D01*
X0104761Y0095455D01*
X0105059Y0095157D01*
X0105397Y0094962D01*
X0105295Y0094962D01*
X0104241Y0093908D01*
X0104241Y0093497D02*
X0104000Y0093497D01*
X0104000Y0092299D02*
X0104241Y0092299D01*
X0104241Y0091100D02*
X0104000Y0091100D01*
X0104000Y0089902D02*
X0104241Y0089902D01*
X0104241Y0088703D02*
X0104000Y0088703D01*
X0104000Y0087505D02*
X0104428Y0087505D01*
X0104000Y0086306D02*
X0106700Y0086306D01*
X0107898Y0085108D02*
X0104000Y0085108D01*
X0104000Y0083909D02*
X0109097Y0083909D01*
X0104000Y0082711D02*
X0121192Y0082711D01*
X0121700Y0081512D02*
X0104000Y0081512D01*
X0104000Y0080314D02*
X0121700Y0080314D01*
X0124100Y0078300D02*
X0122840Y0077040D01*
X0120219Y0077040D01*
X0124100Y0078300D02*
X0124100Y0084300D01*
X0129100Y0084300D02*
X0129100Y0072300D01*
X0126360Y0069560D01*
X0116056Y0069527D02*
X0114144Y0069527D01*
X0114144Y0070726D02*
X0116056Y0070726D01*
X0116056Y0071924D02*
X0113922Y0071924D01*
X0113944Y0073123D02*
X0116056Y0073123D01*
X0116056Y0074321D02*
X0113944Y0074321D01*
X0113944Y0073300D02*
X0109982Y0073300D01*
X0109982Y0073300D01*
X0113944Y0073300D01*
X0114144Y0075520D02*
X0116056Y0075520D01*
X0116056Y0076718D02*
X0114144Y0076718D01*
X0114144Y0077917D02*
X0116056Y0077917D01*
X0116303Y0079115D02*
X0113897Y0079115D01*
X0109981Y0077040D02*
X0103360Y0077040D01*
X0101600Y0078800D01*
X0101600Y0135800D01*
X0104100Y0138300D01*
X0111600Y0138300D01*
X0111100Y0137800D01*
X0111100Y0133300D01*
X0106938Y0133048D02*
X0104000Y0133048D01*
X0104000Y0131850D02*
X0106938Y0131850D01*
X0106938Y0130651D02*
X0104000Y0130651D01*
X0104000Y0129453D02*
X0107481Y0129453D01*
X0110462Y0127056D02*
X0104000Y0127056D01*
X0104000Y0128254D02*
X0131160Y0128254D01*
X0132359Y0129453D02*
X0122431Y0129453D01*
X0122445Y0129461D02*
X0122743Y0129759D01*
X0122953Y0130123D01*
X0123062Y0130530D01*
X0123062Y0132719D01*
X0119681Y0132719D01*
X0119681Y0129141D01*
X0121673Y0129141D01*
X0122080Y0129250D01*
X0122445Y0129461D01*
X0123062Y0130651D02*
X0134005Y0130651D01*
X0134600Y0128300D02*
X0132100Y0125800D01*
X0112600Y0125800D01*
X0110100Y0123300D01*
X0110100Y0119659D01*
X0109981Y0115800D02*
X0109981Y0115800D01*
X0106019Y0115800D01*
X0109981Y0115800D01*
X0109981Y0112060D02*
X0112860Y0112060D01*
X0115100Y0114300D01*
X0115100Y0121300D01*
X0117100Y0123300D01*
X0133100Y0123300D01*
X0135600Y0125800D01*
X0167600Y0125800D01*
X0171600Y0129800D01*
X0171600Y0170800D01*
X0171600Y0179300D01*
X0171600Y0182300D02*
X0171600Y0186300D01*
X0175088Y0185783D02*
X0178111Y0185783D01*
X0178111Y0186981D02*
X0175088Y0186981D01*
X0175874Y0188180D02*
X0178603Y0188180D01*
X0179916Y0189378D02*
X0177072Y0189378D01*
X0178271Y0190577D02*
X0184200Y0190577D01*
X0184200Y0191775D02*
X0178980Y0191775D01*
X0179000Y0192974D02*
X0184200Y0192974D01*
X0184200Y0194172D02*
X0179000Y0194172D01*
X0179000Y0195371D02*
X0184200Y0195371D01*
X0183335Y0196569D02*
X0179865Y0196569D01*
X0181063Y0197768D02*
X0182137Y0197768D01*
X0181623Y0198966D02*
X0181577Y0198966D01*
X0176600Y0200800D02*
X0176600Y0192300D01*
X0174100Y0189800D01*
X0149100Y0189800D01*
X0146600Y0187300D01*
X0146600Y0182300D01*
X0146600Y0179300D02*
X0146600Y0170800D01*
X0139100Y0163300D01*
X0139100Y0143800D01*
X0133600Y0138300D01*
X0111600Y0138300D01*
X0106938Y0135445D02*
X0104639Y0135445D01*
X0104000Y0134247D02*
X0106938Y0134247D01*
X0110565Y0127159D02*
X0110565Y0127159D01*
X0107700Y0123460D02*
X0104000Y0123460D01*
X0104000Y0122262D02*
X0106712Y0122262D01*
X0105819Y0121063D02*
X0104000Y0121063D01*
X0104000Y0119865D02*
X0105819Y0119865D01*
X0105819Y0118666D02*
X0104000Y0118666D01*
X0104000Y0117468D02*
X0106064Y0117468D01*
X0106019Y0116269D02*
X0104000Y0116269D01*
X0104000Y0115070D02*
X0106019Y0115070D01*
X0105819Y0113872D02*
X0104000Y0113872D01*
X0104000Y0112673D02*
X0105819Y0112673D01*
X0105819Y0111475D02*
X0104000Y0111475D01*
X0104000Y0110276D02*
X0105819Y0110276D01*
X0104000Y0109078D02*
X0107939Y0109078D01*
X0109126Y0107879D02*
X0104000Y0107879D01*
X0104000Y0106681D02*
X0110444Y0106681D01*
X0111600Y0108800D02*
X0109981Y0110419D01*
X0109981Y0112060D01*
X0111600Y0108800D02*
X0127600Y0108800D01*
X0129100Y0107300D01*
X0129100Y0105300D01*
X0134761Y0099639D01*
X0133643Y0097504D02*
X0133809Y0097339D01*
X0134043Y0097339D01*
X0134284Y0097239D01*
X0135239Y0097239D01*
X0135356Y0097287D01*
X0135356Y0097080D01*
X0137950Y0097080D01*
X0137950Y0097079D01*
X0135356Y0097079D01*
X0135356Y0096820D01*
X0131974Y0096820D01*
X0131959Y0096835D01*
X0131759Y0096918D01*
X0131759Y0098219D01*
X0128181Y0098219D01*
X0128181Y0099381D01*
X0131625Y0099381D01*
X0133402Y0097604D01*
X0133643Y0097504D01*
X0133070Y0097080D02*
X0131350Y0098800D01*
X0127600Y0098800D01*
X0127019Y0098291D02*
X0122459Y0098291D01*
X0122459Y0099490D02*
X0123441Y0099490D01*
X0123441Y0099381D02*
X0127019Y0099381D01*
X0127019Y0102762D01*
X0124830Y0102762D01*
X0124423Y0102653D01*
X0124059Y0102443D01*
X0123761Y0102145D01*
X0123550Y0101780D01*
X0123441Y0101373D01*
X0123441Y0099381D01*
X0123441Y0100688D02*
X0122459Y0100688D01*
X0122459Y0101887D02*
X0123612Y0101887D01*
X0127019Y0101887D02*
X0128181Y0101887D01*
X0128181Y0100688D02*
X0127019Y0100688D01*
X0127019Y0099490D02*
X0128181Y0099490D01*
X0128181Y0098291D02*
X0132715Y0098291D01*
X0133070Y0097080D02*
X0139706Y0097080D01*
X0135356Y0097093D02*
X0131759Y0097093D01*
X0130600Y0094800D02*
X0130880Y0094520D01*
X0134702Y0089402D02*
X0129100Y0084300D01*
X0122850Y0090800D02*
X0118100Y0090800D01*
X0114529Y0094696D02*
X0112171Y0094696D01*
X0112670Y0095894D02*
X0113741Y0095894D01*
X0113741Y0097093D02*
X0112759Y0097093D01*
X0113741Y0098291D02*
X0109181Y0098291D01*
X0109181Y0099381D02*
X0112759Y0099381D01*
X0112759Y0101373D01*
X0112650Y0101780D01*
X0112439Y0102145D01*
X0112141Y0102443D01*
X0111777Y0102653D01*
X0111370Y0102762D01*
X0109181Y0102762D01*
X0109181Y0099381D01*
X0109181Y0099490D02*
X0108019Y0099490D01*
X0108019Y0099381D02*
X0108019Y0102762D01*
X0105830Y0102762D01*
X0105423Y0102653D01*
X0105059Y0102443D01*
X0104761Y0102145D01*
X0104550Y0101780D01*
X0104441Y0101373D01*
X0104441Y0099381D01*
X0108019Y0099381D01*
X0108019Y0098291D02*
X0104000Y0098291D01*
X0104000Y0097093D02*
X0104441Y0097093D01*
X0104530Y0095894D02*
X0104000Y0095894D01*
X0104000Y0099490D02*
X0104441Y0099490D01*
X0104441Y0100688D02*
X0104000Y0100688D01*
X0104000Y0101887D02*
X0104612Y0101887D01*
X0104000Y0103085D02*
X0127921Y0103085D01*
X0126923Y0104284D02*
X0104000Y0104284D01*
X0104000Y0105482D02*
X0126700Y0105482D01*
X0131600Y0106300D02*
X0131600Y0108800D01*
X0128340Y0112060D01*
X0120219Y0112060D01*
X0120219Y0115800D02*
X0125600Y0115800D01*
X0128860Y0119540D02*
X0120219Y0119540D01*
X0119681Y0129453D02*
X0118519Y0129453D01*
X0118519Y0130651D02*
X0119681Y0130651D01*
X0119681Y0131850D02*
X0118519Y0131850D01*
X0119681Y0133048D02*
X0149519Y0133048D01*
X0149519Y0133881D02*
X0146138Y0133881D01*
X0146138Y0136070D01*
X0146247Y0136477D01*
X0146457Y0136841D01*
X0146755Y0137139D01*
X0147120Y0137350D01*
X0147527Y0137459D01*
X0149519Y0137459D01*
X0149519Y0133881D01*
X0149519Y0134247D02*
X0150681Y0134247D01*
X0150681Y0135445D02*
X0149519Y0135445D01*
X0149519Y0136644D02*
X0150681Y0136644D01*
X0153857Y0136644D02*
X0153977Y0136644D01*
X0158100Y0133300D02*
X0158100Y0128550D01*
X0158350Y0128300D01*
X0134600Y0128300D01*
X0137600Y0120800D02*
X0146138Y0120800D01*
X0146138Y0118881D01*
X0149519Y0118881D01*
X0149519Y0117719D01*
X0146138Y0117719D01*
X0146138Y0115530D01*
X0146247Y0115123D01*
X0146457Y0114759D01*
X0146755Y0114461D01*
X0147120Y0114250D01*
X0147527Y0114141D01*
X0149519Y0114141D01*
X0149519Y0117719D01*
X0150681Y0117719D01*
X0150681Y0114141D01*
X0151600Y0114141D01*
X0151600Y0113300D01*
X0136600Y0113300D01*
X0136600Y0119800D01*
X0137600Y0120800D01*
X0136665Y0119865D02*
X0146138Y0119865D01*
X0146138Y0117468D02*
X0136600Y0117468D01*
X0136600Y0118666D02*
X0149519Y0118666D01*
X0149519Y0117468D02*
X0150681Y0117468D01*
X0150681Y0116269D02*
X0149519Y0116269D01*
X0149519Y0115070D02*
X0150681Y0115070D01*
X0151600Y0113872D02*
X0136600Y0113872D01*
X0136600Y0115070D02*
X0146277Y0115070D01*
X0146138Y0116269D02*
X0136600Y0116269D01*
X0136600Y0112673D02*
X0151600Y0112673D01*
X0151600Y0111475D02*
X0136600Y0111475D01*
X0136600Y0110276D02*
X0151600Y0110276D01*
X0151600Y0109078D02*
X0136600Y0109078D01*
X0131600Y0106300D02*
X0135702Y0102198D01*
X0154000Y0101887D02*
X0164144Y0101887D01*
X0164144Y0103085D02*
X0154000Y0103085D01*
X0154000Y0104284D02*
X0164144Y0104284D01*
X0164144Y0105482D02*
X0154000Y0105482D01*
X0154000Y0106681D02*
X0163944Y0106681D01*
X0163944Y0107879D02*
X0154000Y0107879D01*
X0154000Y0109078D02*
X0163944Y0109078D01*
X0163944Y0110276D02*
X0154000Y0110276D01*
X0154000Y0111475D02*
X0164113Y0111475D01*
X0161445Y0114461D02*
X0161743Y0114759D01*
X0161953Y0115123D01*
X0162062Y0115530D01*
X0162062Y0117719D01*
X0158681Y0117719D01*
X0158681Y0114141D01*
X0160673Y0114141D01*
X0161080Y0114250D01*
X0161445Y0114461D01*
X0161923Y0115070D02*
X0174868Y0115070D01*
X0173669Y0113872D02*
X0154000Y0113872D01*
X0154000Y0112673D02*
X0172471Y0112673D01*
X0172844Y0104284D02*
X0194331Y0104284D01*
X0193285Y0105482D02*
X0195530Y0105482D01*
X0194484Y0106681D02*
X0196728Y0106681D01*
X0195682Y0107879D02*
X0197927Y0107879D01*
X0196881Y0109078D02*
X0199125Y0109078D01*
X0198079Y0110276D02*
X0200324Y0110276D01*
X0199278Y0111475D02*
X0201522Y0111475D01*
X0200476Y0112673D02*
X0224300Y0112673D01*
X0224300Y0111475D02*
X0221183Y0111475D01*
X0222409Y0110276D02*
X0224300Y0110276D01*
X0224300Y0109078D02*
X0223284Y0109078D01*
X0223780Y0107879D02*
X0224300Y0107879D01*
X0224300Y0106681D02*
X0224042Y0106681D01*
X0224042Y0105482D02*
X0224300Y0105482D01*
X0224300Y0104284D02*
X0223883Y0104284D01*
X0224300Y0103085D02*
X0223386Y0103085D01*
X0222657Y0101887D02*
X0224300Y0101887D01*
X0224300Y0100688D02*
X0221459Y0100688D01*
X0218889Y0099490D02*
X0224300Y0099490D01*
X0224300Y0098291D02*
X0204844Y0098291D01*
X0203645Y0097093D02*
X0224300Y0097093D01*
X0224300Y0095894D02*
X0202447Y0095894D01*
X0203457Y0094696D02*
X0224300Y0094696D01*
X0224300Y0093497D02*
X0204655Y0093497D01*
X0205854Y0092299D02*
X0224300Y0092299D01*
X0224300Y0091100D02*
X0221270Y0091100D01*
X0222469Y0089902D02*
X0224300Y0089902D01*
X0224300Y0088703D02*
X0223308Y0088703D01*
X0223805Y0087505D02*
X0224300Y0087505D01*
X0224300Y0086306D02*
X0224042Y0086306D01*
X0224042Y0085108D02*
X0224300Y0085108D01*
X0224300Y0083909D02*
X0223858Y0083909D01*
X0224300Y0082711D02*
X0223362Y0082711D01*
X0222598Y0081512D02*
X0224300Y0081512D01*
X0224300Y0080314D02*
X0221399Y0080314D01*
X0206855Y0099490D02*
X0206043Y0099490D01*
X0201675Y0113872D02*
X0224300Y0113872D01*
X0224300Y0115070D02*
X0202873Y0115070D01*
X0204072Y0116269D02*
X0224300Y0116269D01*
X0224300Y0117468D02*
X0205270Y0117468D01*
X0206469Y0118666D02*
X0224300Y0118666D01*
X0224300Y0119865D02*
X0220554Y0119865D01*
X0222148Y0121063D02*
X0224300Y0121063D01*
X0224300Y0122262D02*
X0223176Y0122262D01*
X0223672Y0123460D02*
X0224300Y0123460D01*
X0224300Y0124659D02*
X0224042Y0124659D01*
X0224042Y0125857D02*
X0224300Y0125857D01*
X0224300Y0127056D02*
X0223991Y0127056D01*
X0224300Y0128254D02*
X0223494Y0128254D01*
X0222918Y0129453D02*
X0224300Y0129453D01*
X0224300Y0130651D02*
X0221719Y0130651D01*
X0219518Y0131850D02*
X0224300Y0131850D01*
X0224300Y0133048D02*
X0176500Y0133048D01*
X0176500Y0131850D02*
X0201897Y0131850D01*
X0200698Y0130651D02*
X0176500Y0130651D01*
X0176500Y0129453D02*
X0199500Y0129453D01*
X0198301Y0128254D02*
X0176472Y0128254D01*
X0175750Y0127056D02*
X0197103Y0127056D01*
X0195904Y0125857D02*
X0174551Y0125857D01*
X0175459Y0126765D02*
X0175459Y0126765D01*
X0173353Y0124659D02*
X0194706Y0124659D01*
X0193507Y0123460D02*
X0172154Y0123460D01*
X0170956Y0122262D02*
X0192309Y0122262D01*
X0191110Y0121063D02*
X0169471Y0121063D01*
X0170635Y0121941D02*
X0170635Y0121941D01*
X0166600Y0128300D02*
X0158350Y0128300D01*
X0162262Y0131850D02*
X0166700Y0131850D01*
X0166700Y0133048D02*
X0162262Y0133048D01*
X0162262Y0134247D02*
X0166700Y0134247D01*
X0166700Y0135445D02*
X0162262Y0135445D01*
X0162223Y0136644D02*
X0166700Y0136644D01*
X0166700Y0137842D02*
X0136536Y0137842D01*
X0135338Y0136644D02*
X0146343Y0136644D01*
X0146138Y0135445D02*
X0123062Y0135445D01*
X0123062Y0134247D02*
X0146138Y0134247D01*
X0146138Y0131850D02*
X0123062Y0131850D01*
X0115769Y0129453D02*
X0114719Y0129453D01*
X0100065Y0144659D02*
X0100065Y0144659D01*
X0100439Y0145033D02*
X0003900Y0145033D01*
X0003900Y0143835D02*
X0099241Y0143835D01*
X0098042Y0142636D02*
X0003900Y0142636D01*
X0003900Y0141438D02*
X0096844Y0141438D01*
X0095645Y0140239D02*
X0003900Y0140239D01*
X0003900Y0139041D02*
X0094516Y0139041D01*
X0094200Y0137842D02*
X0003900Y0137842D01*
X0003900Y0136644D02*
X0094200Y0136644D01*
X0094200Y0135445D02*
X0003900Y0135445D01*
X0003900Y0134247D02*
X0094200Y0134247D01*
X0094200Y0133048D02*
X0003900Y0133048D01*
X0003900Y0131850D02*
X0094200Y0131850D01*
X0094200Y0130651D02*
X0003900Y0130651D01*
X0003900Y0129453D02*
X0094200Y0129453D01*
X0094200Y0128254D02*
X0003900Y0128254D01*
X0003900Y0127056D02*
X0094200Y0127056D01*
X0094200Y0125857D02*
X0003900Y0125857D01*
X0003900Y0124659D02*
X0094200Y0124659D01*
X0094200Y0123460D02*
X0003900Y0123460D01*
X0003900Y0122262D02*
X0094200Y0122262D01*
X0094200Y0121063D02*
X0003900Y0121063D01*
X0003900Y0119865D02*
X0094200Y0119865D01*
X0094200Y0118666D02*
X0003900Y0118666D01*
X0003900Y0117468D02*
X0094200Y0117468D01*
X0094200Y0116269D02*
X0003900Y0116269D01*
X0003900Y0115070D02*
X0094200Y0115070D01*
X0094200Y0113872D02*
X0003900Y0113872D01*
X0003900Y0112673D02*
X0094200Y0112673D01*
X0094200Y0111475D02*
X0003900Y0111475D01*
X0003900Y0110276D02*
X0094200Y0110276D01*
X0094200Y0109078D02*
X0003900Y0109078D01*
X0003900Y0107879D02*
X0094200Y0107879D01*
X0094200Y0106681D02*
X0003900Y0106681D01*
X0003900Y0105482D02*
X0094200Y0105482D01*
X0094200Y0104284D02*
X0003900Y0104284D01*
X0003900Y0103085D02*
X0094200Y0103085D01*
X0094200Y0101887D02*
X0003900Y0101887D01*
X0003900Y0100688D02*
X0094200Y0100688D01*
X0094200Y0099490D02*
X0003900Y0099490D01*
X0003900Y0098291D02*
X0094200Y0098291D01*
X0094200Y0097093D02*
X0003900Y0097093D01*
X0003900Y0095894D02*
X0094200Y0095894D01*
X0094200Y0094696D02*
X0003900Y0094696D01*
X0003900Y0093497D02*
X0094200Y0093497D01*
X0094200Y0092299D02*
X0003900Y0092299D01*
X0003900Y0091100D02*
X0094200Y0091100D01*
X0094200Y0089902D02*
X0003900Y0089902D01*
X0003900Y0088703D02*
X0094200Y0088703D01*
X0094200Y0087505D02*
X0003900Y0087505D01*
X0003900Y0086306D02*
X0094200Y0086306D01*
X0094200Y0085108D02*
X0003900Y0085108D01*
X0003900Y0083909D02*
X0094200Y0083909D01*
X0094200Y0082711D02*
X0003900Y0082711D01*
X0003900Y0081512D02*
X0094200Y0081512D01*
X0094200Y0080314D02*
X0003900Y0080314D01*
X0003900Y0079115D02*
X0094200Y0079115D01*
X0094200Y0077917D02*
X0003900Y0077917D01*
X0003900Y0076718D02*
X0094200Y0076718D01*
X0094200Y0075520D02*
X0003900Y0075520D01*
X0003900Y0074321D02*
X0094200Y0074321D01*
X0094200Y0073123D02*
X0003900Y0073123D01*
X0003900Y0071924D02*
X0094200Y0071924D01*
X0094200Y0070726D02*
X0003900Y0070726D01*
X0003900Y0069527D02*
X0059433Y0069527D01*
X0058234Y0068329D02*
X0003900Y0068329D01*
X0003900Y0067130D02*
X0057036Y0067130D01*
X0065013Y0052748D02*
X0072758Y0052748D01*
X0073200Y0051549D02*
X0072046Y0051549D01*
X0072081Y0050351D02*
X0073200Y0050351D01*
X0073200Y0049152D02*
X0072081Y0049152D01*
X0072081Y0047954D02*
X0073200Y0047954D01*
X0073200Y0046755D02*
X0072081Y0046755D01*
X0071552Y0045557D02*
X0073200Y0045557D01*
X0070681Y0044358D02*
X0069519Y0044358D01*
X0069519Y0044959D02*
X0067527Y0044959D01*
X0067120Y0044850D01*
X0066755Y0044639D01*
X0066457Y0044341D01*
X0066247Y0043977D01*
X0066138Y0043570D01*
X0066138Y0041381D01*
X0069519Y0041381D01*
X0069519Y0044959D01*
X0069519Y0043160D02*
X0070681Y0043160D01*
X0070681Y0041961D02*
X0069519Y0041961D01*
X0069519Y0040763D02*
X0061181Y0040763D01*
X0061181Y0040219D02*
X0064562Y0040219D01*
X0064562Y0038030D01*
X0064453Y0037623D01*
X0064243Y0037259D01*
X0063945Y0036961D01*
X0063580Y0036750D01*
X0063173Y0036641D01*
X0061181Y0036641D01*
X0061181Y0040219D01*
X0061181Y0039564D02*
X0060019Y0039564D01*
X0060019Y0038366D02*
X0061181Y0038366D01*
X0061181Y0037167D02*
X0060019Y0037167D01*
X0061181Y0041381D02*
X0064562Y0041381D01*
X0064562Y0043570D01*
X0064453Y0043977D01*
X0064243Y0044341D01*
X0063945Y0044639D01*
X0063580Y0044850D01*
X0063173Y0044959D01*
X0061181Y0044959D01*
X0061181Y0041381D01*
X0061181Y0041961D02*
X0060019Y0041961D01*
X0060019Y0043160D02*
X0061181Y0043160D01*
X0061181Y0044358D02*
X0060019Y0044358D01*
X0056974Y0044358D02*
X0056509Y0044358D01*
X0055751Y0045557D02*
X0066648Y0045557D01*
X0066474Y0044358D02*
X0064226Y0044358D01*
X0064562Y0043160D02*
X0066138Y0043160D01*
X0066138Y0041961D02*
X0064562Y0041961D01*
X0066138Y0040219D02*
X0066138Y0038030D01*
X0066247Y0037623D01*
X0066457Y0037259D01*
X0066755Y0036961D01*
X0067120Y0036750D01*
X0067527Y0036641D01*
X0069519Y0036641D01*
X0069519Y0040219D01*
X0066138Y0040219D01*
X0066138Y0039564D02*
X0064562Y0039564D01*
X0064562Y0038366D02*
X0066138Y0038366D01*
X0066549Y0037167D02*
X0064151Y0037167D01*
X0069519Y0037167D02*
X0070681Y0037167D01*
X0070681Y0038366D02*
X0069519Y0038366D01*
X0069519Y0039564D02*
X0070681Y0039564D01*
X0072137Y0034770D02*
X0049135Y0034770D01*
X0050334Y0033572D02*
X0071002Y0033572D01*
X0070267Y0032373D02*
X0051532Y0032373D01*
X0052731Y0031175D02*
X0070050Y0031175D01*
X0069983Y0029976D02*
X0053929Y0029976D01*
X0055128Y0028778D02*
X0060452Y0028778D01*
X0062748Y0028778D02*
X0070175Y0028778D01*
X0070654Y0027579D02*
X0065099Y0027579D01*
X0066277Y0026381D02*
X0071471Y0026381D01*
X0073662Y0025182D02*
X0066774Y0025182D01*
X0067100Y0023984D02*
X0075674Y0023984D01*
X0081469Y0022785D02*
X0067100Y0022785D01*
X0066843Y0021587D02*
X0081100Y0021587D01*
X0081100Y0020388D02*
X0066347Y0020388D01*
X0065268Y0019190D02*
X0081314Y0019190D01*
X0081810Y0017991D02*
X0063155Y0017991D01*
X0060045Y0017991D02*
X0043155Y0017991D01*
X0045268Y0019190D02*
X0052003Y0019190D01*
X0050507Y0020388D02*
X0046347Y0020388D01*
X0046843Y0021587D02*
X0049308Y0021587D01*
X0048109Y0022785D02*
X0047100Y0022785D01*
X0040045Y0017991D02*
X0019203Y0017991D01*
X0018707Y0016793D02*
X0082829Y0016793D01*
X0084796Y0015594D02*
X0017848Y0015594D01*
X0016650Y0014396D02*
X0214259Y0014396D01*
X0213141Y0013197D02*
X0014409Y0013197D01*
X0019699Y0019190D02*
X0034503Y0019190D01*
X0033007Y0020388D02*
X0019699Y0020388D01*
X0019699Y0021587D02*
X0031808Y0021587D01*
X0030609Y0022785D02*
X0019544Y0022785D01*
X0019048Y0023984D02*
X0029411Y0023984D01*
X0028212Y0025182D02*
X0018551Y0025182D01*
X0017473Y0026381D02*
X0027014Y0026381D01*
X0025815Y0027579D02*
X0016275Y0027579D01*
X0013504Y0028778D02*
X0024617Y0028778D01*
X0023418Y0029976D02*
X0003900Y0029976D01*
X0003900Y0028778D02*
X0009696Y0028778D01*
X0006925Y0027579D02*
X0003900Y0027579D01*
X0003900Y0026381D02*
X0005727Y0026381D01*
X0004649Y0025182D02*
X0003900Y0025182D01*
X0003900Y0023984D02*
X0004152Y0023984D01*
X0003900Y0031175D02*
X0022220Y0031175D01*
X0021021Y0032373D02*
X0003900Y0032373D01*
X0003900Y0033572D02*
X0019823Y0033572D01*
X0026841Y0039564D02*
X0037000Y0039564D01*
X0037000Y0038366D02*
X0028040Y0038366D01*
X0029238Y0037167D02*
X0037000Y0037167D01*
X0037000Y0035969D02*
X0030437Y0035969D01*
X0031635Y0034770D02*
X0037048Y0034770D01*
X0037544Y0033572D02*
X0032834Y0033572D01*
X0034032Y0032373D02*
X0038521Y0032373D01*
X0039720Y0031175D02*
X0035231Y0031175D01*
X0036429Y0029976D02*
X0040918Y0029976D01*
X0040452Y0028778D02*
X0037628Y0028778D01*
X0046738Y0037167D02*
X0048766Y0037167D01*
X0048438Y0038366D02*
X0046200Y0038366D01*
X0046200Y0039564D02*
X0048438Y0039564D01*
X0048438Y0040763D02*
X0046200Y0040763D01*
X0046200Y0041961D02*
X0048438Y0041961D01*
X0048438Y0043160D02*
X0046200Y0043160D01*
X0046664Y0044358D02*
X0048691Y0044358D01*
X0047862Y0045557D02*
X0050200Y0045557D01*
X0050398Y0046755D02*
X0049061Y0046755D01*
X0050259Y0047954D02*
X0051360Y0047954D01*
X0051458Y0049152D02*
X0052558Y0049152D01*
X0052600Y0045800D02*
X0056360Y0049560D01*
X0060931Y0049560D01*
X0065340Y0049560D01*
X0066100Y0048800D01*
X0069100Y0048800D01*
X0077519Y0039564D02*
X0078681Y0039564D01*
X0078681Y0038366D02*
X0077519Y0038366D01*
X0077519Y0037167D02*
X0078681Y0037167D01*
X0074537Y0035969D02*
X0047937Y0035969D01*
X0052600Y0040800D02*
X0052600Y0045800D01*
X0056434Y0037167D02*
X0057049Y0037167D01*
X0042043Y0052748D02*
X0003900Y0052748D01*
X0003900Y0053946D02*
X0043241Y0053946D01*
X0040844Y0051549D02*
X0003900Y0051549D01*
X0003900Y0050351D02*
X0039645Y0050351D01*
X0038447Y0049152D02*
X0003900Y0049152D01*
X0003900Y0047954D02*
X0037513Y0047954D01*
X0037017Y0046755D02*
X0023212Y0046755D01*
X0024835Y0045557D02*
X0037000Y0045557D01*
X0037000Y0044358D02*
X0025874Y0044358D01*
X0026370Y0043160D02*
X0037000Y0043160D01*
X0037000Y0041961D02*
X0026748Y0041961D01*
X0026748Y0040763D02*
X0037000Y0040763D01*
X0016178Y0055145D02*
X0014978Y0055145D01*
X0014978Y0056343D02*
X0016178Y0056343D01*
X0016178Y0057542D02*
X0014978Y0057542D01*
X0014978Y0058740D02*
X0016178Y0058740D01*
X0016178Y0059939D02*
X0014978Y0059939D01*
X0014978Y0061137D02*
X0003900Y0061137D01*
X0003900Y0059939D02*
X0004641Y0059939D01*
X0004903Y0058740D02*
X0003900Y0058740D01*
X0003900Y0057542D02*
X0005419Y0057542D01*
X0006304Y0056343D02*
X0003900Y0056343D01*
X0003900Y0055145D02*
X0007839Y0055145D01*
X0004835Y0062336D02*
X0003900Y0062336D01*
X0003900Y0063534D02*
X0005313Y0063534D01*
X0006097Y0064733D02*
X0003900Y0064733D01*
X0003900Y0065932D02*
X0007480Y0065932D01*
X0007944Y0046755D02*
X0003900Y0046755D01*
X0003900Y0045557D02*
X0006321Y0045557D01*
X0005283Y0044358D02*
X0003900Y0044358D01*
X0003900Y0043160D02*
X0004786Y0043160D01*
X0004408Y0041961D02*
X0003900Y0041961D01*
X0003900Y0040763D02*
X0004408Y0040763D01*
X0004451Y0039564D02*
X0003900Y0039564D01*
X0003900Y0038366D02*
X0004947Y0038366D01*
X0005512Y0037167D02*
X0003900Y0037167D01*
X0003900Y0035969D02*
X0006711Y0035969D01*
X0008884Y0034770D02*
X0003900Y0034770D01*
X0088404Y0015594D02*
X0094796Y0015594D01*
X0092829Y0016793D02*
X0090371Y0016793D01*
X0091390Y0017991D02*
X0091810Y0017991D01*
X0098404Y0015594D02*
X0104796Y0015594D01*
X0102829Y0016793D02*
X0100371Y0016793D01*
X0101390Y0017991D02*
X0101810Y0017991D01*
X0108404Y0015594D02*
X0115589Y0015594D01*
X0116200Y0015594D02*
X0117000Y0015594D01*
X0117000Y0015500D02*
X0117017Y0015500D01*
X0117841Y0015630D01*
X0118634Y0015888D01*
X0119378Y0016267D01*
X0120053Y0016757D01*
X0120643Y0017347D01*
X0121133Y0018022D01*
X0121512Y0018766D01*
X0121600Y0019037D01*
X0121688Y0018766D01*
X0122067Y0018022D01*
X0122557Y0017347D01*
X0123147Y0016757D01*
X0123822Y0016267D01*
X0124566Y0015888D01*
X0125359Y0015630D01*
X0126183Y0015500D01*
X0126200Y0015500D01*
X0126200Y0020400D01*
X0121300Y0020400D01*
X0117000Y0020400D01*
X0117000Y0015500D01*
X0117611Y0015594D02*
X0125589Y0015594D01*
X0126200Y0015594D02*
X0127000Y0015594D01*
X0127611Y0015594D02*
X0134796Y0015594D01*
X0132829Y0016793D02*
X0130088Y0016793D01*
X0131110Y0017991D02*
X0131810Y0017991D01*
X0127000Y0017991D02*
X0126200Y0017991D01*
X0126200Y0016793D02*
X0127000Y0016793D01*
X0127000Y0019190D02*
X0126200Y0019190D01*
X0126200Y0020388D02*
X0127000Y0020388D01*
X0123112Y0016793D02*
X0120088Y0016793D01*
X0121110Y0017991D02*
X0122090Y0017991D01*
X0117000Y0017991D02*
X0116200Y0017991D01*
X0116200Y0016793D02*
X0117000Y0016793D01*
X0117000Y0019190D02*
X0116200Y0019190D01*
X0116200Y0020388D02*
X0117000Y0020388D01*
X0113112Y0016793D02*
X0110371Y0016793D01*
X0111390Y0017991D02*
X0112090Y0017991D01*
X0106711Y0046755D02*
X0101489Y0046755D01*
X0102318Y0047954D02*
X0105882Y0047954D01*
X0105005Y0049152D02*
X0102588Y0049152D01*
X0102441Y0050351D02*
X0103953Y0050351D01*
X0103600Y0051549D02*
X0101784Y0051549D01*
X0103216Y0052748D02*
X0099984Y0052748D01*
X0101000Y0053946D02*
X0102200Y0053946D01*
X0101728Y0055145D02*
X0101472Y0055145D01*
X0098074Y0065932D02*
X0094700Y0065932D01*
X0093703Y0067130D02*
X0096876Y0067130D01*
X0102334Y0071960D02*
X0101500Y0072794D01*
X0101500Y0075506D01*
X0102000Y0075006D01*
X0102882Y0074640D01*
X0106032Y0074640D01*
X0106019Y0074593D01*
X0106019Y0073300D01*
X0106019Y0072007D01*
X0106032Y0071960D01*
X0102334Y0071960D01*
X0101500Y0073123D02*
X0106019Y0073123D01*
X0106019Y0073300D02*
X0109981Y0073300D01*
X0109981Y0073300D01*
X0106019Y0073300D01*
X0106019Y0074321D02*
X0101500Y0074321D01*
X0112959Y0088703D02*
X0113741Y0088703D01*
X0113741Y0089902D02*
X0112959Y0089902D01*
X0112959Y0091100D02*
X0113741Y0091100D01*
X0113741Y0092299D02*
X0112959Y0092299D01*
X0112959Y0093497D02*
X0113741Y0093497D01*
X0113741Y0099490D02*
X0112759Y0099490D01*
X0112759Y0100688D02*
X0113741Y0100688D01*
X0113741Y0101887D02*
X0112588Y0101887D01*
X0109181Y0101887D02*
X0108019Y0101887D01*
X0108019Y0100688D02*
X0109181Y0100688D01*
X0137735Y0139041D02*
X0166700Y0139041D01*
X0166700Y0140239D02*
X0138933Y0140239D01*
X0140132Y0141438D02*
X0166700Y0141438D01*
X0166700Y0142636D02*
X0141216Y0142636D01*
X0141500Y0143835D02*
X0166700Y0143835D01*
X0166700Y0145033D02*
X0141500Y0145033D01*
X0141500Y0146232D02*
X0166700Y0146232D01*
X0166700Y0147430D02*
X0141500Y0147430D01*
X0141500Y0148629D02*
X0166700Y0148629D01*
X0166700Y0149827D02*
X0141500Y0149827D01*
X0141500Y0151026D02*
X0166700Y0151026D01*
X0166700Y0152224D02*
X0141500Y0152224D01*
X0141500Y0153423D02*
X0166700Y0153423D01*
X0166700Y0154621D02*
X0141500Y0154621D01*
X0141500Y0155820D02*
X0166700Y0155820D01*
X0166700Y0157018D02*
X0141500Y0157018D01*
X0141500Y0158217D02*
X0166700Y0158217D01*
X0166700Y0159415D02*
X0141500Y0159415D01*
X0141500Y0160614D02*
X0166700Y0160614D01*
X0166700Y0161812D02*
X0141500Y0161812D01*
X0142205Y0163011D02*
X0165995Y0163011D01*
X0164796Y0164209D02*
X0143404Y0164209D01*
X0144602Y0165408D02*
X0163598Y0165408D01*
X0158298Y0166606D02*
X0149902Y0166606D01*
X0151096Y0167805D02*
X0157104Y0167805D01*
X0156607Y0169003D02*
X0151593Y0169003D01*
X0151900Y0170202D02*
X0156300Y0170202D01*
X0156300Y0171401D02*
X0151900Y0171401D01*
X0151591Y0172599D02*
X0156609Y0172599D01*
X0157105Y0173798D02*
X0151095Y0173798D01*
X0149899Y0174996D02*
X0158301Y0174996D01*
X0158961Y0176195D02*
X0149239Y0176195D01*
X0150564Y0177393D02*
X0157636Y0177393D01*
X0156835Y0178592D02*
X0151365Y0178592D01*
X0151686Y0179790D02*
X0156514Y0179790D01*
X0156458Y0180989D02*
X0151742Y0180989D01*
X0151612Y0182187D02*
X0156588Y0182187D01*
X0157099Y0183386D02*
X0151101Y0183386D01*
X0150379Y0184584D02*
X0157821Y0184584D01*
X0158111Y0185783D02*
X0149000Y0185783D01*
X0149675Y0186981D02*
X0158111Y0186981D01*
X0161600Y0186300D02*
X0161600Y0182300D01*
X0161600Y0179300D02*
X0161600Y0170800D01*
X0169100Y0163300D01*
X0169100Y0130800D01*
X0166600Y0128300D01*
X0162062Y0119865D02*
X0189912Y0119865D01*
X0188713Y0118666D02*
X0158681Y0118666D01*
X0158681Y0117468D02*
X0157519Y0117468D01*
X0157519Y0116269D02*
X0158681Y0116269D01*
X0158681Y0115070D02*
X0157519Y0115070D01*
X0154277Y0115070D02*
X0154262Y0115070D01*
X0162062Y0116269D02*
X0186316Y0116269D01*
X0187515Y0117468D02*
X0162062Y0117468D01*
X0168494Y0104284D02*
X0168494Y0104284D01*
X0168494Y0103085D02*
X0168494Y0103085D01*
X0172844Y0103085D02*
X0172883Y0103085D01*
X0163944Y0100688D02*
X0154000Y0100688D01*
X0154000Y0099490D02*
X0163944Y0099490D01*
X0163944Y0098291D02*
X0154000Y0098291D01*
X0154000Y0097093D02*
X0163944Y0097093D01*
X0163944Y0095894D02*
X0154000Y0095894D01*
X0154000Y0094696D02*
X0163944Y0094696D01*
X0163944Y0093497D02*
X0154000Y0093497D01*
X0154000Y0092299D02*
X0163944Y0092299D01*
X0163944Y0091100D02*
X0154000Y0091100D01*
X0154000Y0089902D02*
X0164144Y0089902D01*
X0164144Y0089402D02*
X0168494Y0089402D01*
X0168494Y0087117D01*
X0168494Y0086843D01*
X0164144Y0086843D01*
X0168494Y0086843D01*
X0168494Y0086843D01*
X0168494Y0086843D01*
X0168494Y0089402D01*
X0168494Y0089402D01*
X0164144Y0089402D01*
X0164144Y0088703D02*
X0154000Y0088703D01*
X0154000Y0087505D02*
X0164144Y0087505D01*
X0164144Y0086306D02*
X0154000Y0086306D01*
X0154000Y0085108D02*
X0163944Y0085108D01*
X0163944Y0083909D02*
X0154000Y0083909D01*
X0154000Y0082711D02*
X0163944Y0082711D01*
X0168494Y0087505D02*
X0168494Y0087505D01*
X0168494Y0088703D02*
X0168494Y0088703D01*
X0168494Y0089402D02*
X0168494Y0089402D01*
X0172844Y0088703D02*
X0172944Y0088703D01*
X0176500Y0134247D02*
X0224300Y0134247D01*
X0224300Y0135445D02*
X0176500Y0135445D01*
X0176500Y0136644D02*
X0224300Y0136644D01*
X0224300Y0137842D02*
X0176500Y0137842D01*
X0176500Y0139041D02*
X0224300Y0139041D01*
X0224300Y0140239D02*
X0176500Y0140239D01*
X0176500Y0141438D02*
X0224300Y0141438D01*
X0224300Y0142636D02*
X0176500Y0142636D01*
X0176500Y0143835D02*
X0212251Y0143835D01*
X0210913Y0145033D02*
X0176500Y0145033D01*
X0176500Y0146232D02*
X0209726Y0146232D01*
X0209229Y0147430D02*
X0176500Y0147430D01*
X0176500Y0148629D02*
X0208733Y0148629D01*
X0208501Y0149827D02*
X0176500Y0149827D01*
X0176500Y0151026D02*
X0208501Y0151026D01*
X0208501Y0152224D02*
X0176500Y0152224D01*
X0176500Y0153423D02*
X0208920Y0153423D01*
X0209416Y0154621D02*
X0176500Y0154621D01*
X0176500Y0155820D02*
X0210166Y0155820D01*
X0211364Y0157018D02*
X0176500Y0157018D01*
X0176500Y0158217D02*
X0213342Y0158217D01*
X0218938Y0164209D02*
X0178404Y0164209D01*
X0179602Y0165408D02*
X0217739Y0165408D01*
X0216541Y0166606D02*
X0199902Y0166606D01*
X0201096Y0167805D02*
X0215342Y0167805D01*
X0214300Y0169003D02*
X0201593Y0169003D01*
X0201900Y0170202D02*
X0214300Y0170202D01*
X0214300Y0171401D02*
X0201900Y0171401D01*
X0201591Y0172599D02*
X0214300Y0172599D01*
X0214300Y0173798D02*
X0201095Y0173798D01*
X0199899Y0174996D02*
X0214300Y0174996D01*
X0214300Y0176195D02*
X0199239Y0176195D01*
X0200564Y0177393D02*
X0214300Y0177393D01*
X0214300Y0178592D02*
X0201365Y0178592D01*
X0201686Y0179790D02*
X0214300Y0179790D01*
X0214300Y0180989D02*
X0201742Y0180989D01*
X0201612Y0182187D02*
X0214300Y0182187D01*
X0214300Y0183386D02*
X0201101Y0183386D01*
X0200379Y0184584D02*
X0214300Y0184584D01*
X0214300Y0185783D02*
X0198659Y0185783D01*
X0197313Y0186981D02*
X0214300Y0186981D01*
X0214300Y0188180D02*
X0195626Y0188180D01*
X0195100Y0185800D02*
X0191600Y0185800D01*
X0186600Y0190800D01*
X0186600Y0200800D01*
X0191577Y0198966D02*
X0191623Y0198966D01*
X0192137Y0197768D02*
X0191063Y0197768D01*
X0189865Y0196569D02*
X0193335Y0196569D01*
X0189000Y0195371D02*
X0214300Y0195371D01*
X0214300Y0196569D02*
X0209865Y0196569D01*
X0211063Y0197768D02*
X0214300Y0197768D01*
X0214300Y0198966D02*
X0211577Y0198966D01*
X0211900Y0200165D02*
X0214300Y0200165D01*
X0214300Y0201363D02*
X0211900Y0201363D01*
X0211607Y0202562D02*
X0214300Y0202562D01*
X0214300Y0203760D02*
X0211110Y0203760D01*
X0209936Y0204959D02*
X0214300Y0204959D01*
X0214300Y0206157D02*
X0211903Y0206157D01*
X0212100Y0207356D02*
X0214300Y0207356D01*
X0214300Y0208554D02*
X0212100Y0208554D01*
X0212100Y0209753D02*
X0214300Y0209753D01*
X0214300Y0210951D02*
X0212100Y0210951D01*
X0212100Y0212150D02*
X0214300Y0212150D01*
X0214300Y0213348D02*
X0212100Y0213348D01*
X0212100Y0214547D02*
X0213600Y0214547D01*
X0212402Y0215745D02*
X0211600Y0215745D01*
X0211203Y0216944D02*
X0021910Y0216944D01*
X0023109Y0215745D02*
X0048167Y0215745D01*
X0047484Y0215463D02*
X0049506Y0216300D01*
X0051694Y0216300D01*
X0053715Y0215463D01*
X0055263Y0213915D01*
X0055701Y0212858D01*
X0056067Y0213578D01*
X0056557Y0214253D01*
X0057147Y0214843D01*
X0057822Y0215333D01*
X0058566Y0215712D01*
X0059359Y0215969D01*
X0060183Y0216100D01*
X0060200Y0216100D01*
X0060200Y0211200D01*
X0061000Y0211200D01*
X0061000Y0216100D01*
X0061017Y0216100D01*
X0061841Y0215969D01*
X0062634Y0215712D01*
X0063378Y0215333D01*
X0064053Y0214843D01*
X0064643Y0214253D01*
X0065133Y0213578D01*
X0065499Y0212858D01*
X0065937Y0213915D01*
X0067484Y0215463D01*
X0069506Y0216300D01*
X0071694Y0216300D01*
X0073715Y0215463D01*
X0075263Y0213915D01*
X0075600Y0213101D01*
X0075937Y0213915D01*
X0077484Y0215463D01*
X0079506Y0216300D01*
X0081694Y0216300D01*
X0083715Y0215463D01*
X0085263Y0213915D01*
X0085600Y0213101D01*
X0085937Y0213915D01*
X0087484Y0215463D01*
X0089506Y0216300D01*
X0091694Y0216300D01*
X0093715Y0215463D01*
X0095263Y0213915D01*
X0095600Y0213101D01*
X0095937Y0213915D01*
X0097484Y0215463D01*
X0099506Y0216300D01*
X0101694Y0216300D01*
X0103715Y0215463D01*
X0105263Y0213915D01*
X0105600Y0213101D01*
X0105937Y0213915D01*
X0107484Y0215463D01*
X0109506Y0216300D01*
X0111694Y0216300D01*
X0113715Y0215463D01*
X0115100Y0214078D01*
X0115100Y0215246D01*
X0116154Y0216300D01*
X0125046Y0216300D01*
X0126100Y0215246D01*
X0126100Y0206354D01*
X0125046Y0205300D01*
X0123600Y0205300D01*
X0123600Y0205294D01*
X0123602Y0205293D01*
X0125093Y0203802D01*
X0125900Y0201854D01*
X0125900Y0199746D01*
X0125093Y0197798D01*
X0123602Y0196307D01*
X0121654Y0195500D01*
X0119546Y0195500D01*
X0117598Y0196307D01*
X0116107Y0197798D01*
X0115600Y0199022D01*
X0115093Y0197798D01*
X0113602Y0196307D01*
X0111654Y0195500D01*
X0109546Y0195500D01*
X0107598Y0196307D01*
X0106107Y0197798D01*
X0105600Y0199022D01*
X0105093Y0197798D01*
X0103602Y0196307D01*
X0101654Y0195500D01*
X0099546Y0195500D01*
X0097598Y0196307D01*
X0096107Y0197798D01*
X0095600Y0199022D01*
X0095093Y0197798D01*
X0093602Y0196307D01*
X0091654Y0195500D01*
X0089546Y0195500D01*
X0087598Y0196307D01*
X0086107Y0197798D01*
X0085600Y0199022D01*
X0085093Y0197798D01*
X0083602Y0196307D01*
X0081654Y0195500D01*
X0079546Y0195500D01*
X0077598Y0196307D01*
X0076107Y0197798D01*
X0075600Y0199022D01*
X0075093Y0197798D01*
X0073602Y0196307D01*
X0071654Y0195500D01*
X0069546Y0195500D01*
X0067598Y0196307D01*
X0066107Y0197798D01*
X0065300Y0199746D01*
X0065300Y0201854D01*
X0066107Y0203802D01*
X0067598Y0205293D01*
X0067600Y0205294D01*
X0067600Y0206089D01*
X0067484Y0206137D01*
X0065937Y0207684D01*
X0065499Y0208742D01*
X0065133Y0208022D01*
X0064643Y0207347D01*
X0064053Y0206757D01*
X0063378Y0206267D01*
X0062634Y0205888D01*
X0061841Y0205630D01*
X0061017Y0205500D01*
X0061000Y0205500D01*
X0061000Y0210400D01*
X0060200Y0210400D01*
X0060200Y0205500D01*
X0060183Y0205500D01*
X0059359Y0205630D01*
X0058566Y0205888D01*
X0057822Y0206267D01*
X0057147Y0206757D01*
X0056557Y0207347D01*
X0056067Y0208022D01*
X0055701Y0208742D01*
X0055263Y0207684D01*
X0053715Y0206137D01*
X0051694Y0205300D01*
X0049506Y0205300D01*
X0047484Y0206137D01*
X0045937Y0207684D01*
X0045100Y0209706D01*
X0045100Y0211894D01*
X0045937Y0213915D01*
X0047484Y0215463D01*
X0046569Y0214547D02*
X0023814Y0214547D01*
X0024311Y0213348D02*
X0045702Y0213348D01*
X0045206Y0212150D02*
X0024699Y0212150D01*
X0024699Y0210951D02*
X0045100Y0210951D01*
X0045100Y0209753D02*
X0024699Y0209753D01*
X0024436Y0208554D02*
X0045577Y0208554D01*
X0046266Y0207356D02*
X0023940Y0207356D01*
X0023411Y0206157D02*
X0047464Y0206157D01*
X0053736Y0206157D02*
X0058037Y0206157D01*
X0056551Y0207356D02*
X0054934Y0207356D01*
X0055623Y0208554D02*
X0055796Y0208554D01*
X0060200Y0208554D02*
X0061000Y0208554D01*
X0061000Y0207356D02*
X0060200Y0207356D01*
X0060200Y0206157D02*
X0061000Y0206157D01*
X0063163Y0206157D02*
X0067464Y0206157D01*
X0067264Y0204959D02*
X0022213Y0204959D01*
X0020769Y0203760D02*
X0066090Y0203760D01*
X0065593Y0202562D02*
X0003900Y0202562D01*
X0003900Y0203760D02*
X0012431Y0203760D01*
X0010987Y0204959D02*
X0003900Y0204959D01*
X0003900Y0206157D02*
X0009789Y0206157D01*
X0009260Y0207356D02*
X0003900Y0207356D01*
X0003900Y0208554D02*
X0008764Y0208554D01*
X0008501Y0209753D02*
X0003900Y0209753D01*
X0003900Y0210951D02*
X0008501Y0210951D01*
X0008501Y0212150D02*
X0003900Y0212150D01*
X0003900Y0213348D02*
X0008889Y0213348D01*
X0009386Y0214547D02*
X0003900Y0214547D01*
X0003900Y0215745D02*
X0010091Y0215745D01*
X0011290Y0216944D02*
X0003908Y0216944D01*
X0004546Y0218142D02*
X0013162Y0218142D01*
X0020038Y0218142D02*
X0210005Y0218142D01*
X0201600Y0215745D02*
X0199033Y0215745D01*
X0200631Y0214547D02*
X0201100Y0214547D01*
X0194167Y0215745D02*
X0189033Y0215745D01*
X0190631Y0214547D02*
X0192569Y0214547D01*
X0191702Y0213348D02*
X0191498Y0213348D01*
X0184167Y0215745D02*
X0179033Y0215745D01*
X0180631Y0214547D02*
X0182569Y0214547D01*
X0181702Y0213348D02*
X0181498Y0213348D01*
X0174167Y0215745D02*
X0169033Y0215745D01*
X0170631Y0214547D02*
X0172569Y0214547D01*
X0171702Y0213348D02*
X0171498Y0213348D01*
X0164167Y0215745D02*
X0159033Y0215745D01*
X0160631Y0214547D02*
X0162569Y0214547D01*
X0161702Y0213348D02*
X0161498Y0213348D01*
X0154167Y0215745D02*
X0149033Y0215745D01*
X0150631Y0214547D02*
X0152569Y0214547D01*
X0151702Y0213348D02*
X0151498Y0213348D01*
X0144167Y0215745D02*
X0139033Y0215745D01*
X0140631Y0214547D02*
X0142569Y0214547D01*
X0141702Y0213348D02*
X0141498Y0213348D01*
X0134167Y0215745D02*
X0125600Y0215745D01*
X0126100Y0214547D02*
X0132569Y0214547D01*
X0131702Y0213348D02*
X0126100Y0213348D01*
X0126100Y0212150D02*
X0131206Y0212150D01*
X0131100Y0210951D02*
X0126100Y0210951D01*
X0126100Y0209753D02*
X0131100Y0209753D01*
X0131577Y0208554D02*
X0126100Y0208554D01*
X0126100Y0207356D02*
X0132266Y0207356D01*
X0133464Y0206157D02*
X0125903Y0206157D01*
X0123936Y0204959D02*
X0133264Y0204959D01*
X0132090Y0203760D02*
X0125110Y0203760D01*
X0125607Y0202562D02*
X0131593Y0202562D01*
X0131300Y0201363D02*
X0125900Y0201363D01*
X0125900Y0200165D02*
X0131300Y0200165D01*
X0131623Y0198966D02*
X0125577Y0198966D01*
X0125063Y0197768D02*
X0132137Y0197768D01*
X0127475Y0196569D02*
X0123865Y0196569D01*
X0125078Y0194172D02*
X0003900Y0194172D01*
X0003900Y0192974D02*
X0124281Y0192974D01*
X0124200Y0191775D02*
X0003900Y0191775D01*
X0003900Y0190577D02*
X0124200Y0190577D01*
X0124200Y0189378D02*
X0003900Y0189378D01*
X0003900Y0188180D02*
X0124200Y0188180D01*
X0124200Y0186981D02*
X0003900Y0186981D01*
X0003900Y0185783D02*
X0124200Y0185783D01*
X0122821Y0184584D02*
X0003900Y0184584D01*
X0003900Y0183386D02*
X0122099Y0183386D01*
X0121588Y0182187D02*
X0003900Y0182187D01*
X0003900Y0180989D02*
X0121458Y0180989D01*
X0121514Y0179790D02*
X0003900Y0179790D01*
X0003900Y0178592D02*
X0121835Y0178592D01*
X0122636Y0177393D02*
X0003900Y0177393D01*
X0003900Y0176195D02*
X0123961Y0176195D01*
X0123301Y0174996D02*
X0003900Y0174996D01*
X0003900Y0173798D02*
X0122105Y0173798D01*
X0121609Y0172599D02*
X0003900Y0172599D01*
X0003900Y0171401D02*
X0121300Y0171401D01*
X0121300Y0170202D02*
X0003900Y0170202D01*
X0003900Y0169003D02*
X0121607Y0169003D01*
X0122104Y0167805D02*
X0003900Y0167805D01*
X0003900Y0166606D02*
X0123298Y0166606D01*
X0128598Y0165408D02*
X0003900Y0165408D01*
X0003900Y0164209D02*
X0129796Y0164209D01*
X0130995Y0163011D02*
X0003900Y0163011D01*
X0003900Y0161812D02*
X0131700Y0161812D01*
X0131700Y0160614D02*
X0003900Y0160614D01*
X0003900Y0159415D02*
X0131700Y0159415D01*
X0131700Y0158217D02*
X0003900Y0158217D01*
X0003900Y0157018D02*
X0131700Y0157018D01*
X0131700Y0155820D02*
X0003900Y0155820D01*
X0003900Y0154621D02*
X0131700Y0154621D01*
X0131700Y0153423D02*
X0003900Y0153423D01*
X0003900Y0152224D02*
X0131700Y0152224D01*
X0131700Y0151026D02*
X0003900Y0151026D01*
X0003900Y0149827D02*
X0131700Y0149827D01*
X0131700Y0148629D02*
X0003900Y0148629D01*
X0003900Y0147430D02*
X0131700Y0147430D01*
X0131138Y0146232D02*
X0003900Y0146232D01*
X0003900Y0195371D02*
X0126277Y0195371D01*
X0117335Y0196569D02*
X0113865Y0196569D01*
X0115063Y0197768D02*
X0116137Y0197768D01*
X0115623Y0198966D02*
X0115577Y0198966D01*
X0107335Y0196569D02*
X0103865Y0196569D01*
X0105063Y0197768D02*
X0106137Y0197768D01*
X0105623Y0198966D02*
X0105577Y0198966D01*
X0097335Y0196569D02*
X0093865Y0196569D01*
X0095063Y0197768D02*
X0096137Y0197768D01*
X0095623Y0198966D02*
X0095577Y0198966D01*
X0087335Y0196569D02*
X0083865Y0196569D01*
X0085063Y0197768D02*
X0086137Y0197768D01*
X0085623Y0198966D02*
X0085577Y0198966D01*
X0077335Y0196569D02*
X0073865Y0196569D01*
X0075063Y0197768D02*
X0076137Y0197768D01*
X0075623Y0198966D02*
X0075577Y0198966D01*
X0067335Y0196569D02*
X0003900Y0196569D01*
X0003900Y0197768D02*
X0066137Y0197768D01*
X0065623Y0198966D02*
X0003900Y0198966D01*
X0003900Y0200165D02*
X0065300Y0200165D01*
X0065300Y0201363D02*
X0003900Y0201363D01*
X0053033Y0215745D02*
X0058669Y0215745D01*
X0060200Y0215745D02*
X0061000Y0215745D01*
X0061000Y0214547D02*
X0060200Y0214547D01*
X0060200Y0213348D02*
X0061000Y0213348D01*
X0061000Y0212150D02*
X0060200Y0212150D01*
X0060200Y0209753D02*
X0061000Y0209753D01*
X0064649Y0207356D02*
X0066266Y0207356D01*
X0065577Y0208554D02*
X0065404Y0208554D01*
X0065250Y0213348D02*
X0065702Y0213348D01*
X0066569Y0214547D02*
X0064348Y0214547D01*
X0062531Y0215745D02*
X0068167Y0215745D01*
X0073033Y0215745D02*
X0078167Y0215745D01*
X0076569Y0214547D02*
X0074631Y0214547D01*
X0075498Y0213348D02*
X0075702Y0213348D01*
X0083033Y0215745D02*
X0088167Y0215745D01*
X0086569Y0214547D02*
X0084631Y0214547D01*
X0085498Y0213348D02*
X0085702Y0213348D01*
X0093033Y0215745D02*
X0098167Y0215745D01*
X0096569Y0214547D02*
X0094631Y0214547D01*
X0095498Y0213348D02*
X0095702Y0213348D01*
X0103033Y0215745D02*
X0108167Y0215745D01*
X0106569Y0214547D02*
X0104631Y0214547D01*
X0105498Y0213348D02*
X0105702Y0213348D01*
X0113033Y0215745D02*
X0115600Y0215745D01*
X0115100Y0214547D02*
X0114631Y0214547D01*
X0056852Y0214547D02*
X0054631Y0214547D01*
X0055498Y0213348D02*
X0055950Y0213348D01*
X0175379Y0184584D02*
X0177821Y0184584D01*
X0177099Y0183386D02*
X0176101Y0183386D01*
X0183284Y0189378D02*
X0184628Y0189378D01*
X0184597Y0188180D02*
X0185826Y0188180D01*
X0185088Y0186981D02*
X0187025Y0186981D01*
X0188223Y0185783D02*
X0185088Y0185783D01*
X0185379Y0184584D02*
X0189422Y0184584D01*
X0192099Y0183386D02*
X0186101Y0183386D01*
X0186612Y0182187D02*
X0191588Y0182187D01*
X0191458Y0180989D02*
X0186742Y0180989D01*
X0186686Y0179790D02*
X0191514Y0179790D01*
X0191835Y0178592D02*
X0186365Y0178592D01*
X0185564Y0177393D02*
X0192636Y0177393D01*
X0193961Y0176195D02*
X0184239Y0176195D01*
X0184899Y0174996D02*
X0193301Y0174996D01*
X0192105Y0173798D02*
X0186095Y0173798D01*
X0186591Y0172599D02*
X0191609Y0172599D01*
X0191300Y0171401D02*
X0186900Y0171401D01*
X0186900Y0170202D02*
X0191300Y0170202D01*
X0191607Y0169003D02*
X0186593Y0169003D01*
X0186096Y0167805D02*
X0192104Y0167805D01*
X0193298Y0166606D02*
X0184902Y0166606D01*
X0177205Y0163011D02*
X0220136Y0163011D01*
X0221335Y0161812D02*
X0176500Y0161812D01*
X0176500Y0160614D02*
X0222533Y0160614D01*
X0223732Y0159415D02*
X0176500Y0159415D01*
X0196600Y0170800D02*
X0196600Y0179300D01*
X0196600Y0182300D02*
X0196600Y0184300D01*
X0195100Y0185800D01*
X0191416Y0189378D02*
X0214300Y0189378D01*
X0214300Y0190577D02*
X0190217Y0190577D01*
X0189019Y0191775D02*
X0214300Y0191775D01*
X0214300Y0192974D02*
X0189000Y0192974D01*
X0189000Y0194172D02*
X0214300Y0194172D01*
X0203335Y0196569D02*
X0199865Y0196569D01*
X0201063Y0197768D02*
X0202137Y0197768D01*
X0201623Y0198966D02*
X0201577Y0198966D01*
X0219858Y0158217D02*
X0224300Y0158217D01*
X0224300Y0157018D02*
X0221836Y0157018D01*
X0223034Y0155820D02*
X0224300Y0155820D01*
X0224300Y0154621D02*
X0223784Y0154621D01*
X0224280Y0153423D02*
X0224300Y0153423D01*
X0224300Y0147430D02*
X0223971Y0147430D01*
X0224300Y0146232D02*
X0223474Y0146232D01*
X0224300Y0145033D02*
X0222287Y0145033D01*
X0220949Y0143835D02*
X0224300Y0143835D01*
D26*
X0209100Y0170800D03*
X0209100Y0178300D03*
X0157850Y0143300D03*
X0150350Y0143300D03*
X0154100Y0155800D03*
X0154100Y0163300D03*
X0126600Y0133300D03*
X0106600Y0127050D03*
X0091600Y0127050D03*
X0091600Y0104550D03*
X0113350Y0104550D03*
X0122350Y0104550D03*
X0106600Y0082800D03*
X0091600Y0064300D03*
X0116600Y0058550D03*
X0144100Y0020800D03*
X0149100Y0020800D03*
X0169100Y0055800D03*
X0176600Y0055800D03*
X0161600Y0080800D03*
X0156600Y0085800D03*
X0161600Y0090800D03*
X0156600Y0095800D03*
X0161600Y0100800D03*
X0156600Y0105800D03*
X0161600Y0110800D03*
X0169100Y0108550D03*
X0169100Y0103550D03*
X0169100Y0098300D03*
X0169100Y0093300D03*
X0174100Y0093300D03*
X0174100Y0098300D03*
X0174100Y0108550D03*
X0169100Y0088050D03*
X0169100Y0083050D03*
X0174100Y0083050D03*
X0211600Y0075800D03*
X0211600Y0095800D03*
X0211600Y0115800D03*
X0128600Y0203300D03*
X0128600Y0210800D03*
X0039100Y0210800D03*
X0031600Y0210800D03*
X0041600Y0068300D03*
X0049100Y0068300D03*
X0049100Y0053300D03*
X0046600Y0050800D03*
X0071600Y0020800D03*
X0079100Y0020800D03*
D27*
X0156600Y0030800D03*
X0166600Y0030800D03*
X0176600Y0030800D03*
X0186600Y0030800D03*
X0196600Y0030800D03*
X0206600Y0030800D03*
X0196600Y0170800D03*
X0181600Y0170800D03*
X0171600Y0170800D03*
X0161600Y0170800D03*
X0146600Y0170800D03*
X0136600Y0170800D03*
X0126600Y0170800D03*
X0120600Y0200800D03*
X0110600Y0200800D03*
X0100600Y0200800D03*
X0090600Y0200800D03*
X0080600Y0200800D03*
X0070600Y0200800D03*
X0136600Y0200800D03*
X0146600Y0200800D03*
X0156600Y0200800D03*
X0166600Y0200800D03*
X0176600Y0200800D03*
X0186600Y0200800D03*
X0196600Y0200800D03*
X0206600Y0200800D03*
D28*
X0133761Y0091961D02*
X0132761Y0091961D01*
X0131600Y0090800D01*
X0127600Y0090800D01*
X0122850Y0090800D01*
X0052269Y0053300D02*
X0049100Y0053300D01*
D29*
X0046600Y0050800D01*
X0041600Y0045800D01*
X0041600Y0035800D01*
X0054100Y0023300D01*
X0061600Y0023300D01*
X0041600Y0023300D02*
X0036600Y0023300D01*
X0018943Y0040957D01*
X0015578Y0040957D01*
M02*
