G75*
%MOIN*%
%OFA0B0*%
%FSLAX25Y25*%
%IPPOS*%
%LPD*%
%AMOC8*
5,1,8,0,0,1.08239X$1,22.5*
%
%ADD10C,0.01000*%
%ADD11C,0.00000*%
%ADD12C,0.01200*%
%ADD13C,0.00600*%
D10*
X0005537Y0010800D02*
X0212663Y0010800D01*
X0212787Y0010802D01*
X0212910Y0010808D01*
X0213034Y0010817D01*
X0213156Y0010831D01*
X0213279Y0010848D01*
X0213401Y0010870D01*
X0213522Y0010895D01*
X0213642Y0010924D01*
X0213761Y0010956D01*
X0213880Y0010993D01*
X0213997Y0011033D01*
X0214112Y0011076D01*
X0214227Y0011124D01*
X0214339Y0011175D01*
X0214450Y0011229D01*
X0214560Y0011287D01*
X0214667Y0011348D01*
X0214773Y0011413D01*
X0214876Y0011481D01*
X0214977Y0011552D01*
X0215076Y0011626D01*
X0215173Y0011703D01*
X0215267Y0011784D01*
X0215358Y0011867D01*
X0215447Y0011953D01*
X0215533Y0012042D01*
X0215616Y0012133D01*
X0215697Y0012227D01*
X0215774Y0012324D01*
X0215848Y0012423D01*
X0215919Y0012524D01*
X0215987Y0012627D01*
X0216052Y0012733D01*
X0216113Y0012840D01*
X0216171Y0012950D01*
X0216225Y0013061D01*
X0216276Y0013173D01*
X0216324Y0013288D01*
X0216367Y0013403D01*
X0216407Y0013520D01*
X0216444Y0013639D01*
X0216476Y0013758D01*
X0216505Y0013878D01*
X0216530Y0013999D01*
X0216552Y0014121D01*
X0216569Y0014244D01*
X0216583Y0014366D01*
X0216592Y0014490D01*
X0216598Y0014613D01*
X0216600Y0014737D01*
X0216600Y0020800D01*
X0226600Y0030800D01*
X0226600Y0159800D01*
X0216600Y0169800D01*
X0216600Y0214800D01*
X0210600Y0220800D01*
X0005537Y0220800D01*
X0005413Y0220798D01*
X0005290Y0220792D01*
X0005166Y0220783D01*
X0005044Y0220769D01*
X0004921Y0220752D01*
X0004799Y0220730D01*
X0004678Y0220705D01*
X0004558Y0220676D01*
X0004439Y0220644D01*
X0004320Y0220607D01*
X0004203Y0220567D01*
X0004088Y0220524D01*
X0003973Y0220476D01*
X0003861Y0220425D01*
X0003750Y0220371D01*
X0003640Y0220313D01*
X0003533Y0220252D01*
X0003427Y0220187D01*
X0003324Y0220119D01*
X0003223Y0220048D01*
X0003124Y0219974D01*
X0003027Y0219897D01*
X0002933Y0219816D01*
X0002842Y0219733D01*
X0002753Y0219647D01*
X0002667Y0219558D01*
X0002584Y0219467D01*
X0002503Y0219373D01*
X0002426Y0219276D01*
X0002352Y0219177D01*
X0002281Y0219076D01*
X0002213Y0218973D01*
X0002148Y0218867D01*
X0002087Y0218760D01*
X0002029Y0218650D01*
X0001975Y0218539D01*
X0001924Y0218427D01*
X0001876Y0218312D01*
X0001833Y0218197D01*
X0001793Y0218080D01*
X0001756Y0217961D01*
X0001724Y0217842D01*
X0001695Y0217722D01*
X0001670Y0217601D01*
X0001648Y0217479D01*
X0001631Y0217356D01*
X0001617Y0217234D01*
X0001608Y0217110D01*
X0001602Y0216987D01*
X0001600Y0216863D01*
X0001600Y0014737D01*
X0001602Y0014613D01*
X0001608Y0014490D01*
X0001617Y0014366D01*
X0001631Y0014244D01*
X0001648Y0014121D01*
X0001670Y0013999D01*
X0001695Y0013878D01*
X0001724Y0013758D01*
X0001756Y0013639D01*
X0001793Y0013520D01*
X0001833Y0013403D01*
X0001876Y0013288D01*
X0001924Y0013173D01*
X0001975Y0013061D01*
X0002029Y0012950D01*
X0002087Y0012840D01*
X0002148Y0012733D01*
X0002213Y0012627D01*
X0002281Y0012524D01*
X0002352Y0012423D01*
X0002426Y0012324D01*
X0002503Y0012227D01*
X0002584Y0012133D01*
X0002667Y0012042D01*
X0002753Y0011953D01*
X0002842Y0011867D01*
X0002933Y0011784D01*
X0003027Y0011703D01*
X0003124Y0011626D01*
X0003223Y0011552D01*
X0003324Y0011481D01*
X0003427Y0011413D01*
X0003533Y0011348D01*
X0003640Y0011287D01*
X0003750Y0011229D01*
X0003861Y0011175D01*
X0003973Y0011124D01*
X0004088Y0011076D01*
X0004203Y0011033D01*
X0004320Y0010993D01*
X0004439Y0010956D01*
X0004558Y0010924D01*
X0004678Y0010895D01*
X0004799Y0010870D01*
X0004921Y0010848D01*
X0005044Y0010831D01*
X0005166Y0010817D01*
X0005290Y0010808D01*
X0005413Y0010802D01*
X0005537Y0010800D01*
D11*
X0005301Y0020800D02*
X0005303Y0020958D01*
X0005309Y0021116D01*
X0005319Y0021274D01*
X0005333Y0021432D01*
X0005351Y0021589D01*
X0005372Y0021746D01*
X0005398Y0021902D01*
X0005428Y0022058D01*
X0005461Y0022213D01*
X0005499Y0022366D01*
X0005540Y0022519D01*
X0005585Y0022671D01*
X0005634Y0022822D01*
X0005687Y0022971D01*
X0005743Y0023119D01*
X0005803Y0023265D01*
X0005867Y0023410D01*
X0005935Y0023553D01*
X0006006Y0023695D01*
X0006080Y0023835D01*
X0006158Y0023972D01*
X0006240Y0024108D01*
X0006324Y0024242D01*
X0006413Y0024373D01*
X0006504Y0024502D01*
X0006599Y0024629D01*
X0006696Y0024754D01*
X0006797Y0024876D01*
X0006901Y0024995D01*
X0007008Y0025112D01*
X0007118Y0025226D01*
X0007231Y0025337D01*
X0007346Y0025446D01*
X0007464Y0025551D01*
X0007585Y0025653D01*
X0007708Y0025753D01*
X0007834Y0025849D01*
X0007962Y0025942D01*
X0008092Y0026032D01*
X0008225Y0026118D01*
X0008360Y0026202D01*
X0008496Y0026281D01*
X0008635Y0026358D01*
X0008776Y0026430D01*
X0008918Y0026500D01*
X0009062Y0026565D01*
X0009208Y0026627D01*
X0009355Y0026685D01*
X0009504Y0026740D01*
X0009654Y0026791D01*
X0009805Y0026838D01*
X0009957Y0026881D01*
X0010110Y0026920D01*
X0010265Y0026956D01*
X0010420Y0026987D01*
X0010576Y0027015D01*
X0010732Y0027039D01*
X0010889Y0027059D01*
X0011047Y0027075D01*
X0011204Y0027087D01*
X0011363Y0027095D01*
X0011521Y0027099D01*
X0011679Y0027099D01*
X0011837Y0027095D01*
X0011996Y0027087D01*
X0012153Y0027075D01*
X0012311Y0027059D01*
X0012468Y0027039D01*
X0012624Y0027015D01*
X0012780Y0026987D01*
X0012935Y0026956D01*
X0013090Y0026920D01*
X0013243Y0026881D01*
X0013395Y0026838D01*
X0013546Y0026791D01*
X0013696Y0026740D01*
X0013845Y0026685D01*
X0013992Y0026627D01*
X0014138Y0026565D01*
X0014282Y0026500D01*
X0014424Y0026430D01*
X0014565Y0026358D01*
X0014704Y0026281D01*
X0014840Y0026202D01*
X0014975Y0026118D01*
X0015108Y0026032D01*
X0015238Y0025942D01*
X0015366Y0025849D01*
X0015492Y0025753D01*
X0015615Y0025653D01*
X0015736Y0025551D01*
X0015854Y0025446D01*
X0015969Y0025337D01*
X0016082Y0025226D01*
X0016192Y0025112D01*
X0016299Y0024995D01*
X0016403Y0024876D01*
X0016504Y0024754D01*
X0016601Y0024629D01*
X0016696Y0024502D01*
X0016787Y0024373D01*
X0016876Y0024242D01*
X0016960Y0024108D01*
X0017042Y0023972D01*
X0017120Y0023835D01*
X0017194Y0023695D01*
X0017265Y0023553D01*
X0017333Y0023410D01*
X0017397Y0023265D01*
X0017457Y0023119D01*
X0017513Y0022971D01*
X0017566Y0022822D01*
X0017615Y0022671D01*
X0017660Y0022519D01*
X0017701Y0022366D01*
X0017739Y0022213D01*
X0017772Y0022058D01*
X0017802Y0021902D01*
X0017828Y0021746D01*
X0017849Y0021589D01*
X0017867Y0021432D01*
X0017881Y0021274D01*
X0017891Y0021116D01*
X0017897Y0020958D01*
X0017899Y0020800D01*
X0017897Y0020642D01*
X0017891Y0020484D01*
X0017881Y0020326D01*
X0017867Y0020168D01*
X0017849Y0020011D01*
X0017828Y0019854D01*
X0017802Y0019698D01*
X0017772Y0019542D01*
X0017739Y0019387D01*
X0017701Y0019234D01*
X0017660Y0019081D01*
X0017615Y0018929D01*
X0017566Y0018778D01*
X0017513Y0018629D01*
X0017457Y0018481D01*
X0017397Y0018335D01*
X0017333Y0018190D01*
X0017265Y0018047D01*
X0017194Y0017905D01*
X0017120Y0017765D01*
X0017042Y0017628D01*
X0016960Y0017492D01*
X0016876Y0017358D01*
X0016787Y0017227D01*
X0016696Y0017098D01*
X0016601Y0016971D01*
X0016504Y0016846D01*
X0016403Y0016724D01*
X0016299Y0016605D01*
X0016192Y0016488D01*
X0016082Y0016374D01*
X0015969Y0016263D01*
X0015854Y0016154D01*
X0015736Y0016049D01*
X0015615Y0015947D01*
X0015492Y0015847D01*
X0015366Y0015751D01*
X0015238Y0015658D01*
X0015108Y0015568D01*
X0014975Y0015482D01*
X0014840Y0015398D01*
X0014704Y0015319D01*
X0014565Y0015242D01*
X0014424Y0015170D01*
X0014282Y0015100D01*
X0014138Y0015035D01*
X0013992Y0014973D01*
X0013845Y0014915D01*
X0013696Y0014860D01*
X0013546Y0014809D01*
X0013395Y0014762D01*
X0013243Y0014719D01*
X0013090Y0014680D01*
X0012935Y0014644D01*
X0012780Y0014613D01*
X0012624Y0014585D01*
X0012468Y0014561D01*
X0012311Y0014541D01*
X0012153Y0014525D01*
X0011996Y0014513D01*
X0011837Y0014505D01*
X0011679Y0014501D01*
X0011521Y0014501D01*
X0011363Y0014505D01*
X0011204Y0014513D01*
X0011047Y0014525D01*
X0010889Y0014541D01*
X0010732Y0014561D01*
X0010576Y0014585D01*
X0010420Y0014613D01*
X0010265Y0014644D01*
X0010110Y0014680D01*
X0009957Y0014719D01*
X0009805Y0014762D01*
X0009654Y0014809D01*
X0009504Y0014860D01*
X0009355Y0014915D01*
X0009208Y0014973D01*
X0009062Y0015035D01*
X0008918Y0015100D01*
X0008776Y0015170D01*
X0008635Y0015242D01*
X0008496Y0015319D01*
X0008360Y0015398D01*
X0008225Y0015482D01*
X0008092Y0015568D01*
X0007962Y0015658D01*
X0007834Y0015751D01*
X0007708Y0015847D01*
X0007585Y0015947D01*
X0007464Y0016049D01*
X0007346Y0016154D01*
X0007231Y0016263D01*
X0007118Y0016374D01*
X0007008Y0016488D01*
X0006901Y0016605D01*
X0006797Y0016724D01*
X0006696Y0016846D01*
X0006599Y0016971D01*
X0006504Y0017098D01*
X0006413Y0017227D01*
X0006324Y0017358D01*
X0006240Y0017492D01*
X0006158Y0017628D01*
X0006080Y0017765D01*
X0006006Y0017905D01*
X0005935Y0018047D01*
X0005867Y0018190D01*
X0005803Y0018335D01*
X0005743Y0018481D01*
X0005687Y0018629D01*
X0005634Y0018778D01*
X0005585Y0018929D01*
X0005540Y0019081D01*
X0005499Y0019234D01*
X0005461Y0019387D01*
X0005428Y0019542D01*
X0005398Y0019698D01*
X0005372Y0019854D01*
X0005351Y0020011D01*
X0005333Y0020168D01*
X0005319Y0020326D01*
X0005309Y0020484D01*
X0005303Y0020642D01*
X0005301Y0020800D01*
X0010301Y0210800D02*
X0010303Y0210958D01*
X0010309Y0211116D01*
X0010319Y0211274D01*
X0010333Y0211432D01*
X0010351Y0211589D01*
X0010372Y0211746D01*
X0010398Y0211902D01*
X0010428Y0212058D01*
X0010461Y0212213D01*
X0010499Y0212366D01*
X0010540Y0212519D01*
X0010585Y0212671D01*
X0010634Y0212822D01*
X0010687Y0212971D01*
X0010743Y0213119D01*
X0010803Y0213265D01*
X0010867Y0213410D01*
X0010935Y0213553D01*
X0011006Y0213695D01*
X0011080Y0213835D01*
X0011158Y0213972D01*
X0011240Y0214108D01*
X0011324Y0214242D01*
X0011413Y0214373D01*
X0011504Y0214502D01*
X0011599Y0214629D01*
X0011696Y0214754D01*
X0011797Y0214876D01*
X0011901Y0214995D01*
X0012008Y0215112D01*
X0012118Y0215226D01*
X0012231Y0215337D01*
X0012346Y0215446D01*
X0012464Y0215551D01*
X0012585Y0215653D01*
X0012708Y0215753D01*
X0012834Y0215849D01*
X0012962Y0215942D01*
X0013092Y0216032D01*
X0013225Y0216118D01*
X0013360Y0216202D01*
X0013496Y0216281D01*
X0013635Y0216358D01*
X0013776Y0216430D01*
X0013918Y0216500D01*
X0014062Y0216565D01*
X0014208Y0216627D01*
X0014355Y0216685D01*
X0014504Y0216740D01*
X0014654Y0216791D01*
X0014805Y0216838D01*
X0014957Y0216881D01*
X0015110Y0216920D01*
X0015265Y0216956D01*
X0015420Y0216987D01*
X0015576Y0217015D01*
X0015732Y0217039D01*
X0015889Y0217059D01*
X0016047Y0217075D01*
X0016204Y0217087D01*
X0016363Y0217095D01*
X0016521Y0217099D01*
X0016679Y0217099D01*
X0016837Y0217095D01*
X0016996Y0217087D01*
X0017153Y0217075D01*
X0017311Y0217059D01*
X0017468Y0217039D01*
X0017624Y0217015D01*
X0017780Y0216987D01*
X0017935Y0216956D01*
X0018090Y0216920D01*
X0018243Y0216881D01*
X0018395Y0216838D01*
X0018546Y0216791D01*
X0018696Y0216740D01*
X0018845Y0216685D01*
X0018992Y0216627D01*
X0019138Y0216565D01*
X0019282Y0216500D01*
X0019424Y0216430D01*
X0019565Y0216358D01*
X0019704Y0216281D01*
X0019840Y0216202D01*
X0019975Y0216118D01*
X0020108Y0216032D01*
X0020238Y0215942D01*
X0020366Y0215849D01*
X0020492Y0215753D01*
X0020615Y0215653D01*
X0020736Y0215551D01*
X0020854Y0215446D01*
X0020969Y0215337D01*
X0021082Y0215226D01*
X0021192Y0215112D01*
X0021299Y0214995D01*
X0021403Y0214876D01*
X0021504Y0214754D01*
X0021601Y0214629D01*
X0021696Y0214502D01*
X0021787Y0214373D01*
X0021876Y0214242D01*
X0021960Y0214108D01*
X0022042Y0213972D01*
X0022120Y0213835D01*
X0022194Y0213695D01*
X0022265Y0213553D01*
X0022333Y0213410D01*
X0022397Y0213265D01*
X0022457Y0213119D01*
X0022513Y0212971D01*
X0022566Y0212822D01*
X0022615Y0212671D01*
X0022660Y0212519D01*
X0022701Y0212366D01*
X0022739Y0212213D01*
X0022772Y0212058D01*
X0022802Y0211902D01*
X0022828Y0211746D01*
X0022849Y0211589D01*
X0022867Y0211432D01*
X0022881Y0211274D01*
X0022891Y0211116D01*
X0022897Y0210958D01*
X0022899Y0210800D01*
X0022897Y0210642D01*
X0022891Y0210484D01*
X0022881Y0210326D01*
X0022867Y0210168D01*
X0022849Y0210011D01*
X0022828Y0209854D01*
X0022802Y0209698D01*
X0022772Y0209542D01*
X0022739Y0209387D01*
X0022701Y0209234D01*
X0022660Y0209081D01*
X0022615Y0208929D01*
X0022566Y0208778D01*
X0022513Y0208629D01*
X0022457Y0208481D01*
X0022397Y0208335D01*
X0022333Y0208190D01*
X0022265Y0208047D01*
X0022194Y0207905D01*
X0022120Y0207765D01*
X0022042Y0207628D01*
X0021960Y0207492D01*
X0021876Y0207358D01*
X0021787Y0207227D01*
X0021696Y0207098D01*
X0021601Y0206971D01*
X0021504Y0206846D01*
X0021403Y0206724D01*
X0021299Y0206605D01*
X0021192Y0206488D01*
X0021082Y0206374D01*
X0020969Y0206263D01*
X0020854Y0206154D01*
X0020736Y0206049D01*
X0020615Y0205947D01*
X0020492Y0205847D01*
X0020366Y0205751D01*
X0020238Y0205658D01*
X0020108Y0205568D01*
X0019975Y0205482D01*
X0019840Y0205398D01*
X0019704Y0205319D01*
X0019565Y0205242D01*
X0019424Y0205170D01*
X0019282Y0205100D01*
X0019138Y0205035D01*
X0018992Y0204973D01*
X0018845Y0204915D01*
X0018696Y0204860D01*
X0018546Y0204809D01*
X0018395Y0204762D01*
X0018243Y0204719D01*
X0018090Y0204680D01*
X0017935Y0204644D01*
X0017780Y0204613D01*
X0017624Y0204585D01*
X0017468Y0204561D01*
X0017311Y0204541D01*
X0017153Y0204525D01*
X0016996Y0204513D01*
X0016837Y0204505D01*
X0016679Y0204501D01*
X0016521Y0204501D01*
X0016363Y0204505D01*
X0016204Y0204513D01*
X0016047Y0204525D01*
X0015889Y0204541D01*
X0015732Y0204561D01*
X0015576Y0204585D01*
X0015420Y0204613D01*
X0015265Y0204644D01*
X0015110Y0204680D01*
X0014957Y0204719D01*
X0014805Y0204762D01*
X0014654Y0204809D01*
X0014504Y0204860D01*
X0014355Y0204915D01*
X0014208Y0204973D01*
X0014062Y0205035D01*
X0013918Y0205100D01*
X0013776Y0205170D01*
X0013635Y0205242D01*
X0013496Y0205319D01*
X0013360Y0205398D01*
X0013225Y0205482D01*
X0013092Y0205568D01*
X0012962Y0205658D01*
X0012834Y0205751D01*
X0012708Y0205847D01*
X0012585Y0205947D01*
X0012464Y0206049D01*
X0012346Y0206154D01*
X0012231Y0206263D01*
X0012118Y0206374D01*
X0012008Y0206488D01*
X0011901Y0206605D01*
X0011797Y0206724D01*
X0011696Y0206846D01*
X0011599Y0206971D01*
X0011504Y0207098D01*
X0011413Y0207227D01*
X0011324Y0207358D01*
X0011240Y0207492D01*
X0011158Y0207628D01*
X0011080Y0207765D01*
X0011006Y0207905D01*
X0010935Y0208047D01*
X0010867Y0208190D01*
X0010803Y0208335D01*
X0010743Y0208481D01*
X0010687Y0208629D01*
X0010634Y0208778D01*
X0010585Y0208929D01*
X0010540Y0209081D01*
X0010499Y0209234D01*
X0010461Y0209387D01*
X0010428Y0209542D01*
X0010398Y0209698D01*
X0010372Y0209854D01*
X0010351Y0210011D01*
X0010333Y0210168D01*
X0010319Y0210326D01*
X0010309Y0210484D01*
X0010303Y0210642D01*
X0010301Y0210800D01*
X0210301Y0150800D02*
X0210303Y0150958D01*
X0210309Y0151116D01*
X0210319Y0151274D01*
X0210333Y0151432D01*
X0210351Y0151589D01*
X0210372Y0151746D01*
X0210398Y0151902D01*
X0210428Y0152058D01*
X0210461Y0152213D01*
X0210499Y0152366D01*
X0210540Y0152519D01*
X0210585Y0152671D01*
X0210634Y0152822D01*
X0210687Y0152971D01*
X0210743Y0153119D01*
X0210803Y0153265D01*
X0210867Y0153410D01*
X0210935Y0153553D01*
X0211006Y0153695D01*
X0211080Y0153835D01*
X0211158Y0153972D01*
X0211240Y0154108D01*
X0211324Y0154242D01*
X0211413Y0154373D01*
X0211504Y0154502D01*
X0211599Y0154629D01*
X0211696Y0154754D01*
X0211797Y0154876D01*
X0211901Y0154995D01*
X0212008Y0155112D01*
X0212118Y0155226D01*
X0212231Y0155337D01*
X0212346Y0155446D01*
X0212464Y0155551D01*
X0212585Y0155653D01*
X0212708Y0155753D01*
X0212834Y0155849D01*
X0212962Y0155942D01*
X0213092Y0156032D01*
X0213225Y0156118D01*
X0213360Y0156202D01*
X0213496Y0156281D01*
X0213635Y0156358D01*
X0213776Y0156430D01*
X0213918Y0156500D01*
X0214062Y0156565D01*
X0214208Y0156627D01*
X0214355Y0156685D01*
X0214504Y0156740D01*
X0214654Y0156791D01*
X0214805Y0156838D01*
X0214957Y0156881D01*
X0215110Y0156920D01*
X0215265Y0156956D01*
X0215420Y0156987D01*
X0215576Y0157015D01*
X0215732Y0157039D01*
X0215889Y0157059D01*
X0216047Y0157075D01*
X0216204Y0157087D01*
X0216363Y0157095D01*
X0216521Y0157099D01*
X0216679Y0157099D01*
X0216837Y0157095D01*
X0216996Y0157087D01*
X0217153Y0157075D01*
X0217311Y0157059D01*
X0217468Y0157039D01*
X0217624Y0157015D01*
X0217780Y0156987D01*
X0217935Y0156956D01*
X0218090Y0156920D01*
X0218243Y0156881D01*
X0218395Y0156838D01*
X0218546Y0156791D01*
X0218696Y0156740D01*
X0218845Y0156685D01*
X0218992Y0156627D01*
X0219138Y0156565D01*
X0219282Y0156500D01*
X0219424Y0156430D01*
X0219565Y0156358D01*
X0219704Y0156281D01*
X0219840Y0156202D01*
X0219975Y0156118D01*
X0220108Y0156032D01*
X0220238Y0155942D01*
X0220366Y0155849D01*
X0220492Y0155753D01*
X0220615Y0155653D01*
X0220736Y0155551D01*
X0220854Y0155446D01*
X0220969Y0155337D01*
X0221082Y0155226D01*
X0221192Y0155112D01*
X0221299Y0154995D01*
X0221403Y0154876D01*
X0221504Y0154754D01*
X0221601Y0154629D01*
X0221696Y0154502D01*
X0221787Y0154373D01*
X0221876Y0154242D01*
X0221960Y0154108D01*
X0222042Y0153972D01*
X0222120Y0153835D01*
X0222194Y0153695D01*
X0222265Y0153553D01*
X0222333Y0153410D01*
X0222397Y0153265D01*
X0222457Y0153119D01*
X0222513Y0152971D01*
X0222566Y0152822D01*
X0222615Y0152671D01*
X0222660Y0152519D01*
X0222701Y0152366D01*
X0222739Y0152213D01*
X0222772Y0152058D01*
X0222802Y0151902D01*
X0222828Y0151746D01*
X0222849Y0151589D01*
X0222867Y0151432D01*
X0222881Y0151274D01*
X0222891Y0151116D01*
X0222897Y0150958D01*
X0222899Y0150800D01*
X0222897Y0150642D01*
X0222891Y0150484D01*
X0222881Y0150326D01*
X0222867Y0150168D01*
X0222849Y0150011D01*
X0222828Y0149854D01*
X0222802Y0149698D01*
X0222772Y0149542D01*
X0222739Y0149387D01*
X0222701Y0149234D01*
X0222660Y0149081D01*
X0222615Y0148929D01*
X0222566Y0148778D01*
X0222513Y0148629D01*
X0222457Y0148481D01*
X0222397Y0148335D01*
X0222333Y0148190D01*
X0222265Y0148047D01*
X0222194Y0147905D01*
X0222120Y0147765D01*
X0222042Y0147628D01*
X0221960Y0147492D01*
X0221876Y0147358D01*
X0221787Y0147227D01*
X0221696Y0147098D01*
X0221601Y0146971D01*
X0221504Y0146846D01*
X0221403Y0146724D01*
X0221299Y0146605D01*
X0221192Y0146488D01*
X0221082Y0146374D01*
X0220969Y0146263D01*
X0220854Y0146154D01*
X0220736Y0146049D01*
X0220615Y0145947D01*
X0220492Y0145847D01*
X0220366Y0145751D01*
X0220238Y0145658D01*
X0220108Y0145568D01*
X0219975Y0145482D01*
X0219840Y0145398D01*
X0219704Y0145319D01*
X0219565Y0145242D01*
X0219424Y0145170D01*
X0219282Y0145100D01*
X0219138Y0145035D01*
X0218992Y0144973D01*
X0218845Y0144915D01*
X0218696Y0144860D01*
X0218546Y0144809D01*
X0218395Y0144762D01*
X0218243Y0144719D01*
X0218090Y0144680D01*
X0217935Y0144644D01*
X0217780Y0144613D01*
X0217624Y0144585D01*
X0217468Y0144561D01*
X0217311Y0144541D01*
X0217153Y0144525D01*
X0216996Y0144513D01*
X0216837Y0144505D01*
X0216679Y0144501D01*
X0216521Y0144501D01*
X0216363Y0144505D01*
X0216204Y0144513D01*
X0216047Y0144525D01*
X0215889Y0144541D01*
X0215732Y0144561D01*
X0215576Y0144585D01*
X0215420Y0144613D01*
X0215265Y0144644D01*
X0215110Y0144680D01*
X0214957Y0144719D01*
X0214805Y0144762D01*
X0214654Y0144809D01*
X0214504Y0144860D01*
X0214355Y0144915D01*
X0214208Y0144973D01*
X0214062Y0145035D01*
X0213918Y0145100D01*
X0213776Y0145170D01*
X0213635Y0145242D01*
X0213496Y0145319D01*
X0213360Y0145398D01*
X0213225Y0145482D01*
X0213092Y0145568D01*
X0212962Y0145658D01*
X0212834Y0145751D01*
X0212708Y0145847D01*
X0212585Y0145947D01*
X0212464Y0146049D01*
X0212346Y0146154D01*
X0212231Y0146263D01*
X0212118Y0146374D01*
X0212008Y0146488D01*
X0211901Y0146605D01*
X0211797Y0146724D01*
X0211696Y0146846D01*
X0211599Y0146971D01*
X0211504Y0147098D01*
X0211413Y0147227D01*
X0211324Y0147358D01*
X0211240Y0147492D01*
X0211158Y0147628D01*
X0211080Y0147765D01*
X0211006Y0147905D01*
X0210935Y0148047D01*
X0210867Y0148190D01*
X0210803Y0148335D01*
X0210743Y0148481D01*
X0210687Y0148629D01*
X0210634Y0148778D01*
X0210585Y0148929D01*
X0210540Y0149081D01*
X0210499Y0149234D01*
X0210461Y0149387D01*
X0210428Y0149542D01*
X0210398Y0149698D01*
X0210372Y0149854D01*
X0210351Y0150011D01*
X0210333Y0150168D01*
X0210319Y0150326D01*
X0210309Y0150484D01*
X0210303Y0150642D01*
X0210301Y0150800D01*
X0210301Y0040800D02*
X0210303Y0040958D01*
X0210309Y0041116D01*
X0210319Y0041274D01*
X0210333Y0041432D01*
X0210351Y0041589D01*
X0210372Y0041746D01*
X0210398Y0041902D01*
X0210428Y0042058D01*
X0210461Y0042213D01*
X0210499Y0042366D01*
X0210540Y0042519D01*
X0210585Y0042671D01*
X0210634Y0042822D01*
X0210687Y0042971D01*
X0210743Y0043119D01*
X0210803Y0043265D01*
X0210867Y0043410D01*
X0210935Y0043553D01*
X0211006Y0043695D01*
X0211080Y0043835D01*
X0211158Y0043972D01*
X0211240Y0044108D01*
X0211324Y0044242D01*
X0211413Y0044373D01*
X0211504Y0044502D01*
X0211599Y0044629D01*
X0211696Y0044754D01*
X0211797Y0044876D01*
X0211901Y0044995D01*
X0212008Y0045112D01*
X0212118Y0045226D01*
X0212231Y0045337D01*
X0212346Y0045446D01*
X0212464Y0045551D01*
X0212585Y0045653D01*
X0212708Y0045753D01*
X0212834Y0045849D01*
X0212962Y0045942D01*
X0213092Y0046032D01*
X0213225Y0046118D01*
X0213360Y0046202D01*
X0213496Y0046281D01*
X0213635Y0046358D01*
X0213776Y0046430D01*
X0213918Y0046500D01*
X0214062Y0046565D01*
X0214208Y0046627D01*
X0214355Y0046685D01*
X0214504Y0046740D01*
X0214654Y0046791D01*
X0214805Y0046838D01*
X0214957Y0046881D01*
X0215110Y0046920D01*
X0215265Y0046956D01*
X0215420Y0046987D01*
X0215576Y0047015D01*
X0215732Y0047039D01*
X0215889Y0047059D01*
X0216047Y0047075D01*
X0216204Y0047087D01*
X0216363Y0047095D01*
X0216521Y0047099D01*
X0216679Y0047099D01*
X0216837Y0047095D01*
X0216996Y0047087D01*
X0217153Y0047075D01*
X0217311Y0047059D01*
X0217468Y0047039D01*
X0217624Y0047015D01*
X0217780Y0046987D01*
X0217935Y0046956D01*
X0218090Y0046920D01*
X0218243Y0046881D01*
X0218395Y0046838D01*
X0218546Y0046791D01*
X0218696Y0046740D01*
X0218845Y0046685D01*
X0218992Y0046627D01*
X0219138Y0046565D01*
X0219282Y0046500D01*
X0219424Y0046430D01*
X0219565Y0046358D01*
X0219704Y0046281D01*
X0219840Y0046202D01*
X0219975Y0046118D01*
X0220108Y0046032D01*
X0220238Y0045942D01*
X0220366Y0045849D01*
X0220492Y0045753D01*
X0220615Y0045653D01*
X0220736Y0045551D01*
X0220854Y0045446D01*
X0220969Y0045337D01*
X0221082Y0045226D01*
X0221192Y0045112D01*
X0221299Y0044995D01*
X0221403Y0044876D01*
X0221504Y0044754D01*
X0221601Y0044629D01*
X0221696Y0044502D01*
X0221787Y0044373D01*
X0221876Y0044242D01*
X0221960Y0044108D01*
X0222042Y0043972D01*
X0222120Y0043835D01*
X0222194Y0043695D01*
X0222265Y0043553D01*
X0222333Y0043410D01*
X0222397Y0043265D01*
X0222457Y0043119D01*
X0222513Y0042971D01*
X0222566Y0042822D01*
X0222615Y0042671D01*
X0222660Y0042519D01*
X0222701Y0042366D01*
X0222739Y0042213D01*
X0222772Y0042058D01*
X0222802Y0041902D01*
X0222828Y0041746D01*
X0222849Y0041589D01*
X0222867Y0041432D01*
X0222881Y0041274D01*
X0222891Y0041116D01*
X0222897Y0040958D01*
X0222899Y0040800D01*
X0222897Y0040642D01*
X0222891Y0040484D01*
X0222881Y0040326D01*
X0222867Y0040168D01*
X0222849Y0040011D01*
X0222828Y0039854D01*
X0222802Y0039698D01*
X0222772Y0039542D01*
X0222739Y0039387D01*
X0222701Y0039234D01*
X0222660Y0039081D01*
X0222615Y0038929D01*
X0222566Y0038778D01*
X0222513Y0038629D01*
X0222457Y0038481D01*
X0222397Y0038335D01*
X0222333Y0038190D01*
X0222265Y0038047D01*
X0222194Y0037905D01*
X0222120Y0037765D01*
X0222042Y0037628D01*
X0221960Y0037492D01*
X0221876Y0037358D01*
X0221787Y0037227D01*
X0221696Y0037098D01*
X0221601Y0036971D01*
X0221504Y0036846D01*
X0221403Y0036724D01*
X0221299Y0036605D01*
X0221192Y0036488D01*
X0221082Y0036374D01*
X0220969Y0036263D01*
X0220854Y0036154D01*
X0220736Y0036049D01*
X0220615Y0035947D01*
X0220492Y0035847D01*
X0220366Y0035751D01*
X0220238Y0035658D01*
X0220108Y0035568D01*
X0219975Y0035482D01*
X0219840Y0035398D01*
X0219704Y0035319D01*
X0219565Y0035242D01*
X0219424Y0035170D01*
X0219282Y0035100D01*
X0219138Y0035035D01*
X0218992Y0034973D01*
X0218845Y0034915D01*
X0218696Y0034860D01*
X0218546Y0034809D01*
X0218395Y0034762D01*
X0218243Y0034719D01*
X0218090Y0034680D01*
X0217935Y0034644D01*
X0217780Y0034613D01*
X0217624Y0034585D01*
X0217468Y0034561D01*
X0217311Y0034541D01*
X0217153Y0034525D01*
X0216996Y0034513D01*
X0216837Y0034505D01*
X0216679Y0034501D01*
X0216521Y0034501D01*
X0216363Y0034505D01*
X0216204Y0034513D01*
X0216047Y0034525D01*
X0215889Y0034541D01*
X0215732Y0034561D01*
X0215576Y0034585D01*
X0215420Y0034613D01*
X0215265Y0034644D01*
X0215110Y0034680D01*
X0214957Y0034719D01*
X0214805Y0034762D01*
X0214654Y0034809D01*
X0214504Y0034860D01*
X0214355Y0034915D01*
X0214208Y0034973D01*
X0214062Y0035035D01*
X0213918Y0035100D01*
X0213776Y0035170D01*
X0213635Y0035242D01*
X0213496Y0035319D01*
X0213360Y0035398D01*
X0213225Y0035482D01*
X0213092Y0035568D01*
X0212962Y0035658D01*
X0212834Y0035751D01*
X0212708Y0035847D01*
X0212585Y0035947D01*
X0212464Y0036049D01*
X0212346Y0036154D01*
X0212231Y0036263D01*
X0212118Y0036374D01*
X0212008Y0036488D01*
X0211901Y0036605D01*
X0211797Y0036724D01*
X0211696Y0036846D01*
X0211599Y0036971D01*
X0211504Y0037098D01*
X0211413Y0037227D01*
X0211324Y0037358D01*
X0211240Y0037492D01*
X0211158Y0037628D01*
X0211080Y0037765D01*
X0211006Y0037905D01*
X0210935Y0038047D01*
X0210867Y0038190D01*
X0210803Y0038335D01*
X0210743Y0038481D01*
X0210687Y0038629D01*
X0210634Y0038778D01*
X0210585Y0038929D01*
X0210540Y0039081D01*
X0210499Y0039234D01*
X0210461Y0039387D01*
X0210428Y0039542D01*
X0210398Y0039698D01*
X0210372Y0039854D01*
X0210351Y0040011D01*
X0210333Y0040168D01*
X0210319Y0040326D01*
X0210309Y0040484D01*
X0210303Y0040642D01*
X0210301Y0040800D01*
D12*
X0073500Y0157301D02*
X0069897Y0160904D01*
X0071698Y0160904D02*
X0071698Y0157301D01*
X0069897Y0157301D02*
X0073500Y0160904D01*
X0073500Y0159102D02*
X0069897Y0159102D01*
X0067423Y0160003D02*
X0067423Y0157301D01*
X0066522Y0156400D01*
X0063820Y0156400D01*
X0063820Y0160003D01*
X0061346Y0160003D02*
X0060445Y0160003D01*
X0060445Y0156400D01*
X0061346Y0156400D02*
X0059544Y0156400D01*
X0057294Y0156400D02*
X0057294Y0160003D01*
X0054592Y0160003D01*
X0053691Y0159102D01*
X0053691Y0156400D01*
X0051217Y0157301D02*
X0051217Y0159102D01*
X0050316Y0160003D01*
X0048515Y0160003D01*
X0047614Y0159102D01*
X0047614Y0157301D01*
X0048515Y0156400D01*
X0050316Y0156400D01*
X0051217Y0157301D01*
X0045140Y0159102D02*
X0041537Y0159102D01*
X0039063Y0160003D02*
X0039063Y0156400D01*
X0037261Y0156400D02*
X0037261Y0159102D01*
X0036360Y0160003D01*
X0035460Y0159102D01*
X0035460Y0156400D01*
X0032985Y0157301D02*
X0032985Y0159102D01*
X0032085Y0160003D01*
X0030283Y0160003D01*
X0029382Y0159102D01*
X0029382Y0157301D01*
X0030283Y0156400D01*
X0032085Y0156400D01*
X0032985Y0157301D01*
X0037261Y0159102D02*
X0038162Y0160003D01*
X0039063Y0160003D01*
X0026908Y0160003D02*
X0025107Y0160003D01*
X0026007Y0160904D02*
X0026007Y0157301D01*
X0025107Y0156400D01*
X0022857Y0157301D02*
X0022857Y0159102D01*
X0021956Y0160003D01*
X0020154Y0160003D01*
X0019254Y0159102D01*
X0019254Y0157301D01*
X0020154Y0156400D01*
X0021956Y0156400D01*
X0022857Y0157301D01*
X0016780Y0158202D02*
X0014978Y0160003D01*
X0014077Y0160003D01*
X0016780Y0160003D02*
X0016780Y0156400D01*
X0060445Y0161805D02*
X0060445Y0162705D01*
D13*
X0063458Y0153003D02*
X0063458Y0149600D01*
X0064592Y0149600D02*
X0062324Y0149600D01*
X0061616Y0147003D02*
X0060482Y0145869D01*
X0060482Y0143600D01*
X0059067Y0144167D02*
X0059067Y0145301D01*
X0058500Y0145869D01*
X0056799Y0145869D01*
X0056799Y0147003D02*
X0056799Y0143600D01*
X0058500Y0143600D01*
X0059067Y0144167D01*
X0060482Y0145301D02*
X0062751Y0145301D01*
X0062751Y0145869D02*
X0061616Y0147003D01*
X0062751Y0145869D02*
X0062751Y0143600D01*
X0067848Y0143600D02*
X0069550Y0143600D01*
X0070117Y0144167D01*
X0070117Y0145869D01*
X0071531Y0145301D02*
X0072099Y0145869D01*
X0073800Y0145869D01*
X0073800Y0147003D02*
X0073800Y0143600D01*
X0072099Y0143600D01*
X0071531Y0144167D01*
X0071531Y0145301D01*
X0068983Y0142466D02*
X0068415Y0142466D01*
X0067848Y0143033D01*
X0067848Y0145869D01*
X0068415Y0149600D02*
X0069550Y0149600D01*
X0070117Y0150167D01*
X0067848Y0152436D01*
X0067848Y0150167D01*
X0068415Y0149600D01*
X0070117Y0150167D02*
X0070117Y0152436D01*
X0069550Y0153003D01*
X0068415Y0153003D01*
X0067848Y0152436D01*
X0066434Y0150167D02*
X0065867Y0150167D01*
X0065867Y0149600D01*
X0066434Y0149600D01*
X0066434Y0150167D01*
X0064592Y0151869D02*
X0063458Y0153003D01*
X0057226Y0152436D02*
X0056659Y0153003D01*
X0055524Y0153003D01*
X0054957Y0152436D01*
X0054957Y0151869D01*
X0057226Y0149600D01*
X0054957Y0149600D01*
X0053543Y0150167D02*
X0053543Y0152436D01*
X0052976Y0153003D01*
X0051841Y0153003D01*
X0051274Y0152436D01*
X0053543Y0150167D01*
X0052976Y0149600D01*
X0051841Y0149600D01*
X0051274Y0150167D01*
X0051274Y0152436D01*
X0049860Y0151869D02*
X0048725Y0153003D01*
X0048725Y0149600D01*
X0047591Y0149600D02*
X0049860Y0149600D01*
X0049246Y0147003D02*
X0049246Y0143600D01*
X0046977Y0143600D01*
X0045563Y0143600D02*
X0044428Y0143600D01*
X0044995Y0143600D02*
X0044995Y0145869D01*
X0045563Y0145869D01*
X0044995Y0147003D02*
X0044995Y0147570D01*
X0044475Y0149600D02*
X0043908Y0150167D01*
X0043908Y0150734D01*
X0044475Y0151301D01*
X0046176Y0151301D01*
X0046176Y0150167D01*
X0045609Y0149600D01*
X0044475Y0149600D01*
X0042493Y0149600D02*
X0040225Y0153003D01*
X0038810Y0151869D02*
X0037676Y0153003D01*
X0037676Y0149600D01*
X0038810Y0149600D02*
X0036542Y0149600D01*
X0035127Y0149600D02*
X0032858Y0149600D01*
X0033993Y0149600D02*
X0033993Y0153003D01*
X0035127Y0151869D01*
X0031444Y0149600D02*
X0029175Y0153003D01*
X0027761Y0151869D02*
X0026626Y0153003D01*
X0026626Y0149600D01*
X0025492Y0149600D02*
X0027761Y0149600D01*
X0024078Y0149600D02*
X0021809Y0151869D01*
X0021809Y0152436D01*
X0022376Y0153003D01*
X0023510Y0153003D01*
X0024078Y0152436D01*
X0024078Y0149600D02*
X0021809Y0149600D01*
X0029789Y0145301D02*
X0029789Y0143600D01*
X0029789Y0145301D02*
X0030356Y0145869D01*
X0032058Y0145869D01*
X0032058Y0143600D01*
X0033472Y0144734D02*
X0035741Y0144734D01*
X0035741Y0144167D02*
X0035741Y0145301D01*
X0035174Y0145869D01*
X0034039Y0145869D01*
X0033472Y0145301D01*
X0033472Y0144734D01*
X0034039Y0143600D02*
X0035174Y0143600D01*
X0035741Y0144167D01*
X0037155Y0143600D02*
X0037155Y0147003D01*
X0037155Y0145869D02*
X0038857Y0145869D01*
X0039424Y0145301D01*
X0039424Y0144167D01*
X0038857Y0143600D01*
X0037155Y0143600D01*
X0040839Y0143600D02*
X0040839Y0145301D01*
X0041406Y0145869D01*
X0043107Y0145869D01*
X0043107Y0143600D01*
X0046176Y0151301D02*
X0045042Y0152436D01*
X0043908Y0153003D01*
X0054250Y0143600D02*
X0055384Y0143600D01*
X0054817Y0143600D02*
X0054817Y0145869D01*
X0055384Y0145869D01*
X0054817Y0147003D02*
X0054817Y0147570D01*
X0071531Y0151869D02*
X0072666Y0149600D01*
X0073800Y0151869D01*
M02*
